G04*
G04 #@! TF.GenerationSoftware,Altium Limited,Altium Designer,18.1.8 (232)*
G04*
G04 Layer_Color=8388736*
%FSLAX43Y43*%
%MOMM*%
G71*
G01*
G75*
%ADD26R,4.013X4.013*%
%ADD27R,1.688X1.103*%
%ADD28R,1.603X1.203*%
%ADD29R,1.503X1.703*%
%ADD30R,1.703X1.503*%
%ADD31R,0.803X1.653*%
%ADD32R,3.453X2.353*%
%ADD33R,1.203X2.353*%
%ADD34O,1.473X2.203*%
%ADD35P,2.168X8X22.5*%
%ADD36R,2.003X2.003*%
G04:AMPARAMS|DCode=37|XSize=2.003mm|YSize=2.003mm|CornerRadius=0mm|HoleSize=0mm|Usage=FLASHONLY|Rotation=0.000|XOffset=0mm|YOffset=0mm|HoleType=Round|Shape=RoundedRectangle|*
%AMROUNDEDRECTD37*
21,1,2.003,2.003,0,0,0.0*
21,1,2.003,2.003,0,0,0.0*
1,1,0.000,1.002,-1.002*
1,1,0.000,-1.002,-1.002*
1,1,0.000,-1.002,1.002*
1,1,0.000,1.002,1.002*
%
%ADD37ROUNDEDRECTD37*%
G04:AMPARAMS|DCode=38|XSize=2.003mm|YSize=2.003mm|CornerRadius=0mm|HoleSize=0mm|Usage=FLASHONLY|Rotation=90.000|XOffset=0mm|YOffset=0mm|HoleType=Round|Shape=RoundedRectangle|*
%AMROUNDEDRECTD38*
21,1,2.003,2.003,0,0,90.0*
21,1,2.003,2.003,0,0,90.0*
1,1,0.000,1.002,1.002*
1,1,0.000,1.002,-1.002*
1,1,0.000,-1.002,-1.002*
1,1,0.000,-1.002,1.002*
%
%ADD38ROUNDEDRECTD38*%
%ADD39P,2.168X8X112.5*%
%ADD40R,2.003X2.003*%
%ADD41C,1.703*%
%ADD42R,1.703X1.703*%
%ADD43C,1.727*%
%ADD44C,2.703*%
%ADD45R,2.703X2.703*%
%ADD46R,2.703X2.703*%
%ADD47C,1.003*%
%ADD48C,1.473*%
%ADD49C,0.903*%
D26*
X19418Y13740D02*
D03*
D27*
X11415Y7951D02*
D03*
Y9451D02*
D03*
Y10951D02*
D03*
Y12451D02*
D03*
Y13951D02*
D03*
Y15451D02*
D03*
Y16951D02*
D03*
Y18451D02*
D03*
Y19951D02*
D03*
X29200D02*
D03*
Y18451D02*
D03*
Y16951D02*
D03*
Y15451D02*
D03*
Y13951D02*
D03*
Y12451D02*
D03*
Y10951D02*
D03*
Y9451D02*
D03*
Y7951D02*
D03*
D28*
X7000Y17500D02*
D03*
Y10500D02*
D03*
D29*
X12740Y56120D02*
D03*
X10640D02*
D03*
X12740Y58650D02*
D03*
X10640D02*
D03*
X25580Y56120D02*
D03*
X27680D02*
D03*
X25580Y58650D02*
D03*
X27680D02*
D03*
X27580Y39747D02*
D03*
X25480D02*
D03*
X27580Y42284D02*
D03*
X25480D02*
D03*
X40450Y39750D02*
D03*
X42550D02*
D03*
X40450Y42284D02*
D03*
X42550D02*
D03*
X43360Y56120D02*
D03*
X41260D02*
D03*
X43360Y58650D02*
D03*
X41260D02*
D03*
X56220Y56120D02*
D03*
X58320D02*
D03*
X56220Y58650D02*
D03*
X58320D02*
D03*
X56650Y23180D02*
D03*
X54550D02*
D03*
X56653Y25490D02*
D03*
X54553D02*
D03*
X56650Y27800D02*
D03*
X54550D02*
D03*
X56650Y16250D02*
D03*
X54550D02*
D03*
X56650Y18560D02*
D03*
X54550D02*
D03*
X56650Y20870D02*
D03*
X54550D02*
D03*
X38050Y28700D02*
D03*
X40150D02*
D03*
X36650Y7372D02*
D03*
X38750D02*
D03*
X36650Y9781D02*
D03*
X38750D02*
D03*
D30*
X32700Y7908D02*
D03*
Y10008D02*
D03*
Y6150D02*
D03*
Y4050D02*
D03*
X49700Y14250D02*
D03*
Y12150D02*
D03*
X52200Y14250D02*
D03*
Y12150D02*
D03*
D31*
X48560Y26270D02*
D03*
X47290D02*
D03*
X46020D02*
D03*
X44750D02*
D03*
X43480D02*
D03*
X42210D02*
D03*
X40940D02*
D03*
X48560Y20820D02*
D03*
X47290D02*
D03*
X46020D02*
D03*
X44750D02*
D03*
X43480D02*
D03*
X42210D02*
D03*
X40940D02*
D03*
D32*
X44100Y12225D02*
D03*
D33*
X46400Y6375D02*
D03*
X44100D02*
D03*
X41800D02*
D03*
D34*
X16220Y33280D02*
D03*
X18760D02*
D03*
X21300D02*
D03*
X23840D02*
D03*
X26380D02*
D03*
X28920D02*
D03*
X31460D02*
D03*
X34000D02*
D03*
X36540D02*
D03*
X39080D02*
D03*
X41620D02*
D03*
X44160D02*
D03*
X16220Y48520D02*
D03*
X18760D02*
D03*
X21300D02*
D03*
X36540D02*
D03*
X39080D02*
D03*
X41620D02*
D03*
X44160D02*
D03*
X51780D02*
D03*
Y33280D02*
D03*
X49240D02*
D03*
X46700D02*
D03*
X49240Y48520D02*
D03*
X46700D02*
D03*
X23840D02*
D03*
X34000D02*
D03*
X31460D02*
D03*
X28920D02*
D03*
X26380D02*
D03*
D35*
X2000Y10950D02*
D03*
Y13490D02*
D03*
Y16030D02*
D03*
Y18570D02*
D03*
Y21110D02*
D03*
X9110Y35270D02*
D03*
Y32730D02*
D03*
X6570Y35270D02*
D03*
Y32730D02*
D03*
X4030Y35270D02*
D03*
Y32730D02*
D03*
X1490Y35270D02*
D03*
D36*
X2000Y23650D02*
D03*
D37*
X1490Y32730D02*
D03*
D38*
X36340Y14460D02*
D03*
D39*
X33800D02*
D03*
X36340Y17000D02*
D03*
X33800D02*
D03*
X36340Y19540D02*
D03*
X33800D02*
D03*
X36030Y2500D02*
D03*
X2000Y40750D02*
D03*
X46070Y2500D02*
D03*
D40*
X38570D02*
D03*
X4540Y40750D02*
D03*
X43530Y2500D02*
D03*
D41*
X15350Y61200D02*
D03*
Y58660D02*
D03*
Y56120D02*
D03*
Y53580D02*
D03*
X22970Y61200D02*
D03*
Y58660D02*
D03*
Y56120D02*
D03*
X30120Y44830D02*
D03*
Y42290D02*
D03*
Y39750D02*
D03*
Y37210D02*
D03*
X37740Y44830D02*
D03*
Y42290D02*
D03*
Y39750D02*
D03*
X45990Y61200D02*
D03*
Y58660D02*
D03*
Y56120D02*
D03*
Y53580D02*
D03*
X53610Y61200D02*
D03*
Y58660D02*
D03*
Y56120D02*
D03*
D42*
X22970Y53580D02*
D03*
X37740Y37210D02*
D03*
X53610Y53580D02*
D03*
D43*
X4000Y71000D02*
D03*
X66000D02*
D03*
Y4000D02*
D03*
X4000D02*
D03*
D44*
X11493Y69700D02*
D03*
X25490D02*
D03*
X5300Y47013D02*
D03*
X64719D02*
D03*
X39488Y69700D02*
D03*
X53485D02*
D03*
X65100Y19580D02*
D03*
Y24660D02*
D03*
Y29740D02*
D03*
Y34820D02*
D03*
Y39900D02*
D03*
X56607Y5300D02*
D03*
D45*
X16507Y69700D02*
D03*
X30505D02*
D03*
X44502D02*
D03*
X58500D02*
D03*
X65100Y14500D02*
D03*
X51593Y5300D02*
D03*
D46*
X5300Y52027D02*
D03*
X64719D02*
D03*
D47*
X35400Y7380D02*
D03*
X47990Y12300D02*
D03*
X52985Y27800D02*
D03*
X49900Y21700D02*
D03*
X56607Y12000D02*
D03*
X65395Y9949D02*
D03*
X54800Y1600D02*
D03*
X56653D02*
D03*
X58500D02*
D03*
X31000Y19940D02*
D03*
X8750Y17500D02*
D03*
X24900Y35118D02*
D03*
X54500Y30200D02*
D03*
X56607Y14100D02*
D03*
X55750Y37966D02*
D03*
X53300D02*
D03*
X55750Y40210D02*
D03*
X53300D02*
D03*
Y42440D02*
D03*
X55750D02*
D03*
X25054Y46700D02*
D03*
X5760Y24700D02*
D03*
X68100Y49830D02*
D03*
Y47416D02*
D03*
Y45002D02*
D03*
X63390Y64410D02*
D03*
X65730D02*
D03*
X68070D02*
D03*
X63210Y61860D02*
D03*
X65624D02*
D03*
X68038D02*
D03*
X49170Y65190D02*
D03*
Y67830D02*
D03*
Y70470D02*
D03*
Y73110D02*
D03*
X35110Y65190D02*
D03*
Y67830D02*
D03*
Y70470D02*
D03*
Y73110D02*
D03*
X21040Y65190D02*
D03*
Y67830D02*
D03*
Y70470D02*
D03*
Y73110D02*
D03*
X6318Y61870D02*
D03*
X3904D02*
D03*
X1490D02*
D03*
X6350Y64420D02*
D03*
X4010D02*
D03*
X1670D02*
D03*
X2020Y45660D02*
D03*
Y47325D02*
D03*
Y48990D02*
D03*
X13380Y31850D02*
D03*
X1510Y37280D02*
D03*
X1800Y26140D02*
D03*
X1860Y27800D02*
D03*
X42200Y8852D02*
D03*
X34700Y9710D02*
D03*
X32720Y2520D02*
D03*
X35678Y30100D02*
D03*
X48480Y22950D02*
D03*
X46020Y28200D02*
D03*
X43480D02*
D03*
X59390Y42000D02*
D03*
X56220Y51450D02*
D03*
X37460Y51710D02*
D03*
X29750D02*
D03*
X59900Y56120D02*
D03*
Y58650D02*
D03*
X39740Y56120D02*
D03*
Y58650D02*
D03*
X9130Y56120D02*
D03*
Y58650D02*
D03*
X29250Y56120D02*
D03*
Y58650D02*
D03*
X33000Y37310D02*
D03*
X34750Y36710D02*
D03*
X23960Y39747D02*
D03*
Y42284D02*
D03*
X44502Y39750D02*
D03*
X44230Y42284D02*
D03*
X52985Y16250D02*
D03*
Y18567D02*
D03*
Y20870D02*
D03*
Y23183D02*
D03*
Y25490D02*
D03*
X6560Y19940D02*
D03*
X7650Y22790D02*
D03*
X13400Y11250D02*
D03*
X9600Y19900D02*
D03*
X13280Y13900D02*
D03*
X8750Y10500D02*
D03*
X27350Y14800D02*
D03*
X27370Y16900D02*
D03*
D48*
X20400Y14657D02*
D03*
X18400D02*
D03*
X13580Y25880D02*
D03*
D49*
X27370Y19000D02*
D03*
M02*
