M48
;Layer_Color=9474304
;FILE_FORMAT=4:3
METRIC,LZ
;TYPE=PLATED
T1F00S00C0.500
T2F00S00C0.711
T3F00S00C0.800
T4F00S00C1.016
T5F00S00C1.270
;TYPE=NON_PLATED
T6F00S00C4.000
%
T01
X003272Y000252
X00548Y00016
X0056653
X00585
X0056607Y0012
Y00141
X0052985Y001625
Y0018567
Y002087
Y0023183
Y002549
Y00278
X00545Y00302
X00533Y0037966
Y004021
Y004244
X005575
Y004021
Y0037966
X005939Y0042
X004423Y0042284
X0044502Y003975
X004348Y00282
X004602
X004848Y002295
X00499Y00217
X004799Y00123
X00422Y0008852
X0065395Y0009949
X00347Y000971
X00354Y000738
X002735Y00148
X002737Y00169
X002737Y0019
X0031Y001994
X0035678Y00301
X003475Y003671
X0033Y003731
X00249Y0035118
X002396Y0039747
Y0042284
X001338Y003185
X000576Y00247
X000765Y002279
X000656Y001994
X00096Y00199
X000875Y00175
Y00105
X00134Y001125
X001328Y00139
X00018Y002614
X000186Y00278
X000151Y003728
X000202Y004566
Y0047325
Y004899
X000149Y006187
X0003904
X0006318
X000635Y006442
X000401
X000167
X000913Y005865
Y005612
X002925Y005612
Y005865
X002975Y005171
X003746
X003511Y006519
Y006783
Y007047
Y007311
X002104
Y007047
Y006783
Y006519
X0025054Y00467
X003974Y005612
Y005865
X004917Y006519
Y006783
Y007047
Y007311
X006339Y006441
X006573
X006807
X0068038Y006186
X0065624
X006321
X00599Y005865
Y005612
X005622Y005145
X00681Y004983
Y0047416
Y0045002
T02
X00184Y0014657
X00204
T03
X004162Y003328
X004416
X00467
X004924
X005178
X003908
X003654
X0034
X003146
X002892
X002638
X002384
X00213
X001876
X001622
X001358Y002588
X003012Y003721
Y003975
Y004229
X003774
Y003975
Y003721
Y004483
X003654Y004852
X003908
X0034
X003146
X002892
X002638
X002384
X00213
X001876
X001622
X001535Y005358
Y005612
Y005866
Y00612
X002297
Y005866
Y005612
Y005358
X003012Y004483
X004162Y004852
X004416
X00467
X004924
X005178
X005361Y005358
Y005612
Y005866
Y00612
X004599
Y005866
Y005612
Y005358
T04
X003603Y00025
X003857
X004353
X004607
X003634Y001446
X00338
Y0017
X003634
Y001954
X00338
X0002Y001857
Y001603
Y001349
Y001095
Y002111
Y002365
X000149Y003273
X000403
X000657
X000911
Y003527
X000657
X000403
X000149
X0002Y004075
X000454
T05
X0051593Y00053
X0056607
X00651Y00145
Y001958
Y002466
Y002974
Y003482
Y00399
X0030505Y00697
X002549
X0016507
X0011493
X00053Y0052027
Y0047013
X0039488Y00697
X0044502
X0053485
X00585
X0064719Y0052027
Y0047013
T06
X0004Y0004
X0066
X0004Y0071
X0066
M30
