G04*
G04 #@! TF.GenerationSoftware,Altium Limited,Altium Designer,18.1.8 (232)*
G04*
G04 Layer_Color=65535*
%FSLAX43Y43*%
%MOMM*%
G71*
G01*
G75*
%ADD10C,0.127*%
%ADD11C,0.200*%
%ADD12C,0.300*%
%ADD13C,0.250*%
%ADD14C,0.254*%
%ADD15C,0.406*%
%ADD16C,0.203*%
%ADD17C,0.152*%
G36*
X19984Y30321D02*
X20116D01*
Y30308D01*
X20090D01*
Y30295D01*
X20050D01*
Y30282D01*
X20023D01*
Y30269D01*
X19997D01*
Y30255D01*
X19971D01*
Y30242D01*
X19944D01*
Y30229D01*
X19918D01*
Y30216D01*
X19891D01*
Y30202D01*
X19865D01*
Y30189D01*
X19838D01*
Y30176D01*
X19812D01*
Y30163D01*
X19785D01*
Y30149D01*
X19772D01*
Y30136D01*
X19746D01*
Y30123D01*
X19719D01*
Y30110D01*
X19693D01*
Y30097D01*
X19666D01*
Y30083D01*
X19640D01*
Y30070D01*
X19627D01*
Y30057D01*
X19600D01*
Y30044D01*
X19574D01*
Y30030D01*
X19547D01*
Y30017D01*
X19534D01*
Y30004D01*
X19507D01*
Y29991D01*
X19481D01*
Y29977D01*
X19468D01*
Y29964D01*
X19441D01*
Y29951D01*
X19415D01*
Y29938D01*
X19402D01*
Y29925D01*
X19375D01*
Y29911D01*
X19362D01*
Y29898D01*
X19336D01*
Y29885D01*
X19322D01*
Y29872D01*
X19296D01*
Y29858D01*
X19283D01*
Y29845D01*
X19256D01*
Y29832D01*
X19243D01*
Y29819D01*
X19230D01*
Y29805D01*
X19203D01*
Y29819D01*
X19190D01*
Y29805D01*
X19203D01*
Y29792D01*
X19190D01*
Y29779D01*
X19177D01*
Y29766D01*
X19150D01*
Y29753D01*
X19137D01*
Y29739D01*
X19124D01*
Y29726D01*
X19111D01*
Y29713D01*
X19084D01*
Y29700D01*
X19071D01*
Y29686D01*
X19058D01*
Y29673D01*
X19044D01*
Y29660D01*
X19031D01*
Y29647D01*
X19018D01*
Y29633D01*
X19005D01*
Y29620D01*
X18992D01*
Y29607D01*
X18978D01*
Y29594D01*
X18965D01*
Y29581D01*
X18952D01*
Y29567D01*
X18939D01*
Y29554D01*
X18925D01*
Y29541D01*
X18912D01*
Y29528D01*
X18899D01*
Y29514D01*
X18886D01*
Y29501D01*
X18872D01*
Y29488D01*
Y29475D01*
X18859D01*
Y29462D01*
X18846D01*
Y29448D01*
X18833D01*
Y29435D01*
Y29422D01*
X18820D01*
Y29409D01*
X18806D01*
Y29395D01*
X18793D01*
Y29382D01*
Y29369D01*
Y29356D01*
X18780D01*
Y29342D01*
X18767D01*
Y29329D01*
Y29316D01*
Y29303D01*
X18753D01*
Y29290D01*
X18740D01*
Y29276D01*
Y29263D01*
Y29250D01*
Y29237D01*
X18727D01*
Y29223D01*
Y29210D01*
Y29197D01*
Y29184D01*
X18714D01*
Y29170D01*
Y29157D01*
Y29144D01*
Y29131D01*
Y29118D01*
Y29104D01*
Y29091D01*
Y29078D01*
Y29065D01*
Y29051D01*
Y29038D01*
Y29025D01*
Y29012D01*
Y28998D01*
X18727D01*
Y28985D01*
Y28972D01*
Y28959D01*
Y28946D01*
X18740D01*
Y28932D01*
Y28919D01*
Y28906D01*
X18753D01*
Y28893D01*
Y28879D01*
X18767D01*
Y28866D01*
Y28853D01*
X18780D01*
Y28840D01*
Y28826D01*
X18793D01*
Y28813D01*
X18806D01*
Y28800D01*
Y28787D01*
X18820D01*
Y28774D01*
X18833D01*
Y28760D01*
Y28747D01*
X18859D01*
Y28734D01*
Y28721D01*
X18872D01*
Y28707D01*
X18886D01*
Y28694D01*
X18899D01*
Y28681D01*
X18912D01*
Y28668D01*
X18939D01*
Y28654D01*
Y28641D01*
X18952D01*
Y28628D01*
X18965D01*
Y28615D01*
X18992D01*
Y28602D01*
Y28588D01*
X19018D01*
Y28575D01*
Y28562D01*
X19044D01*
Y28549D01*
X19058D01*
Y28535D01*
X19071D01*
Y28522D01*
X19084D01*
Y28509D01*
X19097D01*
Y28496D01*
X19111D01*
Y28482D01*
X19137D01*
Y28469D01*
Y28456D01*
X19164D01*
Y28443D01*
X19190D01*
Y28430D01*
X19203D01*
Y28416D01*
Y28403D01*
X19230D01*
Y28390D01*
X19243D01*
Y28377D01*
X19256D01*
Y28363D01*
X19269D01*
Y28350D01*
X19283D01*
Y28337D01*
X19296D01*
Y28324D01*
X19309D01*
Y28310D01*
X19322D01*
Y28297D01*
X19336D01*
Y28284D01*
X19349D01*
Y28271D01*
X19362D01*
Y28258D01*
X19375D01*
Y28244D01*
X19388D01*
Y28231D01*
X19402D01*
Y28218D01*
X19415D01*
Y28205D01*
X19428D01*
Y28191D01*
X19441D01*
Y28178D01*
X19455D01*
Y28165D01*
X19468D01*
Y28152D01*
X19481D01*
Y28139D01*
X19494D01*
Y28125D01*
X19507D01*
Y28112D01*
X19521D01*
Y28099D01*
Y28086D01*
Y28072D01*
X19547D01*
Y28059D01*
X19560D01*
Y28046D01*
X19574D01*
Y28033D01*
X19587D01*
Y28019D01*
X19600D01*
Y28006D01*
X19613D01*
Y27993D01*
X19627D01*
Y27980D01*
Y27967D01*
Y27953D01*
X19653D01*
Y27940D01*
X19666D01*
Y27927D01*
X19679D01*
Y27914D01*
X19693D01*
Y27900D01*
X19706D01*
Y27887D01*
Y27874D01*
Y27861D01*
X19732D01*
Y27847D01*
X19746D01*
Y27834D01*
X19759D01*
Y27821D01*
Y27808D01*
Y27795D01*
X19785D01*
Y27781D01*
X19799D01*
Y27768D01*
Y27755D01*
Y27742D01*
X19825D01*
Y27728D01*
X19838D01*
Y27715D01*
Y27702D01*
X19825D01*
Y27689D01*
X19865D01*
Y27675D01*
X19878D01*
Y27662D01*
Y27649D01*
Y27636D01*
X19904D01*
Y27623D01*
X19918D01*
Y27609D01*
Y27596D01*
Y27583D01*
X19944D01*
Y27570D01*
Y27556D01*
Y27543D01*
X19971D01*
Y27530D01*
Y27517D01*
Y27503D01*
X19997D01*
Y27490D01*
Y27477D01*
Y27464D01*
X20023D01*
Y27451D01*
Y27437D01*
Y27424D01*
X20037D01*
Y27411D01*
Y27398D01*
X20063D01*
Y27384D01*
Y27371D01*
Y27358D01*
X20076D01*
Y27345D01*
Y27331D01*
X20103D01*
Y27318D01*
Y27305D01*
Y27292D01*
X20129D01*
Y27279D01*
X20116D01*
Y27265D01*
X20143D01*
Y27252D01*
X20129D01*
Y27239D01*
X20156D01*
Y27226D01*
Y27212D01*
Y27199D01*
X20169D01*
Y27186D01*
Y27173D01*
X20195D01*
Y27159D01*
X20182D01*
Y27146D01*
X20195D01*
Y27133D01*
Y27120D01*
X20209D01*
Y27107D01*
Y27093D01*
X20222D01*
Y27080D01*
Y27067D01*
X20248D01*
Y27054D01*
X20235D01*
Y27040D01*
X20248D01*
Y27027D01*
Y27014D01*
X20262D01*
Y27001D01*
Y26987D01*
X20275D01*
Y26974D01*
Y26961D01*
Y26948D01*
X20288D01*
Y26935D01*
X20275D01*
Y26921D01*
X20315D01*
Y26908D01*
X20301D01*
Y26895D01*
X20315D01*
Y26882D01*
Y26868D01*
Y26855D01*
X20328D01*
Y26842D01*
Y26829D01*
X20354D01*
Y26815D01*
X20341D01*
Y26802D01*
Y26789D01*
X20367D01*
Y26776D01*
X20354D01*
Y26763D01*
Y26749D01*
X20381D01*
Y26736D01*
X20367D01*
Y26723D01*
X20381D01*
Y26710D01*
Y26696D01*
Y26683D01*
X20394D01*
Y26670D01*
Y26657D01*
Y26643D01*
X20407D01*
Y26630D01*
Y26617D01*
Y26604D01*
X20420D01*
Y26591D01*
Y26577D01*
Y26564D01*
X20434D01*
Y26551D01*
Y26538D01*
Y26524D01*
X20447D01*
Y26511D01*
Y26498D01*
Y26485D01*
Y26472D01*
Y26458D01*
X20460D01*
Y26445D01*
Y26432D01*
Y26419D01*
X20473D01*
Y26405D01*
Y26392D01*
Y26379D01*
Y26366D01*
X20500D01*
Y26352D01*
X20487D01*
Y26339D01*
Y26326D01*
Y26313D01*
X20500D01*
Y26300D01*
Y26286D01*
Y26273D01*
Y26260D01*
X20513D01*
Y26247D01*
Y26233D01*
Y26220D01*
Y26207D01*
Y26194D01*
Y26180D01*
X20526D01*
Y26167D01*
Y26154D01*
Y26141D01*
Y26128D01*
Y26114D01*
Y26101D01*
Y26088D01*
Y26075D01*
X20539D01*
Y26061D01*
Y26048D01*
Y26035D01*
Y26022D01*
Y26008D01*
Y25995D01*
Y25982D01*
Y25969D01*
Y25956D01*
Y25942D01*
Y25929D01*
X20553D01*
Y25916D01*
Y25903D01*
Y25889D01*
Y25876D01*
Y25863D01*
Y25850D01*
Y25836D01*
Y25823D01*
Y25810D01*
Y25797D01*
Y25784D01*
Y25770D01*
Y25757D01*
Y25744D01*
Y25731D01*
Y25717D01*
Y25704D01*
Y25691D01*
Y25678D01*
Y25664D01*
Y25651D01*
Y25638D01*
Y25625D01*
Y25612D01*
X20539D01*
Y25598D01*
Y25585D01*
Y25572D01*
Y25559D01*
Y25545D01*
Y25532D01*
Y25519D01*
Y25506D01*
Y25492D01*
Y25479D01*
Y25466D01*
X20526D01*
Y25479D01*
X20513D01*
Y25466D01*
X20526D01*
Y25453D01*
Y25440D01*
Y25426D01*
Y25413D01*
Y25400D01*
Y25387D01*
Y25373D01*
X20513D01*
Y25360D01*
Y25347D01*
Y25334D01*
Y25320D01*
Y25307D01*
Y25294D01*
X20500D01*
Y25281D01*
Y25268D01*
Y25254D01*
Y25241D01*
Y25228D01*
X20487D01*
Y25215D01*
Y25201D01*
Y25188D01*
Y25175D01*
X20473D01*
Y25162D01*
Y25149D01*
Y25135D01*
Y25122D01*
X20460D01*
Y25109D01*
Y25096D01*
Y25082D01*
X20434D01*
Y25096D01*
X20420D01*
Y25109D01*
X20407D01*
Y25096D01*
X20420D01*
Y25082D01*
X20434D01*
Y25069D01*
X20447D01*
Y25056D01*
Y25043D01*
Y25029D01*
X20434D01*
Y25016D01*
Y25003D01*
Y24990D01*
X20420D01*
Y25003D01*
X20407D01*
Y24990D01*
X20420D01*
Y24977D01*
Y24963D01*
Y24950D01*
X20407D01*
Y24937D01*
Y24924D01*
Y24910D01*
X20394D01*
Y24924D01*
X20381D01*
Y24910D01*
X20394D01*
Y24897D01*
Y24884D01*
X20381D01*
Y24871D01*
Y24857D01*
Y24844D01*
X20367D01*
Y24831D01*
Y24818D01*
X20354D01*
Y24805D01*
Y24791D01*
X20341D01*
Y24778D01*
Y24765D01*
Y24752D01*
X20328D01*
Y24738D01*
Y24725D01*
X20315D01*
Y24712D01*
Y24699D01*
X20301D01*
Y24685D01*
Y24672D01*
X20288D01*
Y24659D01*
Y24646D01*
X20275D01*
Y24633D01*
Y24619D01*
X20262D01*
Y24633D01*
X20248D01*
Y24619D01*
X20262D01*
Y24606D01*
Y24593D01*
X20248D01*
Y24580D01*
Y24566D01*
Y24553D01*
X20222D01*
Y24540D01*
Y24527D01*
X20209D01*
Y24513D01*
Y24500D01*
X20195D01*
Y24487D01*
Y24474D01*
Y24461D01*
X20169D01*
Y24447D01*
Y24434D01*
Y24421D01*
X20143D01*
Y24408D01*
Y24394D01*
X20129D01*
Y24381D01*
Y24368D01*
X20116D01*
Y24355D01*
Y24341D01*
X20090D01*
Y24328D01*
Y24315D01*
Y24302D01*
X20063D01*
Y24289D01*
Y24275D01*
X20050D01*
Y24262D01*
X20037D01*
Y24249D01*
Y24236D01*
X20010D01*
Y24222D01*
Y24209D01*
X19997D01*
Y24196D01*
Y24183D01*
X19984D01*
Y24169D01*
X19971D01*
Y24156D01*
X19944D01*
Y24143D01*
Y24130D01*
X19931D01*
Y24117D01*
X19918D01*
Y24130D01*
X19904D01*
Y24117D01*
X19918D01*
Y24103D01*
Y24090D01*
X19891D01*
Y24103D01*
X19878D01*
Y24090D01*
X19891D01*
Y24077D01*
X19878D01*
Y24064D01*
Y24050D01*
X19851D01*
Y24037D01*
X19838D01*
Y24024D01*
X19825D01*
Y24011D01*
X19812D01*
Y24024D01*
X19799D01*
Y24011D01*
X19812D01*
Y23997D01*
X19799D01*
Y24011D01*
X19785D01*
Y23997D01*
X19799D01*
Y23984D01*
X19785D01*
Y23997D01*
X19772D01*
Y23984D01*
X19785D01*
Y23971D01*
X19772D01*
Y23958D01*
X19759D01*
Y23971D01*
X19746D01*
Y23958D01*
X19759D01*
Y23945D01*
X19746D01*
Y23931D01*
X19732D01*
Y23918D01*
X19719D01*
Y23905D01*
X19706D01*
Y23918D01*
X19693D01*
Y23905D01*
X19706D01*
Y23892D01*
X19693D01*
Y23878D01*
X19679D01*
Y23892D01*
X19666D01*
Y23878D01*
X19679D01*
Y23865D01*
X19666D01*
Y23852D01*
X19653D01*
Y23839D01*
X19627D01*
Y23826D01*
X19613D01*
Y23812D01*
X19587D01*
Y23826D01*
X19574D01*
Y23812D01*
X19587D01*
Y23799D01*
X19574D01*
Y23786D01*
X19560D01*
Y23773D01*
X19547D01*
Y23759D01*
X19521D01*
Y23746D01*
X19507D01*
Y23733D01*
X19494D01*
Y23720D01*
X19468D01*
Y23706D01*
X19455D01*
Y23693D01*
X19428D01*
Y23680D01*
X19415D01*
Y23667D01*
X19388D01*
Y23654D01*
X19375D01*
Y23640D01*
X19349D01*
Y23627D01*
X19322D01*
Y23614D01*
X19309D01*
Y23601D01*
X19283D01*
Y23587D01*
X19256D01*
Y23574D01*
X19230D01*
Y23561D01*
X19203D01*
Y23574D01*
X19190D01*
Y23587D01*
X19177D01*
Y23601D01*
X19164D01*
Y23587D01*
X19177D01*
Y23574D01*
X19190D01*
Y23561D01*
X19203D01*
Y23548D01*
X19177D01*
Y23534D01*
X19150D01*
Y23521D01*
X19137D01*
Y23508D01*
X19097D01*
Y23495D01*
X19071D01*
Y23482D01*
X19044D01*
Y23468D01*
X19018D01*
Y23455D01*
X18978D01*
Y23442D01*
X18952D01*
Y23429D01*
X18912D01*
Y23415D01*
X18886D01*
Y23402D01*
X18846D01*
Y23389D01*
X18793D01*
Y23376D01*
X18753D01*
Y23362D01*
X18714D01*
Y23349D01*
X18674D01*
Y23336D01*
X18608D01*
Y23323D01*
X18555D01*
Y23310D01*
X18502D01*
Y23296D01*
X18462D01*
Y23283D01*
X18423D01*
Y23270D01*
X18396D01*
Y23257D01*
X18383D01*
Y23243D01*
X18370D01*
Y23230D01*
X18356D01*
Y23217D01*
X18343D01*
Y23204D01*
Y23190D01*
X18330D01*
Y23177D01*
Y23164D01*
X18317D01*
Y23151D01*
Y23138D01*
Y23124D01*
Y23111D01*
X18304D01*
Y23098D01*
Y23085D01*
Y23071D01*
Y23058D01*
X18290D01*
Y23045D01*
Y23032D01*
Y23018D01*
Y23005D01*
X18277D01*
Y22992D01*
Y22979D01*
Y22966D01*
Y22952D01*
Y22939D01*
X18264D01*
Y22926D01*
Y22913D01*
Y22899D01*
Y22886D01*
Y22873D01*
X18251D01*
Y22886D01*
X18237D01*
Y22873D01*
X18251D01*
Y22860D01*
Y22846D01*
Y22833D01*
Y22820D01*
Y22807D01*
Y22794D01*
X18237D01*
Y22780D01*
Y22767D01*
Y22754D01*
Y22741D01*
Y22727D01*
X18224D01*
Y22714D01*
Y22701D01*
Y22688D01*
Y22674D01*
Y22661D01*
Y22648D01*
Y22635D01*
X18211D01*
Y22622D01*
Y22608D01*
Y22595D01*
Y22582D01*
Y22569D01*
X18198D01*
Y22555D01*
Y22542D01*
Y22529D01*
Y22516D01*
Y22502D01*
Y22489D01*
X18184D01*
Y22476D01*
Y22463D01*
Y22450D01*
Y22436D01*
Y22423D01*
X18171D01*
Y22410D01*
Y22397D01*
Y22383D01*
Y22370D01*
Y22357D01*
Y22344D01*
X18158D01*
Y22330D01*
Y22317D01*
Y22304D01*
X18145D01*
Y22291D01*
Y22278D01*
X18132D01*
Y22264D01*
X18118D01*
Y22251D01*
X18105D01*
Y22238D01*
X18065D01*
Y22225D01*
X18026D01*
Y22238D01*
X17986D01*
Y22251D01*
X17973D01*
Y22264D01*
X17960D01*
Y22278D01*
X17946D01*
Y22291D01*
Y22304D01*
X17933D01*
Y22317D01*
Y22330D01*
Y22344D01*
Y22357D01*
X17920D01*
Y22370D01*
Y22383D01*
Y22397D01*
Y22410D01*
Y22423D01*
Y22436D01*
X17907D01*
Y22450D01*
Y22463D01*
Y22476D01*
Y22489D01*
Y22502D01*
X17893D01*
Y22516D01*
Y22529D01*
Y22542D01*
Y22555D01*
Y22569D01*
Y22582D01*
X17880D01*
Y22595D01*
Y22608D01*
Y22622D01*
Y22635D01*
Y22648D01*
Y22661D01*
X17867D01*
Y22674D01*
Y22688D01*
Y22701D01*
Y22714D01*
Y22727D01*
Y22741D01*
X17854D01*
Y22754D01*
Y22767D01*
Y22780D01*
Y22794D01*
Y22807D01*
Y22820D01*
X17841D01*
Y22833D01*
Y22846D01*
Y22860D01*
Y22873D01*
Y22886D01*
X17827D01*
Y22899D01*
Y22913D01*
Y22926D01*
Y22939D01*
Y22952D01*
X17814D01*
Y22966D01*
Y22979D01*
Y22992D01*
Y23005D01*
Y23018D01*
X17801D01*
Y23032D01*
Y23045D01*
Y23058D01*
Y23071D01*
X17788D01*
Y23085D01*
Y23098D01*
Y23111D01*
X17801D01*
Y23124D01*
X17774D01*
Y23138D01*
Y23151D01*
Y23164D01*
X17761D01*
Y23177D01*
Y23190D01*
Y23204D01*
X17748D01*
Y23217D01*
Y23230D01*
X17735D01*
Y23243D01*
X17708D01*
Y23257D01*
X17695D01*
Y23270D01*
X17669D01*
Y23283D01*
X17629D01*
Y23296D01*
X17589D01*
Y23310D01*
X17536D01*
Y23323D01*
X17483D01*
Y23336D01*
X17430D01*
Y23349D01*
X17391D01*
Y23362D01*
X17338D01*
Y23376D01*
X17298D01*
Y23389D01*
X17258D01*
Y23402D01*
X17219D01*
Y23415D01*
X17179D01*
Y23429D01*
X17153D01*
Y23442D01*
X17113D01*
Y23455D01*
X17086D01*
Y23468D01*
X17060D01*
Y23482D01*
X17047D01*
Y23495D01*
X17007D01*
Y23508D01*
X16981D01*
Y23521D01*
X16954D01*
Y23534D01*
X16928D01*
Y23548D01*
X16901D01*
Y23561D01*
X16875D01*
Y23574D01*
X16861D01*
Y23587D01*
X16835D01*
Y23601D01*
X16809D01*
Y23614D01*
X16782D01*
Y23627D01*
X16769D01*
Y23640D01*
X16742D01*
Y23654D01*
X16729D01*
Y23667D01*
X16703D01*
Y23680D01*
X16676D01*
Y23693D01*
X16663D01*
Y23706D01*
X16650D01*
Y23720D01*
X16623D01*
Y23733D01*
X16610D01*
Y23746D01*
X16584D01*
Y23759D01*
X16570D01*
Y23773D01*
X16557D01*
Y23786D01*
X16531D01*
Y23799D01*
X16518D01*
Y23812D01*
X16504D01*
Y23826D01*
X16491D01*
Y23839D01*
X16465D01*
Y23852D01*
X16451D01*
Y23865D01*
X16438D01*
Y23878D01*
X16425D01*
Y23892D01*
X16412D01*
Y23905D01*
X16398D01*
Y23918D01*
X16385D01*
Y23931D01*
X16372D01*
Y23945D01*
X16359D01*
Y23958D01*
X16332D01*
Y23971D01*
X16319D01*
Y23984D01*
X16306D01*
Y23997D01*
X16293D01*
Y24011D01*
X16279D01*
Y24024D01*
X16266D01*
Y24037D01*
X16253D01*
Y24050D01*
Y24064D01*
X16240D01*
Y24077D01*
X16213D01*
Y24090D01*
Y24103D01*
X16187D01*
Y24117D01*
Y24130D01*
X16174D01*
Y24143D01*
X16160D01*
Y24156D01*
X16147D01*
Y24169D01*
X16134D01*
Y24183D01*
Y24196D01*
X16107D01*
Y24209D01*
X16094D01*
Y24222D01*
Y24236D01*
X16081D01*
Y24249D01*
Y24262D01*
X16054D01*
Y24275D01*
Y24289D01*
X16041D01*
Y24302D01*
Y24315D01*
X16015D01*
Y24328D01*
Y24341D01*
Y24355D01*
X15988D01*
Y24368D01*
Y24381D01*
X15975D01*
Y24394D01*
Y24408D01*
X15949D01*
Y24421D01*
X15935D01*
Y24434D01*
Y24447D01*
Y24461D01*
X15909D01*
Y24474D01*
Y24487D01*
Y24500D01*
X15882D01*
Y24513D01*
Y24527D01*
Y24540D01*
X15869D01*
Y24553D01*
X15856D01*
Y24566D01*
Y24580D01*
X15843D01*
Y24593D01*
Y24606D01*
X15830D01*
Y24619D01*
X15816D01*
Y24633D01*
Y24646D01*
X15803D01*
Y24659D01*
Y24672D01*
X15790D01*
Y24685D01*
Y24699D01*
X15763D01*
Y24712D01*
Y24725D01*
Y24738D01*
X15750D01*
Y24752D01*
Y24765D01*
X15737D01*
Y24778D01*
Y24791D01*
X15724D01*
Y24805D01*
Y24818D01*
X15710D01*
Y24831D01*
Y24844D01*
X15697D01*
Y24857D01*
Y24871D01*
X15684D01*
Y24884D01*
Y24897D01*
X15671D01*
Y24910D01*
X15684D01*
Y24924D01*
X15658D01*
Y24937D01*
Y24950D01*
X15644D01*
Y24963D01*
Y24977D01*
X15618D01*
Y24990D01*
X15631D01*
Y25003D01*
X15618D01*
Y25016D01*
Y25029D01*
X15605D01*
Y25043D01*
Y25056D01*
X15591D01*
Y25069D01*
Y25082D01*
X15578D01*
Y25096D01*
Y25109D01*
Y25122D01*
X15565D01*
Y25135D01*
Y25149D01*
Y25162D01*
X15552D01*
Y25175D01*
Y25188D01*
X15538D01*
Y25201D01*
Y25215D01*
X15525D01*
Y25228D01*
Y25241D01*
Y25254D01*
X15512D01*
Y25268D01*
Y25281D01*
Y25294D01*
X15499D01*
Y25307D01*
Y25320D01*
Y25334D01*
X15486D01*
Y25347D01*
Y25360D01*
Y25373D01*
X15472D01*
Y25387D01*
Y25400D01*
Y25413D01*
X15459D01*
Y25426D01*
Y25440D01*
Y25453D01*
X15446D01*
Y25466D01*
Y25479D01*
Y25492D01*
Y25506D01*
X15433D01*
Y25519D01*
Y25532D01*
Y25545D01*
X15419D01*
Y25559D01*
Y25572D01*
Y25585D01*
Y25598D01*
X15406D01*
Y25612D01*
Y25625D01*
Y25638D01*
Y25651D01*
X15393D01*
Y25664D01*
Y25678D01*
Y25691D01*
Y25704D01*
Y25717D01*
X15380D01*
Y25731D01*
Y25744D01*
Y25757D01*
Y25770D01*
Y25784D01*
X15366D01*
Y25797D01*
Y25810D01*
Y25823D01*
Y25836D01*
Y25850D01*
X15353D01*
Y25863D01*
Y25876D01*
Y25889D01*
Y25903D01*
Y25916D01*
Y25929D01*
X15340D01*
Y25942D01*
Y25956D01*
Y25969D01*
Y25982D01*
Y25995D01*
Y26008D01*
Y26022D01*
X15327D01*
Y26035D01*
Y26048D01*
Y26061D01*
Y26075D01*
Y26088D01*
Y26101D01*
Y26114D01*
Y26128D01*
Y26141D01*
Y26154D01*
X15314D01*
Y26167D01*
Y26180D01*
Y26194D01*
Y26207D01*
Y26220D01*
Y26233D01*
Y26247D01*
Y26260D01*
Y26273D01*
Y26286D01*
Y26300D01*
Y26313D01*
Y26326D01*
Y26339D01*
X15300D01*
Y26352D01*
Y26366D01*
Y26379D01*
Y26392D01*
Y26405D01*
Y26419D01*
Y26432D01*
Y26445D01*
Y26458D01*
Y26472D01*
Y26485D01*
Y26498D01*
Y26511D01*
Y26524D01*
Y26538D01*
Y26551D01*
Y26564D01*
Y26577D01*
Y26591D01*
Y26604D01*
Y26617D01*
Y26630D01*
Y26643D01*
X15314D01*
Y26657D01*
Y26670D01*
Y26683D01*
Y26696D01*
Y26710D01*
Y26723D01*
Y26736D01*
Y26749D01*
Y26763D01*
Y26776D01*
Y26789D01*
Y26802D01*
Y26815D01*
Y26829D01*
X15327D01*
Y26815D01*
X15340D01*
Y26829D01*
X15327D01*
Y26842D01*
Y26855D01*
Y26868D01*
Y26882D01*
Y26895D01*
Y26908D01*
Y26921D01*
Y26935D01*
Y26948D01*
X15340D01*
Y26961D01*
Y26974D01*
Y26987D01*
Y27001D01*
Y27014D01*
Y27027D01*
Y27040D01*
Y27054D01*
X15353D01*
Y27067D01*
Y27080D01*
Y27093D01*
Y27107D01*
Y27120D01*
Y27133D01*
X15366D01*
Y27146D01*
Y27159D01*
Y27173D01*
Y27186D01*
Y27199D01*
X15380D01*
Y27186D01*
X15393D01*
Y27199D01*
X15380D01*
Y27212D01*
Y27226D01*
Y27239D01*
Y27252D01*
Y27265D01*
X15393D01*
Y27279D01*
Y27292D01*
Y27305D01*
Y27318D01*
Y27331D01*
X15406D01*
Y27345D01*
Y27358D01*
Y27371D01*
Y27384D01*
X15419D01*
Y27398D01*
Y27411D01*
Y27424D01*
Y27437D01*
X15433D01*
Y27451D01*
Y27464D01*
Y27477D01*
X15446D01*
Y27490D01*
Y27503D01*
Y27517D01*
Y27530D01*
X15459D01*
Y27543D01*
Y27556D01*
Y27570D01*
X15472D01*
Y27583D01*
Y27596D01*
Y27609D01*
Y27623D01*
X15486D01*
Y27636D01*
Y27649D01*
Y27662D01*
X15499D01*
Y27675D01*
Y27689D01*
Y27702D01*
X15512D01*
Y27715D01*
Y27728D01*
Y27742D01*
X15525D01*
Y27755D01*
Y27768D01*
X15538D01*
Y27781D01*
Y27795D01*
Y27808D01*
X15552D01*
Y27821D01*
Y27834D01*
Y27847D01*
X15565D01*
Y27861D01*
Y27874D01*
X15578D01*
Y27887D01*
Y27900D01*
Y27914D01*
X15591D01*
Y27900D01*
X15605D01*
Y27914D01*
X15591D01*
Y27927D01*
Y27940D01*
X15605D01*
Y27953D01*
Y27967D01*
X15618D01*
Y27980D01*
Y27993D01*
Y28006D01*
X15631D01*
Y28019D01*
Y28033D01*
X15644D01*
Y28046D01*
Y28059D01*
X15658D01*
Y28072D01*
Y28086D01*
X15671D01*
Y28099D01*
Y28112D01*
X15684D01*
Y28125D01*
Y28139D01*
X15697D01*
Y28152D01*
Y28165D01*
Y28178D01*
Y28191D01*
X15724D01*
Y28205D01*
Y28218D01*
X15737D01*
Y28231D01*
Y28244D01*
X15750D01*
Y28258D01*
Y28271D01*
X15763D01*
Y28284D01*
Y28297D01*
X15777D01*
Y28310D01*
Y28324D01*
X15790D01*
Y28337D01*
X15803D01*
Y28350D01*
Y28363D01*
X15816D01*
Y28377D01*
Y28390D01*
X15830D01*
Y28403D01*
Y28416D01*
Y28430D01*
X15856D01*
Y28443D01*
Y28456D01*
X15869D01*
Y28469D01*
X15882D01*
Y28456D01*
X15896D01*
Y28469D01*
X15882D01*
Y28482D01*
Y28496D01*
Y28509D01*
X15909D01*
Y28522D01*
Y28535D01*
X15922D01*
Y28549D01*
X15935D01*
Y28562D01*
Y28575D01*
Y28588D01*
X15962D01*
Y28602D01*
Y28615D01*
X15975D01*
Y28628D01*
X15988D01*
Y28615D01*
X16002D01*
Y28628D01*
X15988D01*
Y28641D01*
Y28654D01*
Y28668D01*
X16015D01*
Y28681D01*
X16028D01*
Y28694D01*
Y28707D01*
X16041D01*
Y28721D01*
X16054D01*
Y28734D01*
X16068D01*
Y28747D01*
Y28760D01*
X16081D01*
Y28774D01*
X16094D01*
Y28787D01*
Y28800D01*
X16121D01*
Y28813D01*
Y28826D01*
X16134D01*
Y28840D01*
X16147D01*
Y28853D01*
X16160D01*
Y28866D01*
X16174D01*
Y28853D01*
X16187D01*
Y28840D01*
X16200D01*
Y28826D01*
X16213D01*
Y28840D01*
X16200D01*
Y28853D01*
X16187D01*
Y28866D01*
X16174D01*
Y28879D01*
X16187D01*
Y28893D01*
X16200D01*
Y28879D01*
X16213D01*
Y28893D01*
X16200D01*
Y28906D01*
Y28919D01*
X16213D01*
Y28932D01*
X16226D01*
Y28946D01*
X16240D01*
Y28959D01*
X16253D01*
Y28972D01*
X16266D01*
Y28985D01*
X16279D01*
Y28998D01*
X16293D01*
Y29012D01*
X16306D01*
Y29025D01*
X16319D01*
Y29038D01*
X16332D01*
Y29051D01*
X16346D01*
Y29065D01*
X16359D01*
Y29078D01*
X16372D01*
Y29091D01*
X16385D01*
Y29104D01*
X16398D01*
Y29118D01*
X16412D01*
Y29131D01*
X16425D01*
Y29144D01*
X16438D01*
Y29157D01*
X16451D01*
Y29170D01*
X16465D01*
Y29184D01*
X16478D01*
Y29197D01*
X16491D01*
Y29210D01*
X16504D01*
Y29223D01*
X16518D01*
Y29237D01*
X16531D01*
Y29250D01*
X16557D01*
Y29263D01*
X16570D01*
Y29250D01*
X16584D01*
Y29263D01*
X16570D01*
Y29276D01*
X16584D01*
Y29290D01*
X16597D01*
Y29276D01*
X16610D01*
Y29290D01*
X16597D01*
Y29303D01*
X16610D01*
Y29316D01*
X16623D01*
Y29329D01*
X16650D01*
Y29342D01*
X16663D01*
Y29356D01*
X16676D01*
Y29369D01*
X16690D01*
Y29382D01*
X16716D01*
Y29395D01*
X16729D01*
Y29409D01*
X16742D01*
Y29422D01*
X16769D01*
Y29435D01*
X16782D01*
Y29448D01*
X16795D01*
Y29462D01*
X16822D01*
Y29448D01*
X16835D01*
Y29435D01*
X16848D01*
Y29448D01*
X16835D01*
Y29462D01*
X16822D01*
Y29475D01*
X16835D01*
Y29462D01*
X16848D01*
Y29475D01*
X16835D01*
Y29488D01*
X16848D01*
Y29501D01*
X16875D01*
Y29514D01*
X16901D01*
Y29528D01*
X16914D01*
Y29541D01*
X16928D01*
Y29554D01*
X16954D01*
Y29567D01*
X16967D01*
Y29581D01*
X16994D01*
Y29567D01*
X17007D01*
Y29581D01*
X16994D01*
Y29594D01*
X17007D01*
Y29607D01*
X17033D01*
Y29620D01*
X17060D01*
Y29633D01*
X17073D01*
Y29647D01*
X17086D01*
Y29660D01*
X17113D01*
Y29673D01*
X17139D01*
Y29686D01*
X17153D01*
Y29700D01*
X17192D01*
Y29686D01*
X17205D01*
Y29700D01*
X17192D01*
Y29713D01*
X17205D01*
Y29726D01*
X17232D01*
Y29739D01*
X17258D01*
Y29753D01*
X17272D01*
Y29766D01*
X17298D01*
Y29779D01*
X17325D01*
Y29792D01*
X17364D01*
Y29779D01*
X17377D01*
Y29792D01*
X17364D01*
Y29805D01*
X17377D01*
Y29819D01*
X17417D01*
Y29805D01*
X17430D01*
Y29819D01*
X17417D01*
Y29832D01*
X17430D01*
Y29845D01*
X17470D01*
Y29832D01*
X17483D01*
Y29845D01*
X17470D01*
Y29858D01*
X17483D01*
Y29872D01*
X17523D01*
Y29885D01*
X17563D01*
Y29898D01*
X17576D01*
Y29911D01*
X17616D01*
Y29925D01*
X17629D01*
Y29938D01*
X17642D01*
Y29925D01*
X17655D01*
Y29911D01*
X17669D01*
Y29925D01*
X17655D01*
Y29938D01*
X17682D01*
Y29951D01*
X17708D01*
Y29964D01*
X17748D01*
Y29977D01*
X17788D01*
Y29991D01*
X17814D01*
Y30004D01*
X17841D01*
Y30017D01*
X17893D01*
Y30030D01*
X17920D01*
Y30044D01*
X17973D01*
Y30057D01*
X18013D01*
Y30070D01*
X18052D01*
Y30083D01*
X18105D01*
Y30097D01*
X18145D01*
Y30110D01*
X18184D01*
Y30097D01*
X18198D01*
Y30110D01*
X18184D01*
Y30123D01*
X18237D01*
Y30136D01*
X18290D01*
Y30123D01*
X18304D01*
Y30136D01*
X18290D01*
Y30149D01*
X18343D01*
Y30163D01*
X18396D01*
Y30176D01*
X18449D01*
Y30189D01*
X18515D01*
Y30202D01*
X18581D01*
Y30216D01*
X18648D01*
Y30229D01*
X18714D01*
Y30242D01*
X18806D01*
Y30255D01*
X18886D01*
Y30269D01*
X18992D01*
Y30282D01*
X19084D01*
Y30295D01*
X19230D01*
Y30308D01*
X19415D01*
Y30321D01*
X19785D01*
Y30335D01*
X19984D01*
Y30321D01*
D02*
G37*
G36*
X22557Y24982D02*
X22620Y24972D01*
X22625D01*
X22635Y24967D01*
X22654D01*
X22674Y24962D01*
X22728Y24948D01*
X22781Y24933D01*
X22786D01*
X22796Y24928D01*
X22811Y24923D01*
X22830Y24918D01*
X22874Y24899D01*
X22918Y24874D01*
X22923D01*
X22928Y24869D01*
X22952Y24860D01*
X22982Y24840D01*
X23001Y24825D01*
X23006Y24821D01*
X23011Y24816D01*
X23021Y24801D01*
X23026Y24791D01*
X23030Y24786D01*
X23035Y24762D01*
Y24757D01*
X23040Y24752D01*
Y24723D01*
Y24718D01*
X23045Y24708D01*
Y24689D01*
Y24664D01*
Y24659D01*
Y24640D01*
Y24620D01*
X23040Y24596D01*
Y24591D01*
X23035Y24581D01*
X23030Y24552D01*
Y24547D01*
X23026Y24542D01*
X23011Y24523D01*
X23006D01*
X22986Y24518D01*
X22982D01*
X22972Y24523D01*
X22947Y24528D01*
X22918Y24542D01*
X22908Y24547D01*
X22889Y24562D01*
X22855Y24581D01*
X22806Y24606D01*
X22801D01*
X22796Y24611D01*
X22781Y24620D01*
X22762Y24630D01*
X22708Y24650D01*
X22645Y24674D01*
X22640D01*
X22630Y24679D01*
X22611Y24684D01*
X22586Y24689D01*
X22552Y24694D01*
X22518Y24699D01*
X22435Y24703D01*
X22396D01*
X22371Y24699D01*
X22308Y24694D01*
X22244Y24674D01*
X22240D01*
X22230Y24669D01*
X22215Y24664D01*
X22200Y24655D01*
X22157Y24630D01*
X22113Y24596D01*
X22103Y24586D01*
X22083Y24562D01*
X22059Y24528D01*
X22039Y24479D01*
Y24474D01*
X22034Y24469D01*
X22030Y24440D01*
X22020Y24396D01*
X22015Y24342D01*
Y24337D01*
Y24323D01*
X22020Y24303D01*
Y24279D01*
X22034Y24220D01*
X22064Y24157D01*
Y24152D01*
X22074Y24142D01*
X22083Y24127D01*
X22098Y24108D01*
X22142Y24064D01*
X22196Y24015D01*
X22200Y24010D01*
X22210Y24005D01*
X22230Y23996D01*
X22249Y23981D01*
X22308Y23947D01*
X22381Y23908D01*
X22386D01*
X22401Y23898D01*
X22420Y23888D01*
X22449Y23878D01*
X22479Y23864D01*
X22518Y23844D01*
X22596Y23805D01*
X22601D01*
X22615Y23795D01*
X22635Y23786D01*
X22664Y23771D01*
X22698Y23756D01*
X22737Y23737D01*
X22816Y23693D01*
X22820Y23688D01*
X22835Y23683D01*
X22855Y23668D01*
X22879Y23654D01*
X22943Y23610D01*
X23006Y23551D01*
X23011Y23546D01*
X23021Y23537D01*
X23035Y23517D01*
X23055Y23498D01*
X23074Y23468D01*
X23099Y23434D01*
X23138Y23356D01*
X23143Y23351D01*
X23148Y23337D01*
X23157Y23312D01*
X23167Y23283D01*
X23177Y23239D01*
X23182Y23195D01*
X23191Y23146D01*
Y23088D01*
Y23078D01*
Y23058D01*
X23187Y23024D01*
X23182Y22980D01*
X23177Y22931D01*
X23162Y22878D01*
X23148Y22819D01*
X23123Y22765D01*
X23118Y22760D01*
X23108Y22741D01*
X23094Y22716D01*
X23074Y22682D01*
X23045Y22643D01*
X23016Y22604D01*
X22977Y22560D01*
X22933Y22521D01*
X22928Y22516D01*
X22913Y22507D01*
X22889Y22487D01*
X22855Y22468D01*
X22816Y22443D01*
X22767Y22419D01*
X22713Y22394D01*
X22654Y22375D01*
X22650D01*
X22625Y22365D01*
X22596Y22360D01*
X22552Y22350D01*
X22498Y22341D01*
X22440Y22336D01*
X22376Y22326D01*
X22264D01*
X22230Y22331D01*
X22196D01*
X22152Y22336D01*
X22069Y22350D01*
X22064D01*
X22049Y22355D01*
X22030Y22360D01*
X22000Y22365D01*
X21937Y22380D01*
X21868Y22399D01*
X21864D01*
X21854Y22404D01*
X21839Y22414D01*
X21820Y22419D01*
X21771Y22443D01*
X21722Y22468D01*
X21712Y22472D01*
X21688Y22487D01*
X21663Y22507D01*
X21639Y22526D01*
X21634Y22531D01*
X21629Y22541D01*
X21620Y22560D01*
X21610Y22585D01*
Y22590D01*
X21605Y22614D01*
X21600Y22643D01*
Y22682D01*
Y22692D01*
Y22707D01*
Y22731D01*
Y22756D01*
Y22760D01*
X21605Y22775D01*
X21610Y22804D01*
Y22809D01*
X21615Y22814D01*
X21624Y22824D01*
X21629Y22829D01*
X21634D01*
X21639Y22834D01*
X21663Y22839D01*
X21668D01*
X21683Y22834D01*
X21703Y22824D01*
X21737Y22799D01*
X21742D01*
X21746Y22795D01*
X21776Y22780D01*
X21815Y22756D01*
X21868Y22726D01*
X21873D01*
X21883Y22721D01*
X21903Y22712D01*
X21922Y22702D01*
X21951Y22692D01*
X21986Y22677D01*
X22064Y22653D01*
X22069D01*
X22083Y22648D01*
X22108Y22643D01*
X22137Y22638D01*
X22176Y22629D01*
X22220Y22624D01*
X22269Y22619D01*
X22362D01*
X22391Y22624D01*
X22454Y22634D01*
X22528Y22648D01*
X22532D01*
X22542Y22653D01*
X22562Y22663D01*
X22581Y22668D01*
X22635Y22697D01*
X22689Y22731D01*
X22694Y22736D01*
X22698Y22741D01*
X22728Y22770D01*
X22762Y22809D01*
X22791Y22863D01*
Y22868D01*
X22796Y22878D01*
X22806Y22897D01*
X22811Y22917D01*
X22825Y22975D01*
X22830Y23048D01*
Y23053D01*
Y23068D01*
X22825Y23088D01*
Y23117D01*
X22806Y23175D01*
X22796Y23210D01*
X22777Y23239D01*
Y23244D01*
X22767Y23254D01*
X22757Y23268D01*
X22742Y23288D01*
X22698Y23332D01*
X22645Y23376D01*
X22640Y23380D01*
X22630Y23385D01*
X22615Y23395D01*
X22591Y23410D01*
X22532Y23444D01*
X22459Y23483D01*
X22454D01*
X22440Y23493D01*
X22420Y23502D01*
X22396Y23512D01*
X22362Y23527D01*
X22327Y23546D01*
X22244Y23581D01*
X22240Y23585D01*
X22225Y23590D01*
X22205Y23600D01*
X22176Y23615D01*
X22108Y23649D01*
X22030Y23693D01*
X22025Y23698D01*
X22010Y23703D01*
X21991Y23717D01*
X21966Y23737D01*
X21908Y23781D01*
X21844Y23839D01*
X21839Y23844D01*
X21829Y23854D01*
X21815Y23874D01*
X21795Y23898D01*
X21776Y23927D01*
X21751Y23961D01*
X21712Y24039D01*
Y24044D01*
X21703Y24059D01*
X21698Y24083D01*
X21688Y24118D01*
X21678Y24157D01*
X21673Y24201D01*
X21663Y24254D01*
Y24313D01*
Y24323D01*
Y24342D01*
X21668Y24371D01*
X21673Y24411D01*
X21678Y24454D01*
X21688Y24503D01*
X21703Y24552D01*
X21722Y24601D01*
X21727Y24606D01*
X21732Y24620D01*
X21746Y24645D01*
X21766Y24674D01*
X21815Y24742D01*
X21883Y24811D01*
X21888Y24816D01*
X21903Y24825D01*
X21927Y24840D01*
X21956Y24860D01*
X21991Y24884D01*
X22034Y24904D01*
X22083Y24923D01*
X22132Y24943D01*
X22137D01*
X22157Y24952D01*
X22186Y24957D01*
X22225Y24967D01*
X22274Y24977D01*
X22327Y24982D01*
X22445Y24991D01*
X22498D01*
X22557Y24982D01*
D02*
G37*
G36*
X27512Y24962D02*
X27536Y24957D01*
X27541D01*
X27556Y24952D01*
X27575D01*
X27590Y24948D01*
X27595D01*
X27600Y24943D01*
X27619Y24928D01*
X27624Y24923D01*
X27629Y24899D01*
Y23317D01*
Y23312D01*
Y23307D01*
Y23278D01*
X27624Y23234D01*
X27619Y23175D01*
X27610Y23112D01*
X27600Y23044D01*
X27580Y22970D01*
X27556Y22897D01*
X27551Y22887D01*
X27541Y22868D01*
X27527Y22834D01*
X27507Y22790D01*
X27478Y22741D01*
X27444Y22687D01*
X27405Y22634D01*
X27361Y22585D01*
X27356Y22580D01*
X27336Y22565D01*
X27312Y22541D01*
X27273Y22511D01*
X27229Y22482D01*
X27175Y22448D01*
X27117Y22419D01*
X27048Y22389D01*
X27038Y22385D01*
X27019Y22380D01*
X26980Y22370D01*
X26931Y22360D01*
X26868Y22345D01*
X26799Y22336D01*
X26716Y22331D01*
X26633Y22326D01*
X26599D01*
X26555Y22331D01*
X26506Y22336D01*
X26443Y22341D01*
X26379Y22350D01*
X26311Y22365D01*
X26243Y22385D01*
X26233Y22389D01*
X26213Y22394D01*
X26179Y22409D01*
X26140Y22433D01*
X26091Y22458D01*
X26043Y22492D01*
X25989Y22526D01*
X25940Y22570D01*
X25935Y22575D01*
X25920Y22594D01*
X25896Y22619D01*
X25867Y22653D01*
X25837Y22697D01*
X25803Y22751D01*
X25774Y22809D01*
X25745Y22873D01*
X25740Y22882D01*
X25735Y22907D01*
X25725Y22941D01*
X25715Y22995D01*
X25701Y23053D01*
X25691Y23127D01*
X25686Y23205D01*
X25681Y23293D01*
Y24899D01*
Y24904D01*
Y24908D01*
X25686Y24928D01*
Y24933D01*
X25696Y24938D01*
X25715Y24948D01*
X25720D01*
X25730Y24952D01*
X25745D01*
X25764Y24957D01*
X25769D01*
X25789Y24962D01*
X25818Y24967D01*
X25881D01*
X25906Y24962D01*
X25930Y24957D01*
X25935D01*
X25950Y24952D01*
X25969D01*
X25984Y24948D01*
X25989D01*
X25994Y24943D01*
X26013Y24928D01*
X26018Y24923D01*
X26023Y24899D01*
Y23332D01*
Y23322D01*
Y23302D01*
X26028Y23268D01*
Y23224D01*
X26033Y23175D01*
X26043Y23122D01*
X26067Y23019D01*
Y23014D01*
X26077Y23000D01*
X26086Y22970D01*
X26101Y22941D01*
X26135Y22868D01*
X26189Y22795D01*
X26194Y22790D01*
X26204Y22780D01*
X26223Y22765D01*
X26248Y22746D01*
X26277Y22726D01*
X26311Y22702D01*
X26389Y22663D01*
X26394D01*
X26409Y22658D01*
X26433Y22648D01*
X26467Y22643D01*
X26506Y22634D01*
X26550Y22624D01*
X26653Y22619D01*
X26677D01*
X26706Y22624D01*
X26746D01*
X26785Y22629D01*
X26828Y22638D01*
X26921Y22663D01*
X26926D01*
X26941Y22673D01*
X26960Y22682D01*
X26990Y22697D01*
X27053Y22736D01*
X27117Y22795D01*
X27121Y22799D01*
X27131Y22809D01*
X27146Y22829D01*
X27165Y22853D01*
X27185Y22887D01*
X27204Y22922D01*
X27243Y23009D01*
Y23014D01*
X27248Y23034D01*
X27258Y23058D01*
X27268Y23097D01*
X27273Y23141D01*
X27283Y23195D01*
X27287Y23254D01*
Y23317D01*
Y24899D01*
Y24904D01*
Y24908D01*
X27292Y24928D01*
Y24933D01*
X27302Y24938D01*
X27322Y24948D01*
X27326D01*
X27336Y24952D01*
X27351D01*
X27370Y24957D01*
X27375D01*
X27395Y24962D01*
X27424Y24967D01*
X27488D01*
X27512Y24962D01*
D02*
G37*
G36*
X29103Y24948D02*
X29138D01*
X29216Y24943D01*
X29308Y24933D01*
X29401Y24913D01*
X29499Y24894D01*
X29587Y24865D01*
X29592D01*
X29597Y24860D01*
X29626Y24850D01*
X29670Y24830D01*
X29723Y24801D01*
X29787Y24762D01*
X29850Y24723D01*
X29914Y24669D01*
X29977Y24611D01*
X29982Y24606D01*
X30002Y24581D01*
X30031Y24547D01*
X30065Y24503D01*
X30104Y24445D01*
X30143Y24376D01*
X30182Y24298D01*
X30217Y24215D01*
Y24210D01*
X30221Y24205D01*
X30226Y24191D01*
X30231Y24176D01*
X30241Y24127D01*
X30260Y24064D01*
X30275Y23986D01*
X30285Y23898D01*
X30295Y23800D01*
X30300Y23693D01*
Y23688D01*
Y23678D01*
Y23659D01*
Y23634D01*
X30295Y23605D01*
Y23576D01*
X30290Y23493D01*
X30280Y23400D01*
X30260Y23302D01*
X30241Y23205D01*
X30212Y23107D01*
Y23102D01*
X30207Y23097D01*
X30197Y23068D01*
X30177Y23019D01*
X30148Y22961D01*
X30109Y22897D01*
X30070Y22829D01*
X30016Y22756D01*
X29958Y22692D01*
X29953Y22687D01*
X29928Y22663D01*
X29894Y22634D01*
X29846Y22599D01*
X29787Y22560D01*
X29719Y22516D01*
X29640Y22477D01*
X29553Y22443D01*
X29548D01*
X29543Y22438D01*
X29528D01*
X29509Y22433D01*
X29460Y22419D01*
X29391Y22404D01*
X29308Y22389D01*
X29211Y22380D01*
X29103Y22370D01*
X28981Y22365D01*
X28425D01*
X28405Y22370D01*
X28376Y22380D01*
X28347Y22394D01*
X28342Y22399D01*
X28327Y22419D01*
X28313Y22453D01*
X28308Y22502D01*
Y24811D01*
Y24816D01*
Y24825D01*
X28313Y24855D01*
X28322Y24889D01*
X28347Y24918D01*
X28352Y24923D01*
X28371Y24938D01*
X28400Y24948D01*
X28435Y24952D01*
X29079D01*
X29103Y24948D01*
D02*
G37*
G36*
X31051Y24962D02*
X31076Y24957D01*
X31081D01*
X31095Y24952D01*
X31115D01*
X31129Y24948D01*
X31134D01*
X31139Y24943D01*
X31159Y24928D01*
X31164Y24923D01*
X31168Y24899D01*
Y22419D01*
Y22414D01*
Y22409D01*
X31159Y22385D01*
X31154Y22380D01*
X31129Y22370D01*
X31125D01*
X31115Y22365D01*
X31100D01*
X31076Y22360D01*
X31056D01*
X31032Y22355D01*
X30944D01*
X30915Y22360D01*
X30910D01*
X30895Y22365D01*
X30876D01*
X30861Y22370D01*
X30856D01*
X30851Y22375D01*
X30832Y22385D01*
Y22389D01*
Y22394D01*
X30827Y22419D01*
Y24899D01*
Y24904D01*
Y24908D01*
X30832Y24928D01*
Y24933D01*
X30841Y24938D01*
X30861Y24948D01*
X30866D01*
X30876Y24952D01*
X30895D01*
X30915Y24957D01*
X30920D01*
X30939Y24962D01*
X30963Y24967D01*
X31027D01*
X31051Y24962D01*
D02*
G37*
G36*
X25261Y24943D02*
X25266D01*
X25271Y24938D01*
X25286Y24913D01*
Y24908D01*
X25291Y24904D01*
X25296Y24889D01*
X25300Y24869D01*
Y24865D01*
X25305Y24850D01*
Y24830D01*
Y24801D01*
Y24796D01*
Y24777D01*
Y24757D01*
X25300Y24733D01*
Y24728D01*
X25296Y24718D01*
X25286Y24689D01*
X25281Y24679D01*
X25261Y24664D01*
X25257D01*
X25237Y24659D01*
X24510D01*
Y22419D01*
Y22414D01*
Y22409D01*
X24500Y22385D01*
X24495Y22380D01*
X24471Y22370D01*
X24466D01*
X24456Y22365D01*
X24441D01*
X24417Y22360D01*
X24397D01*
X24373Y22355D01*
X24285D01*
X24256Y22360D01*
X24251D01*
X24236Y22365D01*
X24217D01*
X24202Y22370D01*
X24197D01*
X24192Y22375D01*
X24173Y22385D01*
Y22389D01*
Y22394D01*
X24168Y22419D01*
Y24659D01*
X23426D01*
X23406Y24664D01*
X23401Y24669D01*
X23387Y24689D01*
Y24694D01*
X23382Y24703D01*
X23377Y24733D01*
Y24738D01*
Y24752D01*
X23372Y24772D01*
Y24801D01*
Y24806D01*
Y24825D01*
Y24845D01*
X23377Y24869D01*
Y24874D01*
X23382Y24884D01*
Y24899D01*
X23387Y24913D01*
Y24918D01*
X23392Y24923D01*
X23406Y24943D01*
X23411D01*
X23416Y24948D01*
X23436Y24952D01*
X25247D01*
X25261Y24943D01*
D02*
G37*
G36*
X32999Y24987D02*
X33068Y24982D01*
X33146Y24972D01*
X33229Y24952D01*
X33312Y24933D01*
X33395Y24904D01*
X33400D01*
X33404Y24899D01*
X33429Y24889D01*
X33468Y24869D01*
X33517Y24840D01*
X33575Y24801D01*
X33634Y24762D01*
X33692Y24708D01*
X33746Y24650D01*
X33751Y24645D01*
X33771Y24620D01*
X33795Y24586D01*
X33824Y24537D01*
X33858Y24479D01*
X33893Y24411D01*
X33927Y24332D01*
X33956Y24245D01*
Y24240D01*
X33961Y24235D01*
Y24220D01*
X33966Y24201D01*
X33980Y24152D01*
X33995Y24083D01*
X34005Y24000D01*
X34020Y23908D01*
X34024Y23800D01*
X34029Y23688D01*
Y23683D01*
Y23673D01*
Y23659D01*
Y23634D01*
Y23605D01*
X34024Y23576D01*
X34020Y23498D01*
X34010Y23410D01*
X33995Y23312D01*
X33976Y23214D01*
X33951Y23117D01*
Y23112D01*
X33946Y23107D01*
X33941Y23092D01*
X33937Y23073D01*
X33922Y23029D01*
X33897Y22970D01*
X33863Y22902D01*
X33829Y22829D01*
X33785Y22756D01*
X33731Y22687D01*
X33727Y22677D01*
X33707Y22658D01*
X33673Y22629D01*
X33629Y22590D01*
X33575Y22546D01*
X33512Y22502D01*
X33443Y22458D01*
X33360Y22419D01*
X33351Y22414D01*
X33321Y22404D01*
X33277Y22389D01*
X33214Y22375D01*
X33136Y22355D01*
X33048Y22341D01*
X32950Y22331D01*
X32843Y22326D01*
X32794D01*
X32740Y22331D01*
X32672Y22336D01*
X32594Y22345D01*
X32511Y22360D01*
X32423Y22380D01*
X32340Y22409D01*
X32330Y22414D01*
X32306Y22424D01*
X32267Y22448D01*
X32213Y22472D01*
X32160Y22511D01*
X32101Y22555D01*
X32037Y22604D01*
X31984Y22663D01*
X31979Y22673D01*
X31959Y22692D01*
X31935Y22726D01*
X31906Y22775D01*
X31871Y22834D01*
X31842Y22907D01*
X31808Y22985D01*
X31779Y23073D01*
Y23078D01*
X31774Y23083D01*
Y23097D01*
X31769Y23117D01*
X31759Y23171D01*
X31749Y23239D01*
X31735Y23322D01*
X31725Y23419D01*
X31720Y23527D01*
X31715Y23644D01*
Y23649D01*
Y23659D01*
Y23673D01*
Y23698D01*
Y23722D01*
X31720Y23751D01*
X31725Y23825D01*
X31735Y23913D01*
X31745Y24005D01*
X31764Y24103D01*
X31788Y24196D01*
Y24201D01*
X31793Y24205D01*
X31798Y24220D01*
X31803Y24240D01*
X31818Y24284D01*
X31842Y24347D01*
X31876Y24411D01*
X31911Y24484D01*
X31954Y24557D01*
X32008Y24625D01*
X32013Y24635D01*
X32033Y24655D01*
X32067Y24684D01*
X32111Y24723D01*
X32164Y24767D01*
X32223Y24811D01*
X32296Y24855D01*
X32374Y24894D01*
X32379D01*
X32384Y24899D01*
X32413Y24908D01*
X32462Y24923D01*
X32526Y24943D01*
X32599Y24962D01*
X32692Y24977D01*
X32789Y24987D01*
X32897Y24991D01*
X32945D01*
X32999Y24987D01*
D02*
G37*
G36*
X24633Y30369D02*
X24686Y30361D01*
X24695D01*
X24721Y30352D01*
X24747Y30343D01*
X24774Y30334D01*
X24783D01*
X24791Y30325D01*
X24809Y30317D01*
X24818Y30299D01*
X24827Y30290D01*
X24835Y30255D01*
Y30246D01*
Y30229D01*
X24827Y30194D01*
X24809Y30158D01*
Y30150D01*
X24791Y30123D01*
X24765Y30088D01*
X24721Y30035D01*
X23183Y28190D01*
X24844Y25975D01*
X24853Y25958D01*
X24879Y25931D01*
X24897Y25887D01*
X24914Y25852D01*
Y25843D01*
X24923Y25835D01*
X24932Y25791D01*
Y25773D01*
X24914Y25738D01*
X24906Y25729D01*
X24897Y25720D01*
X24870Y25703D01*
X24862D01*
X24844Y25694D01*
X24818D01*
X24774Y25685D01*
X24730D01*
X24677Y25676D01*
X24475D01*
X24405Y25685D01*
X24396D01*
X24361Y25694D01*
X24317Y25703D01*
X24282Y25720D01*
X24273Y25729D01*
X24264Y25747D01*
X24229Y25791D01*
X22515Y28120D01*
Y25791D01*
Y25773D01*
X22498Y25738D01*
X22489Y25720D01*
X22445Y25703D01*
X22436D01*
X22419Y25694D01*
X22392D01*
X22348Y25685D01*
X22313D01*
X22269Y25676D01*
X22111D01*
X22058Y25685D01*
X22049D01*
X22023Y25694D01*
X21988D01*
X21962Y25703D01*
X21953D01*
X21944Y25711D01*
X21909Y25738D01*
Y25747D01*
Y25755D01*
X21900Y25791D01*
Y30255D01*
Y30264D01*
Y30273D01*
X21909Y30308D01*
Y30317D01*
X21926Y30325D01*
X21962Y30343D01*
X21970D01*
X21988Y30352D01*
X22014D01*
X22058Y30361D01*
X22067D01*
X22102Y30369D01*
X22146Y30378D01*
X22260D01*
X22304Y30369D01*
X22348Y30361D01*
X22357D01*
X22383Y30352D01*
X22419D01*
X22445Y30343D01*
X22454D01*
X22462Y30334D01*
X22498Y30308D01*
X22506Y30299D01*
X22515Y30255D01*
Y28190D01*
X24159Y30255D01*
X24167Y30264D01*
X24176Y30273D01*
X24211Y30308D01*
X24220Y30317D01*
X24229Y30325D01*
X24282Y30343D01*
X24290D01*
X24308Y30352D01*
X24343Y30361D01*
X24378Y30369D01*
X24387D01*
X24422Y30378D01*
X24589D01*
X24633Y30369D01*
D02*
G37*
G36*
X28219Y30334D02*
X28228D01*
X28236Y30325D01*
X28254Y30281D01*
Y30273D01*
X28263Y30264D01*
X28272Y30238D01*
X28280Y30202D01*
Y30194D01*
X28289Y30167D01*
X28298Y30132D01*
Y30079D01*
Y30071D01*
Y30044D01*
X28289Y30009D01*
X28280Y29965D01*
Y29956D01*
X28272Y29939D01*
X28254Y29886D01*
X28245Y29868D01*
X28219Y29842D01*
X28210D01*
X28175Y29833D01*
X26347D01*
Y28374D01*
X27929D01*
X27955Y28357D01*
X27964D01*
X27973Y28348D01*
X27999Y28304D01*
Y28295D01*
X28008Y28286D01*
X28017Y28260D01*
X28026Y28225D01*
Y28216D01*
X28034Y28199D01*
Y28155D01*
Y28111D01*
Y28102D01*
Y28076D01*
Y28040D01*
X28026Y27996D01*
Y27988D01*
X28017Y27970D01*
X27999Y27917D01*
X27990Y27900D01*
X27955Y27882D01*
X27946D01*
X27911Y27873D01*
X26347D01*
Y26212D01*
X28210D01*
X28245Y26195D01*
X28254D01*
X28263Y26186D01*
X28289Y26142D01*
Y26133D01*
X28298Y26125D01*
X28307Y26098D01*
X28316Y26063D01*
Y26054D01*
X28324Y26037D01*
Y25993D01*
Y25949D01*
Y25940D01*
Y25905D01*
Y25870D01*
X28316Y25826D01*
Y25817D01*
X28307Y25799D01*
X28289Y25747D01*
X28280Y25729D01*
X28245Y25703D01*
X28228D01*
X28192Y25694D01*
X25943D01*
X25908Y25703D01*
X25855Y25720D01*
X25802Y25747D01*
X25793Y25755D01*
X25767Y25791D01*
X25741Y25852D01*
X25732Y25940D01*
Y30097D01*
Y30106D01*
Y30123D01*
X25741Y30176D01*
X25758Y30238D01*
X25802Y30290D01*
X25811Y30299D01*
X25846Y30325D01*
X25899Y30343D01*
X25960Y30352D01*
X28192D01*
X28219Y30334D01*
D02*
G37*
G36*
X33747Y30369D02*
X33791Y30361D01*
X33799D01*
X33826Y30352D01*
X33861D01*
X33887Y30343D01*
X33896D01*
X33905Y30334D01*
X33940Y30308D01*
X33949Y30299D01*
X33958Y30255D01*
Y25791D01*
Y25782D01*
Y25773D01*
X33940Y25729D01*
X33931Y25720D01*
X33887Y25703D01*
X33879D01*
X33861Y25694D01*
X33835D01*
X33791Y25685D01*
X33756D01*
X33712Y25676D01*
X33553D01*
X33501Y25685D01*
X33492D01*
X33466Y25694D01*
X33430D01*
X33404Y25703D01*
X33395D01*
X33386Y25711D01*
X33351Y25729D01*
Y25738D01*
Y25747D01*
X33342Y25791D01*
Y30255D01*
Y30264D01*
Y30273D01*
X33351Y30308D01*
Y30317D01*
X33369Y30325D01*
X33404Y30343D01*
X33413D01*
X33430Y30352D01*
X33466D01*
X33501Y30361D01*
X33509D01*
X33545Y30369D01*
X33589Y30378D01*
X33703D01*
X33747Y30369D01*
D02*
G37*
G36*
X30741Y30343D02*
X30838Y30334D01*
X30855D01*
X30908Y30325D01*
X30978D01*
X31058Y30317D01*
X31066D01*
X31101Y30308D01*
X31154Y30299D01*
X31216Y30281D01*
X31286Y30264D01*
X31365Y30238D01*
X31532Y30167D01*
X31541D01*
X31567Y30150D01*
X31602Y30132D01*
X31655Y30097D01*
X31769Y30018D01*
X31884Y29912D01*
X31892Y29904D01*
X31910Y29886D01*
X31936Y29851D01*
X31963Y29816D01*
X31998Y29763D01*
X32033Y29701D01*
X32095Y29561D01*
Y29552D01*
X32103Y29526D01*
X32121Y29482D01*
X32130Y29429D01*
X32147Y29367D01*
X32156Y29288D01*
X32165Y29121D01*
Y29113D01*
Y29077D01*
Y29034D01*
X32156Y28981D01*
X32138Y28840D01*
X32095Y28700D01*
Y28691D01*
X32086Y28664D01*
X32068Y28629D01*
X32051Y28585D01*
X31989Y28480D01*
X31910Y28366D01*
X31901Y28357D01*
X31892Y28339D01*
X31866Y28313D01*
X31831Y28286D01*
X31743Y28199D01*
X31629Y28120D01*
X31620D01*
X31602Y28102D01*
X31567Y28084D01*
X31523Y28058D01*
X31462Y28032D01*
X31400Y28005D01*
X31260Y27944D01*
X31268D01*
X31277Y27935D01*
X31330Y27909D01*
X31391Y27873D01*
X31462Y27821D01*
X31471D01*
X31479Y27803D01*
X31523Y27768D01*
X31576Y27706D01*
X31638Y27636D01*
Y27627D01*
X31655Y27619D01*
X31690Y27566D01*
X31743Y27487D01*
X31796Y27390D01*
Y27381D01*
X31805Y27364D01*
X31822Y27337D01*
X31840Y27302D01*
X31884Y27197D01*
X31936Y27074D01*
X32358Y26045D01*
Y26037D01*
X32367Y26028D01*
X32385Y25975D01*
X32411Y25922D01*
X32420Y25870D01*
Y25861D01*
X32429Y25843D01*
X32437Y25817D01*
Y25791D01*
Y25782D01*
Y25773D01*
X32420Y25729D01*
X32411Y25720D01*
X32402Y25711D01*
X32376Y25703D01*
X32367D01*
X32349Y25694D01*
X32314D01*
X32270Y25685D01*
X32226D01*
X32174Y25676D01*
X32007D01*
X31954Y25685D01*
X31945D01*
X31919Y25694D01*
X31884D01*
X31857Y25703D01*
X31848D01*
X31840Y25711D01*
X31796Y25747D01*
Y25755D01*
X31787Y25764D01*
X31769Y25817D01*
X31339Y26916D01*
Y26924D01*
X31321Y26951D01*
X31312Y26986D01*
X31286Y27030D01*
X31242Y27135D01*
X31181Y27258D01*
Y27267D01*
X31163Y27285D01*
X31145Y27311D01*
X31128Y27355D01*
X31066Y27434D01*
X30987Y27522D01*
X30978Y27531D01*
X30970Y27539D01*
X30943Y27566D01*
X30908Y27583D01*
X30829Y27645D01*
X30724Y27698D01*
X30715D01*
X30697Y27706D01*
X30662Y27724D01*
X30627Y27733D01*
X30574Y27750D01*
X30513Y27759D01*
X30363Y27768D01*
X29950D01*
Y25791D01*
Y25782D01*
Y25773D01*
X29933Y25729D01*
X29924Y25720D01*
X29880Y25703D01*
X29871D01*
X29854Y25694D01*
X29827D01*
X29783Y25685D01*
X29748D01*
X29704Y25676D01*
X29537D01*
X29484Y25685D01*
X29476D01*
X29458Y25694D01*
X29396Y25703D01*
X29388D01*
X29379Y25711D01*
X29344Y25729D01*
Y25738D01*
Y25747D01*
X29335Y25791D01*
Y30097D01*
Y30106D01*
Y30123D01*
X29344Y30176D01*
X29361Y30238D01*
X29405Y30290D01*
X29414Y30299D01*
X29449Y30325D01*
X29502Y30343D01*
X29563Y30352D01*
X30653D01*
X30741Y30343D01*
D02*
G37*
%LPC*%
G36*
X19362Y30295D02*
X19349D01*
Y30282D01*
X19362D01*
Y30295D01*
D02*
G37*
G36*
X19256D02*
X19243D01*
Y30282D01*
X19256D01*
Y30295D01*
D02*
G37*
G36*
X19918Y30269D02*
X19904D01*
Y30255D01*
X19918D01*
Y30242D01*
X19931D01*
Y30255D01*
X19918D01*
Y30269D01*
D02*
G37*
G36*
X19891Y30242D02*
X19878D01*
Y30229D01*
X19891D01*
Y30242D01*
D02*
G37*
G36*
X19865D02*
X19851D01*
Y30229D01*
X19865D01*
Y30242D01*
D02*
G37*
G36*
X18886D02*
X18872D01*
Y30229D01*
X18886D01*
Y30242D01*
D02*
G37*
G36*
X18859Y30216D02*
X18846D01*
Y30202D01*
X18859D01*
Y30216D01*
D02*
G37*
G36*
X18806D02*
X18793D01*
Y30202D01*
X18806D01*
Y30216D01*
D02*
G37*
G36*
X18780D02*
X18767D01*
Y30202D01*
X18780D01*
Y30216D01*
D02*
G37*
G36*
X18700D02*
X18687D01*
Y30202D01*
X18700D01*
Y30216D01*
D02*
G37*
G36*
X18939Y30189D02*
X18925D01*
Y30176D01*
X18939D01*
Y30189D01*
D02*
G37*
G36*
X18780D02*
X18767D01*
Y30176D01*
X18780D01*
Y30189D01*
D02*
G37*
G36*
X18753D02*
X18740D01*
Y30176D01*
X18753D01*
Y30189D01*
D02*
G37*
G36*
X18727D02*
X18714D01*
Y30176D01*
X18727D01*
Y30189D01*
D02*
G37*
G36*
X18621D02*
X18608D01*
Y30176D01*
X18621D01*
Y30189D01*
D02*
G37*
G36*
X19759Y30163D02*
X19746D01*
Y30149D01*
X19759D01*
Y30163D01*
D02*
G37*
G36*
X19706D02*
X19693D01*
Y30149D01*
X19706D01*
Y30163D01*
D02*
G37*
G36*
X19653Y30136D02*
X19640D01*
Y30123D01*
X19653D01*
Y30136D01*
D02*
G37*
G36*
X18356D02*
X18343D01*
Y30123D01*
X18356D01*
Y30136D01*
D02*
G37*
G36*
X18264Y30123D02*
X18251D01*
Y30110D01*
X18264D01*
Y30123D01*
D02*
G37*
G36*
X18356Y30083D02*
X18343D01*
Y30070D01*
X18356D01*
Y30083D01*
D02*
G37*
G36*
X18145D02*
X18132D01*
Y30070D01*
X18145D01*
Y30083D01*
D02*
G37*
G36*
X19547Y30057D02*
X19534D01*
Y30044D01*
X19547D01*
Y30057D01*
D02*
G37*
G36*
X19494D02*
X19481D01*
Y30044D01*
X19494D01*
Y30057D01*
D02*
G37*
G36*
X19441D02*
X19428D01*
Y30044D01*
X19441D01*
Y30057D01*
D02*
G37*
G36*
X19521Y30030D02*
X19494D01*
Y30017D01*
X19521D01*
Y30030D01*
D02*
G37*
G36*
X19441D02*
X19428D01*
Y30017D01*
X19441D01*
Y30030D01*
D02*
G37*
G36*
X18039D02*
X18026D01*
Y30017D01*
X18039D01*
Y30030D01*
D02*
G37*
G36*
X17986D02*
X17973D01*
Y30017D01*
X17986D01*
Y30004D01*
X17999D01*
Y30017D01*
X17986D01*
Y30030D01*
D02*
G37*
G36*
X19455Y30004D02*
X19428D01*
Y29991D01*
X19455D01*
Y30004D01*
D02*
G37*
G36*
X17960D02*
X17946D01*
Y29991D01*
X17960D01*
Y30004D01*
D02*
G37*
G36*
X17880D02*
X17867D01*
Y29991D01*
X17880D01*
Y30004D01*
D02*
G37*
G36*
X17854Y29977D02*
X17841D01*
Y29964D01*
X17854D01*
Y29977D01*
D02*
G37*
G36*
X19388Y29951D02*
X19375D01*
Y29938D01*
X19388D01*
Y29951D01*
D02*
G37*
G36*
X19336D02*
X19322D01*
Y29938D01*
X19336D01*
Y29951D01*
D02*
G37*
G36*
X19230Y29898D02*
X19216D01*
Y29885D01*
X19230D01*
Y29898D01*
D02*
G37*
G36*
X17721D02*
X17708D01*
Y29885D01*
X17721D01*
Y29898D01*
D02*
G37*
G36*
X17695D02*
X17682D01*
Y29885D01*
X17695D01*
Y29898D01*
D02*
G37*
G36*
X17642D02*
X17629D01*
Y29885D01*
X17642D01*
Y29898D01*
D02*
G37*
G36*
X17695Y29872D02*
X17682D01*
Y29858D01*
X17695D01*
Y29872D01*
D02*
G37*
G36*
X17616D02*
X17602D01*
Y29858D01*
X17616D01*
Y29872D01*
D02*
G37*
G36*
X17589D02*
X17576D01*
Y29858D01*
X17589D01*
Y29872D01*
D02*
G37*
G36*
X19230Y29845D02*
X19216D01*
Y29832D01*
X19230D01*
Y29845D01*
D02*
G37*
G36*
X19150D02*
X19137D01*
Y29832D01*
X19150D01*
Y29845D01*
D02*
G37*
G36*
X19124D02*
X19111D01*
Y29832D01*
X19124D01*
Y29845D01*
D02*
G37*
G36*
X19150Y29819D02*
X19137D01*
Y29805D01*
X19150D01*
Y29819D01*
D02*
G37*
G36*
X17510D02*
X17497D01*
Y29805D01*
X17510D01*
Y29819D01*
D02*
G37*
G36*
X17457D02*
X17444D01*
Y29805D01*
X17457D01*
Y29819D01*
D02*
G37*
G36*
X19150Y29792D02*
X19137D01*
Y29779D01*
X19150D01*
Y29792D01*
D02*
G37*
G36*
X17483D02*
X17470D01*
Y29779D01*
X17483D01*
Y29792D01*
D02*
G37*
G36*
X19137Y29779D02*
X19124D01*
Y29766D01*
X19137D01*
Y29779D01*
D02*
G37*
G36*
X19124Y29766D02*
X19111D01*
Y29753D01*
X19124D01*
Y29766D01*
D02*
G37*
G36*
X17457D02*
X17444D01*
Y29753D01*
X17457D01*
Y29766D01*
D02*
G37*
G36*
X17351D02*
X17338D01*
Y29753D01*
X17351D01*
Y29766D01*
D02*
G37*
G36*
X19097Y29739D02*
X19084D01*
Y29726D01*
X19097D01*
Y29739D01*
D02*
G37*
G36*
X19044Y29713D02*
X19031D01*
Y29700D01*
X19044D01*
Y29713D01*
D02*
G37*
G36*
X17245D02*
X17232D01*
Y29700D01*
X17245D01*
Y29713D01*
D02*
G37*
G36*
X19031Y29700D02*
X19018D01*
Y29686D01*
X19031D01*
Y29700D01*
D02*
G37*
G36*
X17272Y29686D02*
X17258D01*
Y29673D01*
X17272D01*
Y29686D01*
D02*
G37*
G36*
X17298Y29660D02*
X17285D01*
Y29647D01*
X17298D01*
Y29660D01*
D02*
G37*
G36*
X18952Y29647D02*
X18939D01*
Y29633D01*
X18952D01*
Y29620D01*
X18965D01*
Y29633D01*
X18952D01*
Y29647D01*
D02*
G37*
G36*
X18939Y29633D02*
X18925D01*
Y29620D01*
X18939D01*
Y29633D01*
D02*
G37*
G36*
X18925Y29620D02*
X18912D01*
Y29607D01*
X18925D01*
Y29594D01*
X18939D01*
Y29607D01*
X18925D01*
Y29620D01*
D02*
G37*
G36*
X17086Y29581D02*
X17073D01*
Y29567D01*
X17086D01*
Y29581D01*
D02*
G37*
G36*
Y29554D02*
X17073D01*
Y29541D01*
X17086D01*
Y29554D01*
D02*
G37*
G36*
X18859Y29528D02*
X18846D01*
Y29514D01*
X18859D01*
Y29528D01*
D02*
G37*
G36*
X18833D02*
X18820D01*
Y29514D01*
X18833D01*
Y29528D01*
D02*
G37*
G36*
X16954D02*
X16941D01*
Y29514D01*
X16954D01*
Y29528D01*
D02*
G37*
G36*
X18833Y29501D02*
X18820D01*
Y29488D01*
X18833D01*
Y29501D01*
D02*
G37*
G36*
X16954D02*
X16941D01*
Y29488D01*
X16954D01*
Y29501D01*
D02*
G37*
G36*
X16941Y29488D02*
X16928D01*
Y29475D01*
X16941D01*
Y29488D01*
D02*
G37*
G36*
X18806Y29475D02*
X18793D01*
Y29462D01*
X18806D01*
Y29475D01*
D02*
G37*
G36*
X16928D02*
X16914D01*
Y29462D01*
X16928D01*
Y29475D01*
D02*
G37*
G36*
X16901D02*
X16888D01*
Y29462D01*
X16901D01*
Y29475D01*
D02*
G37*
G36*
X18806Y29448D02*
X18793D01*
Y29435D01*
X18806D01*
Y29448D01*
D02*
G37*
G36*
X16928D02*
X16914D01*
Y29435D01*
X16928D01*
Y29448D01*
D02*
G37*
G36*
X16875D02*
X16861D01*
Y29435D01*
X16875D01*
Y29448D01*
D02*
G37*
G36*
X18700Y29422D02*
X18687D01*
Y29409D01*
X18700D01*
Y29422D01*
D02*
G37*
G36*
X18780Y29395D02*
X18767D01*
Y29382D01*
X18780D01*
Y29395D01*
D02*
G37*
G36*
X16769D02*
X16756D01*
Y29382D01*
X16769D01*
Y29395D01*
D02*
G37*
G36*
X18700Y29369D02*
X18687D01*
Y29356D01*
X18700D01*
Y29369D01*
D02*
G37*
G36*
X16716D02*
X16703D01*
Y29356D01*
X16716D01*
Y29369D01*
D02*
G37*
G36*
X16769Y29342D02*
X16756D01*
Y29329D01*
X16769D01*
Y29342D01*
D02*
G37*
G36*
X16703Y29356D02*
X16690D01*
Y29342D01*
X16703D01*
Y29329D01*
X16716D01*
Y29342D01*
X16703D01*
Y29356D01*
D02*
G37*
G36*
X18700Y29316D02*
X18687D01*
Y29303D01*
X18700D01*
Y29316D01*
D02*
G37*
G36*
X16663D02*
X16650D01*
Y29303D01*
X16663D01*
Y29316D01*
D02*
G37*
G36*
X18727Y29290D02*
X18714D01*
Y29276D01*
X18727D01*
Y29290D01*
D02*
G37*
G36*
X16650Y29276D02*
X16637D01*
Y29263D01*
X16650D01*
Y29250D01*
X16663D01*
Y29263D01*
X16650D01*
Y29276D01*
D02*
G37*
G36*
X16637Y29263D02*
X16623D01*
Y29250D01*
X16637D01*
Y29263D01*
D02*
G37*
G36*
X18714Y29250D02*
X18700D01*
Y29237D01*
X18714D01*
Y29250D01*
D02*
G37*
G36*
X16663Y29237D02*
X16650D01*
Y29223D01*
X16663D01*
Y29237D01*
D02*
G37*
G36*
X16610D02*
X16597D01*
Y29223D01*
X16610D01*
Y29237D01*
D02*
G37*
G36*
X18714Y29210D02*
X18687D01*
Y29197D01*
X18714D01*
Y29210D01*
D02*
G37*
G36*
X16531D02*
X16518D01*
Y29197D01*
X16531D01*
Y29210D01*
D02*
G37*
G36*
X18700Y29184D02*
X18687D01*
Y29170D01*
X18700D01*
Y29184D01*
D02*
G37*
G36*
X16504D02*
X16491D01*
Y29170D01*
X16504D01*
Y29184D01*
D02*
G37*
G36*
X18700Y29157D02*
X18687D01*
Y29144D01*
X18700D01*
Y29157D01*
D02*
G37*
G36*
X16531D02*
X16518D01*
Y29144D01*
X16531D01*
Y29157D01*
D02*
G37*
G36*
X16557Y29131D02*
X16544D01*
Y29118D01*
X16557D01*
Y29131D01*
D02*
G37*
G36*
X18700Y29104D02*
X18687D01*
Y29091D01*
X18700D01*
Y29104D01*
D02*
G37*
G36*
X16425Y29078D02*
X16412D01*
Y29065D01*
X16425D01*
Y29078D01*
D02*
G37*
G36*
Y29051D02*
X16412D01*
Y29038D01*
X16425D01*
Y29051D01*
D02*
G37*
G36*
X16398D02*
X16385D01*
Y29038D01*
X16398D01*
Y29051D01*
D02*
G37*
G36*
X16372D02*
X16359D01*
Y29038D01*
X16372D01*
Y29051D01*
D02*
G37*
G36*
X16451Y29025D02*
X16438D01*
Y29012D01*
X16451D01*
Y29025D01*
D02*
G37*
G36*
X18700Y28998D02*
X18687D01*
Y28985D01*
X18700D01*
Y28998D01*
D02*
G37*
G36*
X16346Y28972D02*
X16332D01*
Y28959D01*
X16346D01*
Y28972D01*
D02*
G37*
G36*
X16319Y28946D02*
X16306D01*
Y28932D01*
X16319D01*
Y28946D01*
D02*
G37*
G36*
X16293D02*
X16279D01*
Y28932D01*
X16293D01*
Y28946D01*
D02*
G37*
G36*
X16266D02*
X16253D01*
Y28932D01*
X16266D01*
Y28946D01*
D02*
G37*
G36*
X18727Y28919D02*
X18714D01*
Y28906D01*
X18727D01*
Y28919D01*
D02*
G37*
G36*
X16346D02*
X16332D01*
Y28906D01*
X16346D01*
Y28919D01*
D02*
G37*
G36*
X16240D02*
X16226D01*
Y28906D01*
X16240D01*
Y28919D01*
D02*
G37*
G36*
X18727Y28893D02*
X18714D01*
Y28879D01*
X18727D01*
Y28893D01*
D02*
G37*
G36*
X16240D02*
X16226D01*
Y28879D01*
X16240D01*
Y28893D01*
D02*
G37*
G36*
X18753Y28866D02*
X18740D01*
Y28853D01*
X18753D01*
Y28866D01*
D02*
G37*
G36*
X18727D02*
X18714D01*
Y28853D01*
X18727D01*
Y28866D01*
D02*
G37*
G36*
X16213D02*
X16200D01*
Y28853D01*
X16213D01*
Y28866D01*
D02*
G37*
G36*
X18753Y28840D02*
X18740D01*
Y28826D01*
X18753D01*
Y28840D01*
D02*
G37*
G36*
X18700D02*
X18687D01*
Y28826D01*
X18700D01*
Y28840D01*
D02*
G37*
G36*
X18780Y28813D02*
X18767D01*
Y28800D01*
X18780D01*
Y28813D01*
D02*
G37*
G36*
X18700D02*
X18687D01*
Y28800D01*
X18700D01*
Y28813D01*
D02*
G37*
G36*
X16213D02*
X16200D01*
Y28800D01*
X16213D01*
Y28813D01*
D02*
G37*
G36*
X16187D02*
X16174D01*
Y28800D01*
X16187D01*
Y28813D01*
D02*
G37*
G36*
X18806Y28787D02*
X18793D01*
Y28774D01*
X18806D01*
Y28787D01*
D02*
G37*
G36*
X16134D02*
X16121D01*
Y28774D01*
X16134D01*
Y28787D01*
D02*
G37*
G36*
Y28760D02*
X16121D01*
Y28747D01*
X16134D01*
Y28760D01*
D02*
G37*
G36*
X18833Y28707D02*
X18820D01*
Y28694D01*
X18833D01*
Y28707D01*
D02*
G37*
G36*
X16121Y28721D02*
X16107D01*
Y28707D01*
X16121D01*
Y28694D01*
X16134D01*
Y28707D01*
X16121D01*
Y28721D01*
D02*
G37*
G36*
X16028Y28654D02*
X16015D01*
Y28641D01*
X16028D01*
Y28654D01*
D02*
G37*
G36*
X19044Y28549D02*
X19031D01*
Y28535D01*
X19044D01*
Y28549D01*
D02*
G37*
G36*
X19071Y28522D02*
X19058D01*
Y28509D01*
X19071D01*
Y28522D01*
D02*
G37*
G36*
X15922Y28443D02*
X15909D01*
Y28430D01*
X15922D01*
Y28443D01*
D02*
G37*
G36*
X19177Y28416D02*
X19164D01*
Y28403D01*
X19177D01*
Y28416D01*
D02*
G37*
G36*
X19150D02*
X19137D01*
Y28403D01*
X19150D01*
Y28416D01*
D02*
G37*
G36*
X19124D02*
X19111D01*
Y28403D01*
X19124D01*
Y28416D01*
D02*
G37*
G36*
X15922D02*
X15909D01*
Y28403D01*
X15922D01*
Y28416D01*
D02*
G37*
G36*
X15896D02*
X15882D01*
Y28403D01*
X15896D01*
Y28416D01*
D02*
G37*
G36*
X19124Y28390D02*
X19111D01*
Y28377D01*
X19124D01*
Y28390D01*
D02*
G37*
G36*
X19256Y28337D02*
X19243D01*
Y28324D01*
X19256D01*
Y28310D01*
X19269D01*
Y28297D01*
X19283D01*
Y28310D01*
X19269D01*
Y28324D01*
X19256D01*
Y28337D01*
D02*
G37*
G36*
X19230Y28310D02*
X19216D01*
Y28297D01*
X19230D01*
Y28310D01*
D02*
G37*
G36*
X19309Y28284D02*
X19296D01*
Y28271D01*
X19309D01*
Y28284D01*
D02*
G37*
G36*
X19230D02*
X19216D01*
Y28271D01*
X19230D01*
Y28284D01*
D02*
G37*
G36*
X15790D02*
X15777D01*
Y28271D01*
X15790D01*
Y28284D01*
D02*
G37*
G36*
Y28258D02*
X15777D01*
Y28244D01*
X15790D01*
Y28258D01*
D02*
G37*
G36*
X19375Y28218D02*
X19362D01*
Y28205D01*
X19375D01*
Y28191D01*
X19388D01*
Y28205D01*
X19375D01*
Y28218D01*
D02*
G37*
G36*
X19362Y28205D02*
X19349D01*
Y28191D01*
X19362D01*
Y28205D01*
D02*
G37*
G36*
X19336D02*
X19322D01*
Y28191D01*
X19336D01*
Y28205D01*
D02*
G37*
G36*
X19415Y28178D02*
X19402D01*
Y28165D01*
X19415D01*
Y28178D01*
D02*
G37*
G36*
X15763D02*
X15750D01*
Y28165D01*
X15763D01*
Y28178D01*
D02*
G37*
G36*
X19468Y28125D02*
X19455D01*
Y28112D01*
X19468D01*
Y28125D01*
D02*
G37*
G36*
X19494Y28099D02*
X19481D01*
Y28086D01*
X19494D01*
Y28099D01*
D02*
G37*
G36*
X19441D02*
X19428D01*
Y28086D01*
X19441D01*
Y28099D01*
D02*
G37*
G36*
X15710Y28072D02*
X15697D01*
Y28059D01*
X15710D01*
Y28072D01*
D02*
G37*
G36*
X19547Y28046D02*
X19534D01*
Y28033D01*
X19547D01*
Y28046D01*
D02*
G37*
G36*
X15684D02*
X15671D01*
Y28033D01*
X15684D01*
Y28046D01*
D02*
G37*
G36*
X19574Y28019D02*
X19560D01*
Y28006D01*
X19574D01*
Y28019D01*
D02*
G37*
G36*
X19600Y27993D02*
X19587D01*
Y27980D01*
X19600D01*
Y27993D01*
D02*
G37*
G36*
X19560D02*
X19547D01*
Y27980D01*
X19560D01*
Y27993D01*
D02*
G37*
G36*
X15658Y27967D02*
X15644D01*
Y27953D01*
X15658D01*
Y27967D01*
D02*
G37*
G36*
X19653Y27887D02*
X19640D01*
Y27874D01*
X19653D01*
Y27887D01*
D02*
G37*
G36*
X15605D02*
X15591D01*
Y27874D01*
X15605D01*
Y27887D01*
D02*
G37*
G36*
X17880Y27861D02*
X17867D01*
Y27847D01*
X17880D01*
Y27861D01*
D02*
G37*
G36*
X17774D02*
X17761D01*
Y27847D01*
X17774D01*
Y27861D01*
D02*
G37*
G36*
X15605D02*
X15591D01*
Y27847D01*
X15605D01*
Y27861D01*
D02*
G37*
G36*
X18370Y27847D02*
X18356D01*
Y27834D01*
X18370D01*
Y27847D01*
D02*
G37*
G36*
X18092Y27861D02*
X18079D01*
Y27847D01*
X18039D01*
Y27834D01*
X18026D01*
Y27847D01*
X18013D01*
Y27834D01*
X17999D01*
Y27847D01*
X17986D01*
Y27834D01*
X17973D01*
Y27847D01*
X17933D01*
Y27834D01*
X17920D01*
Y27847D01*
X17907D01*
Y27834D01*
X17827D01*
Y27821D01*
X17814D01*
Y27834D01*
X17721D01*
Y27821D01*
X17655D01*
Y27808D01*
X17589D01*
Y27795D01*
X17536D01*
Y27781D01*
X17497D01*
Y27768D01*
X17444D01*
Y27755D01*
X17404D01*
Y27742D01*
X17364D01*
Y27728D01*
X17325D01*
Y27715D01*
X17298D01*
Y27702D01*
X17258D01*
Y27689D01*
X17232D01*
Y27675D01*
X17205D01*
Y27662D01*
X17166D01*
Y27675D01*
X17153D01*
Y27662D01*
X17166D01*
Y27649D01*
X17139D01*
Y27636D01*
X17113D01*
Y27623D01*
X17086D01*
Y27609D01*
X17073D01*
Y27596D01*
X17047D01*
Y27583D01*
X17020D01*
Y27570D01*
X16994D01*
Y27556D01*
X16981D01*
Y27543D01*
X16954D01*
Y27530D01*
X16928D01*
Y27517D01*
X16914D01*
Y27503D01*
X16888D01*
Y27490D01*
X16875D01*
Y27477D01*
X16861D01*
Y27464D01*
X16835D01*
Y27451D01*
X16822D01*
Y27437D01*
X16795D01*
Y27424D01*
X16782D01*
Y27411D01*
X16769D01*
Y27398D01*
X16742D01*
Y27384D01*
X16729D01*
Y27371D01*
X16716D01*
Y27358D01*
X16703D01*
Y27345D01*
X16690D01*
Y27331D01*
X16676D01*
Y27318D01*
X16663D01*
Y27305D01*
X16650D01*
Y27292D01*
X16637D01*
Y27279D01*
X16623D01*
Y27265D01*
X16597D01*
Y27252D01*
X16584D01*
Y27239D01*
X16570D01*
Y27226D01*
X16557D01*
Y27212D01*
X16544D01*
Y27199D01*
X16518D01*
Y27186D01*
X16531D01*
Y27173D01*
X16518D01*
Y27159D01*
X16504D01*
Y27146D01*
X16491D01*
Y27133D01*
X16478D01*
Y27120D01*
X16465D01*
Y27107D01*
X16451D01*
Y27093D01*
Y27080D01*
X16438D01*
Y27067D01*
X16425D01*
Y27054D01*
X16398D01*
Y27040D01*
X16412D01*
Y27027D01*
X16398D01*
Y27014D01*
X16385D01*
Y27001D01*
X16372D01*
Y26987D01*
Y26974D01*
X16359D01*
Y26961D01*
X16346D01*
Y26948D01*
X16319D01*
Y26935D01*
X16332D01*
Y26921D01*
X16319D01*
Y26908D01*
X16306D01*
Y26895D01*
Y26882D01*
X16279D01*
Y26868D01*
X16293D01*
Y26855D01*
X16279D01*
Y26842D01*
X16266D01*
Y26829D01*
X16253D01*
Y26815D01*
X16240D01*
Y26802D01*
X16253D01*
Y26789D01*
X16226D01*
Y26776D01*
Y26763D01*
Y26749D01*
X16200D01*
Y26736D01*
X16213D01*
Y26723D01*
X16200D01*
Y26710D01*
Y26696D01*
X16174D01*
Y26683D01*
X16187D01*
Y26670D01*
X16147D01*
Y26657D01*
X16160D01*
Y26643D01*
X16174D01*
Y26630D01*
X16160D01*
Y26617D01*
Y26604D01*
X16134D01*
Y26591D01*
X16147D01*
Y26577D01*
X16134D01*
Y26564D01*
Y26551D01*
X16107D01*
Y26564D01*
X16094D01*
Y26551D01*
X16107D01*
Y26538D01*
Y26524D01*
X16121D01*
Y26511D01*
X16094D01*
Y26498D01*
Y26485D01*
X16107D01*
Y26472D01*
X16081D01*
Y26485D01*
X16068D01*
Y26472D01*
X16081D01*
Y26458D01*
Y26445D01*
X16094D01*
Y26432D01*
X16068D01*
Y26419D01*
Y26405D01*
X16081D01*
Y26392D01*
X16054D01*
Y26405D01*
X16041D01*
Y26392D01*
X16054D01*
Y26379D01*
Y26366D01*
Y26352D01*
X16068D01*
Y26339D01*
X16041D01*
Y26326D01*
Y26313D01*
X16054D01*
Y26300D01*
X16028D01*
Y26286D01*
Y26273D01*
Y26260D01*
X16041D01*
Y26247D01*
X16015D01*
Y26233D01*
Y26220D01*
Y26207D01*
X16028D01*
Y26194D01*
X15988D01*
Y26180D01*
X16002D01*
Y26167D01*
Y26154D01*
Y26141D01*
Y26128D01*
X16015D01*
Y26114D01*
X15988D01*
Y26101D01*
Y26088D01*
Y26075D01*
Y26061D01*
Y26048D01*
Y26035D01*
Y26022D01*
X16002D01*
Y26008D01*
X15962D01*
Y25995D01*
X15975D01*
Y25982D01*
Y25969D01*
Y25956D01*
Y25942D01*
Y25929D01*
Y25916D01*
Y25903D01*
Y25889D01*
Y25876D01*
Y25863D01*
Y25850D01*
Y25836D01*
Y25823D01*
Y25810D01*
X15988D01*
Y25797D01*
X15962D01*
Y25784D01*
Y25770D01*
X15988D01*
Y25757D01*
X15975D01*
Y25744D01*
Y25731D01*
Y25717D01*
Y25704D01*
Y25691D01*
Y25678D01*
Y25664D01*
Y25651D01*
Y25638D01*
Y25625D01*
Y25612D01*
Y25598D01*
Y25585D01*
Y25572D01*
Y25559D01*
Y25545D01*
Y25532D01*
X16002D01*
Y25519D01*
X15988D01*
Y25506D01*
Y25492D01*
Y25479D01*
Y25466D01*
Y25453D01*
Y25440D01*
X16002D01*
Y25426D01*
X16015D01*
Y25413D01*
X16002D01*
Y25400D01*
Y25387D01*
Y25373D01*
Y25360D01*
Y25347D01*
X16028D01*
Y25334D01*
X16015D01*
Y25320D01*
Y25307D01*
X16028D01*
Y25294D01*
X16041D01*
Y25281D01*
X16028D01*
Y25268D01*
Y25254D01*
Y25241D01*
X16041D01*
Y25228D01*
Y25215D01*
Y25201D01*
X16054D01*
Y25188D01*
X16068D01*
Y25175D01*
X16054D01*
Y25162D01*
Y25149D01*
Y25135D01*
X16081D01*
Y25122D01*
Y25109D01*
X16094D01*
Y25096D01*
X16081D01*
Y25082D01*
X16094D01*
Y25069D01*
X16107D01*
Y25056D01*
X16094D01*
Y25043D01*
X16107D01*
Y25029D01*
X16121D01*
Y25016D01*
X16107D01*
Y25003D01*
X16121D01*
Y24990D01*
Y24977D01*
Y24963D01*
X16147D01*
Y24950D01*
X16134D01*
Y24937D01*
X16160D01*
Y24924D01*
X16147D01*
Y24910D01*
X16174D01*
Y24897D01*
X16160D01*
Y24884D01*
Y24871D01*
X16187D01*
Y24857D01*
Y24844D01*
X16200D01*
Y24831D01*
X16187D01*
Y24818D01*
X16200D01*
Y24805D01*
X16213D01*
Y24791D01*
X16226D01*
Y24778D01*
X16213D01*
Y24765D01*
X16240D01*
Y24752D01*
Y24738D01*
X16253D01*
Y24725D01*
X16266D01*
Y24712D01*
X16253D01*
Y24699D01*
X16279D01*
Y24685D01*
Y24672D01*
X16293D01*
Y24659D01*
X16306D01*
Y24646D01*
X16293D01*
Y24633D01*
X16319D01*
Y24619D01*
X16332D01*
Y24606D01*
Y24593D01*
X16346D01*
Y24580D01*
X16359D01*
Y24566D01*
X16346D01*
Y24553D01*
X16372D01*
Y24540D01*
X16385D01*
Y24527D01*
Y24513D01*
X16398D01*
Y24500D01*
X16412D01*
Y24487D01*
X16425D01*
Y24474D01*
X16438D01*
Y24461D01*
X16425D01*
Y24447D01*
X16451D01*
Y24434D01*
X16465D01*
Y24421D01*
X16478D01*
Y24408D01*
X16491D01*
Y24394D01*
X16504D01*
Y24381D01*
X16518D01*
Y24368D01*
Y24355D01*
X16531D01*
Y24341D01*
X16544D01*
Y24328D01*
X16557D01*
Y24315D01*
X16570D01*
Y24302D01*
X16584D01*
Y24289D01*
X16597D01*
Y24275D01*
X16610D01*
Y24262D01*
X16623D01*
Y24249D01*
X16637D01*
Y24236D01*
X16650D01*
Y24222D01*
X16663D01*
Y24209D01*
X16690D01*
Y24196D01*
X16703D01*
Y24183D01*
X16716D01*
Y24169D01*
X16729D01*
Y24156D01*
X16742D01*
Y24143D01*
X16769D01*
Y24130D01*
X16782D01*
Y24117D01*
X16795D01*
Y24103D01*
X16822D01*
Y24090D01*
X16835D01*
Y24077D01*
X16848D01*
Y24064D01*
X16875D01*
Y24050D01*
X16888D01*
Y24037D01*
X16914D01*
Y24024D01*
X16928D01*
Y24011D01*
X16954D01*
Y23997D01*
X16967D01*
Y23984D01*
X16994D01*
Y23971D01*
X17020D01*
Y23958D01*
X17033D01*
Y23945D01*
X17073D01*
Y23931D01*
X17086D01*
Y23918D01*
X17113D01*
Y23905D01*
X17139D01*
Y23892D01*
X17166D01*
Y23878D01*
X17205D01*
Y23865D01*
X17232D01*
Y23852D01*
X17258D01*
Y23839D01*
X17285D01*
Y23826D01*
X17325D01*
Y23812D01*
X17364D01*
Y23799D01*
X17391D01*
Y23786D01*
X17430D01*
Y23773D01*
X17483D01*
Y23759D01*
X17536D01*
Y23746D01*
X17589D01*
Y23733D01*
X17642D01*
Y23720D01*
X17708D01*
Y23706D01*
X17788D01*
Y23693D01*
X17801D01*
Y23706D01*
X17814D01*
Y23693D01*
X17999D01*
Y23680D01*
X18105D01*
Y23693D01*
X18118D01*
Y23680D01*
X18145D01*
Y23693D01*
X18304D01*
Y23706D01*
X18409D01*
Y23720D01*
X18476D01*
Y23733D01*
X18528D01*
Y23746D01*
X18581D01*
Y23759D01*
X18648D01*
Y23773D01*
X18687D01*
Y23786D01*
X18727D01*
Y23799D01*
X18767D01*
Y23812D01*
X18793D01*
Y23826D01*
X18833D01*
Y23839D01*
X18859D01*
Y23852D01*
X18899D01*
Y23865D01*
X18925D01*
Y23878D01*
X18952D01*
Y23892D01*
X18978D01*
Y23905D01*
X19005D01*
Y23918D01*
X19018D01*
Y23931D01*
X19044D01*
Y23945D01*
X19071D01*
Y23958D01*
X19097D01*
Y23971D01*
X19124D01*
Y23984D01*
X19137D01*
Y23997D01*
X19164D01*
Y24011D01*
X19177D01*
Y24024D01*
X19203D01*
Y24037D01*
X19216D01*
Y24050D01*
X19243D01*
Y24064D01*
X19256D01*
Y24077D01*
X19283D01*
Y24090D01*
X19296D01*
Y24103D01*
X19309D01*
Y24117D01*
X19336D01*
Y24130D01*
X19349D01*
Y24143D01*
X19362D01*
Y24156D01*
X19388D01*
Y24169D01*
X19402D01*
Y24183D01*
X19415D01*
Y24196D01*
X19428D01*
Y24209D01*
X19441D01*
Y24222D01*
X19455D01*
Y24236D01*
X19468D01*
Y24249D01*
X19481D01*
Y24262D01*
X19494D01*
Y24275D01*
X19507D01*
Y24289D01*
X19521D01*
Y24302D01*
X19534D01*
Y24315D01*
X19547D01*
Y24328D01*
X19560D01*
Y24341D01*
X19574D01*
Y24355D01*
X19587D01*
Y24368D01*
X19600D01*
Y24381D01*
X19613D01*
Y24394D01*
X19627D01*
Y24408D01*
X19640D01*
Y24421D01*
X19653D01*
Y24434D01*
X19679D01*
Y24447D01*
X19666D01*
Y24461D01*
X19679D01*
Y24474D01*
X19693D01*
Y24487D01*
X19706D01*
Y24500D01*
Y24513D01*
X19719D01*
Y24527D01*
X19746D01*
Y24540D01*
X19732D01*
Y24553D01*
X19746D01*
Y24566D01*
X19759D01*
Y24580D01*
X19772D01*
Y24593D01*
Y24606D01*
X19785D01*
Y24619D01*
X19812D01*
Y24633D01*
X19799D01*
Y24646D01*
X19812D01*
Y24659D01*
X19825D01*
Y24672D01*
X19838D01*
Y24685D01*
X19851D01*
Y24699D01*
X19838D01*
Y24712D01*
X19851D01*
Y24725D01*
X19865D01*
Y24738D01*
Y24752D01*
X19891D01*
Y24765D01*
X19878D01*
Y24778D01*
X19891D01*
Y24791D01*
Y24805D01*
X19918D01*
Y24818D01*
X19904D01*
Y24831D01*
X19918D01*
Y24844D01*
Y24857D01*
X19944D01*
Y24871D01*
X19931D01*
Y24884D01*
X19944D01*
Y24897D01*
Y24910D01*
X19971D01*
Y24924D01*
X19957D01*
Y24937D01*
X19971D01*
Y24950D01*
X19984D01*
Y24937D01*
X19997D01*
Y24950D01*
X19984D01*
Y24963D01*
X19971D01*
Y24977D01*
X19984D01*
Y24990D01*
X19997D01*
Y25003D01*
X20010D01*
Y25016D01*
Y25029D01*
X19997D01*
Y25043D01*
X20023D01*
Y25056D01*
Y25069D01*
Y25082D01*
X20037D01*
Y25069D01*
X20050D01*
Y25082D01*
X20037D01*
Y25096D01*
X20023D01*
Y25109D01*
X20037D01*
Y25122D01*
X20050D01*
Y25135D01*
Y25149D01*
X20037D01*
Y25162D01*
X20063D01*
Y25175D01*
Y25188D01*
Y25201D01*
X20050D01*
Y25215D01*
X20063D01*
Y25228D01*
X20076D01*
Y25241D01*
X20063D01*
Y25254D01*
X20076D01*
Y25268D01*
X20090D01*
Y25254D01*
X20103D01*
Y25268D01*
X20090D01*
Y25281D01*
X20076D01*
Y25294D01*
X20090D01*
Y25307D01*
X20103D01*
Y25320D01*
Y25334D01*
Y25347D01*
Y25360D01*
Y25373D01*
X20090D01*
Y25387D01*
X20116D01*
Y25400D01*
Y25413D01*
Y25426D01*
Y25440D01*
X20103D01*
Y25453D01*
X20116D01*
Y25466D01*
X20129D01*
Y25479D01*
Y25492D01*
Y25506D01*
Y25519D01*
Y25532D01*
Y25545D01*
X20116D01*
Y25559D01*
X20143D01*
Y25545D01*
X20156D01*
Y25559D01*
X20143D01*
Y25572D01*
Y25585D01*
Y25598D01*
Y25612D01*
Y25625D01*
Y25638D01*
Y25651D01*
Y25664D01*
Y25678D01*
Y25691D01*
Y25704D01*
Y25717D01*
Y25731D01*
Y25744D01*
Y25757D01*
Y25770D01*
Y25784D01*
Y25797D01*
Y25810D01*
Y25823D01*
Y25836D01*
Y25850D01*
Y25863D01*
Y25876D01*
Y25889D01*
Y25903D01*
Y25916D01*
Y25929D01*
Y25942D01*
Y25956D01*
Y25969D01*
Y25982D01*
X20116D01*
Y25995D01*
X20129D01*
Y26008D01*
Y26022D01*
Y26035D01*
Y26048D01*
Y26061D01*
Y26075D01*
Y26088D01*
X20103D01*
Y26101D01*
X20116D01*
Y26114D01*
Y26128D01*
Y26141D01*
Y26154D01*
Y26167D01*
Y26180D01*
X20090D01*
Y26194D01*
X20103D01*
Y26207D01*
Y26220D01*
X20090D01*
Y26233D01*
X20076D01*
Y26247D01*
X20090D01*
Y26260D01*
Y26273D01*
Y26286D01*
Y26300D01*
X20063D01*
Y26313D01*
X20076D01*
Y26326D01*
Y26339D01*
X20050D01*
Y26352D01*
X20063D01*
Y26366D01*
Y26379D01*
X20037D01*
Y26392D01*
X20050D01*
Y26405D01*
Y26419D01*
Y26432D01*
X20023D01*
Y26445D01*
X20037D01*
Y26458D01*
Y26472D01*
X20010D01*
Y26485D01*
Y26498D01*
X19997D01*
Y26511D01*
X20010D01*
Y26524D01*
Y26538D01*
X19984D01*
Y26551D01*
X19997D01*
Y26564D01*
Y26577D01*
X19971D01*
Y26591D01*
X19984D01*
Y26604D01*
X19957D01*
Y26617D01*
Y26630D01*
X19944D01*
Y26643D01*
X19957D01*
Y26657D01*
X19944D01*
Y26670D01*
X19931D01*
Y26683D01*
X19918D01*
Y26696D01*
X19931D01*
Y26710D01*
X19918D01*
Y26723D01*
X19904D01*
Y26736D01*
X19891D01*
Y26749D01*
X19904D01*
Y26763D01*
X19878D01*
Y26776D01*
Y26789D01*
X19865D01*
Y26802D01*
X19878D01*
Y26815D01*
X19851D01*
Y26829D01*
Y26842D01*
X19838D01*
Y26855D01*
X19825D01*
Y26868D01*
X19838D01*
Y26882D01*
X19812D01*
Y26895D01*
X19799D01*
Y26908D01*
X19812D01*
Y26921D01*
Y26935D01*
X19799D01*
Y26921D01*
X19785D01*
Y26935D01*
X19772D01*
Y26948D01*
X19785D01*
Y26961D01*
X19759D01*
Y26974D01*
X19746D01*
Y26987D01*
Y27001D01*
X19732D01*
Y27014D01*
X19719D01*
Y27027D01*
X19706D01*
Y27040D01*
X19719D01*
Y27054D01*
X19693D01*
Y27067D01*
X19679D01*
Y27080D01*
X19666D01*
Y27093D01*
X19653D01*
Y27107D01*
X19640D01*
Y27120D01*
Y27133D01*
X19627D01*
Y27146D01*
X19613D01*
Y27159D01*
X19600D01*
Y27173D01*
X19587D01*
Y27186D01*
X19574D01*
Y27199D01*
X19560D01*
Y27212D01*
X19547D01*
Y27226D01*
X19534D01*
Y27239D01*
X19521D01*
Y27252D01*
X19507D01*
Y27265D01*
X19494D01*
Y27279D01*
X19481D01*
Y27292D01*
X19468D01*
Y27305D01*
X19455D01*
Y27318D01*
X19441D01*
Y27331D01*
X19428D01*
Y27345D01*
X19415D01*
Y27358D01*
X19388D01*
Y27371D01*
X19375D01*
Y27384D01*
X19362D01*
Y27398D01*
X19349D01*
Y27411D01*
X19336D01*
Y27424D01*
X19309D01*
Y27437D01*
X19296D01*
Y27451D01*
X19283D01*
Y27464D01*
X19256D01*
Y27477D01*
X19243D01*
Y27490D01*
X19216D01*
Y27503D01*
X19203D01*
Y27517D01*
X19190D01*
Y27530D01*
X19164D01*
Y27543D01*
X19137D01*
Y27556D01*
X19124D01*
Y27570D01*
X19097D01*
Y27583D01*
X19071D01*
Y27596D01*
X19044D01*
Y27609D01*
X19031D01*
Y27623D01*
X19005D01*
Y27636D01*
X18978D01*
Y27649D01*
X18939D01*
Y27662D01*
X18912D01*
Y27675D01*
X18886D01*
Y27689D01*
X18859D01*
Y27702D01*
X18820D01*
Y27715D01*
X18780D01*
Y27728D01*
X18753D01*
Y27742D01*
X18714D01*
Y27755D01*
X18674D01*
Y27768D01*
X18621D01*
Y27781D01*
X18581D01*
Y27795D01*
X18528D01*
Y27808D01*
X18476D01*
Y27821D01*
X18330D01*
Y27834D01*
X18184D01*
Y27847D01*
X18171D01*
Y27834D01*
X18158D01*
Y27847D01*
X18092D01*
Y27861D01*
D02*
G37*
G36*
X18648Y27834D02*
X18634D01*
Y27821D01*
X18648D01*
Y27834D01*
D02*
G37*
G36*
X18568D02*
X18555D01*
Y27821D01*
X18568D01*
Y27834D01*
D02*
G37*
G36*
X18542D02*
X18528D01*
Y27821D01*
X18542D01*
Y27834D01*
D02*
G37*
G36*
X18515D02*
X18502D01*
Y27821D01*
X18515D01*
Y27834D01*
D02*
G37*
G36*
X17642D02*
X17629D01*
Y27821D01*
X17642D01*
Y27834D01*
D02*
G37*
G36*
X17589D02*
X17576D01*
Y27821D01*
X17589D01*
Y27834D01*
D02*
G37*
G36*
X17536D02*
X17523D01*
Y27821D01*
X17536D01*
Y27834D01*
D02*
G37*
G36*
X17483D02*
X17470D01*
Y27821D01*
X17483D01*
Y27834D01*
D02*
G37*
G36*
X17457D02*
X17444D01*
Y27821D01*
X17457D01*
Y27834D01*
D02*
G37*
G36*
X17430D02*
X17417D01*
Y27821D01*
X17430D01*
Y27834D01*
D02*
G37*
G36*
X15578D02*
X15565D01*
Y27821D01*
X15578D01*
Y27834D01*
D02*
G37*
G36*
X18608Y27821D02*
X18595D01*
Y27808D01*
X18608D01*
Y27795D01*
X18621D01*
Y27808D01*
X18608D01*
Y27821D01*
D02*
G37*
G36*
X17457Y27808D02*
X17444D01*
Y27795D01*
X17457D01*
Y27808D01*
D02*
G37*
G36*
X17430D02*
X17417D01*
Y27795D01*
X17430D01*
Y27808D01*
D02*
G37*
G36*
X15578D02*
X15565D01*
Y27795D01*
X15578D01*
Y27808D01*
D02*
G37*
G36*
X17430Y27781D02*
X17417D01*
Y27768D01*
X17430D01*
Y27781D01*
D02*
G37*
G36*
X15578D02*
X15565D01*
Y27768D01*
X15578D01*
Y27755D01*
X15591D01*
Y27768D01*
X15578D01*
Y27781D01*
D02*
G37*
G36*
X19759D02*
X19746D01*
Y27768D01*
X19759D01*
Y27755D01*
X19772D01*
Y27742D01*
X19785D01*
Y27755D01*
X19772D01*
Y27768D01*
X19759D01*
Y27781D01*
D02*
G37*
G36*
Y27755D02*
X19746D01*
Y27742D01*
X19759D01*
Y27755D01*
D02*
G37*
G36*
X18992D02*
X18978D01*
Y27742D01*
X18992D01*
Y27755D01*
D02*
G37*
G36*
X17351D02*
X17338D01*
Y27742D01*
X17351D01*
Y27755D01*
D02*
G37*
G36*
X15578D02*
X15565D01*
Y27742D01*
X15578D01*
Y27755D01*
D02*
G37*
G36*
X19759Y27728D02*
X19746D01*
Y27715D01*
X19759D01*
Y27728D01*
D02*
G37*
G36*
X18965D02*
X18952D01*
Y27715D01*
X18965D01*
Y27728D01*
D02*
G37*
G36*
X18939D02*
X18925D01*
Y27715D01*
X18939D01*
Y27728D01*
D02*
G37*
G36*
X17272D02*
X17258D01*
Y27715D01*
X17272D01*
Y27728D01*
D02*
G37*
G36*
X17192D02*
X17179D01*
Y27715D01*
X17192D01*
Y27728D01*
D02*
G37*
G36*
X17113D02*
X17100D01*
Y27715D01*
X17113D01*
Y27728D01*
D02*
G37*
G36*
X19812Y27702D02*
X19799D01*
Y27689D01*
X19812D01*
Y27702D01*
D02*
G37*
G36*
X18992D02*
X18978D01*
Y27689D01*
X18992D01*
Y27702D01*
D02*
G37*
G36*
X17166Y27728D02*
X17153D01*
Y27715D01*
X17166D01*
Y27702D01*
X17179D01*
Y27689D01*
X17192D01*
Y27702D01*
X17179D01*
Y27715D01*
X17166D01*
Y27728D01*
D02*
G37*
G36*
X17139Y27702D02*
X17126D01*
Y27689D01*
X17139D01*
Y27702D01*
D02*
G37*
G36*
X19785Y27675D02*
X19772D01*
Y27662D01*
X19785D01*
Y27675D01*
D02*
G37*
G36*
X19759D02*
X19746D01*
Y27662D01*
X19759D01*
Y27675D01*
D02*
G37*
G36*
X18992D02*
X18978D01*
Y27662D01*
X18992D01*
Y27675D01*
D02*
G37*
G36*
X18965D02*
X18952D01*
Y27662D01*
X18965D01*
Y27675D01*
D02*
G37*
G36*
X19825Y27662D02*
X19812D01*
Y27649D01*
X19825D01*
Y27662D01*
D02*
G37*
G36*
X17126D02*
X17113D01*
Y27649D01*
X17126D01*
Y27662D01*
D02*
G37*
G36*
X19785Y27649D02*
X19772D01*
Y27636D01*
X19785D01*
Y27649D01*
D02*
G37*
G36*
X19203D02*
X19190D01*
Y27636D01*
X19203D01*
Y27649D01*
D02*
G37*
G36*
X19097D02*
X19084D01*
Y27636D01*
X19097D01*
Y27649D01*
D02*
G37*
G36*
X19891Y27623D02*
X19878D01*
Y27609D01*
X19891D01*
Y27623D01*
D02*
G37*
G36*
X19865D02*
X19851D01*
Y27609D01*
X19865D01*
Y27623D01*
D02*
G37*
G36*
X19164Y27636D02*
X19150D01*
Y27623D01*
X19164D01*
Y27609D01*
X19177D01*
Y27623D01*
X19164D01*
Y27636D01*
D02*
G37*
G36*
X19071Y27623D02*
X19058D01*
Y27609D01*
X19071D01*
Y27623D01*
D02*
G37*
G36*
X17033D02*
X17020D01*
Y27609D01*
X17033D01*
Y27623D01*
D02*
G37*
G36*
X16981D02*
X16967D01*
Y27609D01*
X16981D01*
Y27623D01*
D02*
G37*
G36*
X16928D02*
X16914D01*
Y27609D01*
X16928D01*
Y27623D01*
D02*
G37*
G36*
X16901D02*
X16888D01*
Y27609D01*
X16901D01*
Y27623D01*
D02*
G37*
G36*
X17007D02*
X16994D01*
Y27609D01*
X17007D01*
Y27596D01*
X17020D01*
Y27609D01*
X17007D01*
Y27623D01*
D02*
G37*
G36*
X19891Y27596D02*
X19878D01*
Y27583D01*
X19891D01*
Y27596D01*
D02*
G37*
G36*
X19203D02*
X19190D01*
Y27583D01*
X19203D01*
Y27596D01*
D02*
G37*
G36*
X19150D02*
X19137D01*
Y27583D01*
X19150D01*
Y27596D01*
D02*
G37*
G36*
X16981D02*
X16967D01*
Y27583D01*
X16981D01*
Y27596D01*
D02*
G37*
G36*
X15499D02*
X15486D01*
Y27583D01*
X15499D01*
Y27596D01*
D02*
G37*
G36*
X19865Y27570D02*
X19851D01*
Y27556D01*
X19865D01*
Y27570D01*
D02*
G37*
G36*
X19177D02*
X19164D01*
Y27556D01*
X19177D01*
Y27570D01*
D02*
G37*
G36*
X16928D02*
X16914D01*
Y27556D01*
X16928D01*
Y27570D01*
D02*
G37*
G36*
X16901D02*
X16888D01*
Y27556D01*
X16901D01*
Y27570D01*
D02*
G37*
G36*
X19891Y27543D02*
X19878D01*
Y27530D01*
X19891D01*
Y27543D01*
D02*
G37*
G36*
X19309D02*
X19296D01*
Y27530D01*
X19309D01*
Y27543D01*
D02*
G37*
G36*
X19203D02*
X19190D01*
Y27530D01*
X19203D01*
Y27543D01*
D02*
G37*
G36*
X16848D02*
X16835D01*
Y27530D01*
X16848D01*
Y27543D01*
D02*
G37*
G36*
X19283Y27517D02*
X19269D01*
Y27503D01*
X19283D01*
Y27517D01*
D02*
G37*
G36*
X19256D02*
X19243D01*
Y27503D01*
X19256D01*
Y27517D01*
D02*
G37*
G36*
X16875D02*
X16861D01*
Y27503D01*
X16875D01*
Y27517D01*
D02*
G37*
G36*
X16848D02*
X16835D01*
Y27503D01*
X16848D01*
Y27517D01*
D02*
G37*
G36*
X16822D02*
X16809D01*
Y27503D01*
X16822D01*
Y27517D01*
D02*
G37*
G36*
X16795D02*
X16782D01*
Y27503D01*
X16795D01*
Y27517D01*
D02*
G37*
G36*
X19309Y27490D02*
X19296D01*
Y27477D01*
X19309D01*
Y27490D01*
D02*
G37*
G36*
X16795Y27464D02*
X16782D01*
Y27451D01*
X16795D01*
Y27464D01*
D02*
G37*
G36*
X15499D02*
X15486D01*
Y27451D01*
X15499D01*
Y27464D01*
D02*
G37*
G36*
X15472D02*
X15459D01*
Y27451D01*
X15472D01*
Y27464D01*
D02*
G37*
G36*
X19971D02*
X19957D01*
Y27451D01*
X19971D01*
Y27437D01*
X19984D01*
Y27451D01*
X19971D01*
Y27464D01*
D02*
G37*
G36*
X19362Y27437D02*
X19349D01*
Y27424D01*
X19362D01*
Y27437D01*
D02*
G37*
G36*
X16769D02*
X16756D01*
Y27424D01*
X16769D01*
Y27437D01*
D02*
G37*
G36*
X16716D02*
X16703D01*
Y27424D01*
X16716D01*
Y27437D01*
D02*
G37*
G36*
X20023Y27411D02*
X20010D01*
Y27398D01*
X20023D01*
Y27411D01*
D02*
G37*
G36*
X15472D02*
X15459D01*
Y27398D01*
X15472D01*
Y27411D01*
D02*
G37*
G36*
X19997Y27384D02*
X19984D01*
Y27371D01*
X19997D01*
Y27384D01*
D02*
G37*
G36*
X19415D02*
X19402D01*
Y27371D01*
X19415D01*
Y27384D01*
D02*
G37*
G36*
X20050Y27358D02*
X20037D01*
Y27345D01*
X20050D01*
Y27358D01*
D02*
G37*
G36*
X20023D02*
X20010D01*
Y27345D01*
X20023D01*
Y27358D01*
D02*
G37*
G36*
X19997Y27331D02*
X19984D01*
Y27318D01*
X19997D01*
Y27331D01*
D02*
G37*
G36*
X15446D02*
X15433D01*
Y27318D01*
X15446D01*
Y27331D01*
D02*
G37*
G36*
X20076Y27305D02*
X20063D01*
Y27292D01*
X20076D01*
Y27305D01*
D02*
G37*
G36*
X19521D02*
X19507D01*
Y27292D01*
X19521D01*
Y27305D01*
D02*
G37*
G36*
X16584D02*
X16570D01*
Y27292D01*
X16584D01*
Y27305D01*
D02*
G37*
G36*
X20103Y27279D02*
X20090D01*
Y27265D01*
X20103D01*
Y27279D01*
D02*
G37*
G36*
Y27252D02*
X20090D01*
Y27239D01*
X20103D01*
Y27252D01*
D02*
G37*
G36*
X16504Y27226D02*
X16491D01*
Y27212D01*
X16504D01*
Y27226D01*
D02*
G37*
G36*
X19627Y27199D02*
X19613D01*
Y27186D01*
X19627D01*
Y27199D01*
D02*
G37*
G36*
X16478D02*
X16465D01*
Y27186D01*
X16478D01*
Y27199D01*
D02*
G37*
G36*
X15393Y27173D02*
X15380D01*
Y27159D01*
X15393D01*
Y27173D01*
D02*
G37*
G36*
X20182Y27146D02*
X20169D01*
Y27133D01*
X20182D01*
Y27146D01*
D02*
G37*
G36*
X15393Y27120D02*
X15380D01*
Y27107D01*
X15393D01*
Y27120D01*
D02*
G37*
G36*
X19732Y27093D02*
X19719D01*
Y27080D01*
X19732D01*
Y27093D01*
D02*
G37*
G36*
X19706D02*
X19693D01*
Y27080D01*
X19706D01*
Y27093D01*
D02*
G37*
G36*
X16425D02*
X16412D01*
Y27080D01*
X16425D01*
Y27093D01*
D02*
G37*
G36*
X16372D02*
X16359D01*
Y27080D01*
X16372D01*
Y27093D01*
D02*
G37*
G36*
X19732Y27067D02*
X19719D01*
Y27054D01*
X19732D01*
Y27067D01*
D02*
G37*
G36*
X15393D02*
X15380D01*
Y27054D01*
X15393D01*
Y27067D01*
D02*
G37*
G36*
X20235Y27040D02*
X20222D01*
Y27027D01*
X20235D01*
Y27040D01*
D02*
G37*
G36*
X20182D02*
X20169D01*
Y27027D01*
X20182D01*
Y27040D01*
D02*
G37*
G36*
X16372D02*
X16359D01*
Y27027D01*
X16372D01*
Y27040D01*
D02*
G37*
G36*
X19838Y27014D02*
X19825D01*
Y27001D01*
X19838D01*
Y27014D01*
D02*
G37*
G36*
X16346Y26987D02*
X16332D01*
Y26974D01*
X16346D01*
Y26987D01*
D02*
G37*
G36*
X16319D02*
X16306D01*
Y26974D01*
X16319D01*
Y26987D01*
D02*
G37*
G36*
X16266D02*
X16253D01*
Y26974D01*
X16266D01*
Y26987D01*
D02*
G37*
G36*
X19838Y26961D02*
X19825D01*
Y26948D01*
X19838D01*
Y26961D01*
D02*
G37*
G36*
X16293D02*
X16279D01*
Y26948D01*
X16293D01*
Y26961D01*
D02*
G37*
G36*
X15393D02*
X15380D01*
Y26948D01*
X15393D01*
Y26961D01*
D02*
G37*
G36*
X19838Y26935D02*
X19825D01*
Y26921D01*
X19838D01*
Y26935D01*
D02*
G37*
G36*
X16266D02*
X16253D01*
Y26921D01*
X16266D01*
Y26935D01*
D02*
G37*
G36*
X19944Y26908D02*
X19931D01*
Y26895D01*
X19944D01*
Y26908D01*
D02*
G37*
G36*
X16293D02*
X16279D01*
Y26895D01*
X16293D01*
Y26908D01*
D02*
G37*
G36*
X20288Y26882D02*
X20275D01*
Y26868D01*
X20288D01*
Y26882D01*
D02*
G37*
G36*
X19918D02*
X19904D01*
Y26868D01*
X19918D01*
Y26882D01*
D02*
G37*
G36*
X19891D02*
X19878D01*
Y26868D01*
X19891D01*
Y26882D01*
D02*
G37*
G36*
X19865D02*
X19851D01*
Y26868D01*
X19865D01*
Y26882D01*
D02*
G37*
G36*
X16266D02*
X16253D01*
Y26868D01*
X16266D01*
Y26882D01*
D02*
G37*
G36*
X15366D02*
X15353D01*
Y26868D01*
X15366D01*
Y26882D01*
D02*
G37*
G36*
X20315Y26855D02*
X20301D01*
Y26842D01*
X20315D01*
Y26855D01*
D02*
G37*
G36*
X19944D02*
X19931D01*
Y26842D01*
X19944D01*
Y26855D01*
D02*
G37*
G36*
X19918D02*
X19904D01*
Y26842D01*
X19918D01*
Y26855D01*
D02*
G37*
G36*
X19891D02*
X19878D01*
Y26842D01*
X19891D01*
Y26855D01*
D02*
G37*
G36*
X15393D02*
X15380D01*
Y26842D01*
X15393D01*
Y26855D01*
D02*
G37*
G36*
X20288Y26829D02*
X20275D01*
Y26815D01*
X20288D01*
Y26829D01*
D02*
G37*
G36*
X19918D02*
X19904D01*
Y26815D01*
X19918D01*
Y26829D01*
D02*
G37*
G36*
X20315Y26802D02*
X20301D01*
Y26789D01*
X20315D01*
Y26802D01*
D02*
G37*
G36*
X15366Y26829D02*
X15353D01*
Y26815D01*
X15366D01*
Y26802D01*
X15380D01*
Y26789D01*
X15393D01*
Y26802D01*
X15380D01*
Y26815D01*
X15366D01*
Y26829D01*
D02*
G37*
G36*
X20341Y26776D02*
X20328D01*
Y26763D01*
X20341D01*
Y26776D01*
D02*
G37*
G36*
X20288D02*
X20275D01*
Y26763D01*
X20288D01*
Y26776D01*
D02*
G37*
G36*
X19918D02*
X19904D01*
Y26763D01*
X19918D01*
Y26776D01*
D02*
G37*
G36*
X16213D02*
X16200D01*
Y26763D01*
X16213D01*
Y26776D01*
D02*
G37*
G36*
X16160D02*
X16147D01*
Y26763D01*
X16160D01*
Y26776D01*
D02*
G37*
G36*
X19944Y26749D02*
X19931D01*
Y26736D01*
X19944D01*
Y26749D01*
D02*
G37*
G36*
X16187D02*
X16174D01*
Y26736D01*
X16187D01*
Y26749D01*
D02*
G37*
G36*
X15393D02*
X15380D01*
Y26736D01*
X15393D01*
Y26749D01*
D02*
G37*
G36*
X20315Y26723D02*
X20301D01*
Y26710D01*
X20315D01*
Y26723D01*
D02*
G37*
G36*
X20288D02*
X20275D01*
Y26710D01*
X20288D01*
Y26723D01*
D02*
G37*
G36*
X20367Y26696D02*
X20354D01*
Y26683D01*
X20367D01*
Y26696D01*
D02*
G37*
G36*
X20050D02*
X20037D01*
Y26683D01*
X20050D01*
Y26696D01*
D02*
G37*
G36*
X15393D02*
X15380D01*
Y26683D01*
X15393D01*
Y26696D01*
D02*
G37*
G36*
X19971Y26670D02*
X19957D01*
Y26657D01*
X19971D01*
Y26670D01*
D02*
G37*
G36*
X20023D02*
X20010D01*
Y26657D01*
X20023D01*
Y26643D01*
X20037D01*
Y26630D01*
X20050D01*
Y26643D01*
X20037D01*
Y26657D01*
X20023D01*
Y26670D01*
D02*
G37*
G36*
Y26643D02*
X20010D01*
Y26630D01*
X20023D01*
Y26643D01*
D02*
G37*
G36*
X19997D02*
X19984D01*
Y26630D01*
X19997D01*
Y26643D01*
D02*
G37*
G36*
X20023Y26617D02*
X20010D01*
Y26604D01*
X20023D01*
Y26617D01*
D02*
G37*
G36*
Y26591D02*
X20010D01*
Y26577D01*
X20023D01*
Y26591D01*
D02*
G37*
G36*
X16081D02*
X16068D01*
Y26577D01*
X16081D01*
Y26591D01*
D02*
G37*
G36*
X20394Y26564D02*
X20381D01*
Y26551D01*
X20394D01*
Y26564D01*
D02*
G37*
G36*
X20050D02*
X20037D01*
Y26551D01*
X20050D01*
Y26564D01*
D02*
G37*
G36*
X20023D02*
X20010D01*
Y26551D01*
X20023D01*
Y26564D01*
D02*
G37*
G36*
X20420Y26538D02*
X20407D01*
Y26524D01*
X20420D01*
Y26538D01*
D02*
G37*
G36*
X20394D02*
X20381D01*
Y26524D01*
X20394D01*
Y26538D01*
D02*
G37*
G36*
X20050D02*
X20037D01*
Y26524D01*
X20050D01*
Y26538D01*
D02*
G37*
G36*
X16081D02*
X16068D01*
Y26524D01*
X16081D01*
Y26538D01*
D02*
G37*
G36*
X16054D02*
X16041D01*
Y26524D01*
X16054D01*
Y26538D01*
D02*
G37*
G36*
X20394Y26511D02*
X20381D01*
Y26498D01*
X20394D01*
Y26511D01*
D02*
G37*
G36*
X20050D02*
X20037D01*
Y26498D01*
X20050D01*
Y26511D01*
D02*
G37*
G36*
X16081D02*
X16068D01*
Y26498D01*
X16081D01*
Y26511D01*
D02*
G37*
G36*
X16054D02*
X16041D01*
Y26498D01*
X16054D01*
Y26511D01*
D02*
G37*
G36*
X20420Y26485D02*
X20407D01*
Y26472D01*
X20420D01*
Y26485D01*
D02*
G37*
G36*
X20447Y26458D02*
X20434D01*
Y26445D01*
X20447D01*
Y26458D01*
D02*
G37*
G36*
X20394D02*
X20381D01*
Y26445D01*
X20394D01*
Y26458D01*
D02*
G37*
G36*
X16054D02*
X16041D01*
Y26445D01*
X16054D01*
Y26458D01*
D02*
G37*
G36*
X20420Y26432D02*
X20407D01*
Y26419D01*
X20420D01*
Y26432D01*
D02*
G37*
G36*
X20394Y26405D02*
X20381D01*
Y26392D01*
X20394D01*
Y26405D01*
D02*
G37*
G36*
X20156Y26352D02*
X20143D01*
Y26339D01*
X20156D01*
Y26352D01*
D02*
G37*
G36*
X20129D02*
X20116D01*
Y26339D01*
X20129D01*
Y26352D01*
D02*
G37*
G36*
X20156Y26300D02*
X20143D01*
Y26286D01*
X20156D01*
Y26300D01*
D02*
G37*
G36*
X20129D02*
X20116D01*
Y26286D01*
X20129D01*
Y26300D01*
D02*
G37*
G36*
X20156Y26273D02*
X20143D01*
Y26260D01*
X20156D01*
Y26273D01*
D02*
G37*
G36*
X20129D02*
X20116D01*
Y26260D01*
X20129D01*
Y26273D01*
D02*
G37*
G36*
X15949D02*
X15935D01*
Y26260D01*
X15949D01*
Y26273D01*
D02*
G37*
G36*
X15340D02*
X15327D01*
Y26260D01*
X15340D01*
Y26273D01*
D02*
G37*
G36*
X20500Y26247D02*
X20487D01*
Y26233D01*
X20500D01*
Y26247D01*
D02*
G37*
G36*
X20129D02*
X20116D01*
Y26233D01*
X20129D01*
Y26247D01*
D02*
G37*
G36*
X16002D02*
X15988D01*
Y26233D01*
X16002D01*
Y26247D01*
D02*
G37*
G36*
X15975D02*
X15962D01*
Y26233D01*
X15975D01*
Y26247D01*
D02*
G37*
G36*
X20156Y26220D02*
X20143D01*
Y26207D01*
X20156D01*
Y26220D01*
D02*
G37*
G36*
X15975D02*
X15962D01*
Y26207D01*
X15975D01*
Y26220D01*
D02*
G37*
G36*
X15393D02*
X15380D01*
Y26207D01*
X15393D01*
Y26220D01*
D02*
G37*
G36*
X15975Y26194D02*
X15962D01*
Y26180D01*
X15975D01*
Y26194D01*
D02*
G37*
G36*
X15949D02*
X15935D01*
Y26180D01*
X15949D01*
Y26194D01*
D02*
G37*
G36*
X20156Y26167D02*
X20143D01*
Y26154D01*
X20156D01*
Y26167D01*
D02*
G37*
G36*
X20500Y26141D02*
X20487D01*
Y26128D01*
X20500D01*
Y26141D01*
D02*
G37*
G36*
X15949D02*
X15935D01*
Y26128D01*
X15949D01*
Y26141D01*
D02*
G37*
G36*
X15366D02*
X15353D01*
Y26128D01*
X15366D01*
Y26141D01*
D02*
G37*
G36*
X20156Y26114D02*
X20143D01*
Y26101D01*
X20156D01*
Y26114D01*
D02*
G37*
G36*
X15975D02*
X15962D01*
Y26101D01*
X15975D01*
Y26114D01*
D02*
G37*
G36*
X15949Y26088D02*
X15935D01*
Y26075D01*
X15949D01*
Y26088D01*
D02*
G37*
G36*
X15393D02*
X15380D01*
Y26075D01*
X15393D01*
Y26088D01*
D02*
G37*
G36*
X15366D02*
X15353D01*
Y26075D01*
X15366D01*
Y26088D01*
D02*
G37*
G36*
X20156Y26061D02*
X20143D01*
Y26048D01*
X20156D01*
Y26061D01*
D02*
G37*
G36*
X15393D02*
X15380D01*
Y26048D01*
X15393D01*
Y26061D01*
D02*
G37*
G36*
X15949Y26035D02*
X15935D01*
Y26022D01*
X15949D01*
Y26035D01*
D02*
G37*
G36*
X15366D02*
X15353D01*
Y26022D01*
X15366D01*
Y26035D01*
D02*
G37*
G36*
X15393Y26008D02*
X15380D01*
Y25995D01*
X15393D01*
Y26008D01*
D02*
G37*
G36*
X15366Y25982D02*
X15353D01*
Y25969D01*
X15366D01*
Y25982D01*
D02*
G37*
G36*
X20500Y25929D02*
X20487D01*
Y25916D01*
X20500D01*
Y25929D01*
D02*
G37*
G36*
X20526Y25903D02*
X20513D01*
Y25889D01*
X20526D01*
Y25903D01*
D02*
G37*
G36*
X15393D02*
X15380D01*
Y25889D01*
X15393D01*
Y25903D01*
D02*
G37*
G36*
X20500Y25876D02*
X20487D01*
Y25863D01*
X20500D01*
Y25850D01*
X20513D01*
Y25863D01*
X20500D01*
Y25876D01*
D02*
G37*
G36*
X15393Y25850D02*
X15380D01*
Y25836D01*
X15393D01*
Y25850D01*
D02*
G37*
G36*
Y25797D02*
X15380D01*
Y25784D01*
X15393D01*
Y25797D01*
D02*
G37*
G36*
X20526Y25638D02*
X20513D01*
Y25625D01*
X20526D01*
Y25638D01*
D02*
G37*
G36*
X20500Y25612D02*
X20487D01*
Y25598D01*
X20500D01*
Y25612D01*
D02*
G37*
G36*
X15949D02*
X15935D01*
Y25598D01*
X15949D01*
Y25612D01*
D02*
G37*
G36*
X15499D02*
X15486D01*
Y25598D01*
X15499D01*
Y25612D01*
D02*
G37*
G36*
X15472D02*
X15459D01*
Y25598D01*
X15472D01*
Y25612D01*
D02*
G37*
G36*
X15446D02*
X15433D01*
Y25598D01*
X15446D01*
Y25585D01*
X15459D01*
Y25598D01*
X15446D01*
Y25612D01*
D02*
G37*
G36*
X15499Y25585D02*
X15486D01*
Y25572D01*
X15499D01*
Y25585D01*
D02*
G37*
G36*
X15472Y25559D02*
X15459D01*
Y25545D01*
X15472D01*
Y25559D01*
D02*
G37*
G36*
X20526Y25532D02*
X20513D01*
Y25519D01*
X20526D01*
Y25532D01*
D02*
G37*
G36*
X20156D02*
X20143D01*
Y25519D01*
X20156D01*
Y25532D01*
D02*
G37*
G36*
X15975D02*
X15962D01*
Y25519D01*
X15975D01*
Y25532D01*
D02*
G37*
G36*
X15499D02*
X15486D01*
Y25519D01*
X15499D01*
Y25532D01*
D02*
G37*
G36*
X15472D02*
X15459D01*
Y25519D01*
X15472D01*
Y25532D01*
D02*
G37*
G36*
X20526Y25506D02*
X20513D01*
Y25492D01*
X20526D01*
Y25506D01*
D02*
G37*
G36*
X20500D02*
X20487D01*
Y25492D01*
X20500D01*
Y25506D01*
D02*
G37*
G36*
X15975D02*
X15962D01*
Y25492D01*
X15975D01*
Y25506D01*
D02*
G37*
G36*
X15459Y25519D02*
X15446D01*
Y25506D01*
X15459D01*
Y25492D01*
X15472D01*
Y25506D01*
X15459D01*
Y25519D01*
D02*
G37*
G36*
X20500Y25479D02*
X20487D01*
Y25466D01*
X20500D01*
Y25479D01*
D02*
G37*
G36*
X20156D02*
X20143D01*
Y25466D01*
X20156D01*
Y25479D01*
D02*
G37*
G36*
X15975Y25426D02*
X15962D01*
Y25413D01*
X15975D01*
Y25426D01*
D02*
G37*
G36*
X20500Y25400D02*
X20487D01*
Y25387D01*
X20500D01*
Y25400D01*
D02*
G37*
G36*
X20156D02*
X20143D01*
Y25387D01*
X20156D01*
Y25400D01*
D02*
G37*
G36*
X15949D02*
X15935D01*
Y25387D01*
X15949D01*
Y25400D01*
D02*
G37*
G36*
X20156Y25373D02*
X20143D01*
Y25360D01*
X20156D01*
Y25373D01*
D02*
G37*
G36*
X20129D02*
X20116D01*
Y25360D01*
X20129D01*
Y25373D01*
D02*
G37*
G36*
X15975D02*
X15962D01*
Y25360D01*
X15975D01*
Y25373D01*
D02*
G37*
G36*
X20129Y25347D02*
X20116D01*
Y25334D01*
X20129D01*
Y25347D01*
D02*
G37*
G36*
X16002D02*
X15988D01*
Y25334D01*
X16002D01*
Y25347D01*
D02*
G37*
G36*
X15975D02*
X15962D01*
Y25334D01*
X15975D01*
Y25347D01*
D02*
G37*
G36*
X15949D02*
X15935D01*
Y25334D01*
X15949D01*
Y25347D01*
D02*
G37*
G36*
X15975Y25320D02*
X15962D01*
Y25307D01*
X15975D01*
Y25320D01*
D02*
G37*
G36*
X15552D02*
X15538D01*
Y25307D01*
X15552D01*
Y25320D01*
D02*
G37*
G36*
X20156Y25294D02*
X20143D01*
Y25281D01*
X20156D01*
Y25294D01*
D02*
G37*
G36*
X20129D02*
X20116D01*
Y25281D01*
X20129D01*
Y25294D01*
D02*
G37*
G36*
X15975D02*
X15962D01*
Y25281D01*
X15975D01*
Y25294D01*
D02*
G37*
G36*
X15949D02*
X15935D01*
Y25281D01*
X15949D01*
Y25294D01*
D02*
G37*
G36*
X16002D02*
X15988D01*
Y25281D01*
X16002D01*
Y25268D01*
X16015D01*
Y25281D01*
X16002D01*
Y25294D01*
D02*
G37*
G36*
X20129Y25241D02*
X20116D01*
Y25228D01*
X20129D01*
Y25241D01*
D02*
G37*
G36*
X16028D02*
X16015D01*
Y25228D01*
X16028D01*
Y25241D01*
D02*
G37*
G36*
X15975D02*
X15962D01*
Y25228D01*
X15975D01*
Y25241D01*
D02*
G37*
G36*
X15578D02*
X15565D01*
Y25228D01*
X15578D01*
Y25241D01*
D02*
G37*
G36*
X15949D02*
X15935D01*
Y25228D01*
X15949D01*
Y25215D01*
X15962D01*
Y25228D01*
X15949D01*
Y25241D01*
D02*
G37*
G36*
X20473Y25215D02*
X20460D01*
Y25201D01*
X20473D01*
Y25215D01*
D02*
G37*
G36*
X20156D02*
X20143D01*
Y25201D01*
X20156D01*
Y25215D01*
D02*
G37*
G36*
X20103D02*
X20090D01*
Y25201D01*
X20103D01*
Y25215D01*
D02*
G37*
G36*
X20420Y25188D02*
X20407D01*
Y25175D01*
X20420D01*
Y25188D01*
D02*
G37*
G36*
X15578D02*
X15565D01*
Y25175D01*
X15578D01*
Y25188D01*
D02*
G37*
G36*
X20447Y25162D02*
X20434D01*
Y25149D01*
X20447D01*
Y25162D01*
D02*
G37*
G36*
Y25135D02*
X20434D01*
Y25122D01*
X20447D01*
Y25135D01*
D02*
G37*
G36*
X20394D02*
X20381D01*
Y25122D01*
X20394D01*
Y25135D01*
D02*
G37*
G36*
X16054D02*
X16041D01*
Y25122D01*
X16054D01*
Y25135D01*
D02*
G37*
G36*
X15605Y25109D02*
X15591D01*
Y25096D01*
X15605D01*
Y25109D01*
D02*
G37*
G36*
X16081Y25082D02*
X16068D01*
Y25069D01*
X16081D01*
Y25082D01*
D02*
G37*
G36*
X20420Y25056D02*
X20407D01*
Y25043D01*
X20420D01*
Y25056D01*
D02*
G37*
G36*
X20050D02*
X20037D01*
Y25043D01*
X20050D01*
Y25056D01*
D02*
G37*
G36*
X20420Y25029D02*
X20407D01*
Y25016D01*
X20420D01*
Y25029D01*
D02*
G37*
G36*
X20394D02*
X20381D01*
Y25016D01*
X20394D01*
Y25029D01*
D02*
G37*
G36*
X16054D02*
X16041D01*
Y25016D01*
X16054D01*
Y25029D01*
D02*
G37*
G36*
X20050Y25003D02*
X20037D01*
Y24990D01*
X20050D01*
Y25003D01*
D02*
G37*
G36*
X16081D02*
X16068D01*
Y24990D01*
X16081D01*
Y25003D01*
D02*
G37*
G36*
X15658D02*
X15644D01*
Y24990D01*
X15658D01*
Y25003D01*
D02*
G37*
G36*
X20394Y24977D02*
X20381D01*
Y24963D01*
X20394D01*
Y24977D01*
D02*
G37*
G36*
X20023D02*
X20010D01*
Y24963D01*
X20023D01*
Y24977D01*
D02*
G37*
G36*
X16107D02*
X16094D01*
Y24963D01*
X16107D01*
Y24977D01*
D02*
G37*
G36*
X16054D02*
X16041D01*
Y24963D01*
X16054D01*
Y24977D01*
D02*
G37*
G36*
X15684D02*
X15671D01*
Y24963D01*
X15684D01*
Y24977D01*
D02*
G37*
G36*
X20394Y24950D02*
X20381D01*
Y24937D01*
X20394D01*
Y24950D01*
D02*
G37*
G36*
X20050D02*
X20037D01*
Y24937D01*
X20050D01*
Y24950D01*
D02*
G37*
G36*
X16107D02*
X16094D01*
Y24937D01*
X16107D01*
Y24950D01*
D02*
G37*
G36*
X16081D02*
X16068D01*
Y24937D01*
X16081D01*
Y24950D01*
D02*
G37*
G36*
X15710D02*
X15697D01*
Y24937D01*
X15710D01*
Y24950D01*
D02*
G37*
G36*
X15684D02*
X15671D01*
Y24937D01*
X15684D01*
Y24950D01*
D02*
G37*
G36*
X20023Y24924D02*
X20010D01*
Y24910D01*
X20023D01*
Y24924D01*
D02*
G37*
G36*
X15710D02*
X15697D01*
Y24910D01*
X15710D01*
Y24924D01*
D02*
G37*
G36*
X20315Y24897D02*
X20301D01*
Y24884D01*
X20315D01*
Y24897D01*
D02*
G37*
G36*
X20050D02*
X20037D01*
Y24884D01*
X20050D01*
Y24897D01*
D02*
G37*
G36*
X15710D02*
X15697D01*
Y24884D01*
X15710D01*
Y24897D01*
D02*
G37*
G36*
X20367Y24871D02*
X20354D01*
Y24857D01*
X20367D01*
Y24871D01*
D02*
G37*
G36*
X20341D02*
X20328D01*
Y24857D01*
X20341D01*
Y24871D01*
D02*
G37*
G36*
X16160D02*
X16147D01*
Y24857D01*
X16160D01*
Y24871D01*
D02*
G37*
G36*
X20341Y24844D02*
X20328D01*
Y24831D01*
X20341D01*
Y24844D01*
D02*
G37*
G36*
X20315D02*
X20301D01*
Y24831D01*
X20315D01*
Y24844D01*
D02*
G37*
G36*
X20341Y24818D02*
X20328D01*
Y24805D01*
X20341D01*
Y24818D01*
D02*
G37*
G36*
X20315D02*
X20301D01*
Y24805D01*
X20315D01*
Y24818D01*
D02*
G37*
G36*
X16160D02*
X16147D01*
Y24805D01*
X16160D01*
Y24818D01*
D02*
G37*
G36*
X20315Y24791D02*
X20301D01*
Y24778D01*
X20315D01*
Y24791D01*
D02*
G37*
G36*
X19944D02*
X19931D01*
Y24778D01*
X19944D01*
Y24791D01*
D02*
G37*
G36*
X15816D02*
X15803D01*
Y24778D01*
X15816D01*
Y24791D01*
D02*
G37*
G36*
X20315Y24765D02*
X20301D01*
Y24752D01*
X20315D01*
Y24765D01*
D02*
G37*
G36*
X20288D02*
X20275D01*
Y24752D01*
X20288D01*
Y24765D01*
D02*
G37*
G36*
X19918D02*
X19904D01*
Y24752D01*
X19918D01*
Y24765D01*
D02*
G37*
G36*
X16213D02*
X16200D01*
Y24752D01*
X16213D01*
Y24765D01*
D02*
G37*
G36*
X16187D02*
X16174D01*
Y24752D01*
X16187D01*
Y24765D01*
D02*
G37*
G36*
X15816D02*
X15803D01*
Y24752D01*
X15816D01*
Y24765D01*
D02*
G37*
G36*
X15790D02*
X15777D01*
Y24752D01*
X15790D01*
Y24765D01*
D02*
G37*
G36*
X19944Y24738D02*
X19931D01*
Y24725D01*
X19944D01*
Y24738D01*
D02*
G37*
G36*
X16240D02*
X16226D01*
Y24725D01*
X16240D01*
Y24738D01*
D02*
G37*
G36*
X15816D02*
X15803D01*
Y24725D01*
X15816D01*
Y24738D01*
D02*
G37*
G36*
X20288Y24712D02*
X20275D01*
Y24699D01*
X20288D01*
Y24712D01*
D02*
G37*
G36*
X16213D02*
X16200D01*
Y24699D01*
X16213D01*
Y24712D01*
D02*
G37*
G36*
X16160D02*
X16147D01*
Y24699D01*
X16160D01*
Y24712D01*
D02*
G37*
G36*
X20262Y24685D02*
X20248D01*
Y24672D01*
X20262D01*
Y24685D01*
D02*
G37*
G36*
X19891D02*
X19878D01*
Y24672D01*
X19891D01*
Y24685D01*
D02*
G37*
G36*
X16240D02*
X16226D01*
Y24672D01*
X16240D01*
Y24685D01*
D02*
G37*
G36*
X16187D02*
X16174D01*
Y24672D01*
X16187D01*
Y24685D01*
D02*
G37*
G36*
X15869D02*
X15856D01*
Y24672D01*
X15869D01*
Y24685D01*
D02*
G37*
G36*
X15816D02*
X15803D01*
Y24672D01*
X15816D01*
Y24685D01*
D02*
G37*
G36*
X20235Y24659D02*
X20222D01*
Y24646D01*
X20235D01*
Y24659D01*
D02*
G37*
G36*
X20209D02*
X20195D01*
Y24646D01*
X20209D01*
Y24659D01*
D02*
G37*
G36*
X16266D02*
X16253D01*
Y24646D01*
X16266D01*
Y24659D01*
D02*
G37*
G36*
X19851Y24646D02*
X19838D01*
Y24633D01*
X19851D01*
Y24646D01*
D02*
G37*
G36*
X16293Y24633D02*
X16279D01*
Y24619D01*
X16293D01*
Y24633D01*
D02*
G37*
G36*
X20209Y24606D02*
X20195D01*
Y24593D01*
X20209D01*
Y24606D01*
D02*
G37*
G36*
X20182D02*
X20169D01*
Y24593D01*
X20182D01*
Y24606D01*
D02*
G37*
G36*
X16266D02*
X16253D01*
Y24593D01*
X16266D01*
Y24606D01*
D02*
G37*
G36*
X20235Y24580D02*
X20222D01*
Y24566D01*
X20235D01*
Y24580D01*
D02*
G37*
G36*
X20209D02*
X20195D01*
Y24566D01*
X20209D01*
Y24580D01*
D02*
G37*
G36*
X19838D02*
X19825D01*
Y24566D01*
X19838D01*
Y24580D01*
D02*
G37*
G36*
X20209Y24553D02*
X20195D01*
Y24540D01*
X20209D01*
Y24553D01*
D02*
G37*
G36*
X20182D02*
X20169D01*
Y24540D01*
X20182D01*
Y24553D01*
D02*
G37*
G36*
X15896D02*
X15882D01*
Y24540D01*
X15896D01*
Y24553D01*
D02*
G37*
G36*
X20182Y24527D02*
X20169D01*
Y24513D01*
X20182D01*
Y24527D01*
D02*
G37*
G36*
X15922D02*
X15909D01*
Y24513D01*
X15922D01*
Y24527D01*
D02*
G37*
G36*
X20156Y24474D02*
X20143D01*
Y24461D01*
X20156D01*
Y24474D01*
D02*
G37*
G36*
X16372D02*
X16359D01*
Y24461D01*
X16372D01*
Y24474D01*
D02*
G37*
G36*
X15975D02*
X15962D01*
Y24461D01*
X15975D01*
Y24474D01*
D02*
G37*
G36*
X20143Y24461D02*
X20129D01*
Y24447D01*
X20143D01*
Y24461D01*
D02*
G37*
G36*
X20129Y24447D02*
X20116D01*
Y24434D01*
X20129D01*
Y24447D01*
D02*
G37*
G36*
X20076D02*
X20063D01*
Y24434D01*
X20076D01*
Y24447D01*
D02*
G37*
G36*
X19732D02*
X19719D01*
Y24434D01*
X19732D01*
Y24447D01*
D02*
G37*
G36*
X16425D02*
X16412D01*
Y24434D01*
X16425D01*
Y24447D01*
D02*
G37*
G36*
X16372D02*
X16359D01*
Y24434D01*
X16372D01*
Y24447D01*
D02*
G37*
G36*
X16002D02*
X15988D01*
Y24434D01*
X16002D01*
Y24447D01*
D02*
G37*
G36*
X20129Y24421D02*
X20116D01*
Y24408D01*
X20129D01*
Y24421D01*
D02*
G37*
G36*
X20103D02*
X20090D01*
Y24408D01*
X20103D01*
Y24421D01*
D02*
G37*
G36*
X19732D02*
X19719D01*
Y24408D01*
X19732D01*
Y24421D01*
D02*
G37*
G36*
X19706D02*
X19693D01*
Y24408D01*
X19706D01*
Y24421D01*
D02*
G37*
G36*
X19679D02*
X19666D01*
Y24408D01*
X19679D01*
Y24421D01*
D02*
G37*
G36*
X16398D02*
X16385D01*
Y24408D01*
X16398D01*
Y24421D01*
D02*
G37*
G36*
X16372D02*
X16359D01*
Y24408D01*
X16372D01*
Y24421D01*
D02*
G37*
G36*
X16028D02*
X16015D01*
Y24408D01*
X16028D01*
Y24421D01*
D02*
G37*
G36*
X20076Y24394D02*
X20063D01*
Y24381D01*
X20076D01*
Y24394D01*
D02*
G37*
G36*
X19732D02*
X19719D01*
Y24381D01*
X19732D01*
Y24394D01*
D02*
G37*
G36*
X19653D02*
X19640D01*
Y24381D01*
X19653D01*
Y24394D01*
D02*
G37*
G36*
X16425D02*
X16412D01*
Y24381D01*
X16425D01*
Y24394D01*
D02*
G37*
G36*
X16398D02*
X16385D01*
Y24381D01*
X16398D01*
Y24394D01*
D02*
G37*
G36*
X16002D02*
X15988D01*
Y24381D01*
X16002D01*
Y24394D01*
D02*
G37*
G36*
X20050Y24368D02*
X20037D01*
Y24355D01*
X20050D01*
Y24368D01*
D02*
G37*
G36*
X16081D02*
X16068D01*
Y24355D01*
X16081D01*
Y24368D01*
D02*
G37*
G36*
X16028D02*
X16015D01*
Y24355D01*
X16028D01*
Y24368D01*
D02*
G37*
G36*
X20076Y24341D02*
X20063D01*
Y24328D01*
X20076D01*
Y24341D01*
D02*
G37*
G36*
X19627D02*
X19613D01*
Y24328D01*
X19627D01*
Y24341D01*
D02*
G37*
G36*
X19600D02*
X19587D01*
Y24328D01*
X19600D01*
Y24341D01*
D02*
G37*
G36*
X16121D02*
X16094D01*
Y24328D01*
X16121D01*
Y24341D01*
D02*
G37*
G36*
X16081D02*
X16068D01*
Y24328D01*
X16081D01*
Y24341D01*
D02*
G37*
G36*
X16054D02*
X16041D01*
Y24328D01*
X16054D01*
Y24341D01*
D02*
G37*
G36*
X19627Y24315D02*
X19613D01*
Y24302D01*
X19627D01*
Y24315D01*
D02*
G37*
G36*
X19574D02*
X19560D01*
Y24302D01*
X19574D01*
Y24315D01*
D02*
G37*
G36*
X16557D02*
X16544D01*
Y24302D01*
X16557D01*
Y24315D01*
D02*
G37*
G36*
X16504D02*
X16491D01*
Y24302D01*
X16504D01*
Y24315D01*
D02*
G37*
G36*
X16134D02*
X16121D01*
Y24302D01*
X16134D01*
Y24315D01*
D02*
G37*
G36*
X16081D02*
X16068D01*
Y24302D01*
X16081D01*
Y24315D01*
D02*
G37*
G36*
X19971Y24289D02*
X19957D01*
Y24275D01*
X19971D01*
Y24289D01*
D02*
G37*
G36*
X19600D02*
X19587D01*
Y24275D01*
X19600D01*
Y24289D01*
D02*
G37*
G36*
X16584D02*
X16570D01*
Y24275D01*
X16584D01*
Y24289D01*
D02*
G37*
G36*
X16557D02*
X16544D01*
Y24275D01*
X16557D01*
Y24289D01*
D02*
G37*
G36*
X16531D02*
X16518D01*
Y24275D01*
X16531D01*
Y24289D01*
D02*
G37*
G36*
X19547D02*
X19534D01*
Y24275D01*
X19547D01*
Y24262D01*
X19560D01*
Y24275D01*
X19547D01*
Y24289D01*
D02*
G37*
G36*
X20023Y24262D02*
X20010D01*
Y24249D01*
X20023D01*
Y24262D01*
D02*
G37*
G36*
X16134D02*
X16121D01*
Y24249D01*
X16134D01*
Y24262D01*
D02*
G37*
G36*
X19971Y24236D02*
X19957D01*
Y24222D01*
X19971D01*
Y24236D01*
D02*
G37*
G36*
X19521D02*
X19507D01*
Y24222D01*
X19521D01*
Y24236D01*
D02*
G37*
G36*
X19494D02*
X19481D01*
Y24222D01*
X19494D01*
Y24236D01*
D02*
G37*
G36*
X19521Y24209D02*
X19507D01*
Y24196D01*
X19521D01*
Y24209D01*
D02*
G37*
G36*
X16610D02*
X16597D01*
Y24196D01*
X16610D01*
Y24209D01*
D02*
G37*
G36*
X19481Y24196D02*
X19468D01*
Y24183D01*
X19481D01*
Y24196D01*
D02*
G37*
G36*
X19441Y24183D02*
X19428D01*
Y24169D01*
X19441D01*
Y24183D01*
D02*
G37*
G36*
X16690D02*
X16676D01*
Y24169D01*
X16690D01*
Y24183D01*
D02*
G37*
G36*
X16637D02*
X16623D01*
Y24169D01*
X16637D01*
Y24183D01*
D02*
G37*
G36*
X19865Y24156D02*
X19851D01*
Y24143D01*
X19865D01*
Y24156D01*
D02*
G37*
G36*
X19415D02*
X19402D01*
Y24143D01*
X19415D01*
Y24156D01*
D02*
G37*
G36*
X16716D02*
X16703D01*
Y24143D01*
X16716D01*
Y24156D01*
D02*
G37*
G36*
X16187D02*
X16174D01*
Y24143D01*
X16187D01*
Y24156D01*
D02*
G37*
G36*
X19388Y24130D02*
X19375D01*
Y24117D01*
X19388D01*
Y24130D01*
D02*
G37*
G36*
X16716D02*
X16703D01*
Y24117D01*
X16716D01*
Y24130D01*
D02*
G37*
G36*
X16690D02*
X16676D01*
Y24117D01*
X16690D01*
Y24130D01*
D02*
G37*
G36*
X16240D02*
X16226D01*
Y24117D01*
X16240D01*
Y24130D01*
D02*
G37*
G36*
X19415Y24103D02*
X19402D01*
Y24090D01*
X19415D01*
Y24103D01*
D02*
G37*
G36*
X19388D02*
X19375D01*
Y24090D01*
X19388D01*
Y24103D01*
D02*
G37*
G36*
X19362D02*
X19349D01*
Y24090D01*
X19362D01*
Y24103D01*
D02*
G37*
G36*
X16769D02*
X16756D01*
Y24090D01*
X16769D01*
Y24103D01*
D02*
G37*
G36*
X16240D02*
X16226D01*
Y24090D01*
X16240D01*
Y24103D01*
D02*
G37*
G36*
X19388Y24077D02*
X19375D01*
Y24064D01*
X19388D01*
Y24077D01*
D02*
G37*
G36*
X16822D02*
X16809D01*
Y24064D01*
X16822D01*
Y24077D01*
D02*
G37*
G36*
X16795D02*
X16782D01*
Y24064D01*
X16795D01*
Y24077D01*
D02*
G37*
G36*
X16769D02*
X16756D01*
Y24064D01*
X16769D01*
Y24077D01*
D02*
G37*
G36*
X16716D02*
X16703D01*
Y24064D01*
X16716D01*
Y24077D01*
D02*
G37*
G36*
X16690D02*
X16676D01*
Y24064D01*
X16690D01*
Y24050D01*
X16703D01*
Y24064D01*
X16690D01*
Y24077D01*
D02*
G37*
G36*
X19785Y24050D02*
X19772D01*
Y24037D01*
X19785D01*
Y24050D01*
D02*
G37*
G36*
X19415D02*
X19402D01*
Y24037D01*
X19415D01*
Y24050D01*
D02*
G37*
G36*
X16319D02*
X16306D01*
Y24037D01*
X16319D01*
Y24050D01*
D02*
G37*
G36*
X16346D02*
X16332D01*
Y24037D01*
X16346D01*
Y24024D01*
X16359D01*
Y24037D01*
X16346D01*
Y24050D01*
D02*
G37*
G36*
X19759Y24024D02*
X19746D01*
Y24011D01*
X19759D01*
Y24024D01*
D02*
G37*
G36*
X16319D02*
X16306D01*
Y24011D01*
X16319D01*
Y24024D01*
D02*
G37*
G36*
X19203Y23997D02*
X19190D01*
Y23984D01*
X19203D01*
Y23997D01*
D02*
G37*
G36*
X16954D02*
X16941D01*
Y23984D01*
X16954D01*
Y23997D01*
D02*
G37*
G36*
X16901D02*
X16888D01*
Y23984D01*
X16901D01*
Y23997D01*
D02*
G37*
G36*
X16346D02*
X16332D01*
Y23984D01*
X16346D01*
Y23997D01*
D02*
G37*
G36*
X19177Y23971D02*
X19164D01*
Y23958D01*
X19177D01*
Y23971D01*
D02*
G37*
G36*
X16901D02*
X16888D01*
Y23958D01*
X16901D01*
Y23971D01*
D02*
G37*
G36*
X19706Y23945D02*
X19693D01*
Y23931D01*
X19706D01*
Y23945D01*
D02*
G37*
G36*
X19150D02*
X19137D01*
Y23931D01*
X19150D01*
Y23945D01*
D02*
G37*
G36*
X19097D02*
X19084D01*
Y23931D01*
X19097D01*
Y23945D01*
D02*
G37*
G36*
X17033D02*
X17020D01*
Y23931D01*
X17033D01*
Y23945D01*
D02*
G37*
G36*
X16981D02*
X16967D01*
Y23931D01*
X16981D01*
Y23945D01*
D02*
G37*
G36*
X16451D02*
X16438D01*
Y23931D01*
X16451D01*
Y23945D01*
D02*
G37*
G36*
X16398D02*
X16385D01*
Y23931D01*
X16398D01*
Y23945D01*
D02*
G37*
G36*
X19653Y23918D02*
X19640D01*
Y23905D01*
X19653D01*
Y23918D01*
D02*
G37*
G36*
X17060D02*
X17047D01*
Y23905D01*
X17060D01*
Y23918D01*
D02*
G37*
G36*
X17033D02*
X17020D01*
Y23905D01*
X17033D01*
Y23918D01*
D02*
G37*
G36*
X16451D02*
X16438D01*
Y23905D01*
X16451D01*
Y23918D01*
D02*
G37*
G36*
X16425D02*
X16412D01*
Y23905D01*
X16425D01*
Y23918D01*
D02*
G37*
G36*
X19097Y23892D02*
X19084D01*
Y23878D01*
X19097D01*
Y23892D01*
D02*
G37*
G36*
X19044D02*
X19031D01*
Y23878D01*
X19044D01*
Y23892D01*
D02*
G37*
G36*
X17086D02*
X17073D01*
Y23878D01*
X17086D01*
Y23892D01*
D02*
G37*
G36*
X17047D02*
X17020D01*
Y23878D01*
X17047D01*
Y23892D01*
D02*
G37*
G36*
X17007D02*
X16994D01*
Y23878D01*
X17007D01*
Y23892D01*
D02*
G37*
G36*
X19071D02*
X19058D01*
Y23878D01*
X19071D01*
Y23865D01*
X19084D01*
Y23878D01*
X19071D01*
Y23892D01*
D02*
G37*
G36*
Y23865D02*
X19058D01*
Y23852D01*
X19071D01*
Y23865D01*
D02*
G37*
G36*
X19018D02*
X19005D01*
Y23852D01*
X19018D01*
Y23865D01*
D02*
G37*
G36*
X18965D02*
X18952D01*
Y23852D01*
X18965D01*
Y23865D01*
D02*
G37*
G36*
X17192D02*
X17179D01*
Y23852D01*
X17192D01*
Y23865D01*
D02*
G37*
G36*
X17166D02*
X17153D01*
Y23852D01*
X17166D01*
Y23865D01*
D02*
G37*
G36*
X17113D02*
X17100D01*
Y23852D01*
X17113D01*
Y23865D01*
D02*
G37*
G36*
X17086D02*
X17073D01*
Y23852D01*
X17086D01*
Y23865D01*
D02*
G37*
G36*
X17060D02*
X17047D01*
Y23852D01*
X17060D01*
Y23865D01*
D02*
G37*
G36*
X17007D02*
X16994D01*
Y23852D01*
X17007D01*
Y23839D01*
X17020D01*
Y23852D01*
X17007D01*
Y23865D01*
D02*
G37*
G36*
X19521Y23839D02*
X19507D01*
Y23826D01*
X19521D01*
Y23839D01*
D02*
G37*
G36*
X19494D02*
X19481D01*
Y23826D01*
X19494D01*
Y23839D01*
D02*
G37*
G36*
X19097D02*
X19084D01*
Y23826D01*
X19097D01*
Y23839D01*
D02*
G37*
G36*
X18992D02*
X18978D01*
Y23826D01*
X18992D01*
Y23839D01*
D02*
G37*
G36*
X17139D02*
X17126D01*
Y23826D01*
X17139D01*
Y23839D01*
D02*
G37*
G36*
X16557D02*
X16544D01*
Y23826D01*
X16557D01*
Y23839D01*
D02*
G37*
G36*
X19547Y23812D02*
X19534D01*
Y23799D01*
X19547D01*
Y23812D01*
D02*
G37*
G36*
X19468D02*
X19455D01*
Y23799D01*
X19468D01*
Y23812D01*
D02*
G37*
G36*
X19441D02*
X19428D01*
Y23799D01*
X19441D01*
Y23812D01*
D02*
G37*
G36*
X19494Y23786D02*
X19481D01*
Y23773D01*
X19494D01*
Y23786D01*
D02*
G37*
G36*
X18780D02*
X18767D01*
Y23773D01*
X18780D01*
Y23786D01*
D02*
G37*
G36*
X18753D02*
X18740D01*
Y23773D01*
X18753D01*
Y23786D01*
D02*
G37*
G36*
X17377D02*
X17364D01*
Y23773D01*
X17377D01*
Y23786D01*
D02*
G37*
G36*
X17351D02*
X17338D01*
Y23773D01*
X17351D01*
Y23786D01*
D02*
G37*
G36*
X16637D02*
X16623D01*
Y23773D01*
X16637D01*
Y23786D01*
D02*
G37*
G36*
X16584Y23812D02*
X16570D01*
Y23799D01*
X16584D01*
Y23786D01*
X16597D01*
Y23773D01*
X16610D01*
Y23786D01*
X16597D01*
Y23799D01*
X16584D01*
Y23812D01*
D02*
G37*
G36*
X19441Y23759D02*
X19428D01*
Y23746D01*
X19441D01*
Y23759D01*
D02*
G37*
G36*
X18700D02*
X18687D01*
Y23746D01*
X18700D01*
Y23759D01*
D02*
G37*
G36*
X18674D02*
X18661D01*
Y23746D01*
X18674D01*
Y23759D01*
D02*
G37*
G36*
X17430D02*
X17417D01*
Y23746D01*
X17430D01*
Y23759D01*
D02*
G37*
G36*
X17404D02*
X17391D01*
Y23746D01*
X17404D01*
Y23759D01*
D02*
G37*
G36*
X17377D02*
X17364D01*
Y23746D01*
X17377D01*
Y23759D01*
D02*
G37*
G36*
X17325D02*
X17311D01*
Y23746D01*
X17325D01*
Y23759D01*
D02*
G37*
G36*
X16663D02*
X16650D01*
Y23746D01*
X16663D01*
Y23759D01*
D02*
G37*
G36*
X16637D02*
X16623D01*
Y23746D01*
X16637D01*
Y23759D01*
D02*
G37*
G36*
X18780Y23733D02*
X18767D01*
Y23720D01*
X18780D01*
Y23733D01*
D02*
G37*
G36*
X17563D02*
X17549D01*
Y23720D01*
X17563D01*
Y23733D01*
D02*
G37*
G36*
X19362Y23706D02*
X19349D01*
Y23693D01*
X19362D01*
Y23706D01*
D02*
G37*
G36*
X17695D02*
X17682D01*
Y23693D01*
X17695D01*
Y23706D01*
D02*
G37*
G36*
X17669D02*
X17655D01*
Y23693D01*
X17669D01*
Y23706D01*
D02*
G37*
G36*
X16769D02*
X16756D01*
Y23693D01*
X16769D01*
Y23706D01*
D02*
G37*
G36*
X16742D02*
X16729D01*
Y23693D01*
X16742D01*
Y23706D01*
D02*
G37*
G36*
X19388D02*
X19375D01*
Y23693D01*
X19388D01*
Y23680D01*
X19402D01*
Y23693D01*
X19388D01*
Y23706D01*
D02*
G37*
G36*
X19336Y23680D02*
X19322D01*
Y23667D01*
X19336D01*
Y23680D01*
D02*
G37*
G36*
X18462D02*
X18449D01*
Y23667D01*
X18462D01*
Y23680D01*
D02*
G37*
G36*
X18356D02*
X18343D01*
Y23667D01*
X18356D01*
Y23680D01*
D02*
G37*
G36*
X18198D02*
X18184D01*
Y23667D01*
X18198D01*
Y23680D01*
D02*
G37*
G36*
X17960D02*
X17946D01*
Y23667D01*
X17960D01*
Y23680D01*
D02*
G37*
G36*
X17827D02*
X17814D01*
Y23667D01*
X17827D01*
Y23680D01*
D02*
G37*
G36*
X17801D02*
X17788D01*
Y23667D01*
X17801D01*
Y23680D01*
D02*
G37*
G36*
X17774D02*
X17761D01*
Y23667D01*
X17774D01*
Y23680D01*
D02*
G37*
G36*
X17748D02*
X17735D01*
Y23667D01*
X17748D01*
Y23680D01*
D02*
G37*
G36*
X17721D02*
X17708D01*
Y23667D01*
X17721D01*
Y23680D01*
D02*
G37*
G36*
X17669D02*
X17655D01*
Y23667D01*
X17669D01*
Y23680D01*
D02*
G37*
G36*
X16742D02*
X16729D01*
Y23667D01*
X16742D01*
Y23680D01*
D02*
G37*
G36*
X16769D02*
X16756D01*
Y23667D01*
X16769D01*
Y23654D01*
X16782D01*
Y23667D01*
X16769D01*
Y23680D01*
D02*
G37*
G36*
X19336Y23654D02*
X19322D01*
Y23640D01*
X19336D01*
Y23654D01*
D02*
G37*
G36*
X18383D02*
X18370D01*
Y23640D01*
X18383D01*
Y23654D01*
D02*
G37*
G36*
X18356D02*
X18343D01*
Y23640D01*
X18356D01*
Y23654D01*
D02*
G37*
G36*
X18304D02*
X18290D01*
Y23640D01*
X18304D01*
Y23654D01*
D02*
G37*
G36*
X18277D02*
X18264D01*
Y23640D01*
X18277D01*
Y23654D01*
D02*
G37*
G36*
X18118D02*
X18105D01*
Y23640D01*
X18118D01*
Y23654D01*
D02*
G37*
G36*
X18013D02*
X17999D01*
Y23640D01*
X18013D01*
Y23654D01*
D02*
G37*
G36*
X17960D02*
X17946D01*
Y23640D01*
X17960D01*
Y23654D01*
D02*
G37*
G36*
X17748D02*
X17735D01*
Y23640D01*
X17748D01*
Y23654D01*
D02*
G37*
G36*
X17721D02*
X17708D01*
Y23640D01*
X17721D01*
Y23654D01*
D02*
G37*
G36*
X17695D02*
X17682D01*
Y23640D01*
X17695D01*
Y23654D01*
D02*
G37*
G36*
X17669D02*
X17655D01*
Y23640D01*
X17669D01*
Y23654D01*
D02*
G37*
G36*
X17642D02*
X17629D01*
Y23640D01*
X17642D01*
Y23654D01*
D02*
G37*
G36*
X19283Y23627D02*
X19269D01*
Y23614D01*
X19283D01*
Y23627D01*
D02*
G37*
G36*
X19256D02*
X19243D01*
Y23614D01*
X19256D01*
Y23627D01*
D02*
G37*
G36*
X19203D02*
X19190D01*
Y23614D01*
X19203D01*
Y23627D01*
D02*
G37*
G36*
X16928D02*
X16914D01*
Y23614D01*
X16928D01*
Y23627D01*
D02*
G37*
G36*
X16875D02*
X16861D01*
Y23614D01*
X16875D01*
Y23627D01*
D02*
G37*
G36*
X19230Y23601D02*
X19216D01*
Y23587D01*
X19230D01*
Y23601D01*
D02*
G37*
G36*
X16901D02*
X16888D01*
Y23587D01*
X16901D01*
Y23601D01*
D02*
G37*
G36*
X19177Y23574D02*
X19164D01*
Y23561D01*
X19177D01*
Y23574D01*
D02*
G37*
G36*
X19150D02*
X19137D01*
Y23561D01*
X19150D01*
Y23574D01*
D02*
G37*
G36*
X17007Y23548D02*
X16994D01*
Y23534D01*
X17007D01*
Y23548D01*
D02*
G37*
G36*
X16981D02*
X16967D01*
Y23534D01*
X16981D01*
Y23548D01*
D02*
G37*
G36*
X19044Y23521D02*
X19031D01*
Y23508D01*
X19044D01*
Y23521D01*
D02*
G37*
G36*
X18992D02*
X18978D01*
Y23508D01*
X18992D01*
Y23521D01*
D02*
G37*
G36*
X18939D02*
X18925D01*
Y23508D01*
X18939D01*
Y23521D01*
D02*
G37*
G36*
X17139D02*
X17126D01*
Y23508D01*
X17139D01*
Y23521D01*
D02*
G37*
G36*
X17086D02*
X17073D01*
Y23508D01*
X17086D01*
Y23521D01*
D02*
G37*
G36*
X17060D02*
X17047D01*
Y23508D01*
X17060D01*
Y23521D01*
D02*
G37*
G36*
X19018Y23495D02*
X19005D01*
Y23482D01*
X19018D01*
Y23495D01*
D02*
G37*
G36*
X18992D02*
X18978D01*
Y23482D01*
X18992D01*
Y23495D01*
D02*
G37*
G36*
X18939D02*
X18925D01*
Y23482D01*
X18939D01*
Y23495D01*
D02*
G37*
G36*
X17166D02*
X17153D01*
Y23482D01*
X17166D01*
Y23495D01*
D02*
G37*
G36*
X17113D02*
X17100D01*
Y23482D01*
X17113D01*
Y23495D01*
D02*
G37*
G36*
X17192Y23468D02*
X17179D01*
Y23455D01*
X17192D01*
Y23468D01*
D02*
G37*
G36*
X18753Y23415D02*
X18740D01*
Y23402D01*
X18753D01*
Y23415D01*
D02*
G37*
G36*
X18674D02*
X18661D01*
Y23402D01*
X18674D01*
Y23415D01*
D02*
G37*
G36*
X18621D02*
X18608D01*
Y23402D01*
X18621D01*
Y23415D01*
D02*
G37*
G36*
X18542D02*
X18528D01*
Y23402D01*
X18542D01*
Y23415D01*
D02*
G37*
G36*
X18515D02*
X18502D01*
Y23402D01*
X18515D01*
Y23415D01*
D02*
G37*
G36*
X18489D02*
X18476D01*
Y23402D01*
X18489D01*
Y23415D01*
D02*
G37*
G36*
X17404D02*
X17391D01*
Y23402D01*
X17404D01*
Y23415D01*
D02*
G37*
G36*
X17377D02*
X17364D01*
Y23402D01*
X17377D01*
Y23415D01*
D02*
G37*
G36*
X17298D02*
X17285D01*
Y23402D01*
X17298D01*
Y23415D01*
D02*
G37*
G36*
X18714Y23402D02*
X18700D01*
Y23389D01*
X18714D01*
Y23402D01*
D02*
G37*
G36*
X18661D02*
X18648D01*
Y23389D01*
X18661D01*
Y23402D01*
D02*
G37*
G36*
X18648Y23389D02*
X18634D01*
Y23376D01*
X18648D01*
Y23389D01*
D02*
G37*
G36*
X18568Y23415D02*
X18555D01*
Y23402D01*
X18568D01*
Y23389D01*
X18581D01*
Y23376D01*
X18595D01*
Y23389D01*
X18581D01*
Y23402D01*
X18568D01*
Y23415D01*
D02*
G37*
G36*
X18515Y23389D02*
X18502D01*
Y23376D01*
X18515D01*
Y23389D01*
D02*
G37*
G36*
X17510D02*
X17497D01*
Y23376D01*
X17510D01*
Y23389D01*
D02*
G37*
G36*
X17457D02*
X17444D01*
Y23376D01*
X17457D01*
Y23389D01*
D02*
G37*
G36*
X17404D02*
X17391D01*
Y23376D01*
X17404D01*
Y23389D01*
D02*
G37*
G36*
X17483D02*
X17470D01*
Y23376D01*
X17483D01*
Y23362D01*
X17497D01*
Y23376D01*
X17483D01*
Y23389D01*
D02*
G37*
G36*
X18515Y23362D02*
X18502D01*
Y23349D01*
X18515D01*
Y23362D01*
D02*
G37*
G36*
X17563D02*
X17549D01*
Y23349D01*
X17563D01*
Y23362D01*
D02*
G37*
G36*
X17457D02*
X17444D01*
Y23349D01*
X17457D01*
Y23362D01*
D02*
G37*
G36*
X18489Y23336D02*
X18476D01*
Y23323D01*
X18489D01*
Y23336D01*
D02*
G37*
G36*
X18409Y23310D02*
X18396D01*
Y23296D01*
X18409D01*
Y23310D01*
D02*
G37*
G36*
X18304D02*
X18290D01*
Y23296D01*
X18304D01*
Y23310D01*
D02*
G37*
G36*
X17774D02*
X17761D01*
Y23296D01*
X17774D01*
Y23310D01*
D02*
G37*
G36*
X18383Y23283D02*
X18370D01*
Y23270D01*
X18383D01*
Y23283D01*
D02*
G37*
G36*
X18304D02*
X18290D01*
Y23270D01*
X18304D01*
Y23283D01*
D02*
G37*
G36*
X18277D02*
X18264D01*
Y23270D01*
X18277D01*
Y23283D01*
D02*
G37*
G36*
X18356Y23257D02*
X18343D01*
Y23243D01*
X18356D01*
Y23257D01*
D02*
G37*
G36*
X18277D02*
X18264D01*
Y23243D01*
X18277D01*
Y23257D01*
D02*
G37*
G36*
Y23230D02*
X18264D01*
Y23217D01*
X18277D01*
Y23230D01*
D02*
G37*
G36*
X17801Y23204D02*
X17788D01*
Y23190D01*
X17801D01*
Y23204D01*
D02*
G37*
G36*
X17841Y23190D02*
X17827D01*
Y23177D01*
X17841D01*
Y23190D01*
D02*
G37*
G36*
X18304Y23177D02*
X18264D01*
Y23164D01*
X18304D01*
Y23177D01*
D02*
G37*
G36*
X17827D02*
X17814D01*
Y23164D01*
X17827D01*
Y23177D01*
D02*
G37*
G36*
X17801D02*
X17788D01*
Y23164D01*
X17801D01*
Y23177D01*
D02*
G37*
G36*
X17827Y23151D02*
X17814D01*
Y23138D01*
X17827D01*
Y23151D01*
D02*
G37*
G36*
Y23098D02*
X17814D01*
Y23085D01*
X17827D01*
Y23098D01*
D02*
G37*
G36*
X18277Y23071D02*
X18264D01*
Y23058D01*
X18277D01*
Y23071D01*
D02*
G37*
G36*
Y23045D02*
X18264D01*
Y23032D01*
X18277D01*
Y23045D01*
D02*
G37*
G36*
X18224Y22860D02*
X18211D01*
Y22846D01*
X18224D01*
Y22860D01*
D02*
G37*
G36*
X18198D02*
X18184D01*
Y22846D01*
X18198D01*
Y22860D01*
D02*
G37*
G36*
X18171Y22807D02*
X18158D01*
Y22794D01*
X18171D01*
Y22807D01*
D02*
G37*
G36*
X18198Y22780D02*
X18184D01*
Y22767D01*
X18198D01*
Y22780D01*
D02*
G37*
G36*
X17933D02*
X17920D01*
Y22767D01*
X17933D01*
Y22780D01*
D02*
G37*
G36*
X18171Y22754D02*
X18158D01*
Y22741D01*
X18171D01*
Y22754D01*
D02*
G37*
G36*
X17920Y22767D02*
X17907D01*
Y22754D01*
X17920D01*
Y22741D01*
X17933D01*
Y22754D01*
X17920D01*
Y22767D01*
D02*
G37*
G36*
X17893Y22741D02*
X17880D01*
Y22727D01*
X17893D01*
Y22741D01*
D02*
G37*
G36*
X18198Y22727D02*
X18184D01*
Y22714D01*
X18198D01*
Y22727D01*
D02*
G37*
G36*
X17933D02*
X17920D01*
Y22714D01*
X17933D01*
Y22727D01*
D02*
G37*
G36*
X18171Y22701D02*
X18158D01*
Y22688D01*
X18171D01*
Y22701D01*
D02*
G37*
G36*
X17933D02*
X17920D01*
Y22688D01*
X17933D01*
Y22701D01*
D02*
G37*
G36*
X17907D02*
X17893D01*
Y22688D01*
X17907D01*
Y22701D01*
D02*
G37*
G36*
X18198Y22674D02*
X18184D01*
Y22661D01*
X18198D01*
Y22674D01*
D02*
G37*
G36*
X18171Y22648D02*
X18158D01*
Y22635D01*
X18171D01*
Y22648D01*
D02*
G37*
G36*
X17933D02*
X17920D01*
Y22635D01*
X17933D01*
Y22648D01*
D02*
G37*
G36*
X18171Y22622D02*
X18158D01*
Y22608D01*
X18171D01*
Y22622D01*
D02*
G37*
G36*
X17933D02*
X17920D01*
Y22608D01*
X17933D01*
Y22622D01*
D02*
G37*
G36*
X18198Y22595D02*
X18184D01*
Y22582D01*
X18198D01*
Y22595D01*
D02*
G37*
G36*
X18171D02*
X18158D01*
Y22582D01*
X18171D01*
Y22569D01*
X18184D01*
Y22582D01*
X18171D01*
Y22595D01*
D02*
G37*
G36*
X17933Y22569D02*
X17920D01*
Y22555D01*
X17933D01*
Y22569D01*
D02*
G37*
G36*
Y22516D02*
X17920D01*
Y22502D01*
X17933D01*
Y22516D01*
D02*
G37*
G36*
X18171Y22489D02*
X18158D01*
Y22476D01*
X18171D01*
Y22489D01*
D02*
G37*
G36*
X18145Y22357D02*
X18132D01*
Y22344D01*
X18145D01*
Y22357D01*
D02*
G37*
G36*
X17986D02*
X17973D01*
Y22344D01*
X17986D01*
Y22357D01*
D02*
G37*
G36*
X18092Y22330D02*
X18079D01*
Y22317D01*
X18092D01*
Y22330D01*
D02*
G37*
G36*
X18026D02*
X17999D01*
Y22317D01*
X18026D01*
Y22330D01*
D02*
G37*
G36*
X17986D02*
X17973D01*
Y22317D01*
X17986D01*
Y22330D01*
D02*
G37*
G36*
X18065D02*
X18052D01*
Y22317D01*
X18065D01*
Y22304D01*
X18079D01*
Y22317D01*
X18065D01*
Y22330D01*
D02*
G37*
G36*
X18118Y22304D02*
X18105D01*
Y22291D01*
X18118D01*
Y22304D01*
D02*
G37*
G36*
X18013D02*
X17999D01*
Y22291D01*
X18013D01*
Y22304D01*
D02*
G37*
G36*
X17986D02*
X17973D01*
Y22291D01*
X17986D01*
Y22304D01*
D02*
G37*
G36*
X18092Y22278D02*
X18079D01*
Y22264D01*
X18092D01*
Y22278D01*
D02*
G37*
G36*
X18065D02*
X18052D01*
Y22264D01*
X18065D01*
Y22278D01*
D02*
G37*
G36*
X18013D02*
X17999D01*
Y22264D01*
X18013D01*
Y22278D01*
D02*
G37*
G36*
X18039Y22251D02*
X18026D01*
Y22238D01*
X18039D01*
Y22251D01*
D02*
G37*
%LPD*%
G36*
X18145Y27808D02*
X18184D01*
Y27795D01*
X18198D01*
Y27808D01*
X18264D01*
Y27795D01*
X18356D01*
Y27781D01*
X18370D01*
Y27768D01*
X18423D01*
Y27755D01*
X18476D01*
Y27742D01*
X18515D01*
Y27728D01*
X18555D01*
Y27715D01*
X18581D01*
Y27702D01*
X18608D01*
Y27689D01*
X18648D01*
Y27675D01*
X18674D01*
Y27662D01*
X18700D01*
Y27649D01*
X18727D01*
Y27636D01*
X18753D01*
Y27623D01*
X18767D01*
Y27609D01*
X18793D01*
Y27596D01*
X18820D01*
Y27583D01*
X18833D01*
Y27570D01*
X18859D01*
Y27556D01*
X18872D01*
Y27543D01*
X18886D01*
Y27530D01*
X18912D01*
Y27517D01*
X18925D01*
Y27503D01*
X18939D01*
Y27490D01*
X18965D01*
Y27477D01*
X18978D01*
Y27464D01*
X18992D01*
Y27451D01*
X19005D01*
Y27437D01*
X19018D01*
Y27424D01*
X19031D01*
Y27411D01*
X19044D01*
Y27398D01*
X19058D01*
Y27384D01*
X19071D01*
Y27371D01*
X19084D01*
Y27358D01*
X19097D01*
Y27345D01*
X19111D01*
Y27331D01*
X19124D01*
Y27318D01*
X19137D01*
Y27305D01*
X19111D01*
Y27292D01*
X19150D01*
Y27279D01*
X19164D01*
Y27265D01*
X19177D01*
Y27252D01*
X19190D01*
Y27239D01*
X19177D01*
Y27226D01*
X19203D01*
Y27212D01*
X19216D01*
Y27199D01*
X19203D01*
Y27186D01*
X19230D01*
Y27173D01*
X19243D01*
Y27159D01*
X19230D01*
Y27146D01*
X19256D01*
Y27133D01*
X19269D01*
Y27120D01*
X19256D01*
Y27107D01*
X19283D01*
Y27093D01*
X19269D01*
Y27080D01*
X19296D01*
Y27067D01*
X19283D01*
Y27054D01*
X19309D01*
Y27040D01*
X19296D01*
Y27027D01*
X19322D01*
Y27014D01*
X19309D01*
Y27001D01*
X19336D01*
Y26987D01*
X19322D01*
Y26974D01*
X19349D01*
Y26961D01*
X19336D01*
Y26948D01*
X19362D01*
Y26935D01*
X19349D01*
Y26921D01*
X19362D01*
Y26908D01*
X19375D01*
Y26895D01*
X19362D01*
Y26882D01*
Y26868D01*
X19388D01*
Y26855D01*
X19375D01*
Y26842D01*
Y26829D01*
X19402D01*
Y26815D01*
X19388D01*
Y26802D01*
Y26789D01*
X19415D01*
Y26776D01*
X19402D01*
Y26763D01*
X19415D01*
Y26749D01*
X19428D01*
Y26736D01*
X19415D01*
Y26723D01*
Y26710D01*
Y26696D01*
Y26683D01*
Y26670D01*
X19441D01*
Y26657D01*
X19428D01*
Y26643D01*
Y26630D01*
Y26617D01*
Y26604D01*
X19441D01*
Y26591D01*
X19455D01*
Y26577D01*
X19441D01*
Y26564D01*
Y26551D01*
Y26538D01*
Y26524D01*
Y26511D01*
Y26498D01*
Y26485D01*
Y26472D01*
Y26458D01*
Y26445D01*
Y26432D01*
Y26419D01*
Y26405D01*
Y26392D01*
Y26379D01*
Y26366D01*
Y26352D01*
Y26339D01*
Y26326D01*
Y26313D01*
Y26300D01*
Y26286D01*
Y26273D01*
Y26260D01*
Y26247D01*
X19455D01*
Y26233D01*
X19441D01*
Y26220D01*
X19428D01*
Y26207D01*
Y26194D01*
Y26180D01*
Y26167D01*
X19441D01*
Y26154D01*
X19415D01*
Y26167D01*
X19402D01*
Y26154D01*
X19415D01*
Y26141D01*
Y26128D01*
Y26114D01*
Y26101D01*
X19428D01*
Y26088D01*
X19402D01*
Y26075D01*
Y26061D01*
Y26048D01*
X19415D01*
Y26035D01*
X19375D01*
Y26022D01*
X19388D01*
Y26008D01*
X19402D01*
Y25995D01*
X19388D01*
Y25982D01*
X19375D01*
Y25969D01*
X19388D01*
Y25956D01*
X19349D01*
Y25942D01*
X19362D01*
Y25929D01*
X19375D01*
Y25916D01*
X19362D01*
Y25903D01*
Y25889D01*
X19336D01*
Y25876D01*
X19349D01*
Y25863D01*
X19322D01*
Y25850D01*
Y25836D01*
X19336D01*
Y25823D01*
X19296D01*
Y25810D01*
X19322D01*
Y25797D01*
X19296D01*
Y25784D01*
X19309D01*
Y25770D01*
X19283D01*
Y25757D01*
X19296D01*
Y25744D01*
X19283D01*
Y25731D01*
X19256D01*
Y25717D01*
X19269D01*
Y25704D01*
X19256D01*
Y25691D01*
Y25678D01*
X19243D01*
Y25664D01*
X19216D01*
Y25651D01*
X19230D01*
Y25638D01*
X19216D01*
Y25625D01*
X19190D01*
Y25612D01*
X19203D01*
Y25598D01*
X19190D01*
Y25585D01*
X19177D01*
Y25572D01*
X19150D01*
Y25559D01*
X19164D01*
Y25545D01*
X19150D01*
Y25532D01*
X19137D01*
Y25519D01*
X19124D01*
Y25506D01*
X19111D01*
Y25492D01*
X19097D01*
Y25479D01*
X19058D01*
Y25466D01*
X19084D01*
Y25453D01*
X19071D01*
Y25440D01*
X19058D01*
Y25426D01*
X19044D01*
Y25413D01*
X19031D01*
Y25400D01*
X19005D01*
Y25387D01*
X18992D01*
Y25373D01*
X18978D01*
Y25360D01*
X18965D01*
Y25347D01*
X18952D01*
Y25334D01*
X18939D01*
Y25320D01*
X18912D01*
Y25307D01*
X18899D01*
Y25294D01*
X18886D01*
Y25281D01*
X18859D01*
Y25268D01*
X18846D01*
Y25254D01*
X18820D01*
Y25241D01*
X18806D01*
Y25228D01*
X18780D01*
Y25215D01*
X18753D01*
Y25201D01*
X18740D01*
Y25188D01*
X18687D01*
Y25175D01*
X18674D01*
Y25188D01*
X18608D01*
Y25201D01*
X18581D01*
Y25215D01*
X18555D01*
Y25228D01*
X18542D01*
Y25241D01*
X18515D01*
Y25254D01*
X18502D01*
Y25268D01*
X18476D01*
Y25281D01*
X18462D01*
Y25294D01*
X18449D01*
Y25307D01*
X18423D01*
Y25320D01*
X18409D01*
Y25334D01*
X18396D01*
Y25347D01*
X18383D01*
Y25360D01*
X18356D01*
Y25373D01*
X18343D01*
Y25387D01*
X18330D01*
Y25400D01*
X18304D01*
Y25413D01*
X18290D01*
Y25426D01*
X18277D01*
Y25440D01*
X18251D01*
Y25453D01*
X18224D01*
Y25466D01*
X18211D01*
Y25479D01*
X18171D01*
Y25492D01*
X18145D01*
Y25506D01*
X18092D01*
Y25519D01*
X18039D01*
Y25506D01*
X17986D01*
Y25492D01*
X17960D01*
Y25479D01*
X17933D01*
Y25466D01*
X17907D01*
Y25453D01*
X17893D01*
Y25440D01*
X17867D01*
Y25426D01*
X17854D01*
Y25413D01*
X17827D01*
Y25426D01*
X17814D01*
Y25413D01*
X17827D01*
Y25400D01*
X17814D01*
Y25387D01*
X17801D01*
Y25373D01*
X17788D01*
Y25360D01*
X17774D01*
Y25347D01*
X17761D01*
Y25334D01*
X17748D01*
Y25320D01*
X17721D01*
Y25307D01*
X17708D01*
Y25294D01*
X17695D01*
Y25281D01*
X17682D01*
Y25268D01*
X17669D01*
Y25254D01*
X17655D01*
Y25241D01*
X17629D01*
Y25228D01*
X17616D01*
Y25215D01*
X17589D01*
Y25201D01*
X17576D01*
Y25188D01*
X17549D01*
Y25175D01*
X17510D01*
Y25162D01*
X17444D01*
Y25175D01*
X17417D01*
Y25188D01*
X17391D01*
Y25201D01*
X17364D01*
Y25215D01*
X17338D01*
Y25228D01*
X17325D01*
Y25241D01*
X17298D01*
Y25254D01*
X17285D01*
Y25268D01*
X17258D01*
Y25281D01*
X17245D01*
Y25294D01*
X17232D01*
Y25307D01*
X17205D01*
Y25320D01*
X17192D01*
Y25334D01*
X17179D01*
Y25347D01*
X17166D01*
Y25360D01*
X17139D01*
Y25373D01*
X17126D01*
Y25387D01*
X17113D01*
Y25400D01*
X17100D01*
Y25413D01*
X17086D01*
Y25426D01*
X17073D01*
Y25440D01*
X17060D01*
Y25453D01*
X17047D01*
Y25466D01*
X17033D01*
Y25479D01*
X17020D01*
Y25492D01*
X17007D01*
Y25506D01*
X16994D01*
Y25519D01*
X17007D01*
Y25532D01*
X16981D01*
Y25545D01*
X16967D01*
Y25559D01*
X16954D01*
Y25572D01*
X16941D01*
Y25585D01*
X16954D01*
Y25598D01*
X16928D01*
Y25612D01*
X16914D01*
Y25625D01*
X16928D01*
Y25638D01*
X16901D01*
Y25651D01*
Y25664D01*
Y25678D01*
X16875D01*
Y25691D01*
X16861D01*
Y25704D01*
X16875D01*
Y25717D01*
X16848D01*
Y25731D01*
X16875D01*
Y25744D01*
X16835D01*
Y25757D01*
X16822D01*
Y25770D01*
X16835D01*
Y25784D01*
X16809D01*
Y25797D01*
Y25810D01*
X16795D01*
Y25823D01*
X16809D01*
Y25836D01*
X16782D01*
Y25850D01*
X16795D01*
Y25863D01*
Y25876D01*
X16769D01*
Y25889D01*
X16782D01*
Y25903D01*
X16756D01*
Y25916D01*
X16769D01*
Y25929D01*
Y25942D01*
X16742D01*
Y25956D01*
X16756D01*
Y25969D01*
X16742D01*
Y25982D01*
Y25995D01*
Y26008D01*
Y26022D01*
X16716D01*
Y26035D01*
X16729D01*
Y26048D01*
Y26061D01*
Y26075D01*
X16703D01*
Y26088D01*
X16716D01*
Y26101D01*
Y26114D01*
X16690D01*
Y26128D01*
X16703D01*
Y26141D01*
Y26154D01*
Y26167D01*
Y26180D01*
X16676D01*
Y26194D01*
X16690D01*
Y26207D01*
Y26220D01*
Y26233D01*
Y26247D01*
Y26260D01*
Y26273D01*
X16676D01*
Y26286D01*
X16663D01*
Y26300D01*
X16676D01*
Y26313D01*
Y26326D01*
Y26339D01*
Y26352D01*
Y26366D01*
Y26379D01*
Y26392D01*
Y26405D01*
Y26419D01*
Y26432D01*
Y26445D01*
Y26458D01*
Y26472D01*
Y26485D01*
Y26498D01*
Y26511D01*
Y26524D01*
Y26538D01*
X16663D01*
Y26551D01*
X16690D01*
Y26564D01*
Y26577D01*
Y26591D01*
Y26604D01*
Y26617D01*
Y26630D01*
X16676D01*
Y26643D01*
X16703D01*
Y26630D01*
X16716D01*
Y26643D01*
X16703D01*
Y26657D01*
Y26670D01*
Y26683D01*
Y26696D01*
X16690D01*
Y26710D01*
X16716D01*
Y26723D01*
Y26736D01*
Y26749D01*
X16703D01*
Y26763D01*
X16742D01*
Y26776D01*
X16729D01*
Y26789D01*
Y26802D01*
X16716D01*
Y26815D01*
X16742D01*
Y26829D01*
Y26842D01*
X16729D01*
Y26855D01*
X16756D01*
Y26842D01*
X16769D01*
Y26855D01*
X16756D01*
Y26868D01*
Y26882D01*
X16742D01*
Y26895D01*
X16769D01*
Y26908D01*
X16756D01*
Y26921D01*
X16795D01*
Y26908D01*
X16809D01*
Y26921D01*
X16795D01*
Y26935D01*
X16782D01*
Y26948D01*
X16769D01*
Y26961D01*
X16795D01*
Y26974D01*
X16782D01*
Y26987D01*
X16809D01*
Y27001D01*
X16795D01*
Y27014D01*
X16809D01*
Y27027D01*
Y27040D01*
X16835D01*
Y27027D01*
X16848D01*
Y27040D01*
X16835D01*
Y27054D01*
X16822D01*
Y27067D01*
X16848D01*
Y27080D01*
Y27093D01*
X16861D01*
Y27107D01*
X16848D01*
Y27120D01*
X16861D01*
Y27133D01*
X16901D01*
Y27146D01*
X16875D01*
Y27159D01*
X16901D01*
Y27173D01*
X16888D01*
Y27186D01*
X16901D01*
Y27199D01*
X16914D01*
Y27212D01*
X16941D01*
Y27226D01*
X16928D01*
Y27239D01*
X16941D01*
Y27252D01*
X16954D01*
Y27265D01*
X16981D01*
Y27279D01*
X16967D01*
Y27292D01*
X16981D01*
Y27305D01*
X16994D01*
Y27318D01*
X17007D01*
Y27331D01*
X17020D01*
Y27345D01*
X17047D01*
Y27358D01*
Y27371D01*
Y27384D01*
X17060D01*
Y27398D01*
X17073D01*
Y27411D01*
X17086D01*
Y27424D01*
X17100D01*
Y27437D01*
X17126D01*
Y27451D01*
X17139D01*
Y27464D01*
X17153D01*
Y27451D01*
X17166D01*
Y27437D01*
X17179D01*
Y27424D01*
X17192D01*
Y27437D01*
X17179D01*
Y27451D01*
X17166D01*
Y27464D01*
X17153D01*
Y27477D01*
X17166D01*
Y27490D01*
X17179D01*
Y27503D01*
X17192D01*
Y27517D01*
X17219D01*
Y27530D01*
X17232D01*
Y27543D01*
X17245D01*
Y27556D01*
X17272D01*
Y27570D01*
X17285D01*
Y27583D01*
X17311D01*
Y27596D01*
X17338D01*
Y27609D01*
X17351D01*
Y27623D01*
X17377D01*
Y27636D01*
X17404D01*
Y27649D01*
X17430D01*
Y27662D01*
X17457D01*
Y27675D01*
X17483D01*
Y27689D01*
X17510D01*
Y27702D01*
X17549D01*
Y27715D01*
X17576D01*
Y27728D01*
X17616D01*
Y27742D01*
X17655D01*
Y27755D01*
X17708D01*
Y27768D01*
X17761D01*
Y27781D01*
X17814D01*
Y27795D01*
X17854D01*
Y27781D01*
X17867D01*
Y27768D01*
X17880D01*
Y27781D01*
X17867D01*
Y27795D01*
X17880D01*
Y27781D01*
X17893D01*
Y27795D01*
X17880D01*
Y27808D01*
X17893D01*
Y27795D01*
X17933D01*
Y27781D01*
X17946D01*
Y27768D01*
X17960D01*
Y27781D01*
X17946D01*
Y27795D01*
X17933D01*
Y27808D01*
X17946D01*
Y27795D01*
X17960D01*
Y27808D01*
X17973D01*
Y27795D01*
X17986D01*
Y27808D01*
X17973D01*
Y27821D01*
X17986D01*
Y27808D01*
X17999D01*
Y27821D01*
X18013D01*
Y27808D01*
X18026D01*
Y27821D01*
X18039D01*
Y27808D01*
X18052D01*
Y27795D01*
X18065D01*
Y27808D01*
X18079D01*
Y27795D01*
X18092D01*
Y27808D01*
X18105D01*
Y27795D01*
X18118D01*
Y27808D01*
X18132D01*
Y27795D01*
X18145D01*
Y27808D01*
X18132D01*
Y27821D01*
X18145D01*
Y27808D01*
D02*
G37*
%LPC*%
G36*
X18330Y27781D02*
X18290D01*
Y27768D01*
X18330D01*
Y27781D01*
D02*
G37*
G36*
X18251D02*
X18237D01*
Y27768D01*
X18251D01*
Y27781D01*
D02*
G37*
G36*
X18224D02*
X18211D01*
Y27768D01*
X18224D01*
Y27781D01*
D02*
G37*
G36*
X18171D02*
X18158D01*
Y27768D01*
X18171D01*
Y27781D01*
D02*
G37*
G36*
X18118D02*
X18105D01*
Y27768D01*
X18118D01*
Y27781D01*
D02*
G37*
G36*
X18092D02*
X18079D01*
Y27768D01*
X18092D01*
Y27781D01*
D02*
G37*
G36*
X18065D02*
X18052D01*
Y27768D01*
X18065D01*
Y27781D01*
D02*
G37*
G36*
X18039D02*
X18026D01*
Y27768D01*
X18039D01*
Y27781D01*
D02*
G37*
G36*
X17933D02*
X17920D01*
Y27768D01*
X17933D01*
Y27781D01*
D02*
G37*
G36*
X18356Y27755D02*
X18343D01*
Y27742D01*
X18356D01*
Y27755D01*
D02*
G37*
G36*
X18277Y27781D02*
X18264D01*
Y27768D01*
X18277D01*
Y27755D01*
X18290D01*
Y27742D01*
X18304D01*
Y27755D01*
X18290D01*
Y27768D01*
X18277D01*
Y27781D01*
D02*
G37*
G36*
Y27755D02*
X18264D01*
Y27742D01*
X18277D01*
Y27755D01*
D02*
G37*
G36*
X18251D02*
X18237D01*
Y27742D01*
X18251D01*
Y27755D01*
D02*
G37*
G36*
X18224D02*
X18211D01*
Y27742D01*
X18224D01*
Y27755D01*
D02*
G37*
G36*
X18198D02*
X18184D01*
Y27742D01*
X18198D01*
Y27755D01*
D02*
G37*
G36*
X18092D02*
X18079D01*
Y27742D01*
X18092D01*
Y27755D01*
D02*
G37*
G36*
X18013Y27781D02*
X17999D01*
Y27768D01*
X18013D01*
Y27755D01*
X18026D01*
Y27742D01*
X18039D01*
Y27755D01*
X18026D01*
Y27768D01*
X18013D01*
Y27781D01*
D02*
G37*
G36*
X17920Y27768D02*
X17907D01*
Y27755D01*
X17920D01*
Y27742D01*
X17933D01*
Y27755D01*
X17920D01*
Y27768D01*
D02*
G37*
G36*
X17854Y27781D02*
X17841D01*
Y27768D01*
X17854D01*
Y27755D01*
X17867D01*
Y27742D01*
X17880D01*
Y27755D01*
X17867D01*
Y27768D01*
X17854D01*
Y27781D01*
D02*
G37*
G36*
X17841Y27768D02*
X17827D01*
Y27755D01*
X17841D01*
Y27742D01*
X17854D01*
Y27755D01*
X17841D01*
Y27768D01*
D02*
G37*
G36*
X17827Y27755D02*
X17814D01*
Y27742D01*
X17827D01*
Y27755D01*
D02*
G37*
G36*
X17774D02*
X17761D01*
Y27742D01*
X17774D01*
Y27755D01*
D02*
G37*
G36*
X18489Y27728D02*
X18476D01*
Y27715D01*
X18489D01*
Y27728D01*
D02*
G37*
G36*
X18409Y27755D02*
X18396D01*
Y27742D01*
X18409D01*
Y27728D01*
X18423D01*
Y27715D01*
X18436D01*
Y27728D01*
X18423D01*
Y27742D01*
X18409D01*
Y27755D01*
D02*
G37*
G36*
X18396Y27742D02*
X18383D01*
Y27728D01*
X18396D01*
Y27715D01*
X18409D01*
Y27728D01*
X18396D01*
Y27742D01*
D02*
G37*
G36*
X18383Y27728D02*
X18370D01*
Y27715D01*
X18383D01*
Y27728D01*
D02*
G37*
G36*
X18330D02*
X18317D01*
Y27715D01*
X18330D01*
Y27728D01*
D02*
G37*
G36*
X18277D02*
X18264D01*
Y27715D01*
X18277D01*
Y27728D01*
D02*
G37*
G36*
X18118D02*
X18105D01*
Y27715D01*
X18118D01*
Y27728D01*
D02*
G37*
G36*
X18013D02*
X17999D01*
Y27715D01*
X18013D01*
Y27728D01*
D02*
G37*
G36*
X17960D02*
X17946D01*
Y27715D01*
X17960D01*
Y27728D01*
D02*
G37*
G36*
X17854D02*
X17841D01*
Y27715D01*
X17854D01*
Y27728D01*
D02*
G37*
G36*
X18568Y27702D02*
X18555D01*
Y27689D01*
X18568D01*
Y27702D01*
D02*
G37*
G36*
X18515D02*
X18502D01*
Y27689D01*
X18515D01*
Y27702D01*
D02*
G37*
G36*
X18409D02*
X18396D01*
Y27689D01*
X18409D01*
Y27702D01*
D02*
G37*
G36*
X18304D02*
X18290D01*
Y27689D01*
X18304D01*
Y27702D01*
D02*
G37*
G36*
X18251D02*
X18237D01*
Y27689D01*
X18251D01*
Y27702D01*
D02*
G37*
G36*
X18198D02*
X18184D01*
Y27689D01*
X18198D01*
Y27702D01*
D02*
G37*
G36*
X18092D02*
X18079D01*
Y27689D01*
X18092D01*
Y27702D01*
D02*
G37*
G36*
X18065D02*
X18052D01*
Y27689D01*
X18065D01*
Y27702D01*
D02*
G37*
G36*
X18039D02*
X18026D01*
Y27689D01*
X18039D01*
Y27702D01*
D02*
G37*
G36*
X17986D02*
X17973D01*
Y27689D01*
X17986D01*
Y27702D01*
D02*
G37*
G36*
X17933D02*
X17920D01*
Y27689D01*
X17933D01*
Y27702D01*
D02*
G37*
G36*
X17880D02*
X17867D01*
Y27689D01*
X17880D01*
Y27702D01*
D02*
G37*
G36*
X17854D02*
X17841D01*
Y27689D01*
X17854D01*
Y27702D01*
D02*
G37*
G36*
X17616D02*
X17602D01*
Y27689D01*
X17616D01*
Y27702D01*
D02*
G37*
G36*
X18330Y27675D02*
X18317D01*
Y27662D01*
X18330D01*
Y27675D01*
D02*
G37*
G36*
X18304D02*
X18290D01*
Y27662D01*
X18304D01*
Y27675D01*
D02*
G37*
G36*
X18277D02*
X18264D01*
Y27662D01*
X18277D01*
Y27675D01*
D02*
G37*
G36*
X18118D02*
X18105D01*
Y27662D01*
X18118D01*
Y27675D01*
D02*
G37*
G36*
X18065D02*
X18052D01*
Y27662D01*
X18065D01*
Y27675D01*
D02*
G37*
G36*
X17960D02*
X17946D01*
Y27662D01*
X17960D01*
Y27675D01*
D02*
G37*
G36*
X17907D02*
X17893D01*
Y27662D01*
X17907D01*
Y27675D01*
D02*
G37*
G36*
X17880D02*
X17867D01*
Y27662D01*
X17880D01*
Y27675D01*
D02*
G37*
G36*
X17854D02*
X17841D01*
Y27662D01*
X17854D01*
Y27675D01*
D02*
G37*
G36*
X17589D02*
X17576D01*
Y27662D01*
X17589D01*
Y27675D01*
D02*
G37*
G36*
X18608Y27662D02*
X18595D01*
Y27649D01*
X18608D01*
Y27662D01*
D02*
G37*
G36*
X18674Y27649D02*
X18661D01*
Y27636D01*
X18674D01*
Y27649D01*
D02*
G37*
G36*
X18515D02*
X18502D01*
Y27636D01*
X18515D01*
Y27649D01*
D02*
G37*
G36*
X18462D02*
X18449D01*
Y27636D01*
X18462D01*
Y27649D01*
D02*
G37*
G36*
X18409D02*
X18396D01*
Y27636D01*
X18409D01*
Y27649D01*
D02*
G37*
G36*
X18356D02*
X18343D01*
Y27636D01*
X18356D01*
Y27649D01*
D02*
G37*
G36*
X18330D02*
X18317D01*
Y27636D01*
X18330D01*
Y27649D01*
D02*
G37*
G36*
X18304D02*
X18290D01*
Y27636D01*
X18304D01*
Y27649D01*
D02*
G37*
G36*
X18277D02*
X18264D01*
Y27636D01*
X18277D01*
Y27649D01*
D02*
G37*
G36*
X18251D02*
X18237D01*
Y27636D01*
X18251D01*
Y27649D01*
D02*
G37*
G36*
X18198D02*
X18184D01*
Y27636D01*
X18198D01*
Y27649D01*
D02*
G37*
G36*
X18092D02*
X18079D01*
Y27636D01*
X18092D01*
Y27649D01*
D02*
G37*
G36*
X18039D02*
X18026D01*
Y27636D01*
X18039D01*
Y27649D01*
D02*
G37*
G36*
X17986D02*
X17973D01*
Y27636D01*
X17986D01*
Y27649D01*
D02*
G37*
G36*
X17960D02*
X17946D01*
Y27636D01*
X17960D01*
Y27649D01*
D02*
G37*
G36*
X17933D02*
X17920D01*
Y27636D01*
X17933D01*
Y27649D01*
D02*
G37*
G36*
X17880D02*
X17867D01*
Y27636D01*
X17880D01*
Y27649D01*
D02*
G37*
G36*
X17563D02*
X17549D01*
Y27636D01*
X17563D01*
Y27649D01*
D02*
G37*
G36*
X17510D02*
X17497D01*
Y27636D01*
X17510D01*
Y27649D01*
D02*
G37*
G36*
X18727Y27623D02*
X18714D01*
Y27609D01*
X18727D01*
Y27623D01*
D02*
G37*
G36*
X17404D02*
X17391D01*
Y27609D01*
X17404D01*
Y27623D01*
D02*
G37*
G36*
X18780Y27596D02*
X18767D01*
Y27583D01*
X18780D01*
Y27596D01*
D02*
G37*
G36*
X18727D02*
X18714D01*
Y27583D01*
X18727D01*
Y27596D01*
D02*
G37*
G36*
X18700D02*
X18687D01*
Y27583D01*
X18700D01*
Y27596D01*
D02*
G37*
G36*
X18753Y27570D02*
X18740D01*
Y27556D01*
X18753D01*
Y27570D01*
D02*
G37*
G36*
X17325D02*
X17311D01*
Y27556D01*
X17325D01*
Y27570D01*
D02*
G37*
G36*
X18700D02*
X18687D01*
Y27556D01*
X18700D01*
Y27543D01*
X18714D01*
Y27556D01*
X18700D01*
Y27570D01*
D02*
G37*
G36*
X18833Y27543D02*
X18820D01*
Y27530D01*
X18833D01*
Y27543D01*
D02*
G37*
G36*
X18780D02*
X18767D01*
Y27530D01*
X18780D01*
Y27543D01*
D02*
G37*
G36*
X17377D02*
X17364D01*
Y27530D01*
X17377D01*
Y27543D01*
D02*
G37*
G36*
X17351D02*
X17338D01*
Y27530D01*
X17351D01*
Y27543D01*
D02*
G37*
G36*
X17298D02*
X17285D01*
Y27530D01*
X17298D01*
Y27543D01*
D02*
G37*
G36*
X17272Y27517D02*
X17258D01*
Y27503D01*
X17272D01*
Y27517D01*
D02*
G37*
G36*
X18939Y27490D02*
X18925D01*
Y27477D01*
X18939D01*
Y27490D01*
D02*
G37*
G36*
X17298D02*
X17285D01*
Y27477D01*
X17298D01*
Y27490D01*
D02*
G37*
G36*
X17245D02*
X17232D01*
Y27477D01*
X17245D01*
Y27490D01*
D02*
G37*
G36*
X18939Y27464D02*
X18925D01*
Y27451D01*
X18939D01*
Y27464D01*
D02*
G37*
G36*
X17272D02*
X17258D01*
Y27451D01*
X17272D01*
Y27464D01*
D02*
G37*
G36*
X17245D02*
X17232D01*
Y27451D01*
X17245D01*
Y27464D01*
D02*
G37*
G36*
X17232Y27451D02*
X17219D01*
Y27437D01*
X17232D01*
Y27451D01*
D02*
G37*
G36*
X18992Y27437D02*
X18978D01*
Y27424D01*
X18992D01*
Y27437D01*
D02*
G37*
G36*
X17298D02*
X17285D01*
Y27424D01*
X17298D01*
Y27437D01*
D02*
G37*
G36*
X19071Y27358D02*
X19058D01*
Y27345D01*
X19071D01*
Y27358D01*
D02*
G37*
G36*
X19044D02*
X19031D01*
Y27345D01*
X19044D01*
Y27358D01*
D02*
G37*
G36*
X19018D02*
X19005D01*
Y27345D01*
X19018D01*
Y27331D01*
X19031D01*
Y27345D01*
X19018D01*
Y27358D01*
D02*
G37*
G36*
X17086Y27331D02*
X17073D01*
Y27318D01*
X17086D01*
Y27331D01*
D02*
G37*
G36*
X19124Y27252D02*
X19111D01*
Y27239D01*
X19124D01*
Y27252D01*
D02*
G37*
G36*
X16981D02*
X16967D01*
Y27239D01*
X16981D01*
Y27252D01*
D02*
G37*
G36*
X19150Y27226D02*
X19137D01*
Y27212D01*
X19150D01*
Y27226D01*
D02*
G37*
G36*
X16954Y27199D02*
X16941D01*
Y27186D01*
X16954D01*
Y27173D01*
X16967D01*
Y27159D01*
X16981D01*
Y27173D01*
X16967D01*
Y27186D01*
X16954D01*
Y27199D01*
D02*
G37*
G36*
X19230Y27146D02*
X19216D01*
Y27133D01*
X19230D01*
Y27146D01*
D02*
G37*
G36*
X16928D02*
X16914D01*
Y27133D01*
X16928D01*
Y27146D01*
D02*
G37*
G36*
X16981Y27120D02*
X16967D01*
Y27107D01*
X16981D01*
Y27120D01*
D02*
G37*
G36*
X19256Y27093D02*
X19243D01*
Y27080D01*
X19256D01*
Y27093D01*
D02*
G37*
G36*
Y27067D02*
X19243D01*
Y27054D01*
X19256D01*
Y27067D01*
D02*
G37*
G36*
X19243Y27054D02*
X19230D01*
Y27040D01*
X19243D01*
Y27054D01*
D02*
G37*
G36*
X19230Y27040D02*
X19216D01*
Y27027D01*
X19230D01*
Y27040D01*
D02*
G37*
G36*
X16848Y26987D02*
X16835D01*
Y26974D01*
X16848D01*
Y26987D01*
D02*
G37*
G36*
X16875Y26961D02*
X16861D01*
Y26948D01*
X16875D01*
Y26961D01*
D02*
G37*
G36*
X16822D02*
X16809D01*
Y26948D01*
X16822D01*
Y26961D01*
D02*
G37*
G36*
X19336Y26935D02*
X19322D01*
Y26921D01*
X19336D01*
Y26935D01*
D02*
G37*
G36*
X16848D02*
X16835D01*
Y26921D01*
X16848D01*
Y26935D01*
D02*
G37*
G36*
X16822D02*
X16809D01*
Y26921D01*
X16822D01*
Y26935D01*
D02*
G37*
G36*
X16875Y26908D02*
X16861D01*
Y26895D01*
X16875D01*
Y26908D01*
D02*
G37*
G36*
X19336Y26882D02*
X19322D01*
Y26868D01*
X19336D01*
Y26882D01*
D02*
G37*
G36*
X19362Y26855D02*
X19349D01*
Y26842D01*
X19362D01*
Y26855D01*
D02*
G37*
G36*
X19336Y26829D02*
X19322D01*
Y26815D01*
X19336D01*
Y26829D01*
D02*
G37*
G36*
X19362Y26802D02*
X19349D01*
Y26789D01*
X19362D01*
Y26802D01*
D02*
G37*
G36*
X16769D02*
X16756D01*
Y26789D01*
X16769D01*
Y26802D01*
D02*
G37*
G36*
X19388Y26776D02*
X19375D01*
Y26763D01*
X19388D01*
Y26776D01*
D02*
G37*
G36*
X19362D02*
X19349D01*
Y26763D01*
X19362D01*
Y26776D01*
D02*
G37*
G36*
X16769D02*
X16756D01*
Y26763D01*
X16769D01*
Y26776D01*
D02*
G37*
G36*
X19362Y26749D02*
X19349D01*
Y26736D01*
X19362D01*
Y26749D01*
D02*
G37*
G36*
X19336D02*
X19322D01*
Y26736D01*
X19336D01*
Y26749D01*
D02*
G37*
G36*
X16769D02*
X16756D01*
Y26736D01*
X16769D01*
Y26749D01*
D02*
G37*
G36*
X16742D02*
X16729D01*
Y26736D01*
X16742D01*
Y26749D01*
D02*
G37*
G36*
Y26723D02*
X16729D01*
Y26710D01*
X16742D01*
Y26723D01*
D02*
G37*
G36*
X19362Y26696D02*
X19349D01*
Y26683D01*
X19362D01*
Y26696D01*
D02*
G37*
G36*
X16742Y26670D02*
X16729D01*
Y26657D01*
X16742D01*
Y26643D01*
X16756D01*
Y26630D01*
X16769D01*
Y26643D01*
X16756D01*
Y26657D01*
X16742D01*
Y26670D01*
D02*
G37*
G36*
Y26617D02*
X16729D01*
Y26604D01*
X16742D01*
Y26617D01*
D02*
G37*
G36*
X16769Y26273D02*
X16756D01*
Y26260D01*
X16769D01*
Y26273D01*
D02*
G37*
G36*
X16742Y26247D02*
X16729D01*
Y26233D01*
X16742D01*
Y26247D01*
D02*
G37*
G36*
X16769Y26220D02*
X16756D01*
Y26207D01*
X16769D01*
Y26220D01*
D02*
G37*
G36*
X16742D02*
X16729D01*
Y26207D01*
X16742D01*
Y26220D01*
D02*
G37*
G36*
X16716D02*
X16703D01*
Y26207D01*
X16716D01*
Y26220D01*
D02*
G37*
G36*
X16742Y26194D02*
X16729D01*
Y26180D01*
X16742D01*
Y26194D01*
D02*
G37*
G36*
X19362Y26167D02*
X19349D01*
Y26154D01*
X19362D01*
Y26167D01*
D02*
G37*
G36*
X16742D02*
X16729D01*
Y26154D01*
X16742D01*
Y26167D01*
D02*
G37*
G36*
X19388Y26141D02*
X19375D01*
Y26128D01*
X19388D01*
Y26141D01*
D02*
G37*
G36*
X19336D02*
X19322D01*
Y26128D01*
X19336D01*
Y26141D01*
D02*
G37*
G36*
X19388Y26114D02*
X19375D01*
Y26101D01*
X19388D01*
Y26114D01*
D02*
G37*
G36*
X19362D02*
X19349D01*
Y26101D01*
X19362D01*
Y26114D01*
D02*
G37*
G36*
X19336D02*
X19322D01*
Y26101D01*
X19336D01*
Y26114D01*
D02*
G37*
G36*
X16769D02*
X16756D01*
Y26101D01*
X16769D01*
Y26114D01*
D02*
G37*
G36*
X16742D02*
X16729D01*
Y26101D01*
X16742D01*
Y26114D01*
D02*
G37*
G36*
X19362Y26088D02*
X19349D01*
Y26075D01*
X19362D01*
Y26088D01*
D02*
G37*
G36*
X19336D02*
X19322D01*
Y26075D01*
X19336D01*
Y26088D01*
D02*
G37*
G36*
X16742D02*
X16729D01*
Y26075D01*
X16742D01*
Y26088D01*
D02*
G37*
G36*
X16769Y26008D02*
X16756D01*
Y25995D01*
X16769D01*
Y26008D01*
D02*
G37*
G36*
X19362Y25982D02*
X19349D01*
Y25969D01*
X19362D01*
Y25982D01*
D02*
G37*
G36*
X19336Y25929D02*
X19322D01*
Y25916D01*
X19336D01*
Y25929D01*
D02*
G37*
G36*
X19256Y25850D02*
X19243D01*
Y25836D01*
X19256D01*
Y25850D01*
D02*
G37*
G36*
X16875D02*
X16861D01*
Y25836D01*
X16875D01*
Y25850D01*
D02*
G37*
G36*
X16822D02*
X16809D01*
Y25836D01*
X16822D01*
Y25850D01*
D02*
G37*
G36*
X19283Y25823D02*
X19269D01*
Y25810D01*
X19283D01*
Y25823D01*
D02*
G37*
G36*
X16875D02*
X16861D01*
Y25810D01*
X16875D01*
Y25823D01*
D02*
G37*
G36*
X16848D02*
X16835D01*
Y25810D01*
X16848D01*
Y25823D01*
D02*
G37*
G36*
X19256Y25797D02*
X19243D01*
Y25784D01*
X19256D01*
Y25797D01*
D02*
G37*
G36*
Y25770D02*
X19243D01*
Y25757D01*
X19256D01*
Y25770D01*
D02*
G37*
G36*
X19230D02*
X19216D01*
Y25757D01*
X19230D01*
Y25770D01*
D02*
G37*
G36*
X16875D02*
X16861D01*
Y25757D01*
X16875D01*
Y25770D01*
D02*
G37*
G36*
X16981Y25744D02*
X16967D01*
Y25731D01*
X16981D01*
Y25744D01*
D02*
G37*
G36*
X19230Y25717D02*
X19216D01*
Y25704D01*
X19230D01*
Y25717D01*
D02*
G37*
G36*
X16901D02*
X16888D01*
Y25704D01*
X16901D01*
Y25717D01*
D02*
G37*
G36*
X19230Y25691D02*
X19216D01*
Y25678D01*
X19230D01*
Y25691D01*
D02*
G37*
G36*
X16954Y25717D02*
X16941D01*
Y25704D01*
X16954D01*
Y25691D01*
X16967D01*
Y25678D01*
X16981D01*
Y25691D01*
X16967D01*
Y25704D01*
X16954D01*
Y25717D01*
D02*
G37*
G36*
Y25691D02*
X16941D01*
Y25678D01*
X16954D01*
Y25691D01*
D02*
G37*
G36*
X16928D02*
X16914D01*
Y25678D01*
X16928D01*
Y25691D01*
D02*
G37*
G36*
X16954Y25664D02*
X16941D01*
Y25651D01*
X16954D01*
Y25664D01*
D02*
G37*
G36*
X19177Y25612D02*
X19164D01*
Y25598D01*
X19177D01*
Y25612D01*
D02*
G37*
G36*
X19150D02*
X19137D01*
Y25598D01*
X19150D01*
Y25612D01*
D02*
G37*
G36*
X16981D02*
X16967D01*
Y25598D01*
X16981D01*
Y25612D01*
D02*
G37*
G36*
X19124Y25585D02*
X19111D01*
Y25572D01*
X19124D01*
Y25585D01*
D02*
G37*
G36*
Y25559D02*
X19111D01*
Y25545D01*
X19124D01*
Y25559D01*
D02*
G37*
G36*
X18356Y25532D02*
X18343D01*
Y25519D01*
X18356D01*
Y25532D01*
D02*
G37*
G36*
X18145D02*
X18132D01*
Y25519D01*
X18145D01*
Y25532D01*
D02*
G37*
G36*
X17933D02*
X17920D01*
Y25519D01*
X17933D01*
Y25506D01*
X17946D01*
Y25519D01*
X17933D01*
Y25532D01*
D02*
G37*
G36*
X19044Y25506D02*
X19031D01*
Y25492D01*
X19044D01*
Y25506D01*
D02*
G37*
G36*
X18330D02*
X18317D01*
Y25492D01*
X18330D01*
Y25506D01*
D02*
G37*
G36*
X18304D02*
X18290D01*
Y25492D01*
X18304D01*
Y25506D01*
D02*
G37*
G36*
X18251Y25532D02*
X18237D01*
Y25519D01*
X18251D01*
Y25506D01*
X18264D01*
Y25492D01*
X18277D01*
Y25506D01*
X18264D01*
Y25519D01*
X18251D01*
Y25532D01*
D02*
G37*
G36*
X17907Y25506D02*
X17893D01*
Y25492D01*
X17907D01*
Y25506D01*
D02*
G37*
G36*
X17880D02*
X17867D01*
Y25492D01*
X17880D01*
Y25506D01*
D02*
G37*
G36*
X17086D02*
X17073D01*
Y25492D01*
X17086D01*
Y25506D01*
D02*
G37*
G36*
X19018Y25479D02*
X19005D01*
Y25466D01*
X19018D01*
Y25479D01*
D02*
G37*
G36*
X18330D02*
X18317D01*
Y25466D01*
X18330D01*
Y25479D01*
D02*
G37*
G36*
X18304D02*
X18290D01*
Y25466D01*
X18304D01*
Y25479D01*
D02*
G37*
G36*
X18211Y25519D02*
X18198D01*
Y25506D01*
X18211D01*
Y25492D01*
X18224D01*
Y25479D01*
X18237D01*
Y25466D01*
X18251D01*
Y25479D01*
X18237D01*
Y25492D01*
X18224D01*
Y25506D01*
X18211D01*
Y25519D01*
D02*
G37*
G36*
X17880Y25479D02*
X17867D01*
Y25466D01*
X17880D01*
Y25479D01*
D02*
G37*
G36*
X17867Y25466D02*
X17854D01*
Y25453D01*
X17867D01*
Y25466D01*
D02*
G37*
G36*
X19044Y25453D02*
X19031D01*
Y25440D01*
X19044D01*
Y25453D01*
D02*
G37*
G36*
X19018D02*
X19005D01*
Y25440D01*
X19018D01*
Y25453D01*
D02*
G37*
G36*
X18356D02*
X18343D01*
Y25440D01*
X18356D01*
Y25453D01*
D02*
G37*
G36*
X18304D02*
X18290D01*
Y25440D01*
X18304D01*
Y25453D01*
D02*
G37*
G36*
X17854D02*
X17841D01*
Y25440D01*
X17854D01*
Y25453D01*
D02*
G37*
G36*
X17192Y25426D02*
X17179D01*
Y25413D01*
X17192D01*
Y25426D01*
D02*
G37*
G36*
X18965Y25400D02*
X18952D01*
Y25387D01*
X18965D01*
Y25400D01*
D02*
G37*
G36*
X18462D02*
X18449D01*
Y25387D01*
X18462D01*
Y25400D01*
D02*
G37*
G36*
X18383D02*
X18370D01*
Y25387D01*
X18383D01*
Y25400D01*
D02*
G37*
G36*
X17748D02*
X17735D01*
Y25387D01*
X17748D01*
Y25400D01*
D02*
G37*
G36*
X18925Y25387D02*
X18912D01*
Y25373D01*
X18925D01*
Y25360D01*
X18939D01*
Y25373D01*
X18925D01*
Y25387D01*
D02*
G37*
G36*
X18436Y25400D02*
X18423D01*
Y25387D01*
X18436D01*
Y25373D01*
X18449D01*
Y25360D01*
X18462D01*
Y25373D01*
X18449D01*
Y25387D01*
X18436D01*
Y25400D01*
D02*
G37*
G36*
X17192Y25373D02*
X17179D01*
Y25360D01*
X17192D01*
Y25373D01*
D02*
G37*
G36*
X18912Y25347D02*
X18899D01*
Y25334D01*
X18912D01*
Y25347D01*
D02*
G37*
G36*
X18436D02*
X18423D01*
Y25334D01*
X18436D01*
Y25320D01*
X18449D01*
Y25334D01*
X18436D01*
Y25347D01*
D02*
G37*
G36*
X18833Y25320D02*
X18820D01*
Y25307D01*
X18833D01*
Y25320D01*
D02*
G37*
G36*
X18568D02*
X18555D01*
Y25307D01*
X18568D01*
Y25320D01*
D02*
G37*
G36*
X17669D02*
X17655D01*
Y25307D01*
X17669D01*
Y25320D01*
D02*
G37*
G36*
X17589D02*
X17576D01*
Y25307D01*
X17589D01*
Y25320D01*
D02*
G37*
G36*
X17404D02*
X17391D01*
Y25307D01*
X17404D01*
Y25320D01*
D02*
G37*
G36*
X17576Y25307D02*
X17563D01*
Y25294D01*
X17576D01*
Y25307D01*
D02*
G37*
G36*
X17391D02*
X17377D01*
Y25294D01*
X17391D01*
Y25307D01*
D02*
G37*
G36*
X18806Y25294D02*
X18793D01*
Y25281D01*
X18806D01*
Y25294D01*
D02*
G37*
G36*
X18780D02*
X18767D01*
Y25281D01*
X18780D01*
Y25294D01*
D02*
G37*
G36*
X18727D02*
X18714D01*
Y25281D01*
X18727D01*
Y25294D01*
D02*
G37*
G36*
X18700D02*
X18687D01*
Y25281D01*
X18700D01*
Y25294D01*
D02*
G37*
G36*
X18568D02*
X18555D01*
Y25281D01*
X18568D01*
Y25294D01*
D02*
G37*
G36*
X18542D02*
X18528D01*
Y25281D01*
X18542D01*
Y25294D01*
D02*
G37*
G36*
X17642D02*
X17629D01*
Y25281D01*
X17642D01*
Y25294D01*
D02*
G37*
G36*
X17563D02*
X17549D01*
Y25281D01*
X17563D01*
Y25294D01*
D02*
G37*
G36*
X17536D02*
X17523D01*
Y25281D01*
X17536D01*
Y25294D01*
D02*
G37*
G36*
X17351D02*
X17338D01*
Y25281D01*
X17351D01*
Y25294D01*
D02*
G37*
G36*
X17325D02*
X17311D01*
Y25281D01*
X17325D01*
Y25294D01*
D02*
G37*
G36*
X17298D02*
X17285D01*
Y25281D01*
X17298D01*
Y25294D01*
D02*
G37*
G36*
X17272D02*
X17258D01*
Y25281D01*
X17272D01*
Y25294D01*
D02*
G37*
G36*
X18780Y25268D02*
X18767D01*
Y25254D01*
X18780D01*
Y25268D01*
D02*
G37*
G36*
X18542D02*
X18528D01*
Y25254D01*
X18542D01*
Y25268D01*
D02*
G37*
G36*
X17616D02*
X17602D01*
Y25254D01*
X17616D01*
Y25268D01*
D02*
G37*
G36*
X17589D02*
X17576D01*
Y25254D01*
X17589D01*
Y25268D01*
D02*
G37*
G36*
X17351D02*
X17338D01*
Y25254D01*
X17351D01*
Y25268D01*
D02*
G37*
G36*
X17404D02*
X17391D01*
Y25254D01*
X17404D01*
Y25241D01*
X17417D01*
Y25254D01*
X17404D01*
Y25268D01*
D02*
G37*
G36*
X17589Y25241D02*
X17576D01*
Y25228D01*
X17589D01*
Y25241D01*
D02*
G37*
G36*
X17536D02*
X17523D01*
Y25228D01*
X17536D01*
Y25241D01*
D02*
G37*
G36*
X17377D02*
X17364D01*
Y25228D01*
X17377D01*
Y25241D01*
D02*
G37*
G36*
X18727Y25215D02*
X18714D01*
Y25201D01*
X18727D01*
Y25215D01*
D02*
G37*
G36*
X18674D02*
X18661D01*
Y25201D01*
X18674D01*
Y25215D01*
D02*
G37*
G36*
X17457D02*
X17444D01*
Y25201D01*
X17457D01*
Y25215D01*
D02*
G37*
G36*
X17483Y25188D02*
X17470D01*
Y25175D01*
X17483D01*
Y25188D01*
D02*
G37*
G36*
X17457D02*
X17444D01*
Y25175D01*
X17457D01*
Y25188D01*
D02*
G37*
G36*
X28996Y24664D02*
X28649D01*
Y22653D01*
X29045D01*
X29089Y22658D01*
X29147Y22663D01*
X29211Y22668D01*
X29284Y22677D01*
X29352Y22692D01*
X29421Y22712D01*
X29431Y22716D01*
X29450Y22721D01*
X29479Y22741D01*
X29518Y22760D01*
X29567Y22785D01*
X29611Y22819D01*
X29660Y22858D01*
X29704Y22902D01*
X29709Y22907D01*
X29723Y22926D01*
X29743Y22951D01*
X29772Y22990D01*
X29797Y23034D01*
X29826Y23088D01*
X29855Y23151D01*
X29880Y23219D01*
X29885Y23229D01*
X29889Y23254D01*
X29899Y23297D01*
X29909Y23351D01*
X29919Y23419D01*
X29928Y23498D01*
X29938Y23581D01*
Y23678D01*
Y23683D01*
Y23688D01*
Y23712D01*
X29933Y23756D01*
Y23805D01*
X29924Y23864D01*
X29914Y23932D01*
X29904Y24000D01*
X29885Y24069D01*
Y24079D01*
X29875Y24098D01*
X29860Y24132D01*
X29846Y24176D01*
X29821Y24225D01*
X29792Y24279D01*
X29758Y24332D01*
X29719Y24381D01*
X29714Y24386D01*
X29699Y24401D01*
X29675Y24425D01*
X29640Y24454D01*
X29601Y24489D01*
X29553Y24523D01*
X29499Y24557D01*
X29435Y24586D01*
X29426Y24591D01*
X29406Y24601D01*
X29367Y24611D01*
X29318Y24625D01*
X29255Y24640D01*
X29182Y24655D01*
X29094Y24659D01*
X28996Y24664D01*
D02*
G37*
G36*
X32877Y24699D02*
X32838D01*
X32799Y24694D01*
X32745Y24689D01*
X32687Y24679D01*
X32623Y24659D01*
X32560Y24640D01*
X32501Y24611D01*
X32496Y24606D01*
X32477Y24596D01*
X32448Y24576D01*
X32413Y24552D01*
X32374Y24518D01*
X32330Y24479D01*
X32291Y24435D01*
X32252Y24386D01*
X32247Y24381D01*
X32238Y24362D01*
X32223Y24332D01*
X32203Y24293D01*
X32179Y24245D01*
X32160Y24191D01*
X32135Y24127D01*
X32120Y24059D01*
Y24049D01*
X32116Y24025D01*
X32111Y23991D01*
X32101Y23942D01*
X32096Y23883D01*
X32086Y23815D01*
X32081Y23747D01*
Y23668D01*
Y23664D01*
Y23659D01*
Y23629D01*
Y23585D01*
X32086Y23532D01*
X32091Y23463D01*
X32096Y23395D01*
X32116Y23244D01*
Y23234D01*
X32125Y23210D01*
X32135Y23175D01*
X32145Y23131D01*
X32164Y23078D01*
X32184Y23024D01*
X32243Y22912D01*
X32247Y22907D01*
X32257Y22887D01*
X32282Y22863D01*
X32306Y22834D01*
X32340Y22799D01*
X32384Y22765D01*
X32428Y22731D01*
X32482Y22697D01*
X32487Y22692D01*
X32511Y22687D01*
X32540Y22673D01*
X32584Y22663D01*
X32643Y22648D01*
X32706Y22634D01*
X32780Y22629D01*
X32862Y22624D01*
X32902D01*
X32941Y22629D01*
X32994Y22634D01*
X33053Y22643D01*
X33116Y22658D01*
X33180Y22677D01*
X33238Y22707D01*
X33243Y22712D01*
X33263Y22721D01*
X33292Y22741D01*
X33326Y22765D01*
X33370Y22799D01*
X33409Y22839D01*
X33448Y22882D01*
X33487Y22931D01*
X33492Y22936D01*
X33502Y22956D01*
X33517Y22990D01*
X33541Y23029D01*
X33561Y23078D01*
X33580Y23131D01*
X33605Y23195D01*
X33619Y23263D01*
Y23273D01*
X33624Y23297D01*
X33634Y23337D01*
X33644Y23385D01*
X33648Y23444D01*
X33658Y23512D01*
X33663Y23585D01*
Y23664D01*
Y23668D01*
Y23673D01*
Y23703D01*
Y23742D01*
X33658Y23795D01*
X33653Y23859D01*
X33648Y23927D01*
X33624Y24069D01*
Y24079D01*
X33614Y24103D01*
X33605Y24137D01*
X33595Y24181D01*
X33575Y24235D01*
X33551Y24288D01*
X33526Y24347D01*
X33492Y24401D01*
X33487Y24406D01*
X33478Y24425D01*
X33453Y24450D01*
X33429Y24484D01*
X33390Y24518D01*
X33351Y24552D01*
X33302Y24591D01*
X33248Y24620D01*
X33243Y24625D01*
X33219Y24635D01*
X33190Y24645D01*
X33146Y24659D01*
X33092Y24674D01*
X33028Y24689D01*
X32955Y24694D01*
X32877Y24699D01*
D02*
G37*
G36*
X30592Y29842D02*
X29950D01*
Y28269D01*
X30636D01*
X30697Y28278D01*
X30829Y28295D01*
X30970Y28322D01*
X30978D01*
X31005Y28330D01*
X31031Y28348D01*
X31075Y28366D01*
X31172Y28418D01*
X31268Y28489D01*
X31277Y28497D01*
X31286Y28506D01*
X31339Y28559D01*
X31391Y28638D01*
X31444Y28735D01*
Y28743D01*
X31453Y28761D01*
X31462Y28787D01*
X31479Y28831D01*
X31497Y28928D01*
X31506Y29051D01*
Y29060D01*
Y29095D01*
X31497Y29148D01*
X31488Y29218D01*
X31453Y29367D01*
X31427Y29447D01*
X31383Y29517D01*
X31374Y29526D01*
X31356Y29552D01*
X31330Y29578D01*
X31286Y29622D01*
X31224Y29666D01*
X31154Y29710D01*
X31075Y29754D01*
X30970Y29789D01*
X30952Y29798D01*
X30908Y29807D01*
X30847Y29816D01*
X30767Y29824D01*
X30750D01*
X30724Y29833D01*
X30688D01*
X30592Y29842D01*
D02*
G37*
%LPD*%
D10*
X8250Y14000D02*
G03*
X8250Y14000I-1250J0D01*
G01*
X12687Y7771D02*
Y20154D01*
Y7771D02*
X27927D01*
Y20154D01*
X12687D02*
X27927D01*
X5100Y11250D02*
X8900D01*
X5100D02*
Y16750D01*
X8900D01*
Y11250D02*
Y16750D01*
D11*
X19795Y51890D02*
G03*
X18525Y51890I-635J0D01*
G01*
X34565Y35520D02*
G03*
X33295Y35520I-635J0D01*
G01*
X50435Y51890D02*
G03*
X49165Y51890I-635J0D01*
G01*
X16510Y51890D02*
Y62890D01*
X21810Y51890D02*
Y62890D01*
X16510D02*
X21810D01*
X16510Y51890D02*
X18525D01*
X19795D02*
X21810D01*
X31280Y35520D02*
Y46520D01*
X36580Y35520D02*
Y46520D01*
X31280D02*
X36580D01*
X31280Y35520D02*
X33295D01*
X34565D02*
X36580D01*
X47150Y51890D02*
Y62890D01*
X52450Y51890D02*
Y62890D01*
X47150D02*
X52450D01*
X47150Y51890D02*
X49165D01*
X50435D02*
X52450D01*
D12*
X41277Y22672D02*
G03*
X41277Y22672I-200J0D01*
G01*
D13*
X40215Y20820D02*
G03*
X40215Y20820I-125J0D01*
G01*
X40875Y6375D02*
G03*
X40875Y6375I-125J0D01*
G01*
D14*
X8000Y71000D02*
G03*
X8000Y71000I-4000J0D01*
G01*
X70000D02*
G03*
X70000Y71000I-4000J0D01*
G01*
Y4000D02*
G03*
X70000Y4000I-4000J0D01*
G01*
X8000D02*
G03*
X8000Y4000I-4000J0D01*
G01*
X11290Y7136D02*
X29375D01*
X11290Y20878D02*
X29375Y20878D01*
X11290Y786D02*
Y7136D01*
Y786D02*
X29375D01*
Y7136D01*
X13000Y44500D02*
X17000D01*
X13000Y36900D02*
Y44500D01*
Y36900D02*
X17000D01*
Y44500D01*
X48800Y35900D02*
X57500D01*
X48800D02*
Y45900D01*
X57502D01*
X14800Y31910D02*
Y34530D01*
X53150D01*
Y31900D02*
Y34530D01*
X14850Y47270D02*
Y49780D01*
Y47270D02*
X53200D01*
Y49775D01*
X12500Y49910D02*
X57500Y49910D01*
X12500Y49910D02*
X12510Y31880D01*
X57510Y31880D01*
X57500Y49910D02*
X57510Y31880D01*
X49150Y21945D02*
Y25145D01*
X40350Y21945D02*
Y25145D01*
X49150D01*
X40350Y21945D02*
X49150D01*
X47450Y7750D02*
Y10850D01*
X40750Y7750D02*
Y10850D01*
X47450D01*
X40750Y7750D02*
X47450D01*
X8793Y74907D02*
X19334D01*
X8793Y64493D02*
Y74907D01*
Y64493D02*
X19334D01*
Y74907D01*
X22791D02*
X33332D01*
X22791Y64493D02*
Y74907D01*
Y64493D02*
X33332D01*
Y74907D01*
X93Y44313D02*
Y54854D01*
Y44313D02*
X10507D01*
Y54854D01*
X93D02*
X10507D01*
X59512Y44313D02*
Y54854D01*
Y44313D02*
X69926D01*
Y54854D01*
X59512D02*
X69926D01*
X36788Y74907D02*
X47329D01*
X36788Y64493D02*
Y74907D01*
Y64493D02*
X47329D01*
Y74907D01*
X50786D02*
X61327D01*
X50786Y64493D02*
Y74907D01*
Y64493D02*
X61327D01*
Y74907D01*
X59512Y11706D02*
X69926D01*
Y42313D01*
X59512D02*
X69926D01*
X59512Y11706D02*
Y42313D01*
X48766Y93D02*
X59307D01*
Y10507D01*
X48766D02*
X59307D01*
X48766Y93D02*
Y10507D01*
X35866Y29183D02*
X35700Y29350D01*
X35367D01*
X35200Y29183D01*
Y28517D01*
X35367Y28350D01*
X35700D01*
X35866Y28517D01*
X36866Y29350D02*
X36533Y29183D01*
X36200Y28850D01*
Y28517D01*
X36366Y28350D01*
X36700D01*
X36866Y28517D01*
Y28683D01*
X36700Y28850D01*
X36200D01*
X36266Y22400D02*
X35933D01*
X36100D01*
Y21567D01*
X35933Y21400D01*
X35767D01*
X35600Y21567D01*
X37100Y21400D02*
Y22400D01*
X36600Y21900D01*
X37266D01*
X2233Y57934D02*
X2400Y58100D01*
Y58433D01*
X2233Y58600D01*
X1567D01*
X1400Y58433D01*
Y58100D01*
X1567Y57934D01*
X1400Y57600D02*
X2400D01*
X1400Y56934D01*
X2400D01*
Y55934D02*
X2233Y56267D01*
X1900Y56601D01*
X1567D01*
X1400Y56434D01*
Y56101D01*
X1567Y55934D01*
X1733D01*
X1900Y56101D01*
Y56601D01*
X41066Y3000D02*
X40733D01*
X40900D01*
Y2167D01*
X40733Y2000D01*
X40567D01*
X40400Y2167D01*
X41400Y2000D02*
X41733D01*
X41566D01*
Y3000D01*
X41400Y2833D01*
X1966Y30653D02*
X1633D01*
X1800D01*
Y29820D01*
X1633Y29653D01*
X1467D01*
X1300Y29820D01*
X2966Y30653D02*
X2300D01*
Y30153D01*
X2633Y30320D01*
X2800D01*
X2966Y30153D01*
Y29820D01*
X2800Y29653D01*
X2466D01*
X2300Y29820D01*
X10426Y23252D02*
Y22419D01*
X10593Y22252D01*
X10926D01*
X11093Y22419D01*
Y23252D01*
X12093Y22252D02*
X11426D01*
X12093Y22918D01*
Y23085D01*
X11926Y23252D01*
X11593D01*
X11426Y23085D01*
X14500Y40000D02*
X15333D01*
X15500Y40167D01*
Y40500D01*
X15333Y40666D01*
X14500D01*
X15500Y41000D02*
Y41333D01*
Y41166D01*
X14500D01*
X14667Y41000D01*
X7466Y8833D02*
X7300Y9000D01*
X6967D01*
X6800Y8833D01*
Y8666D01*
X6967Y8500D01*
X7300D01*
X7466Y8333D01*
Y8167D01*
X7300Y8000D01*
X6967D01*
X6800Y8167D01*
X7800Y9000D02*
Y8000D01*
X8133Y8333D01*
X8466Y8000D01*
Y9000D01*
X8799Y8000D02*
X9133D01*
X8966D01*
Y9000D01*
X8799Y8833D01*
X4900Y55695D02*
Y56695D01*
X5400D01*
X5566Y56528D01*
Y56195D01*
X5400Y56028D01*
X4900D01*
X5233D02*
X5566Y55695D01*
X6566Y56695D02*
X5900D01*
Y56195D01*
X6233Y56361D01*
X6400D01*
X6566Y56195D01*
Y55862D01*
X6400Y55695D01*
X6066D01*
X5900Y55862D01*
X7566Y55695D02*
X6899D01*
X7566Y56361D01*
Y56528D01*
X7399Y56695D01*
X7066D01*
X6899Y56528D01*
X5235Y58400D02*
Y59400D01*
X5735D01*
X5901Y59233D01*
Y58900D01*
X5735Y58733D01*
X5235D01*
X5568D02*
X5901Y58400D01*
X6901Y59400D02*
X6235D01*
Y58900D01*
X6568Y59066D01*
X6735D01*
X6901Y58900D01*
Y58567D01*
X6735Y58400D01*
X6401D01*
X6235Y58567D01*
X7234Y58400D02*
X7568D01*
X7401D01*
Y59400D01*
X7234Y59233D01*
X30200Y55600D02*
Y56600D01*
X30700D01*
X30866Y56433D01*
Y56100D01*
X30700Y55933D01*
X30200D01*
X30533D02*
X30866Y55600D01*
X31866Y56600D02*
X31200D01*
Y56100D01*
X31533Y56266D01*
X31700D01*
X31866Y56100D01*
Y55767D01*
X31700Y55600D01*
X31366D01*
X31200Y55767D01*
X32199Y56433D02*
X32366Y56600D01*
X32699D01*
X32866Y56433D01*
Y55767D01*
X32699Y55600D01*
X32366D01*
X32199Y55767D01*
Y56433D01*
X30300Y58200D02*
Y59200D01*
X30800D01*
X30966Y59033D01*
Y58700D01*
X30800Y58533D01*
X30300D01*
X30633D02*
X30966Y58200D01*
X31800D02*
Y59200D01*
X31300Y58700D01*
X31966D01*
X32299Y58367D02*
X32466Y58200D01*
X32799D01*
X32966Y58367D01*
Y59033D01*
X32799Y59200D01*
X32466D01*
X32299Y59033D01*
Y58866D01*
X32466Y58700D01*
X32966D01*
X20100Y39277D02*
Y40277D01*
X20600D01*
X20766Y40110D01*
Y39777D01*
X20600Y39610D01*
X20100D01*
X20433D02*
X20766Y39277D01*
X21100Y40110D02*
X21266Y40277D01*
X21600D01*
X21766Y40110D01*
Y39944D01*
X21600Y39777D01*
X21433D01*
X21600D01*
X21766Y39610D01*
Y39444D01*
X21600Y39277D01*
X21266D01*
X21100Y39444D01*
X22099Y40110D02*
X22266Y40277D01*
X22599D01*
X22766Y40110D01*
Y39944D01*
X22599Y39777D01*
X22766Y39610D01*
Y39444D01*
X22599Y39277D01*
X22266D01*
X22099Y39444D01*
Y39610D01*
X22266Y39777D01*
X22099Y39944D01*
Y40110D01*
X22266Y39777D02*
X22599D01*
X20050Y41734D02*
Y42734D01*
X20550D01*
X20716Y42567D01*
Y42234D01*
X20550Y42067D01*
X20050D01*
X20383D02*
X20716Y41734D01*
X21050Y42567D02*
X21216Y42734D01*
X21550D01*
X21716Y42567D01*
Y42401D01*
X21550Y42234D01*
X21383D01*
X21550D01*
X21716Y42067D01*
Y41901D01*
X21550Y41734D01*
X21216D01*
X21050Y41901D01*
X22049Y42734D02*
X22716D01*
Y42567D01*
X22049Y41901D01*
Y41734D01*
X45400Y39277D02*
Y40277D01*
X45900D01*
X46066Y40110D01*
Y39777D01*
X45900Y39610D01*
X45400D01*
X45733D02*
X46066Y39277D01*
X46400Y40110D02*
X46566Y40277D01*
X46900D01*
X47066Y40110D01*
Y39944D01*
X46900Y39777D01*
X46733D01*
X46900D01*
X47066Y39610D01*
Y39444D01*
X46900Y39277D01*
X46566D01*
X46400Y39444D01*
X48066Y40277D02*
X47733Y40110D01*
X47399Y39777D01*
Y39444D01*
X47566Y39277D01*
X47899D01*
X48066Y39444D01*
Y39610D01*
X47899Y39777D01*
X47399D01*
X45300Y41900D02*
Y42900D01*
X45800D01*
X45966Y42733D01*
Y42400D01*
X45800Y42233D01*
X45300D01*
X45633D02*
X45966Y41900D01*
X46300Y42733D02*
X46466Y42900D01*
X46800D01*
X46966Y42733D01*
Y42566D01*
X46800Y42400D01*
X46633D01*
X46800D01*
X46966Y42233D01*
Y42067D01*
X46800Y41900D01*
X46466D01*
X46300Y42067D01*
X47966Y42900D02*
X47299D01*
Y42400D01*
X47633Y42566D01*
X47799D01*
X47966Y42400D01*
Y42067D01*
X47799Y41900D01*
X47466D01*
X47299Y42067D01*
X36000Y55500D02*
Y56500D01*
X36500D01*
X36666Y56333D01*
Y56000D01*
X36500Y55833D01*
X36000D01*
X36333D02*
X36666Y55500D01*
X37666D02*
X37000D01*
X37666Y56166D01*
Y56333D01*
X37500Y56500D01*
X37166D01*
X37000Y56333D01*
X38499Y55500D02*
Y56500D01*
X37999Y56000D01*
X38666D01*
X36100Y58125D02*
Y59125D01*
X36600D01*
X36766Y58958D01*
Y58625D01*
X36600Y58458D01*
X36100D01*
X36433D02*
X36766Y58125D01*
X37766D02*
X37100D01*
X37766Y58791D01*
Y58958D01*
X37600Y59125D01*
X37266D01*
X37100Y58958D01*
X38099D02*
X38266Y59125D01*
X38599D01*
X38766Y58958D01*
Y58791D01*
X38599Y58625D01*
X38433D01*
X38599D01*
X38766Y58458D01*
Y58292D01*
X38599Y58125D01*
X38266D01*
X38099Y58292D01*
X61000Y55700D02*
Y56700D01*
X61500D01*
X61666Y56533D01*
Y56200D01*
X61500Y56033D01*
X61000D01*
X61333D02*
X61666Y55700D01*
X62666D02*
X62000D01*
X62666Y56366D01*
Y56533D01*
X62500Y56700D01*
X62166D01*
X62000Y56533D01*
X63666Y55700D02*
X62999D01*
X63666Y56366D01*
Y56533D01*
X63499Y56700D01*
X63166D01*
X62999Y56533D01*
X61000Y58200D02*
Y59200D01*
X61500D01*
X61666Y59033D01*
Y58700D01*
X61500Y58533D01*
X61000D01*
X61333D02*
X61666Y58200D01*
X62666D02*
X62000D01*
X62666Y58866D01*
Y59033D01*
X62500Y59200D01*
X62166D01*
X62000Y59033D01*
X62999Y58200D02*
X63333D01*
X63166D01*
Y59200D01*
X62999Y59033D01*
X32125Y11400D02*
Y12400D01*
X32625D01*
X32791Y12233D01*
Y11900D01*
X32625Y11733D01*
X32125D01*
X32458D02*
X32791Y11400D01*
X33791D02*
X33125D01*
X33791Y12066D01*
Y12233D01*
X33625Y12400D01*
X33291D01*
X33125Y12233D01*
X4900Y23934D02*
Y24267D01*
Y24100D01*
X4067D01*
X3900Y24267D01*
Y24433D01*
X4067Y24600D01*
X4900Y22934D02*
X4733Y23267D01*
X4400Y23600D01*
X4067D01*
X3900Y23434D01*
Y23100D01*
X4067Y22934D01*
X4233D01*
X4400Y23100D01*
Y23600D01*
X33106Y1840D02*
X32773D01*
X32940D01*
Y1007D01*
X32773Y840D01*
X32607D01*
X32440Y1007D01*
X33440Y1673D02*
X33606Y1840D01*
X33940D01*
X34106Y1673D01*
Y1506D01*
X33940Y1340D01*
X33773D01*
X33940D01*
X34106Y1173D01*
Y1007D01*
X33940Y840D01*
X33606D01*
X33440Y1007D01*
X7766Y41400D02*
X7433D01*
X7600D01*
Y40567D01*
X7433Y40400D01*
X7267D01*
X7100Y40567D01*
X8766Y40400D02*
X8100D01*
X8766Y41066D01*
Y41233D01*
X8600Y41400D01*
X8266D01*
X8100Y41233D01*
X25200Y54030D02*
X25533D01*
X25367D01*
Y53030D01*
X25200D01*
X25533D01*
X26700Y53863D02*
X26533Y54030D01*
X26200D01*
X26033Y53863D01*
Y53197D01*
X26200Y53030D01*
X26533D01*
X26700Y53197D01*
X27699Y54030D02*
X27033D01*
Y53530D01*
X27366Y53696D01*
X27533D01*
X27699Y53530D01*
Y53197D01*
X27533Y53030D01*
X27199D01*
X27033Y53197D01*
X40260Y37730D02*
X40593D01*
X40427D01*
Y36730D01*
X40260D01*
X40593D01*
X41760Y37563D02*
X41593Y37730D01*
X41260D01*
X41093Y37563D01*
Y36897D01*
X41260Y36730D01*
X41593D01*
X41760Y36897D01*
X42593Y36730D02*
Y37730D01*
X42093Y37230D01*
X42759D01*
X55700Y54030D02*
X56033D01*
X55867D01*
Y53030D01*
X55700D01*
X56033D01*
X57200Y53863D02*
X57033Y54030D01*
X56700D01*
X56533Y53863D01*
Y53197D01*
X56700Y53030D01*
X57033D01*
X57200Y53197D01*
X57533Y53863D02*
X57699Y54030D01*
X58033D01*
X58199Y53863D01*
Y53696D01*
X58033Y53530D01*
X57866D01*
X58033D01*
X58199Y53363D01*
Y53197D01*
X58033Y53030D01*
X57699D01*
X57533Y53197D01*
X40480Y18885D02*
X40813D01*
X40647D01*
Y17885D01*
X40480D01*
X40813D01*
X41980Y18718D02*
X41813Y18885D01*
X41480D01*
X41313Y18718D01*
Y18052D01*
X41480Y17885D01*
X41813D01*
X41980Y18052D01*
X42979Y17885D02*
X42313D01*
X42979Y18551D01*
Y18718D01*
X42813Y18885D01*
X42479D01*
X42313Y18718D01*
X42800Y15300D02*
X43133D01*
X42967D01*
Y14300D01*
X42800D01*
X43133D01*
X44300Y15133D02*
X44133Y15300D01*
X43800D01*
X43633Y15133D01*
Y14467D01*
X43800Y14300D01*
X44133D01*
X44300Y14467D01*
X44633Y14300D02*
X44966D01*
X44799D01*
Y15300D01*
X44633Y15133D01*
X9766Y62733D02*
X9600Y62900D01*
X9267D01*
X9100Y62733D01*
Y62067D01*
X9267Y61900D01*
X9600D01*
X9766Y62067D01*
X10100Y61900D02*
Y62900D01*
X10766Y61900D01*
Y62900D01*
X11099Y62733D02*
X11266Y62900D01*
X11599D01*
X11766Y62733D01*
Y62566D01*
X11599Y62400D01*
X11766Y62233D01*
Y62067D01*
X11599Y61900D01*
X11266D01*
X11099Y62067D01*
Y62233D01*
X11266Y62400D01*
X11099Y62566D01*
Y62733D01*
X11266Y62400D02*
X11599D01*
X28566Y63233D02*
X28400Y63400D01*
X28067D01*
X27900Y63233D01*
Y62567D01*
X28067Y62400D01*
X28400D01*
X28566Y62567D01*
X28900Y62400D02*
Y63400D01*
X29566Y62400D01*
Y63400D01*
X29899D02*
X30566D01*
Y63233D01*
X29899Y62567D01*
Y62400D01*
X67167Y56566D02*
X67000Y56400D01*
Y56067D01*
X67167Y55900D01*
X67833D01*
X68000Y56067D01*
Y56400D01*
X67833Y56566D01*
X68000Y56900D02*
X67000D01*
X68000Y57566D01*
X67000D01*
Y58566D02*
Y57899D01*
X67500D01*
X67334Y58233D01*
Y58399D01*
X67500Y58566D01*
X67833D01*
X68000Y58399D01*
Y58066D01*
X67833Y57899D01*
X38166Y62733D02*
X38000Y62900D01*
X37667D01*
X37500Y62733D01*
Y62067D01*
X37667Y61900D01*
X38000D01*
X38166Y62067D01*
X38500Y61900D02*
Y62900D01*
X39166Y61900D01*
Y62900D01*
X39999Y61900D02*
Y62900D01*
X39499Y62400D01*
X40166D01*
X58766Y63233D02*
X58600Y63400D01*
X58267D01*
X58100Y63233D01*
Y62567D01*
X58267Y62400D01*
X58600D01*
X58766Y62567D01*
X59100Y62400D02*
Y63400D01*
X59766Y62400D01*
Y63400D01*
X60099Y63233D02*
X60266Y63400D01*
X60599D01*
X60766Y63233D01*
Y63066D01*
X60599Y62900D01*
X60433D01*
X60599D01*
X60766Y62733D01*
Y62567D01*
X60599Y62400D01*
X60266D01*
X60099Y62567D01*
X67867Y9166D02*
X67700Y9000D01*
Y8667D01*
X67867Y8500D01*
X68533D01*
X68700Y8667D01*
Y9000D01*
X68533Y9166D01*
X68700Y9500D02*
X67700D01*
X68700Y10166D01*
X67700D01*
X68700Y11166D02*
Y10499D01*
X68034Y11166D01*
X67867D01*
X67700Y10999D01*
Y10666D01*
X67867Y10499D01*
X60666Y9833D02*
X60500Y10000D01*
X60167D01*
X60000Y9833D01*
Y9167D01*
X60167Y9000D01*
X60500D01*
X60666Y9167D01*
X61000Y9000D02*
Y10000D01*
X61666Y9000D01*
Y10000D01*
X61999Y9000D02*
X62333D01*
X62166D01*
Y10000D01*
X61999Y9833D01*
X50474Y23518D02*
X50308Y23685D01*
X49975D01*
X49808Y23518D01*
Y22852D01*
X49975Y22685D01*
X50308D01*
X50474Y22852D01*
X50808Y22685D02*
X51141D01*
X50974D01*
Y23685D01*
X50808Y23518D01*
X52307Y22685D02*
X51641D01*
X52307Y23352D01*
Y23518D01*
X52141Y23685D01*
X51807D01*
X51641Y23518D01*
X50891Y25880D02*
X50724Y26047D01*
X50391D01*
X50225Y25880D01*
Y25214D01*
X50391Y25047D01*
X50724D01*
X50891Y25214D01*
X51224Y25047D02*
X51557D01*
X51391D01*
Y26047D01*
X51224Y25880D01*
X52057Y25047D02*
X52391D01*
X52224D01*
Y26047D01*
X52057Y25880D01*
X50474Y28242D02*
X50308Y28408D01*
X49975D01*
X49808Y28242D01*
Y27575D01*
X49975Y27409D01*
X50308D01*
X50474Y27575D01*
X50808Y27409D02*
X51141D01*
X50974D01*
Y28408D01*
X50808Y28242D01*
X51641D02*
X51807Y28408D01*
X52141D01*
X52307Y28242D01*
Y27575D01*
X52141Y27409D01*
X51807D01*
X51641Y27575D01*
Y28242D01*
X51308Y16433D02*
X51141Y16600D01*
X50808D01*
X50641Y16433D01*
Y15767D01*
X50808Y15600D01*
X51141D01*
X51308Y15767D01*
X51641D02*
X51807Y15600D01*
X52141D01*
X52307Y15767D01*
Y16433D01*
X52141Y16600D01*
X51807D01*
X51641Y16433D01*
Y16266D01*
X51807Y16100D01*
X52307D01*
X51308Y18795D02*
X51141Y18961D01*
X50808D01*
X50641Y18795D01*
Y18128D01*
X50808Y17962D01*
X51141D01*
X51308Y18128D01*
X51641Y18795D02*
X51807Y18961D01*
X52141D01*
X52307Y18795D01*
Y18628D01*
X52141Y18462D01*
X52307Y18295D01*
Y18128D01*
X52141Y17962D01*
X51807D01*
X51641Y18128D01*
Y18295D01*
X51807Y18462D01*
X51641Y18628D01*
Y18795D01*
X51807Y18462D02*
X52141D01*
X51308Y21157D02*
X51141Y21323D01*
X50808D01*
X50641Y21157D01*
Y20490D01*
X50808Y20324D01*
X51141D01*
X51308Y20490D01*
X51641Y21323D02*
X52307D01*
Y21157D01*
X51641Y20490D01*
Y20324D01*
X34277Y5066D02*
X34110Y4900D01*
Y4567D01*
X34277Y4400D01*
X34943D01*
X35110Y4567D01*
Y4900D01*
X34943Y5066D01*
X34110Y6066D02*
Y5400D01*
X34610D01*
X34443Y5733D01*
Y5900D01*
X34610Y6066D01*
X34943D01*
X35110Y5900D01*
Y5566D01*
X34943Y5400D01*
X37366Y5833D02*
X37200Y6000D01*
X36867D01*
X36700Y5833D01*
Y5167D01*
X36867Y5000D01*
X37200D01*
X37366Y5167D01*
X38200Y5000D02*
Y6000D01*
X37700Y5500D01*
X38366D01*
X37366Y12033D02*
X37200Y12200D01*
X36867D01*
X36700Y12033D01*
Y11367D01*
X36867Y11200D01*
X37200D01*
X37366Y11367D01*
X37700Y12033D02*
X37866Y12200D01*
X38200D01*
X38366Y12033D01*
Y11866D01*
X38200Y11700D01*
X38033D01*
X38200D01*
X38366Y11533D01*
Y11367D01*
X38200Y11200D01*
X37866D01*
X37700Y11367D01*
X48133Y14734D02*
X48300Y14900D01*
Y15233D01*
X48133Y15400D01*
X47467D01*
X47300Y15233D01*
Y14900D01*
X47467Y14734D01*
X47300Y13734D02*
Y14400D01*
X47966Y13734D01*
X48133D01*
X48300Y13900D01*
Y14234D01*
X48133Y14400D01*
X54443Y13334D02*
X54610Y13500D01*
Y13833D01*
X54443Y14000D01*
X53777D01*
X53610Y13833D01*
Y13500D01*
X53777Y13334D01*
X53610Y13000D02*
Y12667D01*
Y12834D01*
X54610D01*
X54443Y13000D01*
D15*
X24943Y1485D02*
Y4025D01*
X22720Y1485D02*
Y4025D01*
X18275D02*
X20498D01*
X13830Y1485D02*
Y6565D01*
X20498Y1485D02*
X22720D01*
X24943D02*
X27165D01*
Y5295D01*
X16053Y1485D02*
Y6565D01*
Y1485D02*
X18275D01*
X13830D02*
X16053D01*
X20498D02*
Y4025D01*
X18275Y1485D02*
Y4025D01*
X22720D02*
X24943D01*
D16*
X1365Y9680D02*
X2635D01*
X730Y23015D02*
Y24285D01*
X1365Y24920D01*
X2635D02*
X3270Y24285D01*
X1365Y24920D02*
X2635D01*
X730Y21745D02*
X1365Y22380D01*
X730Y20475D02*
Y21745D01*
Y20475D02*
X1365Y19840D01*
X2635D02*
X3270Y20475D01*
Y21745D01*
X2635Y22380D02*
X3270Y21745D01*
X730Y23015D02*
X1365Y22380D01*
X2635D02*
X3270Y23015D01*
Y24285D01*
X730Y15395D02*
Y16665D01*
X1365Y17300D01*
X2635D02*
X3270Y16665D01*
X730Y19205D02*
X1365Y19840D01*
X730Y17935D02*
Y19205D01*
Y17935D02*
X1365Y17300D01*
X2635D02*
X3270Y17935D01*
Y19205D01*
X2635Y19840D02*
X3270Y19205D01*
X730Y14125D02*
X1365Y14760D01*
X730Y12855D02*
Y14125D01*
Y12855D02*
X1365Y12220D01*
X2635D02*
X3270Y12855D01*
Y14125D01*
X2635Y14760D02*
X3270Y14125D01*
X730Y15395D02*
X1365Y14760D01*
X2635D02*
X3270Y15395D01*
Y16665D01*
X730Y11585D02*
X1365Y12220D01*
X730Y10315D02*
Y11585D01*
Y10315D02*
X1365Y9680D01*
X2635D02*
X3270Y10315D01*
Y11585D01*
X2635Y12220D02*
X3270Y11585D01*
X36975Y13190D02*
X37610Y13825D01*
X36975Y15730D02*
X37610Y15095D01*
X36975Y15730D02*
X37610Y16365D01*
X36975Y18270D02*
X37610Y17635D01*
X36975Y18270D02*
X37610Y18905D01*
X36975Y20810D02*
X37610Y20175D01*
X33165Y13190D02*
X36975D01*
X32530Y13825D02*
X33165Y13190D01*
X32530Y13825D02*
Y15095D01*
X33165Y15730D01*
X32530Y16365D02*
X33165Y15730D01*
X32530Y16365D02*
Y17635D01*
X33165Y18270D01*
X32530Y18905D02*
X33165Y18270D01*
X32530Y18905D02*
Y20175D01*
X33165Y20810D01*
Y15730D02*
X36975D01*
X33165Y18270D02*
X36975D01*
X33165Y20810D02*
X36975D01*
X37610Y18905D02*
Y20175D01*
Y16365D02*
Y17635D01*
Y13825D02*
Y15095D01*
X34760Y1865D02*
Y3135D01*
X37935Y3770D02*
X39205D01*
X39840Y3135D01*
X39205Y1230D02*
X39840Y1865D01*
Y3135D01*
X36665Y3770D02*
X37300Y3135D01*
X35395Y3770D02*
X36665D01*
X34760Y3135D02*
X35395Y3770D01*
X34760Y1865D02*
X35395Y1230D01*
X36665D01*
X37300Y1865D01*
Y3135D02*
X37935Y3770D01*
X37300Y1865D02*
X37935Y1230D01*
X39205D01*
X730Y40115D02*
Y41385D01*
X3905Y42020D02*
X5175D01*
X5810Y41385D01*
X5175Y39480D02*
X5810Y40115D01*
Y41385D01*
X2635Y42020D02*
X3270Y41385D01*
X1365Y42020D02*
X2635D01*
X730Y41385D02*
X1365Y42020D01*
X730Y40115D02*
X1365Y39480D01*
X2635D01*
X3270Y40115D01*
Y41385D02*
X3905Y42020D01*
X3270Y40115D02*
X3905Y39480D01*
X5175D01*
X47340Y1865D02*
Y3135D01*
X42895Y1230D02*
X44165D01*
X42260Y1865D02*
X42895Y1230D01*
X42260Y3135D02*
X42895Y3770D01*
X42260Y1865D02*
Y3135D01*
X44800Y1865D02*
X45435Y1230D01*
X46705D01*
X47340Y1865D01*
X46705Y3770D02*
X47340Y3135D01*
X45435Y3770D02*
X46705D01*
X44800Y3135D02*
X45435Y3770D01*
X44165Y1230D02*
X44800Y1865D01*
X44165Y3770D02*
X44800Y3135D01*
X42895Y3770D02*
X44165D01*
D17*
X7840Y32070D02*
Y35880D01*
X5300Y32095D02*
Y35905D01*
X2760Y32044D02*
Y35854D01*
X855Y31460D02*
X2125D01*
X3395D02*
X4665D01*
X5935D02*
X7205D01*
X8475D02*
X9745D01*
X10380Y32095D02*
Y35905D01*
X9745Y36540D02*
X10380Y35905D01*
X8475Y36540D02*
X9745D01*
X7840Y35905D02*
X8475Y36540D01*
X7205D02*
X7840Y35905D01*
X5935Y36540D02*
X7205D01*
X5300Y35905D02*
X5935Y36540D01*
X4665D02*
X5300Y35905D01*
X3395Y36540D02*
X4665D01*
X2760Y35905D02*
X3395Y36540D01*
X2125D02*
X2760Y35905D01*
X855Y36540D02*
X2125D01*
X220Y35905D02*
X855Y36540D01*
X220Y32095D02*
Y35905D01*
X9745Y31460D02*
X10380Y32095D01*
X7840D02*
X8475Y31460D01*
X7205D02*
X7840Y32095D01*
X5300D02*
X5935Y31460D01*
X4665D02*
X5300Y32095D01*
X2760D02*
X3395Y31460D01*
X2125D02*
X2760Y32095D01*
X220D02*
X855Y31460D01*
M02*
