G04*
G04 #@! TF.GenerationSoftware,Altium Limited,Altium Designer,18.1.8 (232)*
G04*
G04 Layer_Physical_Order=2*
G04 Layer_Color=16711680*
%FSLAX43Y43*%
%MOMM*%
G71*
G01*
G75*
%ADD21R,1.300X1.500*%
%ADD22R,1.500X1.300*%
%ADD50C,0.500*%
%ADD51C,0.700*%
%ADD52C,0.400*%
%ADD53C,1.000*%
%ADD54C,1.200*%
%ADD55C,0.800*%
%ADD56O,1.270X2.000*%
%ADD57P,1.948X8X22.5*%
%ADD58R,1.800X1.800*%
G04:AMPARAMS|DCode=59|XSize=1.8mm|YSize=1.8mm|CornerRadius=0mm|HoleSize=0mm|Usage=FLASHONLY|Rotation=0.000|XOffset=0mm|YOffset=0mm|HoleType=Round|Shape=RoundedRectangle|*
%AMROUNDEDRECTD59*
21,1,1.800,1.800,0,0,0.0*
21,1,1.800,1.800,0,0,0.0*
1,1,0.000,0.900,-0.900*
1,1,0.000,-0.900,-0.900*
1,1,0.000,-0.900,0.900*
1,1,0.000,0.900,0.900*
%
%ADD59ROUNDEDRECTD59*%
G04:AMPARAMS|DCode=60|XSize=1.8mm|YSize=1.8mm|CornerRadius=0mm|HoleSize=0mm|Usage=FLASHONLY|Rotation=90.000|XOffset=0mm|YOffset=0mm|HoleType=Round|Shape=RoundedRectangle|*
%AMROUNDEDRECTD60*
21,1,1.800,1.800,0,0,90.0*
21,1,1.800,1.800,0,0,90.0*
1,1,0.000,0.900,0.900*
1,1,0.000,0.900,-0.900*
1,1,0.000,-0.900,-0.900*
1,1,0.000,-0.900,0.900*
%
%ADD60ROUNDEDRECTD60*%
%ADD61P,1.948X8X112.5*%
%ADD62R,1.800X1.800*%
%ADD63C,1.500*%
%ADD64R,1.500X1.500*%
%ADD65C,1.524*%
%ADD66C,2.500*%
%ADD67R,2.500X2.500*%
%ADD68R,2.500X2.500*%
%ADD69C,0.800*%
%ADD70C,1.270*%
%ADD71C,0.700*%
%ADD72C,2.000*%
G36*
X62624Y74361D02*
X62682Y74234D01*
X62321Y73823D01*
X61984Y73318D01*
X61716Y72774D01*
X61521Y72200D01*
X61403Y71605D01*
X61363Y71000D01*
X61403Y70395D01*
X61521Y69800D01*
X61716Y69226D01*
X61984Y68682D01*
X62321Y68177D01*
X62721Y67721D01*
X63177Y67321D01*
X63682Y66984D01*
X64226Y66716D01*
X64800Y66521D01*
X65395Y66403D01*
X66000Y66363D01*
X66605Y66403D01*
X67200Y66521D01*
X67774Y66716D01*
X68318Y66984D01*
X68823Y67321D01*
X69234Y67682D01*
X69361Y67624D01*
X69361Y7376D01*
X69234Y7318D01*
X68823Y7679D01*
X68318Y8016D01*
X67774Y8284D01*
X67200Y8479D01*
X66605Y8597D01*
X66000Y8637D01*
X65395Y8597D01*
X64800Y8479D01*
X64226Y8284D01*
X63682Y8016D01*
X63177Y7679D01*
X62721Y7279D01*
X62321Y6823D01*
X61984Y6318D01*
X61716Y5774D01*
X61521Y5200D01*
X61403Y4605D01*
X61363Y4000D01*
X61403Y3395D01*
X61521Y2800D01*
X61716Y2226D01*
X61984Y1682D01*
X62321Y1177D01*
X62682Y766D01*
X62624Y639D01*
X31639Y639D01*
Y6058D01*
X31757Y6107D01*
X33257Y4607D01*
X33466Y4446D01*
X33709Y4346D01*
X33970Y4311D01*
X43992D01*
X44286Y4017D01*
X44238Y3900D01*
X42130D01*
Y1100D01*
X44930D01*
Y1331D01*
X45057Y1391D01*
X45180Y1290D01*
X45370Y1100D01*
X45518D01*
X45776Y1022D01*
X46070Y993D01*
X48793D01*
X49087Y1022D01*
X49370Y1107D01*
X49630Y1247D01*
X49858Y1434D01*
X51974Y3550D01*
X53343D01*
Y7050D01*
X49843D01*
Y5682D01*
X48168Y4007D01*
X47009D01*
X46944Y4164D01*
X46783Y4373D01*
X45123Y6033D01*
X44914Y6194D01*
X44671Y6294D01*
X44410Y6329D01*
X34388D01*
X31991Y8726D01*
X32043Y8853D01*
X34418D01*
X34465Y8833D01*
X34700Y8802D01*
X34935Y8833D01*
X34982Y8853D01*
X36470D01*
X36692Y8882D01*
X36899Y8968D01*
X37076Y9104D01*
X38706Y10734D01*
X38842Y10911D01*
X38928Y11118D01*
X38957Y11340D01*
Y20600D01*
X38928Y20822D01*
X38842Y21029D01*
X38706Y21206D01*
X37706Y22206D01*
X37529Y22342D01*
X37322Y22428D01*
X37100Y22457D01*
X25300D01*
X25078Y22428D01*
X24871Y22342D01*
X24694Y22206D01*
X23544Y21056D01*
X23408Y20879D01*
X23322Y20672D01*
X23293Y20450D01*
Y20250D01*
X23000D01*
Y17750D01*
Y15650D01*
X23246D01*
Y15054D01*
X24150D01*
Y14546D01*
X23246D01*
Y13916D01*
X21085D01*
X21050Y14043D01*
X21177Y14208D01*
X21257Y14403D01*
X19543D01*
X19623Y14208D01*
X19750Y14043D01*
X19715Y13916D01*
X19085D01*
X19050Y14043D01*
X19177Y14208D01*
X19257Y14403D01*
X17543D01*
X17623Y14208D01*
X17750Y14043D01*
X17715Y13916D01*
X16653D01*
X10483Y20087D01*
X10477Y20135D01*
X10386Y20354D01*
X10242Y20542D01*
X10054Y20686D01*
X9835Y20777D01*
X9600Y20808D01*
X9365Y20777D01*
X9146Y20686D01*
X8958Y20542D01*
X8814Y20354D01*
X8723Y20135D01*
X8692Y19900D01*
X8723Y19665D01*
X8814Y19446D01*
X8958Y19258D01*
X9146Y19114D01*
X9365Y19023D01*
X9413Y19017D01*
X13527Y14903D01*
X13468Y14783D01*
X13280Y14808D01*
X13045Y14777D01*
X12826Y14686D01*
X12638Y14542D01*
X12494Y14354D01*
X12403Y14135D01*
X12372Y13900D01*
X12403Y13665D01*
X12494Y13446D01*
X12638Y13258D01*
X12826Y13114D01*
X13045Y13023D01*
X13093Y13017D01*
X13999Y12111D01*
X13966Y11965D01*
X13953Y11960D01*
X13854Y12036D01*
X13635Y12127D01*
X13400Y12158D01*
X13165Y12127D01*
X12946Y12036D01*
X12758Y11892D01*
X12614Y11704D01*
X12523Y11485D01*
X12492Y11250D01*
X12521Y11031D01*
X12490Y11001D01*
X12406Y10967D01*
X10166Y13206D01*
X9989Y13342D01*
X9782Y13428D01*
X9560Y13457D01*
X8250D01*
Y13750D01*
X5750D01*
Y11450D01*
Y10779D01*
X5633Y10730D01*
X5229Y11134D01*
Y23825D01*
X5356Y23893D01*
X5525Y23823D01*
X5760Y23792D01*
X5866Y23806D01*
X5935Y23687D01*
X5905Y23648D01*
X5829Y23466D01*
X5804Y23270D01*
Y20433D01*
X5774Y20394D01*
X5683Y20175D01*
X5652Y19940D01*
X5683Y19705D01*
X5774Y19486D01*
X5918Y19298D01*
X6106Y19154D01*
X6325Y19063D01*
X6560Y19032D01*
X6795Y19063D01*
X7014Y19154D01*
X7202Y19298D01*
X7346Y19486D01*
X7437Y19705D01*
X7468Y19940D01*
X7437Y20175D01*
X7346Y20394D01*
X7316Y20433D01*
Y21835D01*
X7443Y21909D01*
X7650Y21882D01*
X7885Y21913D01*
X8104Y22004D01*
X8292Y22148D01*
X8436Y22336D01*
X8527Y22555D01*
X8533Y22603D01*
X12581Y26651D01*
X12677Y26567D01*
X12589Y26452D01*
X12474Y26176D01*
X12435Y25880D01*
X12474Y25584D01*
X12589Y25308D01*
X12771Y25071D01*
X13008Y24889D01*
X13284Y24774D01*
X13580Y24735D01*
X13848Y24771D01*
X36860D01*
X46881Y14750D01*
Y12300D01*
X46918Y12013D01*
X47029Y11745D01*
X47205Y11515D01*
X47435Y11339D01*
X47703Y11228D01*
X47990Y11191D01*
X48277Y11228D01*
X48545Y11339D01*
X48775Y11515D01*
X48951Y11745D01*
X49062Y12013D01*
X49099Y12300D01*
Y15210D01*
X49062Y15497D01*
X48951Y15765D01*
X48775Y15995D01*
X38105Y26665D01*
X37875Y26841D01*
X37607Y26952D01*
X37320Y26989D01*
X28965D01*
X28917Y27107D01*
X33265Y31455D01*
X33385Y31612D01*
X33453Y31776D01*
X33478Y31802D01*
X33597Y31854D01*
X33704Y31809D01*
X34000Y31770D01*
X34296Y31809D01*
X34572Y31924D01*
X34809Y32106D01*
X34991Y32343D01*
X35106Y32619D01*
X35145Y32915D01*
Y33645D01*
X35106Y33941D01*
X34991Y34217D01*
X34809Y34454D01*
X34572Y34636D01*
X34296Y34751D01*
X34070Y34781D01*
X34024Y34915D01*
X34937Y35827D01*
X34985Y35833D01*
X35204Y35924D01*
X35392Y36068D01*
X35536Y36256D01*
X35627Y36475D01*
X35658Y36710D01*
X35627Y36945D01*
X35536Y37164D01*
X35392Y37352D01*
X35204Y37496D01*
X34985Y37587D01*
X34750Y37618D01*
X34515Y37587D01*
X34296Y37496D01*
X34108Y37352D01*
X34028Y37247D01*
X33906Y37297D01*
X33908Y37310D01*
X33877Y37545D01*
X33786Y37764D01*
X33642Y37952D01*
X33454Y38096D01*
X33235Y38187D01*
X33000Y38218D01*
X32765Y38187D01*
X32546Y38096D01*
X32358Y37952D01*
X32214Y37764D01*
X32123Y37545D01*
X32117Y37497D01*
X31437Y36817D01*
X31398Y36843D01*
X31340Y36899D01*
X31377Y37184D01*
X33174Y38980D01*
X35250D01*
Y41280D01*
X35112D01*
X35004Y41326D01*
Y41976D01*
X34000D01*
Y42230D01*
X33746D01*
Y43134D01*
X33380D01*
X33331Y43251D01*
X37075Y46995D01*
X37075Y46995D01*
X37195Y47152D01*
X37241Y47262D01*
X37349Y47346D01*
X37531Y47583D01*
X37646Y47859D01*
X37685Y48155D01*
Y48885D01*
X37646Y49181D01*
X37531Y49457D01*
X37349Y49694D01*
X37112Y49876D01*
X36836Y49991D01*
X36540Y50030D01*
X36244Y49991D01*
X35968Y49876D01*
X35731Y49694D01*
X35549Y49457D01*
X35434Y49181D01*
X35395Y48885D01*
Y48155D01*
X35434Y47859D01*
X35541Y47601D01*
X31365Y43425D01*
X31245Y43268D01*
X31196Y43150D01*
X31052Y43129D01*
X31012Y43182D01*
X30750Y43382D01*
X30478Y43495D01*
X30478Y43495D01*
Y43625D01*
X30478Y43625D01*
X30750Y43738D01*
X31012Y43938D01*
X31212Y44200D01*
X31338Y44504D01*
X31381Y44830D01*
X31338Y45156D01*
X31212Y45460D01*
X31012Y45722D01*
X30750Y45922D01*
X30446Y46048D01*
X30120Y46091D01*
X29794Y46048D01*
X29490Y45922D01*
X29228Y45722D01*
X29125Y45586D01*
X28730D01*
Y46080D01*
X26430D01*
Y45942D01*
X26384Y45834D01*
X26303Y45834D01*
X25734D01*
Y44830D01*
Y43826D01*
X26303D01*
X26384Y43826D01*
X26430Y43718D01*
Y43580D01*
X26322Y43534D01*
X24330D01*
Y43364D01*
X24213Y43315D01*
X22556Y44972D01*
X22368Y45116D01*
X22149Y45207D01*
X21914Y45238D01*
X21260D01*
X21217Y45365D01*
X21335Y45455D01*
X21835Y45955D01*
X21955Y46112D01*
X22031Y46294D01*
X22044Y46392D01*
X22056Y46490D01*
X22056Y46490D01*
Y47305D01*
X22109Y47346D01*
X22291Y47583D01*
X22406Y47859D01*
X22445Y48155D01*
Y48885D01*
X22406Y49181D01*
X22291Y49457D01*
X22109Y49694D01*
X21872Y49876D01*
X21596Y49991D01*
X21300Y50030D01*
X21004Y49991D01*
X20728Y49876D01*
X20491Y49694D01*
X20309Y49457D01*
X20194Y49181D01*
X20155Y48885D01*
Y48155D01*
X20194Y47859D01*
X20309Y47583D01*
X20474Y47367D01*
X20452Y47289D01*
X20419Y47240D01*
X19206D01*
X19181Y47367D01*
X19208Y47378D01*
X19394Y47521D01*
X19537Y47707D01*
X19626Y47923D01*
X19657Y48155D01*
Y48266D01*
X18760D01*
Y48774D01*
X19657D01*
Y48885D01*
X19626Y49117D01*
X19537Y49333D01*
X19394Y49519D01*
X19208Y49662D01*
X18992Y49751D01*
X18907Y49762D01*
X18866Y49883D01*
X19786Y50802D01*
X44120D01*
X44355Y50833D01*
X44574Y50924D01*
X44762Y51068D01*
X45990Y52296D01*
X47478Y50808D01*
X47666Y50664D01*
X47885Y50573D01*
X48120Y50542D01*
X48120Y50542D01*
X56220D01*
X56455Y50573D01*
X56674Y50664D01*
X56862Y50808D01*
X57006Y50996D01*
X57097Y51215D01*
X57128Y51450D01*
X57097Y51685D01*
X57006Y51904D01*
X56862Y52092D01*
X56730Y52193D01*
X56773Y52320D01*
X59470D01*
Y54743D01*
X59470Y54820D01*
X59470D01*
Y54870D01*
X59470D01*
Y55210D01*
X59576Y55280D01*
X59665Y55243D01*
X59900Y55212D01*
X60135Y55243D01*
X60354Y55334D01*
X60406Y55374D01*
X62640D01*
Y54980D01*
X65140D01*
Y57280D01*
X65002D01*
X64894Y57326D01*
X64894Y57407D01*
Y57976D01*
X63890D01*
Y58230D01*
D01*
Y57976D01*
X62886D01*
Y57407D01*
X62886Y57326D01*
X62778Y57280D01*
X62640D01*
Y56886D01*
X60380D01*
X60354Y56906D01*
X60135Y56997D01*
X59900Y57028D01*
X59665Y56997D01*
X59576Y56960D01*
X59470Y57030D01*
X59470Y57370D01*
X59470Y57497D01*
Y57740D01*
X59576Y57810D01*
X59665Y57773D01*
X59900Y57742D01*
X60135Y57773D01*
X60354Y57864D01*
X60542Y58008D01*
X61822Y59288D01*
X61822Y59288D01*
X61966Y59476D01*
X62057Y59695D01*
X62088Y59930D01*
X62088Y59930D01*
Y67020D01*
X62057Y67255D01*
X61966Y67474D01*
X61822Y67662D01*
X60250Y69234D01*
Y71450D01*
X56750D01*
Y67950D01*
X58966D01*
X60272Y66644D01*
Y60306D01*
X59587Y59621D01*
X59470Y59670D01*
Y59900D01*
X57476D01*
X57370Y59950D01*
Y60088D01*
X57416Y60196D01*
X57497Y60196D01*
X58066D01*
Y61200D01*
Y62204D01*
X57497D01*
X57416Y62204D01*
X57370Y62312D01*
Y62450D01*
X55070D01*
Y59950D01*
X55070D01*
Y59900D01*
X55070D01*
Y59416D01*
X54605D01*
X54502Y59552D01*
X54240Y59752D01*
X53936Y59878D01*
X53610Y59921D01*
X53284Y59878D01*
X52980Y59752D01*
X52718Y59552D01*
X52518Y59290D01*
X52392Y58986D01*
X52349Y58660D01*
X52392Y58334D01*
X52518Y58030D01*
X52718Y57768D01*
X52980Y57568D01*
X53252Y57455D01*
X53252Y57455D01*
Y57325D01*
X53252Y57325D01*
X52980Y57212D01*
X52718Y57012D01*
X52518Y56750D01*
X52392Y56446D01*
X52349Y56120D01*
X52392Y55794D01*
X52518Y55490D01*
X52718Y55228D01*
X52980Y55028D01*
X53151Y54957D01*
X53126Y54830D01*
X52360D01*
Y52358D01*
X48496D01*
X48299Y52555D01*
X48347Y52672D01*
X48360D01*
X48595Y52703D01*
X48814Y52794D01*
X49002Y52938D01*
X50472Y54408D01*
X50616Y54596D01*
X50707Y54815D01*
X50738Y55050D01*
Y55240D01*
X51080D01*
Y57540D01*
X50942D01*
X50834Y57586D01*
X50834Y57667D01*
Y58236D01*
X48826D01*
Y57667D01*
X48826Y57586D01*
X48718Y57540D01*
X48580D01*
Y55240D01*
X48580D01*
X48626Y55130D01*
X47984Y54488D01*
X46860D01*
X46620Y54672D01*
X46348Y54785D01*
X46348Y54785D01*
Y54915D01*
X46348Y54915D01*
X46620Y55028D01*
X46882Y55228D01*
X47082Y55490D01*
X47208Y55794D01*
X47251Y56120D01*
X47208Y56446D01*
X47082Y56750D01*
X46882Y57012D01*
X46620Y57212D01*
X46348Y57325D01*
X46348Y57325D01*
Y57455D01*
X46348Y57455D01*
X46620Y57568D01*
X46882Y57768D01*
X47082Y58030D01*
X47208Y58334D01*
X47251Y58660D01*
X47208Y58986D01*
X47082Y59290D01*
X46882Y59552D01*
X46620Y59752D01*
X46348Y59865D01*
X46348Y59865D01*
Y59995D01*
X46348Y59995D01*
X46620Y60108D01*
X46882Y60308D01*
X47082Y60570D01*
X47208Y60874D01*
X47251Y61200D01*
X47208Y61526D01*
X47082Y61830D01*
X46882Y62092D01*
X46620Y62292D01*
X46316Y62418D01*
X45990Y62461D01*
X45664Y62418D01*
X45360Y62292D01*
X45098Y62092D01*
X44995Y61956D01*
X44510D01*
Y62450D01*
X42210D01*
Y62312D01*
X42164Y62204D01*
X42083Y62204D01*
X41514D01*
Y61200D01*
Y60196D01*
X42083D01*
X42164Y60196D01*
X42210Y60088D01*
Y59950D01*
X42104Y59900D01*
X40110D01*
Y59730D01*
X39993Y59681D01*
X39678Y59996D01*
Y63592D01*
X44036Y67950D01*
X46252D01*
Y71450D01*
X42752D01*
Y69234D01*
X38128Y64609D01*
X37984Y64421D01*
X37893Y64203D01*
X37862Y63968D01*
Y59620D01*
X37893Y59385D01*
X37984Y59166D01*
X38128Y58978D01*
X39098Y58008D01*
X39098Y58008D01*
X39286Y57864D01*
X39505Y57773D01*
X39740Y57742D01*
X39975Y57773D01*
X40004Y57785D01*
X40110Y57715D01*
Y57400D01*
X40110Y57400D01*
Y57370D01*
X40110D01*
X40110Y57273D01*
Y57055D01*
X40004Y56985D01*
X39975Y56997D01*
X39740Y57028D01*
X39505Y56997D01*
X39286Y56906D01*
X39247Y56876D01*
X37580D01*
Y57270D01*
X37442D01*
X37334Y57316D01*
X37334Y57397D01*
Y57966D01*
X36330D01*
X35326D01*
Y57397D01*
X35326Y57316D01*
X35218Y57270D01*
X35080D01*
Y54970D01*
X37580D01*
Y55364D01*
X39247D01*
X39286Y55334D01*
X39505Y55243D01*
X39740Y55212D01*
X39975Y55243D01*
X40004Y55255D01*
X40110Y55185D01*
Y54870D01*
X40110Y54870D01*
Y54820D01*
X40110D01*
X40110Y54743D01*
Y52618D01*
X28830D01*
Y54743D01*
X28830Y54820D01*
X28830D01*
Y54870D01*
X28830D01*
Y55206D01*
X28936Y55276D01*
X29015Y55243D01*
X29250Y55212D01*
X29485Y55243D01*
X29704Y55334D01*
X29743Y55364D01*
X31450D01*
Y54970D01*
X33950D01*
Y57270D01*
X33812D01*
X33704Y57316D01*
X33704Y57397D01*
Y57966D01*
X32700D01*
X31696D01*
Y57397D01*
X31696Y57316D01*
X31588Y57270D01*
X31450D01*
Y56876D01*
X29743D01*
X29704Y56906D01*
X29485Y56997D01*
X29250Y57028D01*
X29015Y56997D01*
X28936Y56964D01*
X28830Y57034D01*
X28830Y57370D01*
X28830Y57497D01*
Y57736D01*
X28936Y57806D01*
X29015Y57773D01*
X29250Y57742D01*
X29485Y57773D01*
X29704Y57864D01*
X29892Y58008D01*
X31147Y59263D01*
X31291Y59451D01*
X31382Y59670D01*
X31413Y59905D01*
Y67950D01*
X32255D01*
Y71450D01*
X28755D01*
Y67950D01*
X29597D01*
Y60281D01*
X28947Y59631D01*
X28830Y59680D01*
Y59900D01*
X26836D01*
X26730Y59950D01*
Y60088D01*
X26776Y60196D01*
X26857Y60196D01*
X27426D01*
Y61200D01*
Y62204D01*
X26857D01*
X26776Y62204D01*
X26730Y62312D01*
Y62450D01*
X24430D01*
Y59950D01*
X24430D01*
Y59900D01*
X24430D01*
Y59416D01*
X23965D01*
X23862Y59552D01*
X23600Y59752D01*
X23296Y59878D01*
X22970Y59921D01*
X22644Y59878D01*
X22340Y59752D01*
X22078Y59552D01*
X21878Y59290D01*
X21752Y58986D01*
X21709Y58660D01*
X21752Y58334D01*
X21878Y58030D01*
X22078Y57768D01*
X22340Y57568D01*
X22612Y57455D01*
X22612Y57455D01*
Y57325D01*
X22612Y57325D01*
X22340Y57212D01*
X22078Y57012D01*
X21878Y56750D01*
X21752Y56446D01*
X21709Y56120D01*
X21752Y55794D01*
X21878Y55490D01*
X22078Y55228D01*
X22340Y55028D01*
X22511Y54957D01*
X22486Y54830D01*
X21720D01*
Y52618D01*
X19410D01*
X19410Y52618D01*
X19175Y52587D01*
X18956Y52496D01*
X18768Y52352D01*
X17245Y50829D01*
X17128Y50877D01*
Y52672D01*
X17260D01*
X17495Y52703D01*
X17714Y52794D01*
X17902Y52938D01*
X19752Y54788D01*
X19896Y54976D01*
X19987Y55195D01*
X20001Y55300D01*
X20360D01*
Y57600D01*
X20222D01*
X20114Y57646D01*
X20114Y57727D01*
Y58296D01*
X18106D01*
Y57727D01*
X18106Y57646D01*
X17998Y57600D01*
X17860D01*
Y55464D01*
X16884Y54488D01*
X16220D01*
X15980Y54672D01*
X15708Y54785D01*
X15708Y54785D01*
Y54915D01*
X15708Y54915D01*
X15980Y55028D01*
X16242Y55228D01*
X16442Y55490D01*
X16568Y55794D01*
X16611Y56120D01*
X16568Y56446D01*
X16442Y56750D01*
X16242Y57012D01*
X15980Y57212D01*
X15708Y57325D01*
X15708Y57325D01*
Y57455D01*
X15708Y57455D01*
X15980Y57568D01*
X16242Y57768D01*
X16442Y58030D01*
X16568Y58334D01*
X16611Y58660D01*
X16568Y58986D01*
X16442Y59290D01*
X16242Y59552D01*
X15980Y59752D01*
X15708Y59865D01*
X15708Y59865D01*
Y59995D01*
X15708Y59995D01*
X15980Y60108D01*
X16242Y60308D01*
X16442Y60570D01*
X16568Y60874D01*
X16611Y61200D01*
X16568Y61526D01*
X16442Y61830D01*
X16242Y62092D01*
X15980Y62292D01*
X15676Y62418D01*
X15350Y62461D01*
X15024Y62418D01*
X14720Y62292D01*
X14458Y62092D01*
X14355Y61956D01*
X13890D01*
Y62450D01*
X11590D01*
Y62312D01*
X11544Y62204D01*
X11463Y62204D01*
X10894D01*
Y61200D01*
Y60196D01*
X11463D01*
X11544Y60196D01*
X11590Y60088D01*
Y59950D01*
X11484Y59900D01*
X9490D01*
Y59604D01*
X9390Y59524D01*
X9363Y59527D01*
X9317Y59533D01*
X8649Y60201D01*
Y63098D01*
X10895Y65344D01*
X15285D01*
X15481Y65369D01*
X15663Y65445D01*
X15820Y65565D01*
X16694Y66439D01*
X16742Y66445D01*
X16961Y66536D01*
X17149Y66680D01*
X17293Y66868D01*
X17384Y67087D01*
X17415Y67322D01*
Y67950D01*
X18257D01*
Y71450D01*
X14757D01*
Y67950D01*
X15600D01*
Y67484D01*
X14972Y66856D01*
X10581D01*
X10385Y66831D01*
X10203Y66755D01*
X10046Y66635D01*
X7357Y63946D01*
X7237Y63789D01*
X7162Y63607D01*
X7136Y63411D01*
Y59888D01*
X7162Y59692D01*
X7237Y59510D01*
X7357Y59353D01*
X8247Y58463D01*
X8253Y58415D01*
X8344Y58196D01*
X8488Y58008D01*
X8676Y57864D01*
X8895Y57773D01*
X9130Y57742D01*
X9363Y57773D01*
X9390Y57776D01*
X9490Y57696D01*
Y57400D01*
X9490Y57400D01*
Y57370D01*
X9490D01*
X9490Y57273D01*
Y57074D01*
X9390Y56994D01*
X9363Y56997D01*
X9130Y57028D01*
X8895Y56997D01*
X8676Y56906D01*
X8637Y56876D01*
X7100D01*
Y57270D01*
X6962D01*
X6854Y57316D01*
X6854Y57397D01*
Y57966D01*
X5850D01*
X4846D01*
Y57397D01*
X4846Y57316D01*
X4738Y57270D01*
X4600D01*
Y54970D01*
X7100D01*
Y55364D01*
X8637D01*
X8676Y55334D01*
X8895Y55243D01*
X9130Y55212D01*
X9363Y55243D01*
X9390Y55246D01*
X9490Y55166D01*
Y54870D01*
X9490Y54870D01*
Y54820D01*
X9490D01*
X9490Y54743D01*
Y52320D01*
X13890D01*
Y53590D01*
X13981Y53681D01*
X14095Y53625D01*
X14089Y53580D01*
X14132Y53254D01*
X14258Y52950D01*
X14458Y52688D01*
X14720Y52488D01*
X15024Y52362D01*
X15312Y52324D01*
Y49566D01*
X15229Y49457D01*
X15114Y49181D01*
X15075Y48885D01*
Y48155D01*
X15114Y47859D01*
X15229Y47583D01*
X15411Y47346D01*
X15464Y47305D01*
Y46510D01*
X15489Y46314D01*
X15565Y46132D01*
X15685Y45975D01*
X16205Y45455D01*
X16205Y45455D01*
X16323Y45365D01*
X16280Y45238D01*
X13373D01*
X7050Y51561D01*
Y53777D01*
X3550D01*
Y50277D01*
X5766D01*
X12355Y43688D01*
X12355Y43688D01*
X12543Y43544D01*
X12762Y43453D01*
X12997Y43422D01*
X21538D01*
X23318Y41642D01*
X23506Y41498D01*
X23725Y41407D01*
X23960Y41376D01*
X24195Y41407D01*
X24224Y41419D01*
X24330Y41349D01*
Y41034D01*
X24330Y41034D01*
Y40997D01*
X24330D01*
X24330Y40907D01*
Y40682D01*
X24224Y40612D01*
X24195Y40624D01*
X23960Y40655D01*
X23725Y40624D01*
X23506Y40533D01*
X23471Y40506D01*
X21590D01*
Y40900D01*
X21452D01*
X21344Y40946D01*
X21344Y41027D01*
Y41596D01*
X20340D01*
X19336D01*
Y41027D01*
X19336Y40946D01*
X19228Y40900D01*
X19090D01*
Y38600D01*
X21590D01*
Y38994D01*
X23464D01*
X23506Y38961D01*
X23725Y38870D01*
X23960Y38839D01*
X24195Y38870D01*
X24224Y38882D01*
X24330Y38812D01*
Y38497D01*
X24330Y38497D01*
Y38460D01*
X24330D01*
X24330Y38370D01*
Y35960D01*
X27634D01*
X27683Y35843D01*
X27115Y35275D01*
X26995Y35118D01*
X26919Y34936D01*
X26901Y34795D01*
X26781Y34708D01*
X26676Y34751D01*
X26380Y34790D01*
X26084Y34751D01*
X25808Y34636D01*
X25571Y34454D01*
X25389Y34217D01*
X25274Y33941D01*
X25235Y33645D01*
Y32915D01*
X25274Y32619D01*
X25389Y32343D01*
X25571Y32106D01*
X25808Y31924D01*
X26084Y31809D01*
X26380Y31770D01*
X26646Y31805D01*
X26704Y31719D01*
X26712Y31692D01*
X26057Y31036D01*
X18781D01*
X18732Y31154D01*
X19259Y31681D01*
X19371Y31827D01*
X19442Y31997D01*
X19444Y32009D01*
X19569Y32106D01*
X19751Y32343D01*
X19866Y32619D01*
X19905Y32915D01*
Y33645D01*
X19866Y33941D01*
X19751Y34217D01*
X19569Y34454D01*
X19332Y34636D01*
X19056Y34751D01*
X18760Y34790D01*
X18464Y34751D01*
X18188Y34636D01*
X17951Y34454D01*
X17769Y34217D01*
X17654Y33941D01*
X17615Y33645D01*
Y32915D01*
X17654Y32619D01*
X17760Y32363D01*
X17732Y32293D01*
X17690Y32236D01*
X17271D01*
X17220Y32363D01*
X17326Y32619D01*
X17365Y32915D01*
Y33645D01*
X17326Y33941D01*
X17211Y34217D01*
X17029Y34454D01*
X16905Y34550D01*
X16902Y34573D01*
X16831Y34743D01*
X16719Y34889D01*
X13589Y38019D01*
X13443Y38131D01*
X13273Y38202D01*
X13090Y38226D01*
X6280D01*
X6097Y38202D01*
X5927Y38131D01*
X5781Y38019D01*
X4432Y36670D01*
X3330D01*
X2630Y35970D01*
X2553Y35938D01*
X2067Y36424D01*
X1744D01*
Y35270D01*
X1236D01*
Y36424D01*
X913D01*
X757Y36268D01*
X639Y36316D01*
X639Y39845D01*
X757Y39893D01*
X1300Y39350D01*
X2700D01*
X3023Y39673D01*
X3140Y39624D01*
Y39350D01*
X5940D01*
Y42150D01*
X3140D01*
Y41876D01*
X3023Y41827D01*
X2700Y42150D01*
X1300D01*
X757Y41607D01*
X639Y41655D01*
X639Y67624D01*
X766Y67682D01*
X1177Y67321D01*
X1682Y66984D01*
X2226Y66716D01*
X2800Y66521D01*
X3395Y66403D01*
X4000Y66363D01*
X4605Y66403D01*
X5200Y66521D01*
X5774Y66716D01*
X6318Y66984D01*
X6823Y67321D01*
X7279Y67721D01*
X7679Y68177D01*
X8016Y68682D01*
X8284Y69226D01*
X8479Y69800D01*
X8597Y70395D01*
X8637Y71000D01*
X8597Y71605D01*
X8479Y72200D01*
X8284Y72774D01*
X8016Y73318D01*
X7679Y73823D01*
X7318Y74234D01*
X7376Y74361D01*
X62624Y74361D01*
D02*
G37*
G36*
X15188Y31154D02*
X15139Y31036D01*
X11250D01*
X11054Y31011D01*
X10872Y30935D01*
X10715Y30815D01*
X10715Y30815D01*
X5443Y25543D01*
X5356Y25507D01*
X5229Y25575D01*
Y28770D01*
X5194Y29031D01*
X5094Y29274D01*
X4933Y29483D01*
X2930Y31487D01*
X2938Y31543D01*
X3072Y31588D01*
X3330Y31330D01*
X4730D01*
X5300Y31900D01*
X5870Y31330D01*
X7270D01*
X7840Y31900D01*
X8410Y31330D01*
X9810D01*
X10510Y32030D01*
Y33430D01*
X9810Y34130D01*
X9778Y34207D01*
X10264Y34693D01*
Y35016D01*
X9110D01*
Y35524D01*
X10264D01*
Y35847D01*
X10221Y35890D01*
X10265Y36025D01*
X10309Y36032D01*
X15188Y31154D01*
D02*
G37*
G36*
X777Y30787D02*
X3211Y28352D01*
Y24907D01*
X3154Y24804D01*
X2254D01*
Y23650D01*
X2000D01*
Y23396D01*
X846D01*
Y22496D01*
X1120D01*
X1169Y22379D01*
X757Y21967D01*
X639Y22015D01*
X639Y30768D01*
X760Y30809D01*
X777Y30787D01*
D02*
G37*
G36*
X32785Y20625D02*
X32400Y20240D01*
Y19210D01*
X28307Y15117D01*
X28183Y15142D01*
X28136Y15254D01*
X27992Y15442D01*
X27804Y15586D01*
X27585Y15677D01*
X27400Y15701D01*
Y15996D01*
X27605Y16023D01*
X27824Y16114D01*
X28012Y16258D01*
X28156Y16446D01*
X28247Y16665D01*
X28278Y16900D01*
X28247Y17135D01*
X28156Y17354D01*
X28012Y17542D01*
X27824Y17686D01*
X27605Y17777D01*
X27400Y17804D01*
Y18147D01*
X27592Y18172D01*
X27799Y18258D01*
X27976Y18394D01*
X28112Y18571D01*
X28198Y18778D01*
X28227Y19000D01*
X28198Y19222D01*
X28112Y19429D01*
X27976Y19606D01*
X27799Y19742D01*
X27592Y19828D01*
X27400Y19853D01*
Y20250D01*
X25328D01*
X25280Y20367D01*
X25655Y20743D01*
X32737D01*
X32785Y20625D01*
D02*
G37*
%LPC*%
G36*
X49424Y73713D02*
Y73364D01*
X49773D01*
X49741Y73440D01*
X49636Y73576D01*
X49500Y73681D01*
X49424Y73713D01*
D02*
G37*
G36*
X48916D02*
X48840Y73681D01*
X48704Y73576D01*
X48599Y73440D01*
X48567Y73364D01*
X48916D01*
Y73713D01*
D02*
G37*
G36*
X35364D02*
Y73364D01*
X35712D01*
X35681Y73440D01*
X35576Y73576D01*
X35439Y73681D01*
X35364Y73713D01*
D02*
G37*
G36*
X34856D02*
X34780Y73681D01*
X34643Y73576D01*
X34538Y73440D01*
X34507Y73364D01*
X34856D01*
Y73713D01*
D02*
G37*
G36*
X21294D02*
Y73364D01*
X21643D01*
X21611Y73440D01*
X21506Y73576D01*
X21370Y73681D01*
X21294Y73713D01*
D02*
G37*
G36*
X20786D02*
X20710Y73681D01*
X20574Y73576D01*
X20469Y73440D01*
X20437Y73364D01*
X20786D01*
Y73713D01*
D02*
G37*
G36*
X49773Y72856D02*
X49424D01*
Y72507D01*
X49500Y72539D01*
X49636Y72644D01*
X49741Y72780D01*
X49773Y72856D01*
D02*
G37*
G36*
X48916D02*
X48567D01*
X48599Y72780D01*
X48704Y72644D01*
X48840Y72539D01*
X48916Y72507D01*
Y72856D01*
D02*
G37*
G36*
X35712D02*
X35364D01*
Y72507D01*
X35439Y72539D01*
X35576Y72644D01*
X35681Y72780D01*
X35712Y72856D01*
D02*
G37*
G36*
X34856D02*
X34507D01*
X34538Y72780D01*
X34643Y72644D01*
X34780Y72539D01*
X34856Y72507D01*
Y72856D01*
D02*
G37*
G36*
X21643D02*
X21294D01*
Y72507D01*
X21370Y72539D01*
X21506Y72644D01*
X21611Y72780D01*
X21643Y72856D01*
D02*
G37*
G36*
X20786D02*
X20437D01*
X20469Y72780D01*
X20574Y72644D01*
X20710Y72539D01*
X20786Y72507D01*
Y72856D01*
D02*
G37*
G36*
X49424Y71073D02*
Y70724D01*
X49773D01*
X49741Y70800D01*
X49636Y70936D01*
X49500Y71041D01*
X49424Y71073D01*
D02*
G37*
G36*
X48916D02*
X48840Y71041D01*
X48704Y70936D01*
X48599Y70800D01*
X48567Y70724D01*
X48916D01*
Y71073D01*
D02*
G37*
G36*
X35364D02*
Y70724D01*
X35712D01*
X35681Y70800D01*
X35576Y70936D01*
X35439Y71041D01*
X35364Y71073D01*
D02*
G37*
G36*
X34856D02*
X34780Y71041D01*
X34643Y70936D01*
X34538Y70800D01*
X34507Y70724D01*
X34856D01*
Y71073D01*
D02*
G37*
G36*
X21294D02*
Y70724D01*
X21643D01*
X21611Y70800D01*
X21506Y70936D01*
X21370Y71041D01*
X21294Y71073D01*
D02*
G37*
G36*
X20786D02*
X20710Y71041D01*
X20574Y70936D01*
X20469Y70800D01*
X20437Y70724D01*
X20786D01*
Y71073D01*
D02*
G37*
G36*
X39742Y71186D02*
Y69954D01*
X40974D01*
X40970Y69995D01*
X40884Y70278D01*
X40744Y70540D01*
X40556Y70769D01*
X40327Y70957D01*
X40066Y71096D01*
X39783Y71182D01*
X39742Y71186D01*
D02*
G37*
G36*
X39234Y71186D02*
X39193Y71182D01*
X38910Y71096D01*
X38648Y70957D01*
X38419Y70769D01*
X38231Y70540D01*
X38092Y70278D01*
X38006Y69995D01*
X38002Y69954D01*
X39234D01*
Y71186D01*
D02*
G37*
G36*
X53739Y71186D02*
Y69954D01*
X54972D01*
X54968Y69995D01*
X54882Y70278D01*
X54742Y70540D01*
X54554Y70769D01*
X54325Y70957D01*
X54064Y71096D01*
X53780Y71182D01*
X53739Y71186D01*
D02*
G37*
G36*
X25744D02*
Y69954D01*
X26977D01*
X26973Y69995D01*
X26887Y70278D01*
X26747Y70540D01*
X26559Y70769D01*
X26330Y70957D01*
X26069Y71096D01*
X25785Y71182D01*
X25744Y71186D01*
D02*
G37*
G36*
X53231Y71186D02*
X53191Y71182D01*
X52907Y71096D01*
X52646Y70957D01*
X52417Y70769D01*
X52229Y70540D01*
X52089Y70278D01*
X52003Y69995D01*
X51999Y69954D01*
X53231D01*
Y71186D01*
D02*
G37*
G36*
X25236D02*
X25195Y71182D01*
X24912Y71096D01*
X24651Y70957D01*
X24422Y70769D01*
X24234Y70540D01*
X24094Y70278D01*
X24008Y69995D01*
X24004Y69954D01*
X25236D01*
Y71186D01*
D02*
G37*
G36*
X11747Y71186D02*
Y69954D01*
X12979D01*
X12975Y69995D01*
X12889Y70278D01*
X12749Y70540D01*
X12561Y70769D01*
X12332Y70957D01*
X12071Y71096D01*
X11788Y71182D01*
X11747Y71186D01*
D02*
G37*
G36*
X11239Y71186D02*
X11198Y71182D01*
X10914Y71096D01*
X10653Y70957D01*
X10424Y70769D01*
X10236Y70540D01*
X10096Y70278D01*
X10010Y69995D01*
X10006Y69954D01*
X11239D01*
Y71186D01*
D02*
G37*
G36*
X49773Y70216D02*
X49424D01*
Y69867D01*
X49500Y69899D01*
X49636Y70004D01*
X49741Y70140D01*
X49773Y70216D01*
D02*
G37*
G36*
X48916D02*
X48567D01*
X48599Y70140D01*
X48704Y70004D01*
X48840Y69899D01*
X48916Y69867D01*
Y70216D01*
D02*
G37*
G36*
X35712D02*
X35364D01*
Y69867D01*
X35439Y69899D01*
X35576Y70004D01*
X35681Y70140D01*
X35712Y70216D01*
D02*
G37*
G36*
X34856D02*
X34507D01*
X34538Y70140D01*
X34643Y70004D01*
X34780Y69899D01*
X34856Y69867D01*
Y70216D01*
D02*
G37*
G36*
X21643D02*
X21294D01*
Y69867D01*
X21370Y69899D01*
X21506Y70004D01*
X21611Y70140D01*
X21643Y70216D01*
D02*
G37*
G36*
X20786D02*
X20437D01*
X20469Y70140D01*
X20574Y70004D01*
X20710Y69899D01*
X20786Y69867D01*
Y70216D01*
D02*
G37*
G36*
X11239Y69446D02*
X10006D01*
X10010Y69405D01*
X10096Y69122D01*
X10236Y68860D01*
X10424Y68631D01*
X10653Y68443D01*
X10914Y68304D01*
X11198Y68218D01*
X11239Y68214D01*
Y69446D01*
D02*
G37*
G36*
X53231Y69446D02*
X51999D01*
X52003Y69405D01*
X52089Y69122D01*
X52229Y68860D01*
X52417Y68631D01*
X52646Y68443D01*
X52907Y68304D01*
X53191Y68218D01*
X53231Y68214D01*
Y69446D01*
D02*
G37*
G36*
X25236D02*
X24004D01*
X24008Y69405D01*
X24094Y69122D01*
X24234Y68860D01*
X24422Y68631D01*
X24651Y68443D01*
X24912Y68304D01*
X25195Y68218D01*
X25236Y68214D01*
Y69446D01*
D02*
G37*
G36*
X39234Y69446D02*
X38002D01*
X38006Y69405D01*
X38092Y69122D01*
X38231Y68860D01*
X38419Y68631D01*
X38648Y68443D01*
X38910Y68304D01*
X39193Y68218D01*
X39234Y68214D01*
Y69446D01*
D02*
G37*
G36*
X40974D02*
X39742D01*
Y68214D01*
X39783Y68218D01*
X40066Y68304D01*
X40327Y68443D01*
X40556Y68631D01*
X40744Y68860D01*
X40884Y69122D01*
X40970Y69405D01*
X40974Y69446D01*
D02*
G37*
G36*
X54972Y69446D02*
X53739D01*
Y68214D01*
X53780Y68218D01*
X54064Y68304D01*
X54325Y68443D01*
X54554Y68631D01*
X54742Y68860D01*
X54882Y69122D01*
X54968Y69405D01*
X54972Y69446D01*
D02*
G37*
G36*
X26977D02*
X25744D01*
Y68214D01*
X25785Y68218D01*
X26069Y68304D01*
X26330Y68443D01*
X26559Y68631D01*
X26747Y68860D01*
X26887Y69122D01*
X26973Y69405D01*
X26977Y69446D01*
D02*
G37*
G36*
X12979Y69446D02*
X11747D01*
Y68214D01*
X11788Y68218D01*
X12071Y68304D01*
X12332Y68443D01*
X12561Y68631D01*
X12749Y68860D01*
X12889Y69122D01*
X12975Y69405D01*
X12979Y69446D01*
D02*
G37*
G36*
X49424Y68433D02*
Y68084D01*
X49773D01*
X49741Y68160D01*
X49636Y68296D01*
X49500Y68401D01*
X49424Y68433D01*
D02*
G37*
G36*
X48916D02*
X48840Y68401D01*
X48704Y68296D01*
X48599Y68160D01*
X48567Y68084D01*
X48916D01*
Y68433D01*
D02*
G37*
G36*
X35364D02*
Y68084D01*
X35712D01*
X35681Y68160D01*
X35576Y68296D01*
X35439Y68401D01*
X35364Y68433D01*
D02*
G37*
G36*
X34856D02*
X34780Y68401D01*
X34643Y68296D01*
X34538Y68160D01*
X34507Y68084D01*
X34856D01*
Y68433D01*
D02*
G37*
G36*
X21294D02*
Y68084D01*
X21643D01*
X21611Y68160D01*
X21506Y68296D01*
X21370Y68401D01*
X21294Y68433D01*
D02*
G37*
G36*
X20786D02*
X20710Y68401D01*
X20574Y68296D01*
X20469Y68160D01*
X20437Y68084D01*
X20786D01*
Y68433D01*
D02*
G37*
G36*
X49773Y67576D02*
X49424D01*
Y67227D01*
X49500Y67259D01*
X49636Y67364D01*
X49741Y67500D01*
X49773Y67576D01*
D02*
G37*
G36*
X48916D02*
X48567D01*
X48599Y67500D01*
X48704Y67364D01*
X48840Y67259D01*
X48916Y67227D01*
Y67576D01*
D02*
G37*
G36*
X35712D02*
X35364D01*
Y67227D01*
X35439Y67259D01*
X35576Y67364D01*
X35681Y67500D01*
X35712Y67576D01*
D02*
G37*
G36*
X34856D02*
X34507D01*
X34538Y67500D01*
X34643Y67364D01*
X34780Y67259D01*
X34856Y67227D01*
Y67576D01*
D02*
G37*
G36*
X21643D02*
X21294D01*
Y67227D01*
X21370Y67259D01*
X21506Y67364D01*
X21611Y67500D01*
X21643Y67576D01*
D02*
G37*
G36*
X20786D02*
X20437D01*
X20469Y67500D01*
X20574Y67364D01*
X20710Y67259D01*
X20786Y67227D01*
Y67576D01*
D02*
G37*
G36*
X49424Y65793D02*
Y65444D01*
X49773D01*
X49741Y65520D01*
X49636Y65656D01*
X49500Y65761D01*
X49424Y65793D01*
D02*
G37*
G36*
X48916D02*
X48840Y65761D01*
X48704Y65656D01*
X48599Y65520D01*
X48567Y65444D01*
X48916D01*
Y65793D01*
D02*
G37*
G36*
X35364D02*
Y65444D01*
X35712D01*
X35681Y65520D01*
X35576Y65656D01*
X35439Y65761D01*
X35364Y65793D01*
D02*
G37*
G36*
X34856D02*
X34780Y65761D01*
X34643Y65656D01*
X34538Y65520D01*
X34507Y65444D01*
X34856D01*
Y65793D01*
D02*
G37*
G36*
X21294D02*
Y65444D01*
X21643D01*
X21611Y65520D01*
X21506Y65656D01*
X21370Y65761D01*
X21294Y65793D01*
D02*
G37*
G36*
X20786D02*
X20710Y65761D01*
X20574Y65656D01*
X20469Y65520D01*
X20437Y65444D01*
X20786D01*
Y65793D01*
D02*
G37*
G36*
X6604Y65023D02*
Y64674D01*
X6953D01*
X6921Y64750D01*
X6816Y64886D01*
X6680Y64991D01*
X6604Y65023D01*
D02*
G37*
G36*
X6096D02*
X6020Y64991D01*
X5884Y64886D01*
X5779Y64750D01*
X5747Y64674D01*
X6096D01*
Y65023D01*
D02*
G37*
G36*
X4264D02*
Y64674D01*
X4613D01*
X4581Y64750D01*
X4476Y64886D01*
X4340Y64991D01*
X4264Y65023D01*
D02*
G37*
G36*
X3756D02*
X3680Y64991D01*
X3544Y64886D01*
X3439Y64750D01*
X3407Y64674D01*
X3756D01*
Y65023D01*
D02*
G37*
G36*
X1924D02*
Y64674D01*
X2273D01*
X2241Y64750D01*
X2136Y64886D01*
X2000Y64991D01*
X1924Y65023D01*
D02*
G37*
G36*
X1416D02*
X1340Y64991D01*
X1204Y64886D01*
X1099Y64750D01*
X1067Y64674D01*
X1416D01*
Y65023D01*
D02*
G37*
G36*
X68324Y65013D02*
Y64664D01*
X68673D01*
X68641Y64740D01*
X68536Y64876D01*
X68400Y64981D01*
X68324Y65013D01*
D02*
G37*
G36*
X67816D02*
X67740Y64981D01*
X67604Y64876D01*
X67499Y64740D01*
X67467Y64664D01*
X67816D01*
Y65013D01*
D02*
G37*
G36*
X65984D02*
Y64664D01*
X66333D01*
X66301Y64740D01*
X66196Y64876D01*
X66060Y64981D01*
X65984Y65013D01*
D02*
G37*
G36*
X65476D02*
X65400Y64981D01*
X65264Y64876D01*
X65159Y64740D01*
X65127Y64664D01*
X65476D01*
Y65013D01*
D02*
G37*
G36*
X63644D02*
Y64664D01*
X63993D01*
X63961Y64740D01*
X63856Y64876D01*
X63720Y64981D01*
X63644Y65013D01*
D02*
G37*
G36*
X63136D02*
X63060Y64981D01*
X62924Y64876D01*
X62819Y64740D01*
X62787Y64664D01*
X63136D01*
Y65013D01*
D02*
G37*
G36*
X49773Y64936D02*
X49424D01*
Y64587D01*
X49500Y64619D01*
X49636Y64724D01*
X49741Y64860D01*
X49773Y64936D01*
D02*
G37*
G36*
X48916D02*
X48567D01*
X48599Y64860D01*
X48704Y64724D01*
X48840Y64619D01*
X48916Y64587D01*
Y64936D01*
D02*
G37*
G36*
X35712D02*
X35364D01*
Y64587D01*
X35439Y64619D01*
X35576Y64724D01*
X35681Y64860D01*
X35712Y64936D01*
D02*
G37*
G36*
X34856D02*
X34507D01*
X34538Y64860D01*
X34643Y64724D01*
X34780Y64619D01*
X34856Y64587D01*
Y64936D01*
D02*
G37*
G36*
X21643D02*
X21294D01*
Y64587D01*
X21370Y64619D01*
X21506Y64724D01*
X21611Y64860D01*
X21643Y64936D01*
D02*
G37*
G36*
X20786D02*
X20437D01*
X20469Y64860D01*
X20574Y64724D01*
X20710Y64619D01*
X20786Y64587D01*
Y64936D01*
D02*
G37*
G36*
X6953Y64166D02*
X6604D01*
Y63817D01*
X6680Y63849D01*
X6816Y63954D01*
X6921Y64090D01*
X6953Y64166D01*
D02*
G37*
G36*
X6096D02*
X5747D01*
X5779Y64090D01*
X5884Y63954D01*
X6020Y63849D01*
X6096Y63817D01*
Y64166D01*
D02*
G37*
G36*
X4613D02*
X4264D01*
Y63817D01*
X4340Y63849D01*
X4476Y63954D01*
X4581Y64090D01*
X4613Y64166D01*
D02*
G37*
G36*
X3756D02*
X3407D01*
X3439Y64090D01*
X3544Y63954D01*
X3680Y63849D01*
X3756Y63817D01*
Y64166D01*
D02*
G37*
G36*
X2273D02*
X1924D01*
Y63817D01*
X2000Y63849D01*
X2136Y63954D01*
X2241Y64090D01*
X2273Y64166D01*
D02*
G37*
G36*
X1416D02*
X1067D01*
X1099Y64090D01*
X1204Y63954D01*
X1340Y63849D01*
X1416Y63817D01*
Y64166D01*
D02*
G37*
G36*
X68673Y64156D02*
X68324D01*
Y63807D01*
X68400Y63839D01*
X68536Y63944D01*
X68641Y64080D01*
X68673Y64156D01*
D02*
G37*
G36*
X67816D02*
X67467D01*
X67499Y64080D01*
X67604Y63944D01*
X67740Y63839D01*
X67816Y63807D01*
Y64156D01*
D02*
G37*
G36*
X66333D02*
X65984D01*
Y63807D01*
X66060Y63839D01*
X66196Y63944D01*
X66301Y64080D01*
X66333Y64156D01*
D02*
G37*
G36*
X65476D02*
X65127D01*
X65159Y64080D01*
X65264Y63944D01*
X65400Y63839D01*
X65476Y63807D01*
Y64156D01*
D02*
G37*
G36*
X63993D02*
X63644D01*
Y63807D01*
X63720Y63839D01*
X63856Y63944D01*
X63961Y64080D01*
X63993Y64156D01*
D02*
G37*
G36*
X63136D02*
X62787D01*
X62819Y64080D01*
X62924Y63944D01*
X63060Y63839D01*
X63136Y63807D01*
Y64156D01*
D02*
G37*
G36*
X6572Y62473D02*
Y62124D01*
X6921D01*
X6890Y62200D01*
X6785Y62336D01*
X6648Y62441D01*
X6572Y62473D01*
D02*
G37*
G36*
X6064D02*
X5989Y62441D01*
X5852Y62336D01*
X5747Y62200D01*
X5716Y62124D01*
X6064D01*
Y62473D01*
D02*
G37*
G36*
X4158D02*
Y62124D01*
X4507D01*
X4476Y62200D01*
X4371Y62336D01*
X4234Y62441D01*
X4158Y62473D01*
D02*
G37*
G36*
X3650D02*
X3574Y62441D01*
X3438Y62336D01*
X3333Y62200D01*
X3302Y62124D01*
X3650D01*
Y62473D01*
D02*
G37*
G36*
X1744D02*
Y62124D01*
X2093D01*
X2061Y62200D01*
X1956Y62336D01*
X1820Y62441D01*
X1744Y62473D01*
D02*
G37*
G36*
X1236D02*
X1160Y62441D01*
X1024Y62336D01*
X919Y62200D01*
X887Y62124D01*
X1236D01*
Y62473D01*
D02*
G37*
G36*
X68292Y62463D02*
Y62114D01*
X68641D01*
X68610Y62190D01*
X68505Y62326D01*
X68368Y62431D01*
X68292Y62463D01*
D02*
G37*
G36*
X67784D02*
X67709Y62431D01*
X67572Y62326D01*
X67467Y62190D01*
X67436Y62114D01*
X67784D01*
Y62463D01*
D02*
G37*
G36*
X65878D02*
Y62114D01*
X66227D01*
X66196Y62190D01*
X66091Y62326D01*
X65954Y62431D01*
X65878Y62463D01*
D02*
G37*
G36*
X65370D02*
X65294Y62431D01*
X65158Y62326D01*
X65053Y62190D01*
X65022Y62114D01*
X65370D01*
Y62463D01*
D02*
G37*
G36*
X63464D02*
Y62114D01*
X63813D01*
X63781Y62190D01*
X63676Y62326D01*
X63540Y62431D01*
X63464Y62463D01*
D02*
G37*
G36*
X62956D02*
X62880Y62431D01*
X62744Y62326D01*
X62639Y62190D01*
X62607Y62114D01*
X62956D01*
Y62463D01*
D02*
G37*
G36*
X23224Y62179D02*
Y61454D01*
X23949D01*
X23948Y61462D01*
X23847Y61706D01*
X23686Y61916D01*
X23476Y62077D01*
X23232Y62178D01*
X23224Y62179D01*
D02*
G37*
G36*
X53864D02*
Y61454D01*
X54589D01*
X54588Y61462D01*
X54487Y61706D01*
X54326Y61916D01*
X54116Y62077D01*
X53872Y62178D01*
X53864Y62179D01*
D02*
G37*
G36*
X22716Y62179D02*
X22708Y62178D01*
X22464Y62077D01*
X22254Y61916D01*
X22093Y61706D01*
X21992Y61462D01*
X21991Y61454D01*
X22716D01*
Y62179D01*
D02*
G37*
G36*
X53356D02*
X53348Y62178D01*
X53104Y62077D01*
X52894Y61916D01*
X52733Y61706D01*
X52632Y61462D01*
X52631Y61454D01*
X53356D01*
Y62179D01*
D02*
G37*
G36*
X27934Y62204D02*
Y61454D01*
X28584D01*
Y62204D01*
X27934D01*
D02*
G37*
G36*
X41006D02*
X40356D01*
Y61454D01*
X41006D01*
Y62204D01*
D02*
G37*
G36*
X58574D02*
Y61454D01*
X59224D01*
Y62204D01*
X58574D01*
D02*
G37*
G36*
X10386D02*
X9736D01*
Y61454D01*
X10386D01*
Y62204D01*
D02*
G37*
G36*
X6921Y61616D02*
X6572D01*
Y61267D01*
X6648Y61299D01*
X6785Y61404D01*
X6890Y61540D01*
X6921Y61616D01*
D02*
G37*
G36*
X6064D02*
X5716D01*
X5747Y61540D01*
X5852Y61404D01*
X5989Y61299D01*
X6064Y61267D01*
Y61616D01*
D02*
G37*
G36*
X4507D02*
X4158D01*
Y61267D01*
X4234Y61299D01*
X4371Y61404D01*
X4476Y61540D01*
X4507Y61616D01*
D02*
G37*
G36*
X3650D02*
X3302D01*
X3333Y61540D01*
X3438Y61404D01*
X3574Y61299D01*
X3650Y61267D01*
Y61616D01*
D02*
G37*
G36*
X2093D02*
X1744D01*
Y61267D01*
X1820Y61299D01*
X1956Y61404D01*
X2061Y61540D01*
X2093Y61616D01*
D02*
G37*
G36*
X1236D02*
X887D01*
X919Y61540D01*
X1024Y61404D01*
X1160Y61299D01*
X1236Y61267D01*
Y61616D01*
D02*
G37*
G36*
X68641Y61606D02*
X68292D01*
Y61257D01*
X68368Y61289D01*
X68505Y61394D01*
X68610Y61530D01*
X68641Y61606D01*
D02*
G37*
G36*
X67784D02*
X67436D01*
X67467Y61530D01*
X67572Y61394D01*
X67709Y61289D01*
X67784Y61257D01*
Y61606D01*
D02*
G37*
G36*
X66227D02*
X65878D01*
Y61257D01*
X65954Y61289D01*
X66091Y61394D01*
X66196Y61530D01*
X66227Y61606D01*
D02*
G37*
G36*
X65370D02*
X65022D01*
X65053Y61530D01*
X65158Y61394D01*
X65294Y61289D01*
X65370Y61257D01*
Y61606D01*
D02*
G37*
G36*
X63813D02*
X63464D01*
Y61257D01*
X63540Y61289D01*
X63676Y61394D01*
X63781Y61530D01*
X63813Y61606D01*
D02*
G37*
G36*
X62956D02*
X62607D01*
X62639Y61530D01*
X62744Y61394D01*
X62880Y61289D01*
X62956Y61257D01*
Y61606D01*
D02*
G37*
G36*
X53356Y60946D02*
X52631D01*
X52632Y60938D01*
X52733Y60694D01*
X52894Y60484D01*
X53104Y60323D01*
X53348Y60222D01*
X53356Y60221D01*
Y60946D01*
D02*
G37*
G36*
X22716D02*
X21991D01*
X21992Y60938D01*
X22093Y60694D01*
X22254Y60484D01*
X22464Y60323D01*
X22708Y60222D01*
X22716Y60221D01*
Y60946D01*
D02*
G37*
G36*
X54589D02*
X53864D01*
Y60221D01*
X53872Y60222D01*
X54116Y60323D01*
X54326Y60484D01*
X54487Y60694D01*
X54588Y60938D01*
X54589Y60946D01*
D02*
G37*
G36*
X23949D02*
X23224D01*
Y60221D01*
X23232Y60222D01*
X23476Y60323D01*
X23686Y60484D01*
X23847Y60694D01*
X23948Y60938D01*
X23949Y60946D01*
D02*
G37*
G36*
X59224Y60946D02*
X58574D01*
Y60196D01*
X59224D01*
Y60946D01*
D02*
G37*
G36*
X28584Y60946D02*
X27934D01*
Y60196D01*
X28584D01*
Y60946D01*
D02*
G37*
G36*
X41006D02*
X40356D01*
Y60196D01*
X41006D01*
Y60946D01*
D02*
G37*
G36*
X10386Y60946D02*
X9736D01*
Y60196D01*
X10386D01*
Y60946D01*
D02*
G37*
G36*
X20114Y59454D02*
X19364D01*
Y58804D01*
X20114D01*
Y59454D01*
D02*
G37*
G36*
X18856D02*
X18106D01*
Y58804D01*
X18856D01*
Y59454D01*
D02*
G37*
G36*
X50834Y59394D02*
X50084D01*
Y58744D01*
X50834D01*
Y59394D01*
D02*
G37*
G36*
X49576D02*
X48826D01*
Y58744D01*
X49576D01*
Y59394D01*
D02*
G37*
G36*
X64894Y59134D02*
X64144D01*
Y58484D01*
X64894D01*
Y59134D01*
D02*
G37*
G36*
X63636D02*
X62886D01*
Y58484D01*
X63636D01*
Y59134D01*
D02*
G37*
G36*
X33704Y59124D02*
X32954D01*
Y58474D01*
X33704D01*
Y59124D01*
D02*
G37*
G36*
X37334D02*
X36584D01*
Y58474D01*
X37334D01*
Y59124D01*
D02*
G37*
G36*
X6854D02*
X6104D01*
Y58474D01*
X6854D01*
Y59124D01*
D02*
G37*
G36*
X36076D02*
X35326D01*
Y58474D01*
X36076D01*
Y59124D01*
D02*
G37*
G36*
X5596D02*
X4846D01*
Y58474D01*
X5596D01*
Y59124D01*
D02*
G37*
G36*
X32446D02*
X31696D01*
Y58474D01*
X32446D01*
Y59124D01*
D02*
G37*
G36*
X68354Y50433D02*
Y50084D01*
X68703D01*
X68671Y50160D01*
X68566Y50296D01*
X68430Y50401D01*
X68354Y50433D01*
D02*
G37*
G36*
X67846D02*
X67770Y50401D01*
X67634Y50296D01*
X67529Y50160D01*
X67497Y50084D01*
X67846D01*
Y50433D01*
D02*
G37*
G36*
X2274Y49593D02*
Y49244D01*
X2623D01*
X2591Y49320D01*
X2486Y49456D01*
X2350Y49561D01*
X2274Y49593D01*
D02*
G37*
G36*
X1766D02*
X1690Y49561D01*
X1554Y49456D01*
X1449Y49320D01*
X1417Y49244D01*
X1766D01*
Y49593D01*
D02*
G37*
G36*
X68703Y49576D02*
X68354D01*
Y49227D01*
X68430Y49259D01*
X68566Y49364D01*
X68671Y49500D01*
X68703Y49576D01*
D02*
G37*
G36*
X67846D02*
X67497D01*
X67529Y49500D01*
X67634Y49364D01*
X67770Y49259D01*
X67846Y49227D01*
Y49576D01*
D02*
G37*
G36*
X2623Y48736D02*
X2274D01*
Y48387D01*
X2350Y48419D01*
X2486Y48524D01*
X2591Y48660D01*
X2623Y48736D01*
D02*
G37*
G36*
X1766D02*
X1417D01*
X1449Y48660D01*
X1554Y48524D01*
X1690Y48419D01*
X1766Y48387D01*
Y48736D01*
D02*
G37*
G36*
X68354Y48018D02*
Y47670D01*
X68703D01*
X68671Y47746D01*
X68566Y47882D01*
X68430Y47987D01*
X68354Y48018D01*
D02*
G37*
G36*
X67846D02*
X67770Y47987D01*
X67634Y47882D01*
X67529Y47746D01*
X67497Y47670D01*
X67846D01*
Y48018D01*
D02*
G37*
G36*
X2274Y47928D02*
Y47579D01*
X2623D01*
X2591Y47655D01*
X2486Y47791D01*
X2350Y47896D01*
X2274Y47928D01*
D02*
G37*
G36*
X1766D02*
X1690Y47896D01*
X1554Y47791D01*
X1449Y47655D01*
X1417Y47579D01*
X1766D01*
Y47928D01*
D02*
G37*
G36*
X64973Y48499D02*
Y47267D01*
X66205D01*
X66201Y47308D01*
X66115Y47591D01*
X65976Y47852D01*
X65788Y48081D01*
X65559Y48269D01*
X65297Y48409D01*
X65014Y48495D01*
X64973Y48499D01*
D02*
G37*
G36*
X64465D02*
X64424Y48495D01*
X64141Y48409D01*
X63879Y48269D01*
X63650Y48081D01*
X63462Y47852D01*
X63323Y47591D01*
X63237Y47308D01*
X63233Y47267D01*
X64465D01*
Y48499D01*
D02*
G37*
G36*
X5554D02*
Y47267D01*
X6786D01*
X6782Y47308D01*
X6696Y47591D01*
X6557Y47852D01*
X6369Y48081D01*
X6140Y48269D01*
X5878Y48409D01*
X5595Y48495D01*
X5554Y48499D01*
D02*
G37*
G36*
X5046D02*
X5005Y48495D01*
X4722Y48409D01*
X4460Y48269D01*
X4231Y48081D01*
X4043Y47852D01*
X3904Y47591D01*
X3818Y47308D01*
X3814Y47267D01*
X5046D01*
Y48499D01*
D02*
G37*
G36*
X51780Y50030D02*
X51484Y49991D01*
X51208Y49876D01*
X50971Y49694D01*
X50789Y49457D01*
X50674Y49181D01*
X50635Y48885D01*
Y48155D01*
X50674Y47859D01*
X50789Y47583D01*
X50971Y47346D01*
X51208Y47164D01*
X51484Y47049D01*
X51780Y47010D01*
X52076Y47049D01*
X52352Y47164D01*
X52589Y47346D01*
X52771Y47583D01*
X52886Y47859D01*
X52925Y48155D01*
Y48885D01*
X52886Y49181D01*
X52771Y49457D01*
X52589Y49694D01*
X52352Y49876D01*
X52076Y49991D01*
X51780Y50030D01*
D02*
G37*
G36*
X49240D02*
X48944Y49991D01*
X48668Y49876D01*
X48431Y49694D01*
X48249Y49457D01*
X48134Y49181D01*
X48095Y48885D01*
Y48155D01*
X48134Y47859D01*
X48249Y47583D01*
X48431Y47346D01*
X48668Y47164D01*
X48944Y47049D01*
X49240Y47010D01*
X49536Y47049D01*
X49812Y47164D01*
X50049Y47346D01*
X50231Y47583D01*
X50346Y47859D01*
X50385Y48155D01*
Y48885D01*
X50346Y49181D01*
X50231Y49457D01*
X50049Y49694D01*
X49812Y49876D01*
X49536Y49991D01*
X49240Y50030D01*
D02*
G37*
G36*
X46700D02*
X46404Y49991D01*
X46128Y49876D01*
X45891Y49694D01*
X45709Y49457D01*
X45594Y49181D01*
X45555Y48885D01*
Y48155D01*
X45594Y47859D01*
X45709Y47583D01*
X45891Y47346D01*
X46128Y47164D01*
X46404Y47049D01*
X46700Y47010D01*
X46996Y47049D01*
X47272Y47164D01*
X47509Y47346D01*
X47691Y47583D01*
X47806Y47859D01*
X47845Y48155D01*
Y48885D01*
X47806Y49181D01*
X47691Y49457D01*
X47509Y49694D01*
X47272Y49876D01*
X46996Y49991D01*
X46700Y50030D01*
D02*
G37*
G36*
X44160D02*
X43864Y49991D01*
X43588Y49876D01*
X43351Y49694D01*
X43169Y49457D01*
X43054Y49181D01*
X43015Y48885D01*
Y48155D01*
X43054Y47859D01*
X43169Y47583D01*
X43351Y47346D01*
X43588Y47164D01*
X43864Y47049D01*
X44160Y47010D01*
X44456Y47049D01*
X44732Y47164D01*
X44969Y47346D01*
X45151Y47583D01*
X45266Y47859D01*
X45305Y48155D01*
Y48885D01*
X45266Y49181D01*
X45151Y49457D01*
X44969Y49694D01*
X44732Y49876D01*
X44456Y49991D01*
X44160Y50030D01*
D02*
G37*
G36*
X41620D02*
X41324Y49991D01*
X41048Y49876D01*
X40811Y49694D01*
X40629Y49457D01*
X40514Y49181D01*
X40475Y48885D01*
Y48155D01*
X40514Y47859D01*
X40629Y47583D01*
X40811Y47346D01*
X41048Y47164D01*
X41324Y47049D01*
X41620Y47010D01*
X41916Y47049D01*
X42192Y47164D01*
X42429Y47346D01*
X42611Y47583D01*
X42726Y47859D01*
X42765Y48155D01*
Y48885D01*
X42726Y49181D01*
X42611Y49457D01*
X42429Y49694D01*
X42192Y49876D01*
X41916Y49991D01*
X41620Y50030D01*
D02*
G37*
G36*
X39080D02*
X38784Y49991D01*
X38508Y49876D01*
X38271Y49694D01*
X38089Y49457D01*
X37974Y49181D01*
X37935Y48885D01*
Y48155D01*
X37974Y47859D01*
X38089Y47583D01*
X38271Y47346D01*
X38508Y47164D01*
X38784Y47049D01*
X39080Y47010D01*
X39376Y47049D01*
X39652Y47164D01*
X39889Y47346D01*
X40071Y47583D01*
X40186Y47859D01*
X40225Y48155D01*
Y48885D01*
X40186Y49181D01*
X40071Y49457D01*
X39889Y49694D01*
X39652Y49876D01*
X39376Y49991D01*
X39080Y50030D01*
D02*
G37*
G36*
X34000D02*
X33704Y49991D01*
X33428Y49876D01*
X33191Y49694D01*
X33009Y49457D01*
X32894Y49181D01*
X32855Y48885D01*
Y48155D01*
X32894Y47859D01*
X33009Y47583D01*
X33191Y47346D01*
X33428Y47164D01*
X33704Y47049D01*
X34000Y47010D01*
X34296Y47049D01*
X34572Y47164D01*
X34809Y47346D01*
X34991Y47583D01*
X35106Y47859D01*
X35145Y48155D01*
Y48885D01*
X35106Y49181D01*
X34991Y49457D01*
X34809Y49694D01*
X34572Y49876D01*
X34296Y49991D01*
X34000Y50030D01*
D02*
G37*
G36*
X31460D02*
X31164Y49991D01*
X30888Y49876D01*
X30651Y49694D01*
X30469Y49457D01*
X30354Y49181D01*
X30315Y48885D01*
Y48155D01*
X30354Y47859D01*
X30469Y47583D01*
X30651Y47346D01*
X30888Y47164D01*
X31164Y47049D01*
X31460Y47010D01*
X31756Y47049D01*
X32032Y47164D01*
X32269Y47346D01*
X32451Y47583D01*
X32566Y47859D01*
X32605Y48155D01*
Y48885D01*
X32566Y49181D01*
X32451Y49457D01*
X32269Y49694D01*
X32032Y49876D01*
X31756Y49991D01*
X31460Y50030D01*
D02*
G37*
G36*
X28920D02*
X28624Y49991D01*
X28348Y49876D01*
X28111Y49694D01*
X27929Y49457D01*
X27814Y49181D01*
X27775Y48885D01*
Y48155D01*
X27814Y47859D01*
X27929Y47583D01*
X28111Y47346D01*
X28348Y47164D01*
X28624Y47049D01*
X28920Y47010D01*
X29216Y47049D01*
X29492Y47164D01*
X29729Y47346D01*
X29911Y47583D01*
X30026Y47859D01*
X30065Y48155D01*
Y48885D01*
X30026Y49181D01*
X29911Y49457D01*
X29729Y49694D01*
X29492Y49876D01*
X29216Y49991D01*
X28920Y50030D01*
D02*
G37*
G36*
X26380D02*
X26084Y49991D01*
X25808Y49876D01*
X25571Y49694D01*
X25389Y49457D01*
X25274Y49181D01*
X25235Y48885D01*
Y48155D01*
X25274Y47859D01*
X25389Y47583D01*
X25571Y47346D01*
X25808Y47164D01*
X26084Y47049D01*
X26380Y47010D01*
X26676Y47049D01*
X26952Y47164D01*
X27189Y47346D01*
X27371Y47583D01*
X27486Y47859D01*
X27525Y48155D01*
Y48885D01*
X27486Y49181D01*
X27371Y49457D01*
X27189Y49694D01*
X26952Y49876D01*
X26676Y49991D01*
X26380Y50030D01*
D02*
G37*
G36*
X25308Y47303D02*
Y46954D01*
X25657D01*
X25625Y47030D01*
X25520Y47166D01*
X25384Y47271D01*
X25308Y47303D01*
D02*
G37*
G36*
X23840Y50030D02*
X23544Y49991D01*
X23268Y49876D01*
X23031Y49694D01*
X22849Y49457D01*
X22734Y49181D01*
X22695Y48885D01*
Y48155D01*
X22734Y47859D01*
X22849Y47583D01*
X23031Y47346D01*
X23268Y47164D01*
X23544Y47049D01*
X23840Y47010D01*
X24136Y47049D01*
X24412Y47164D01*
X24444Y47188D01*
X24534Y47097D01*
X24483Y47030D01*
X24451Y46954D01*
X24800D01*
Y47303D01*
X24766Y47289D01*
X24686Y47393D01*
X24831Y47583D01*
X24946Y47859D01*
X24985Y48155D01*
Y48885D01*
X24946Y49181D01*
X24831Y49457D01*
X24649Y49694D01*
X24412Y49876D01*
X24136Y49991D01*
X23840Y50030D01*
D02*
G37*
G36*
X68703Y47162D02*
X68354D01*
Y46813D01*
X68430Y46845D01*
X68566Y46949D01*
X68671Y47086D01*
X68703Y47162D01*
D02*
G37*
G36*
X67846D02*
X67497D01*
X67529Y47086D01*
X67634Y46949D01*
X67770Y46845D01*
X67846Y46813D01*
Y47162D01*
D02*
G37*
G36*
X2623Y47071D02*
X2274D01*
Y46722D01*
X2350Y46754D01*
X2486Y46859D01*
X2591Y46995D01*
X2623Y47071D01*
D02*
G37*
G36*
X1766D02*
X1417D01*
X1449Y46995D01*
X1554Y46859D01*
X1690Y46754D01*
X1766Y46722D01*
Y47071D01*
D02*
G37*
G36*
X25657Y46446D02*
X25308D01*
Y46097D01*
X25384Y46129D01*
X25520Y46234D01*
X25625Y46370D01*
X25657Y46446D01*
D02*
G37*
G36*
X24800D02*
X24451D01*
X24483Y46370D01*
X24588Y46234D01*
X24724Y46129D01*
X24800Y46097D01*
Y46446D01*
D02*
G37*
G36*
X2274Y46263D02*
Y45914D01*
X2623D01*
X2591Y45990D01*
X2486Y46126D01*
X2350Y46231D01*
X2274Y46263D01*
D02*
G37*
G36*
X1766D02*
X1690Y46231D01*
X1554Y46126D01*
X1449Y45990D01*
X1417Y45914D01*
X1766D01*
Y46263D01*
D02*
G37*
G36*
X66205Y46759D02*
X64973D01*
Y45526D01*
X65014Y45530D01*
X65297Y45616D01*
X65559Y45756D01*
X65788Y45944D01*
X65976Y46173D01*
X66115Y46434D01*
X66201Y46718D01*
X66205Y46759D01*
D02*
G37*
G36*
X64465D02*
X63233D01*
X63237Y46718D01*
X63323Y46434D01*
X63462Y46173D01*
X63650Y45944D01*
X63879Y45756D01*
X64141Y45616D01*
X64424Y45530D01*
X64465Y45526D01*
Y46759D01*
D02*
G37*
G36*
X6786D02*
X5554D01*
Y45526D01*
X5595Y45530D01*
X5878Y45616D01*
X6140Y45756D01*
X6369Y45944D01*
X6557Y46173D01*
X6696Y46434D01*
X6782Y46718D01*
X6786Y46759D01*
D02*
G37*
G36*
X5046D02*
X3814D01*
X3818Y46718D01*
X3904Y46434D01*
X4043Y46173D01*
X4231Y45944D01*
X4460Y45756D01*
X4722Y45616D01*
X5005Y45530D01*
X5046Y45526D01*
Y46759D01*
D02*
G37*
G36*
X68354Y45604D02*
Y45256D01*
X68703D01*
X68671Y45331D01*
X68566Y45468D01*
X68430Y45573D01*
X68354Y45604D01*
D02*
G37*
G36*
X67846D02*
X67770Y45573D01*
X67634Y45468D01*
X67529Y45331D01*
X67497Y45256D01*
X67846D01*
Y45604D01*
D02*
G37*
G36*
X42804Y45834D02*
Y45084D01*
X43454D01*
Y45834D01*
X42804D01*
D02*
G37*
G36*
X25226D02*
X24576D01*
Y45084D01*
X25226D01*
Y45834D01*
D02*
G37*
G36*
X37994Y45809D02*
Y45084D01*
X38719D01*
X38718Y45092D01*
X38617Y45336D01*
X38456Y45546D01*
X38246Y45707D01*
X38002Y45808D01*
X37994Y45809D01*
D02*
G37*
G36*
X37486D02*
X37478Y45808D01*
X37234Y45707D01*
X37024Y45546D01*
X36863Y45336D01*
X36762Y45092D01*
X36761Y45084D01*
X37486D01*
Y45809D01*
D02*
G37*
G36*
X2623Y45406D02*
X2274D01*
Y45057D01*
X2350Y45089D01*
X2486Y45194D01*
X2591Y45330D01*
X2623Y45406D01*
D02*
G37*
G36*
X1766D02*
X1417D01*
X1449Y45330D01*
X1554Y45194D01*
X1690Y45089D01*
X1766Y45057D01*
Y45406D01*
D02*
G37*
G36*
X68703Y44748D02*
X68354D01*
Y44399D01*
X68430Y44430D01*
X68566Y44535D01*
X68671Y44672D01*
X68703Y44748D01*
D02*
G37*
G36*
X67846D02*
X67497D01*
X67529Y44672D01*
X67634Y44535D01*
X67770Y44430D01*
X67846Y44399D01*
Y44748D01*
D02*
G37*
G36*
X38719Y44576D02*
X37994D01*
Y43851D01*
X38002Y43852D01*
X38246Y43953D01*
X38456Y44114D01*
X38617Y44324D01*
X38718Y44568D01*
X38719Y44576D01*
D02*
G37*
G36*
X37486D02*
X36761D01*
X36762Y44568D01*
X36863Y44324D01*
X37024Y44114D01*
X37234Y43953D01*
X37478Y43852D01*
X37486Y43851D01*
Y44576D01*
D02*
G37*
G36*
X43454Y44576D02*
X42804D01*
Y43826D01*
X43454D01*
Y44576D01*
D02*
G37*
G36*
X25226Y44576D02*
X24576D01*
Y43826D01*
X25226D01*
Y44576D01*
D02*
G37*
G36*
X66469Y53777D02*
X62969D01*
Y51561D01*
X57386Y45978D01*
X47032D01*
X46797Y45947D01*
X46578Y45856D01*
X46390Y45712D01*
X43827Y43149D01*
X43700Y43201D01*
Y43534D01*
X41708D01*
X41600Y43580D01*
Y43718D01*
X41646Y43826D01*
X41727Y43826D01*
X42296D01*
Y44830D01*
Y45834D01*
X41727D01*
X41646Y45834D01*
X41600Y45942D01*
Y46080D01*
X39300D01*
Y43580D01*
X39300D01*
Y43534D01*
X39300D01*
Y43046D01*
X38735D01*
X38632Y43182D01*
X38370Y43382D01*
X38066Y43508D01*
X37740Y43551D01*
X37414Y43508D01*
X37110Y43382D01*
X36848Y43182D01*
X36648Y42920D01*
X36522Y42616D01*
X36479Y42290D01*
X36522Y41964D01*
X36648Y41660D01*
X36848Y41398D01*
X37110Y41198D01*
X37382Y41085D01*
X37382Y41085D01*
Y40955D01*
X37382Y40955D01*
X37110Y40842D01*
X36848Y40642D01*
X36648Y40380D01*
X36522Y40076D01*
X36479Y39750D01*
X36522Y39424D01*
X36648Y39120D01*
X36848Y38858D01*
X37110Y38658D01*
X37281Y38587D01*
X37256Y38460D01*
X36490D01*
Y35960D01*
X38990D01*
Y36454D01*
X39300D01*
Y35960D01*
X43700D01*
Y38370D01*
X43700Y38460D01*
X43700D01*
Y38497D01*
X43700D01*
Y38994D01*
X44010D01*
X44049Y38964D01*
X44267Y38873D01*
X44502Y38842D01*
X44737Y38873D01*
X44956Y38964D01*
X44997Y38995D01*
X47250D01*
Y38602D01*
X49750D01*
Y40902D01*
X49612D01*
X49504Y40948D01*
X49504Y41029D01*
Y41598D01*
X48500D01*
X47496D01*
Y41029D01*
X47496Y40948D01*
X47388Y40902D01*
X47250D01*
Y40508D01*
X44993D01*
X44956Y40536D01*
X44737Y40627D01*
X44502Y40658D01*
X44267Y40627D01*
X44049Y40536D01*
X44010Y40506D01*
X43790D01*
X43700Y40596D01*
X43700Y40997D01*
X43700Y41124D01*
Y41397D01*
X43714Y41416D01*
X43827Y41477D01*
X43995Y41407D01*
X44230Y41376D01*
X44238Y41377D01*
X44246Y41376D01*
X44481Y41407D01*
X44700Y41498D01*
X44888Y41642D01*
X47408Y44162D01*
X57762D01*
X57997Y44193D01*
X58216Y44284D01*
X58404Y44428D01*
X64253Y50277D01*
X66469D01*
Y53777D01*
D02*
G37*
G36*
X62950Y43150D02*
X60450D01*
Y42756D01*
X59883D01*
X59844Y42786D01*
X59625Y42877D01*
X59390Y42908D01*
X59155Y42877D01*
X58936Y42786D01*
X58748Y42642D01*
X58604Y42454D01*
X58513Y42235D01*
X58482Y42000D01*
X58513Y41765D01*
X58604Y41546D01*
X58748Y41358D01*
X58936Y41214D01*
X59155Y41123D01*
X59390Y41092D01*
X59625Y41123D01*
X59844Y41214D01*
X59883Y41244D01*
X60450D01*
Y40656D01*
X59780D01*
X59780Y40656D01*
X59584Y40631D01*
X59402Y40555D01*
X59245Y40435D01*
X59245Y40435D01*
X56467Y37657D01*
X56384Y37712D01*
X56004D01*
Y37354D01*
X56078Y37257D01*
X55995Y37148D01*
X55919Y36966D01*
X55894Y36770D01*
Y29050D01*
X53400D01*
Y28717D01*
X53294Y28646D01*
X53220Y28677D01*
X52985Y28708D01*
X52750Y28677D01*
X52532Y28586D01*
X52344Y28442D01*
X52199Y28254D01*
X52109Y28035D01*
X52078Y27800D01*
X52109Y27565D01*
X52199Y27346D01*
X52344Y27158D01*
X52532Y27014D01*
X52750Y26923D01*
X52985Y26892D01*
X53220Y26923D01*
X53294Y26954D01*
X53400Y26883D01*
Y26407D01*
X53294Y26336D01*
X53220Y26367D01*
X52985Y26398D01*
X52750Y26367D01*
X52532Y26276D01*
X52344Y26132D01*
X52199Y25944D01*
X52109Y25725D01*
X52078Y25490D01*
X52109Y25255D01*
X52199Y25036D01*
X52344Y24848D01*
X52532Y24704D01*
X52750Y24613D01*
X52985Y24582D01*
X53220Y24613D01*
X53294Y24644D01*
X53400Y24573D01*
Y24100D01*
X53294Y24030D01*
X53220Y24060D01*
X52985Y24091D01*
X52750Y24060D01*
X52532Y23970D01*
X52344Y23825D01*
X52199Y23637D01*
X52109Y23418D01*
X52078Y23183D01*
X52109Y22949D01*
X52199Y22730D01*
X52344Y22542D01*
X52532Y22397D01*
X52750Y22307D01*
X52985Y22276D01*
X53220Y22307D01*
X53294Y22337D01*
X53400Y22267D01*
Y21787D01*
X53294Y21716D01*
X53220Y21747D01*
X52985Y21778D01*
X52750Y21747D01*
X52532Y21656D01*
X52344Y21512D01*
X52199Y21324D01*
X52109Y21105D01*
X52078Y20870D01*
X52109Y20635D01*
X52199Y20416D01*
X52344Y20228D01*
X52532Y20084D01*
X52750Y19993D01*
X52985Y19962D01*
X53220Y19993D01*
X53294Y20024D01*
X53400Y19953D01*
Y19484D01*
X53294Y19413D01*
X53220Y19444D01*
X52985Y19475D01*
X52750Y19444D01*
X52532Y19353D01*
X52344Y19209D01*
X52199Y19021D01*
X52109Y18802D01*
X52078Y18567D01*
X52109Y18332D01*
X52199Y18113D01*
X52344Y17925D01*
X52532Y17781D01*
X52750Y17690D01*
X52985Y17659D01*
X53220Y17690D01*
X53294Y17721D01*
X53400Y17650D01*
Y17167D01*
X53294Y17096D01*
X53220Y17127D01*
X52985Y17158D01*
X52750Y17127D01*
X52532Y17036D01*
X52344Y16892D01*
X52199Y16704D01*
X52109Y16485D01*
X52078Y16250D01*
X52109Y16015D01*
X52199Y15796D01*
X52344Y15608D01*
X52532Y15464D01*
X52750Y15373D01*
X52985Y15342D01*
X53220Y15373D01*
X53294Y15404D01*
X53400Y15333D01*
Y15009D01*
X57800D01*
Y15401D01*
X57927Y15453D01*
X59415Y13965D01*
X59415Y13965D01*
X59572Y13845D01*
X59754Y13769D01*
X59950Y13744D01*
X59950Y13744D01*
X60450D01*
Y13350D01*
X62950D01*
Y13744D01*
X63350D01*
Y12750D01*
X66850D01*
Y16250D01*
X66966Y16277D01*
X67056Y16289D01*
X67238Y16365D01*
X67395Y16485D01*
X68765Y17855D01*
X68765Y17855D01*
X68885Y18012D01*
X68961Y18194D01*
X68986Y18390D01*
Y23450D01*
X68986Y23450D01*
X68986Y23450D01*
Y28550D01*
X68986Y28550D01*
X68986Y28550D01*
Y33730D01*
Y38810D01*
Y40580D01*
X68961Y40776D01*
X68885Y40958D01*
X68765Y41115D01*
X67345Y42535D01*
X67188Y42655D01*
X67006Y42731D01*
X66810Y42756D01*
X62950D01*
Y43150D01*
D02*
G37*
G36*
X56004Y43043D02*
Y42694D01*
X56353D01*
X56321Y42770D01*
X56216Y42906D01*
X56080Y43011D01*
X56004Y43043D01*
D02*
G37*
G36*
X55496D02*
X55420Y43011D01*
X55284Y42906D01*
X55179Y42770D01*
X55147Y42694D01*
X55496D01*
Y43043D01*
D02*
G37*
G36*
X53554D02*
Y42694D01*
X53903D01*
X53871Y42770D01*
X53766Y42906D01*
X53630Y43011D01*
X53554Y43043D01*
D02*
G37*
G36*
X53046D02*
X52970Y43011D01*
X52834Y42906D01*
X52729Y42770D01*
X52697Y42694D01*
X53046D01*
Y43043D01*
D02*
G37*
G36*
X35004Y43134D02*
X34254D01*
Y42484D01*
X35004D01*
Y43134D01*
D02*
G37*
G36*
X49504Y42756D02*
X48754D01*
Y42106D01*
X49504D01*
Y42756D01*
D02*
G37*
G36*
X48246D02*
X47496D01*
Y42106D01*
X48246D01*
Y42756D01*
D02*
G37*
G36*
X21344Y42754D02*
X20594D01*
Y42104D01*
X21344D01*
Y42754D01*
D02*
G37*
G36*
X20086D02*
X19336D01*
Y42104D01*
X20086D01*
Y42754D01*
D02*
G37*
G36*
X56353Y42186D02*
X56004D01*
Y41837D01*
X56080Y41869D01*
X56216Y41974D01*
X56321Y42110D01*
X56353Y42186D01*
D02*
G37*
G36*
X55496D02*
X55147D01*
X55179Y42110D01*
X55284Y41974D01*
X55420Y41869D01*
X55496Y41837D01*
Y42186D01*
D02*
G37*
G36*
X53903D02*
X53554D01*
Y41837D01*
X53630Y41869D01*
X53766Y41974D01*
X53871Y42110D01*
X53903Y42186D01*
D02*
G37*
G36*
X53046D02*
X52697D01*
X52729Y42110D01*
X52834Y41974D01*
X52970Y41869D01*
X53046Y41837D01*
Y42186D01*
D02*
G37*
G36*
X56004Y40813D02*
Y40464D01*
X56353D01*
X56321Y40540D01*
X56216Y40676D01*
X56080Y40781D01*
X56004Y40813D01*
D02*
G37*
G36*
X55496D02*
X55420Y40781D01*
X55284Y40676D01*
X55179Y40540D01*
X55147Y40464D01*
X55496D01*
Y40813D01*
D02*
G37*
G36*
X53554D02*
Y40464D01*
X53903D01*
X53871Y40540D01*
X53766Y40676D01*
X53630Y40781D01*
X53554Y40813D01*
D02*
G37*
G36*
X53046D02*
X52970Y40781D01*
X52834Y40676D01*
X52729Y40540D01*
X52697Y40464D01*
X53046D01*
Y40813D01*
D02*
G37*
G36*
X56353Y39956D02*
X56004D01*
Y39607D01*
X56080Y39639D01*
X56216Y39744D01*
X56321Y39880D01*
X56353Y39956D01*
D02*
G37*
G36*
X55496D02*
X55147D01*
X55179Y39880D01*
X55284Y39744D01*
X55420Y39639D01*
X55496Y39607D01*
Y39956D01*
D02*
G37*
G36*
X53903D02*
X53554D01*
Y39607D01*
X53630Y39639D01*
X53766Y39744D01*
X53871Y39880D01*
X53903Y39956D01*
D02*
G37*
G36*
X53046D02*
X52697D01*
X52729Y39880D01*
X52834Y39744D01*
X52970Y39639D01*
X53046Y39607D01*
Y39956D01*
D02*
G37*
G36*
X56004Y38569D02*
Y38220D01*
X56353D01*
X56321Y38296D01*
X56216Y38433D01*
X56080Y38538D01*
X56004Y38569D01*
D02*
G37*
G36*
X55496D02*
X55420Y38538D01*
X55284Y38433D01*
X55179Y38296D01*
X55147Y38220D01*
X55496D01*
Y38569D01*
D02*
G37*
G36*
X53554D02*
Y38220D01*
X53903D01*
X53871Y38296D01*
X53766Y38433D01*
X53630Y38538D01*
X53554Y38569D01*
D02*
G37*
G36*
X53046D02*
X52970Y38538D01*
X52834Y38433D01*
X52729Y38296D01*
X52697Y38220D01*
X53046D01*
Y38569D01*
D02*
G37*
G36*
X1764Y37883D02*
Y37534D01*
X2113D01*
X2081Y37610D01*
X1976Y37746D01*
X1840Y37851D01*
X1764Y37883D01*
D02*
G37*
G36*
X1256D02*
X1180Y37851D01*
X1044Y37746D01*
X939Y37610D01*
X907Y37534D01*
X1256D01*
Y37883D01*
D02*
G37*
G36*
X55496Y37712D02*
X55147D01*
X55179Y37637D01*
X55284Y37500D01*
X55420Y37395D01*
X55496Y37364D01*
Y37712D01*
D02*
G37*
G36*
X53903D02*
X53554D01*
Y37364D01*
X53630Y37395D01*
X53766Y37500D01*
X53871Y37637D01*
X53903Y37712D01*
D02*
G37*
G36*
X53046D02*
X52697D01*
X52729Y37637D01*
X52834Y37500D01*
X52970Y37395D01*
X53046Y37364D01*
Y37712D01*
D02*
G37*
G36*
X2113Y37026D02*
X1764D01*
Y36677D01*
X1840Y36709D01*
X1976Y36814D01*
X2081Y36950D01*
X2113Y37026D01*
D02*
G37*
G36*
X1256D02*
X907D01*
X939Y36950D01*
X1044Y36814D01*
X1180Y36709D01*
X1256Y36677D01*
Y37026D01*
D02*
G37*
G36*
X25154Y35721D02*
Y35372D01*
X25503D01*
X25471Y35448D01*
X25366Y35585D01*
X25230Y35689D01*
X25154Y35721D01*
D02*
G37*
G36*
X24646D02*
X24570Y35689D01*
X24434Y35585D01*
X24329Y35448D01*
X24297Y35372D01*
X24646D01*
Y35721D01*
D02*
G37*
G36*
X25503Y34864D02*
X25154D01*
Y34516D01*
X25230Y34547D01*
X25366Y34652D01*
X25471Y34788D01*
X25503Y34864D01*
D02*
G37*
G36*
X24646D02*
X24297D01*
X24329Y34788D01*
X24434Y34652D01*
X24570Y34547D01*
X24646Y34516D01*
Y34864D01*
D02*
G37*
G36*
X24094Y34502D02*
Y33534D01*
X24737D01*
Y33645D01*
X24706Y33877D01*
X24617Y34093D01*
X24474Y34279D01*
X24288Y34422D01*
X24094Y34502D01*
D02*
G37*
G36*
X23586D02*
X23392Y34422D01*
X23206Y34279D01*
X23063Y34093D01*
X22974Y33877D01*
X22943Y33645D01*
Y33534D01*
X23586D01*
Y34502D01*
D02*
G37*
G36*
X24737Y33026D02*
X24094D01*
Y32058D01*
X24288Y32138D01*
X24474Y32281D01*
X24617Y32467D01*
X24706Y32683D01*
X24737Y32915D01*
Y33026D01*
D02*
G37*
G36*
X23586D02*
X22943D01*
Y32915D01*
X22974Y32683D01*
X23063Y32467D01*
X23206Y32281D01*
X23392Y32138D01*
X23586Y32058D01*
Y33026D01*
D02*
G37*
G36*
X51780Y34790D02*
X51484Y34751D01*
X51208Y34636D01*
X50971Y34454D01*
X50789Y34217D01*
X50674Y33941D01*
X50635Y33645D01*
Y32915D01*
X50674Y32619D01*
X50789Y32343D01*
X50971Y32106D01*
X51208Y31924D01*
X51484Y31809D01*
X51780Y31770D01*
X52076Y31809D01*
X52352Y31924D01*
X52589Y32106D01*
X52771Y32343D01*
X52886Y32619D01*
X52925Y32915D01*
Y33645D01*
X52886Y33941D01*
X52771Y34217D01*
X52589Y34454D01*
X52352Y34636D01*
X52076Y34751D01*
X51780Y34790D01*
D02*
G37*
G36*
X49240D02*
X48944Y34751D01*
X48668Y34636D01*
X48431Y34454D01*
X48249Y34217D01*
X48134Y33941D01*
X48095Y33645D01*
Y32915D01*
X48134Y32619D01*
X48249Y32343D01*
X48431Y32106D01*
X48668Y31924D01*
X48944Y31809D01*
X49240Y31770D01*
X49536Y31809D01*
X49812Y31924D01*
X50049Y32106D01*
X50231Y32343D01*
X50346Y32619D01*
X50385Y32915D01*
Y33645D01*
X50346Y33941D01*
X50231Y34217D01*
X50049Y34454D01*
X49812Y34636D01*
X49536Y34751D01*
X49240Y34790D01*
D02*
G37*
G36*
X46700D02*
X46404Y34751D01*
X46128Y34636D01*
X45891Y34454D01*
X45709Y34217D01*
X45594Y33941D01*
X45555Y33645D01*
Y32915D01*
X45594Y32619D01*
X45709Y32343D01*
X45891Y32106D01*
X46128Y31924D01*
X46404Y31809D01*
X46700Y31770D01*
X46996Y31809D01*
X47272Y31924D01*
X47509Y32106D01*
X47691Y32343D01*
X47806Y32619D01*
X47845Y32915D01*
Y33645D01*
X47806Y33941D01*
X47691Y34217D01*
X47509Y34454D01*
X47272Y34636D01*
X46996Y34751D01*
X46700Y34790D01*
D02*
G37*
G36*
X44160D02*
X43864Y34751D01*
X43588Y34636D01*
X43351Y34454D01*
X43169Y34217D01*
X43054Y33941D01*
X43015Y33645D01*
Y32915D01*
X43054Y32619D01*
X43169Y32343D01*
X43351Y32106D01*
X43588Y31924D01*
X43864Y31809D01*
X44160Y31770D01*
X44456Y31809D01*
X44732Y31924D01*
X44969Y32106D01*
X45151Y32343D01*
X45266Y32619D01*
X45305Y32915D01*
Y33645D01*
X45266Y33941D01*
X45151Y34217D01*
X44969Y34454D01*
X44732Y34636D01*
X44456Y34751D01*
X44160Y34790D01*
D02*
G37*
G36*
X41620D02*
X41324Y34751D01*
X41048Y34636D01*
X40811Y34454D01*
X40629Y34217D01*
X40514Y33941D01*
X40475Y33645D01*
Y32915D01*
X40514Y32619D01*
X40629Y32343D01*
X40811Y32106D01*
X41048Y31924D01*
X41324Y31809D01*
X41620Y31770D01*
X41916Y31809D01*
X42192Y31924D01*
X42429Y32106D01*
X42611Y32343D01*
X42726Y32619D01*
X42765Y32915D01*
Y33645D01*
X42726Y33941D01*
X42611Y34217D01*
X42429Y34454D01*
X42192Y34636D01*
X41916Y34751D01*
X41620Y34790D01*
D02*
G37*
G36*
X21300D02*
X21004Y34751D01*
X20728Y34636D01*
X20491Y34454D01*
X20309Y34217D01*
X20194Y33941D01*
X20155Y33645D01*
Y32915D01*
X20194Y32619D01*
X20309Y32343D01*
X20491Y32106D01*
X20728Y31924D01*
X21004Y31809D01*
X21300Y31770D01*
X21596Y31809D01*
X21872Y31924D01*
X22109Y32106D01*
X22291Y32343D01*
X22406Y32619D01*
X22445Y32915D01*
Y33645D01*
X22406Y33941D01*
X22291Y34217D01*
X22109Y34454D01*
X21872Y34636D01*
X21596Y34751D01*
X21300Y34790D01*
D02*
G37*
G36*
X54754Y30803D02*
Y30454D01*
X55103D01*
X55071Y30530D01*
X54966Y30666D01*
X54830Y30771D01*
X54754Y30803D01*
D02*
G37*
G36*
X54246D02*
X54170Y30771D01*
X54034Y30666D01*
X53929Y30530D01*
X53897Y30454D01*
X54246D01*
Y30803D01*
D02*
G37*
G36*
X39080Y34790D02*
X38784Y34751D01*
X38508Y34636D01*
X38271Y34454D01*
X38089Y34217D01*
X37974Y33941D01*
X37935Y33645D01*
Y32915D01*
X37974Y32619D01*
X38089Y32343D01*
X38271Y32106D01*
X38324Y32065D01*
Y30480D01*
X38339Y30360D01*
X38219Y30301D01*
X37296Y31223D01*
Y32065D01*
X37349Y32106D01*
X37531Y32343D01*
X37646Y32619D01*
X37685Y32915D01*
Y33645D01*
X37646Y33941D01*
X37531Y34217D01*
X37349Y34454D01*
X37112Y34636D01*
X36836Y34751D01*
X36540Y34790D01*
X36244Y34751D01*
X35968Y34636D01*
X35731Y34454D01*
X35549Y34217D01*
X35434Y33941D01*
X35395Y33645D01*
Y32915D01*
X35434Y32619D01*
X35549Y32343D01*
X35731Y32106D01*
X35784Y32065D01*
Y30910D01*
X35792Y30846D01*
X35712Y30766D01*
X35675Y30759D01*
X35508Y30737D01*
X35349Y30671D01*
X35212Y30566D01*
X35107Y30430D01*
X35076Y30354D01*
X35678D01*
Y30100D01*
X35932D01*
Y29497D01*
X36008Y29529D01*
X36145Y29634D01*
X36250Y29770D01*
X36303Y29898D01*
X36433Y29947D01*
X40105Y26275D01*
X40105Y26275D01*
X40262Y26155D01*
X40444Y26079D01*
X40640Y26054D01*
X40640Y26054D01*
X44630D01*
X44826Y26079D01*
X45008Y26155D01*
X45165Y26275D01*
X46207Y27317D01*
X46255Y27323D01*
X46474Y27414D01*
X46662Y27558D01*
X46806Y27746D01*
X46897Y27965D01*
X46928Y28200D01*
X46897Y28435D01*
X46806Y28654D01*
X46662Y28842D01*
X46474Y28986D01*
X46255Y29077D01*
X46020Y29108D01*
X45785Y29077D01*
X45566Y28986D01*
X45378Y28842D01*
X45234Y28654D01*
X45143Y28435D01*
X45137Y28387D01*
X44382Y27631D01*
X44343Y27638D01*
X44312Y27681D01*
X44279Y27777D01*
X44357Y27965D01*
X44388Y28200D01*
X44357Y28435D01*
X44266Y28654D01*
X44122Y28842D01*
X43934Y28986D01*
X43715Y29077D01*
X43480Y29108D01*
X43245Y29077D01*
X43026Y28986D01*
X42987Y28956D01*
X41673D01*
X39836Y30793D01*
Y32065D01*
X39889Y32106D01*
X40071Y32343D01*
X40186Y32619D01*
X40225Y32915D01*
Y33645D01*
X40186Y33941D01*
X40071Y34217D01*
X39889Y34454D01*
X39652Y34636D01*
X39376Y34751D01*
X39080Y34790D01*
D02*
G37*
G36*
X55103Y29946D02*
X54754D01*
Y29597D01*
X54830Y29629D01*
X54966Y29734D01*
X55071Y29870D01*
X55103Y29946D01*
D02*
G37*
G36*
X54246D02*
X53897D01*
X53929Y29870D01*
X54034Y29734D01*
X54170Y29629D01*
X54246Y29597D01*
Y29946D01*
D02*
G37*
G36*
X35424Y29846D02*
X35076D01*
X35107Y29770D01*
X35212Y29634D01*
X35349Y29529D01*
X35424Y29497D01*
Y29846D01*
D02*
G37*
G36*
X48734Y23553D02*
Y23204D01*
X49083D01*
X49051Y23280D01*
X48946Y23416D01*
X48810Y23521D01*
X48734Y23553D01*
D02*
G37*
G36*
X48226D02*
X48150Y23521D01*
X48014Y23416D01*
X47909Y23280D01*
X47877Y23204D01*
X48226D01*
Y23553D01*
D02*
G37*
G36*
X49083Y22696D02*
X48734D01*
Y22347D01*
X48810Y22379D01*
X48946Y22484D01*
X49051Y22620D01*
X49083Y22696D01*
D02*
G37*
G36*
X48226D02*
X47877D01*
X47909Y22620D01*
X48014Y22484D01*
X48150Y22379D01*
X48226Y22347D01*
Y22696D01*
D02*
G37*
G36*
X50154Y22303D02*
Y21954D01*
X50503D01*
X50471Y22030D01*
X50366Y22166D01*
X50230Y22271D01*
X50154Y22303D01*
D02*
G37*
G36*
X49646D02*
X49570Y22271D01*
X49434Y22166D01*
X49329Y22030D01*
X49297Y21954D01*
X49646D01*
Y22303D01*
D02*
G37*
G36*
X50503Y21446D02*
X50154D01*
Y21097D01*
X50230Y21129D01*
X50366Y21234D01*
X50471Y21370D01*
X50503Y21446D01*
D02*
G37*
G36*
X49646D02*
X49297D01*
X49329Y21370D01*
X49434Y21234D01*
X49570Y21129D01*
X49646Y21097D01*
Y21446D01*
D02*
G37*
G36*
X9004Y18103D02*
Y17754D01*
X9353D01*
X9321Y17830D01*
X9216Y17967D01*
X9080Y18071D01*
X9004Y18103D01*
D02*
G37*
G36*
X8496D02*
X8420Y18071D01*
X8284Y17967D01*
X8179Y17830D01*
X8147Y17754D01*
X8496D01*
Y18103D01*
D02*
G37*
G36*
X9353Y17246D02*
X9004D01*
Y16897D01*
X9080Y16929D01*
X9216Y17034D01*
X9321Y17170D01*
X9353Y17246D01*
D02*
G37*
G36*
X8496D02*
X8147D01*
X8179Y17170D01*
X8284Y17034D01*
X8420Y16929D01*
X8496Y16897D01*
Y17246D01*
D02*
G37*
G36*
X20654Y15514D02*
Y14911D01*
X21257D01*
X21177Y15105D01*
X21034Y15291D01*
X20848Y15433D01*
X20654Y15514D01*
D02*
G37*
G36*
X20146D02*
X19952Y15433D01*
X19766Y15291D01*
X19623Y15105D01*
X19543Y14911D01*
X20146D01*
Y15514D01*
D02*
G37*
G36*
X18654D02*
Y14911D01*
X19257D01*
X19177Y15105D01*
X19034Y15291D01*
X18848Y15433D01*
X18654Y15514D01*
D02*
G37*
G36*
X18146D02*
X17952Y15433D01*
X17766Y15291D01*
X17623Y15105D01*
X17543Y14911D01*
X18146D01*
Y15514D01*
D02*
G37*
G36*
X56861Y14703D02*
Y14354D01*
X57210D01*
X57179Y14430D01*
X57074Y14566D01*
X56937Y14671D01*
X56861Y14703D01*
D02*
G37*
G36*
X56353D02*
X56277Y14671D01*
X56141Y14566D01*
X56036Y14430D01*
X56005Y14354D01*
X56353D01*
Y14703D01*
D02*
G37*
G36*
X57210Y13846D02*
X56861D01*
Y13497D01*
X56937Y13529D01*
X57074Y13634D01*
X57179Y13770D01*
X57210Y13846D01*
D02*
G37*
G36*
X56353D02*
X56005D01*
X56036Y13770D01*
X56141Y13634D01*
X56277Y13529D01*
X56353Y13497D01*
Y13846D01*
D02*
G37*
G36*
X56861Y12603D02*
Y12254D01*
X57210D01*
X57179Y12330D01*
X57074Y12466D01*
X56937Y12571D01*
X56861Y12603D01*
D02*
G37*
G36*
X56353D02*
X56277Y12571D01*
X56141Y12466D01*
X56036Y12330D01*
X56005Y12254D01*
X56353D01*
Y12603D01*
D02*
G37*
G36*
X57210Y11746D02*
X56861D01*
Y11397D01*
X56937Y11429D01*
X57074Y11534D01*
X57179Y11670D01*
X57210Y11746D01*
D02*
G37*
G36*
X56353D02*
X56005D01*
X56036Y11670D01*
X56141Y11534D01*
X56277Y11429D01*
X56353Y11397D01*
Y11746D01*
D02*
G37*
G36*
X65649Y10552D02*
Y10203D01*
X65997D01*
X65966Y10279D01*
X65861Y10416D01*
X65725Y10520D01*
X65649Y10552D01*
D02*
G37*
G36*
X65141D02*
X65065Y10520D01*
X64928Y10416D01*
X64823Y10279D01*
X64792Y10203D01*
X65141D01*
Y10552D01*
D02*
G37*
G36*
X65997Y9695D02*
X65649D01*
Y9347D01*
X65725Y9378D01*
X65861Y9483D01*
X65966Y9619D01*
X65997Y9695D01*
D02*
G37*
G36*
X65141D02*
X64792D01*
X64823Y9619D01*
X64928Y9483D01*
X65065Y9378D01*
X65141Y9347D01*
Y9695D01*
D02*
G37*
G36*
X42454Y9454D02*
Y9106D01*
X42803D01*
X42771Y9181D01*
X42666Y9318D01*
X42530Y9423D01*
X42454Y9454D01*
D02*
G37*
G36*
X41946D02*
X41870Y9423D01*
X41734Y9318D01*
X41629Y9181D01*
X41597Y9106D01*
X41946D01*
Y9454D01*
D02*
G37*
G36*
X42803Y8598D02*
X42454D01*
Y8249D01*
X42530Y8280D01*
X42666Y8385D01*
X42771Y8522D01*
X42803Y8598D01*
D02*
G37*
G36*
X41946D02*
X41597D01*
X41629Y8522D01*
X41734Y8385D01*
X41870Y8280D01*
X41946Y8249D01*
Y8598D01*
D02*
G37*
G36*
X35654Y7983D02*
Y7634D01*
X36003D01*
X35971Y7710D01*
X35866Y7846D01*
X35730Y7951D01*
X35654Y7983D01*
D02*
G37*
G36*
X35146D02*
X35070Y7951D01*
X34934Y7846D01*
X34829Y7710D01*
X34797Y7634D01*
X35146D01*
Y7983D01*
D02*
G37*
G36*
X36003Y7126D02*
X35654D01*
Y6777D01*
X35730Y6809D01*
X35866Y6914D01*
X35971Y7050D01*
X36003Y7126D01*
D02*
G37*
G36*
X35146D02*
X34797D01*
X34829Y7050D01*
X34934Y6914D01*
X35070Y6809D01*
X35146Y6777D01*
Y7126D01*
D02*
G37*
G36*
X56861Y6786D02*
Y5554D01*
X58094D01*
X58090Y5595D01*
X58004Y5878D01*
X57864Y6140D01*
X57676Y6369D01*
X57447Y6557D01*
X57186Y6696D01*
X56902Y6782D01*
X56861Y6786D01*
D02*
G37*
G36*
X56353Y6786D02*
X56312Y6782D01*
X56029Y6696D01*
X55768Y6557D01*
X55539Y6369D01*
X55351Y6140D01*
X55211Y5878D01*
X55125Y5595D01*
X55121Y5554D01*
X56353D01*
Y6786D01*
D02*
G37*
G36*
Y5046D02*
X55121D01*
X55125Y5005D01*
X55211Y4722D01*
X55351Y4460D01*
X55539Y4231D01*
X55768Y4043D01*
X56029Y3904D01*
X56312Y3818D01*
X56353Y3814D01*
Y5046D01*
D02*
G37*
G36*
X58094D02*
X56861D01*
Y3814D01*
X56902Y3818D01*
X57186Y3904D01*
X57447Y4043D01*
X57676Y4231D01*
X57864Y4460D01*
X58004Y4722D01*
X58090Y5005D01*
X58094Y5046D01*
D02*
G37*
G36*
X39970Y3900D02*
X37170D01*
Y3626D01*
X37053Y3577D01*
X36730Y3900D01*
X35330D01*
X34630Y3200D01*
Y1800D01*
X35330Y1100D01*
X36730D01*
X37053Y1423D01*
X37170Y1374D01*
Y1100D01*
X39970D01*
Y3900D01*
D02*
G37*
G36*
X32974Y3123D02*
Y2774D01*
X33323D01*
X33291Y2850D01*
X33186Y2986D01*
X33050Y3091D01*
X32974Y3123D01*
D02*
G37*
G36*
X32466D02*
X32390Y3091D01*
X32254Y2986D01*
X32149Y2850D01*
X32117Y2774D01*
X32466D01*
Y3123D01*
D02*
G37*
G36*
X33323Y2266D02*
X32974D01*
Y1917D01*
X33050Y1949D01*
X33186Y2054D01*
X33291Y2190D01*
X33323Y2266D01*
D02*
G37*
G36*
X32466D02*
X32117D01*
X32149Y2190D01*
X32254Y2054D01*
X32390Y1949D01*
X32466Y1917D01*
Y2266D01*
D02*
G37*
G36*
X58754Y2203D02*
Y1854D01*
X59103D01*
X59071Y1930D01*
X58966Y2066D01*
X58830Y2171D01*
X58754Y2203D01*
D02*
G37*
G36*
X58246D02*
X58170Y2171D01*
X58034Y2066D01*
X57929Y1930D01*
X57897Y1854D01*
X58246D01*
Y2203D01*
D02*
G37*
G36*
X56907D02*
Y1854D01*
X57255D01*
X57224Y1930D01*
X57119Y2066D01*
X56983Y2171D01*
X56907Y2203D01*
D02*
G37*
G36*
X56399D02*
X56323Y2171D01*
X56186Y2066D01*
X56082Y1930D01*
X56050Y1854D01*
X56399D01*
Y2203D01*
D02*
G37*
G36*
X55054D02*
Y1854D01*
X55403D01*
X55371Y1930D01*
X55266Y2066D01*
X55130Y2171D01*
X55054Y2203D01*
D02*
G37*
G36*
X54546D02*
X54470Y2171D01*
X54334Y2066D01*
X54229Y1930D01*
X54197Y1854D01*
X54546D01*
Y2203D01*
D02*
G37*
G36*
X59103Y1346D02*
X58754D01*
Y997D01*
X58830Y1029D01*
X58966Y1134D01*
X59071Y1270D01*
X59103Y1346D01*
D02*
G37*
G36*
X58246D02*
X57897D01*
X57929Y1270D01*
X58034Y1134D01*
X58170Y1029D01*
X58246Y997D01*
Y1346D01*
D02*
G37*
G36*
X57255D02*
X56907D01*
Y997D01*
X56983Y1029D01*
X57119Y1134D01*
X57224Y1270D01*
X57255Y1346D01*
D02*
G37*
G36*
X56399D02*
X56050D01*
X56082Y1270D01*
X56186Y1134D01*
X56323Y1029D01*
X56399Y997D01*
Y1346D01*
D02*
G37*
G36*
X55403D02*
X55054D01*
Y997D01*
X55130Y1029D01*
X55266Y1134D01*
X55371Y1270D01*
X55403Y1346D01*
D02*
G37*
G36*
X54546D02*
X54197D01*
X54229Y1270D01*
X54334Y1134D01*
X54470Y1029D01*
X54546Y997D01*
Y1346D01*
D02*
G37*
G36*
X13634Y32453D02*
Y32104D01*
X13983D01*
X13951Y32180D01*
X13846Y32316D01*
X13710Y32421D01*
X13634Y32453D01*
D02*
G37*
G36*
X13126D02*
X13050Y32421D01*
X12914Y32316D01*
X12809Y32180D01*
X12777Y32104D01*
X13126D01*
Y32453D01*
D02*
G37*
G36*
X13983Y31596D02*
X13634D01*
Y31247D01*
X13710Y31279D01*
X13846Y31384D01*
X13951Y31520D01*
X13983Y31596D01*
D02*
G37*
G36*
X13126D02*
X12777D01*
X12809Y31520D01*
X12914Y31384D01*
X13050Y31279D01*
X13126Y31247D01*
Y31596D01*
D02*
G37*
G36*
X2114Y28403D02*
Y28054D01*
X2463D01*
X2431Y28130D01*
X2326Y28266D01*
X2190Y28371D01*
X2114Y28403D01*
D02*
G37*
G36*
X1606D02*
X1530Y28371D01*
X1394Y28266D01*
X1289Y28130D01*
X1257Y28054D01*
X1606D01*
Y28403D01*
D02*
G37*
G36*
X2463Y27546D02*
X2114D01*
Y27197D01*
X2190Y27229D01*
X2326Y27334D01*
X2431Y27470D01*
X2463Y27546D01*
D02*
G37*
G36*
X1606D02*
X1257D01*
X1289Y27470D01*
X1394Y27334D01*
X1530Y27229D01*
X1606Y27197D01*
Y27546D01*
D02*
G37*
G36*
X2054Y26743D02*
Y26394D01*
X2403D01*
X2371Y26470D01*
X2266Y26606D01*
X2130Y26711D01*
X2054Y26743D01*
D02*
G37*
G36*
X1546D02*
X1470Y26711D01*
X1334Y26606D01*
X1229Y26470D01*
X1197Y26394D01*
X1546D01*
Y26743D01*
D02*
G37*
G36*
X2403Y25886D02*
X2054D01*
Y25537D01*
X2130Y25569D01*
X2266Y25674D01*
X2371Y25810D01*
X2403Y25886D01*
D02*
G37*
G36*
X1546D02*
X1197D01*
X1229Y25810D01*
X1334Y25674D01*
X1470Y25569D01*
X1546Y25537D01*
Y25886D01*
D02*
G37*
G36*
X1746Y24804D02*
X846D01*
Y23904D01*
X1746D01*
Y24804D01*
D02*
G37*
G36*
X31254Y20543D02*
Y20194D01*
X31603D01*
X31571Y20270D01*
X31466Y20406D01*
X31330Y20511D01*
X31254Y20543D01*
D02*
G37*
G36*
X30746D02*
X30670Y20511D01*
X30534Y20406D01*
X30429Y20270D01*
X30397Y20194D01*
X30746D01*
Y20543D01*
D02*
G37*
G36*
X31603Y19686D02*
X31254D01*
Y19337D01*
X31330Y19369D01*
X31466Y19474D01*
X31571Y19610D01*
X31603Y19686D01*
D02*
G37*
G36*
X30746D02*
X30397D01*
X30429Y19610D01*
X30534Y19474D01*
X30670Y19369D01*
X30746Y19337D01*
Y19686D01*
D02*
G37*
%LPD*%
D21*
X10640Y53570D02*
D03*
X12740D02*
D03*
X27680D02*
D03*
X25580D02*
D03*
X12740Y56120D02*
D03*
X10640D02*
D03*
X25580D02*
D03*
X27680D02*
D03*
X12740Y58650D02*
D03*
X10640D02*
D03*
X25580D02*
D03*
X27680D02*
D03*
X10640Y61200D02*
D03*
X12740D02*
D03*
X27680D02*
D03*
X25580D02*
D03*
X25480Y37210D02*
D03*
X27580D02*
D03*
X42550D02*
D03*
X40450D02*
D03*
X27580Y39747D02*
D03*
X25480D02*
D03*
X40450D02*
D03*
X42550D02*
D03*
X27580Y42284D02*
D03*
X25480D02*
D03*
X40450D02*
D03*
X42550D02*
D03*
X25480Y44830D02*
D03*
X27580D02*
D03*
X42550D02*
D03*
X40450D02*
D03*
X41260Y53570D02*
D03*
X43360D02*
D03*
X58320D02*
D03*
X56220D02*
D03*
X43360Y56120D02*
D03*
X41260D02*
D03*
X56220D02*
D03*
X58320D02*
D03*
X43360Y58650D02*
D03*
X41260D02*
D03*
X56220D02*
D03*
X58320D02*
D03*
X41260Y61200D02*
D03*
X43360D02*
D03*
X58320D02*
D03*
X56220D02*
D03*
X56650Y23183D02*
D03*
X54550D02*
D03*
Y20875D02*
D03*
X56650D02*
D03*
Y25492D02*
D03*
X54550D02*
D03*
Y18567D02*
D03*
X56650D02*
D03*
Y27800D02*
D03*
X54550D02*
D03*
Y16259D02*
D03*
X56650D02*
D03*
X19930Y45990D02*
D03*
X17830D02*
D03*
X24150Y14800D02*
D03*
X26250D02*
D03*
X24150Y16900D02*
D03*
X26250D02*
D03*
Y19000D02*
D03*
X24150D02*
D03*
D22*
X5850Y56120D02*
D03*
Y58220D02*
D03*
X32700Y56120D02*
D03*
Y58220D02*
D03*
X20340Y39750D02*
D03*
Y41850D02*
D03*
X48500Y39752D02*
D03*
Y41852D02*
D03*
X36330Y56120D02*
D03*
Y58220D02*
D03*
X63890Y56130D02*
D03*
Y58230D02*
D03*
X61700Y31850D02*
D03*
Y29750D02*
D03*
Y36950D02*
D03*
Y34850D02*
D03*
Y42000D02*
D03*
Y39900D02*
D03*
Y16600D02*
D03*
Y14500D02*
D03*
Y21650D02*
D03*
Y19550D02*
D03*
Y26750D02*
D03*
Y24650D02*
D03*
X7000Y12600D02*
D03*
Y10500D02*
D03*
X19110Y58550D02*
D03*
Y56450D02*
D03*
X34000Y42230D02*
D03*
Y40130D02*
D03*
X49830Y58490D02*
D03*
Y56390D02*
D03*
D50*
X44230Y42284D02*
X44246D01*
X42550D02*
X44230D01*
X52985Y16250D02*
X52994Y16259D01*
X54550D01*
X52985Y18567D02*
X54550D01*
X52985Y20870D02*
X52991Y20875D01*
X54550D01*
X52985Y23183D02*
X54550D01*
X52985Y25490D02*
X52987Y25492D01*
X54550D01*
X52985Y27800D02*
X52985Y27800D01*
X54550D01*
X57890Y54840D02*
X58320Y54410D01*
X56657Y54840D02*
X57890D01*
X56220Y55277D02*
X56657Y54840D01*
X27266Y54824D02*
X27680Y54410D01*
X26036Y54824D02*
X27266D01*
X25580Y55280D02*
X26036Y54824D01*
X40447Y38903D02*
Y39750D01*
Y38903D02*
X40857Y38493D01*
X42107D01*
X42550Y38050D01*
X27163Y38493D02*
X27580Y38910D01*
X25937Y38493D02*
X27163D01*
X25480Y38036D02*
X25937Y38493D01*
X7892Y59888D02*
X9130Y58650D01*
X15285Y66100D02*
X16507Y67322D01*
X10581Y66100D02*
X15285D01*
X7892Y63411D02*
X10581Y66100D01*
X7892Y59888D02*
Y63411D01*
X16220Y46510D02*
Y48520D01*
Y46510D02*
X16740Y45990D01*
X17830D01*
X21300Y46490D02*
Y48520D01*
X20800Y45990D02*
X21300Y46490D01*
X19930Y45990D02*
X20800D01*
X5760Y24700D02*
Y24790D01*
X11250Y30280D01*
X27580Y38910D02*
Y39747D01*
X25480Y37210D02*
Y38036D01*
X27650Y31560D02*
Y34740D01*
X30120Y37210D01*
X26370Y30280D02*
X27650Y31560D01*
X11250Y30280D02*
X26370D01*
X27100Y28590D02*
X30190Y31680D01*
X11880Y28590D02*
X27100D01*
X6560Y23270D02*
X11880Y28590D01*
X28180Y27440D02*
X32730Y31990D01*
X12300Y27440D02*
X28180D01*
X7650Y22790D02*
X12300Y27440D01*
X40640Y26810D02*
X44630D01*
X46020Y28200D01*
X39080Y30480D02*
X41360Y28200D01*
X43480D01*
X68230Y38810D02*
Y40580D01*
Y33730D02*
Y38810D01*
X66890Y37470D02*
X68230Y38810D01*
X63200Y37470D02*
X66890D01*
X62680Y36950D02*
X63200Y37470D01*
X61700Y36950D02*
X62680D01*
X68230Y28550D02*
Y33730D01*
X66800Y32300D02*
X68230Y33730D01*
X63020Y32300D02*
X66800D01*
X62570Y31850D02*
X63020Y32300D01*
X61700Y31850D02*
X62570D01*
X68230Y23450D02*
Y28550D01*
X66870Y27190D02*
X68230Y28550D01*
X63160Y27190D02*
X66870D01*
X62720Y26750D02*
X63160Y27190D01*
X61700Y26750D02*
X62720D01*
X68230Y18390D02*
Y23450D01*
X66880Y22100D02*
X68230Y23450D01*
X63240Y22100D02*
X66880D01*
X62790Y21650D02*
X63240Y22100D01*
X61700Y21650D02*
X62790D01*
X66860Y17020D02*
X68230Y18390D01*
X63160Y17020D02*
X66860D01*
X62740Y16600D02*
X63160Y17020D01*
X61700Y16600D02*
X62740D01*
X66810Y42000D02*
X68230Y40580D01*
X61700Y42000D02*
X66810D01*
X59390D02*
X61700D01*
X58320Y53570D02*
Y54410D01*
X56220Y55277D02*
Y56120D01*
X12310Y54840D02*
X12740Y55270D01*
X11070Y54840D02*
X12310D01*
X10640Y54410D02*
X11070Y54840D01*
X12740Y55270D02*
Y56120D01*
X10640Y53570D02*
Y54410D01*
X59900Y56120D02*
X59910Y56130D01*
X63890D01*
X58320Y56120D02*
X58320Y56120D01*
X59900D01*
X58320Y58650D02*
X59900D01*
X41690Y54840D02*
X42920D01*
X41260Y54410D02*
X41690Y54840D01*
X41260Y53570D02*
Y54410D01*
X43360Y55280D02*
Y56120D01*
X42920Y54840D02*
X43360Y55280D01*
X56220Y58650D02*
Y61200D01*
X56210Y58660D02*
X56220Y58650D01*
X53610Y58660D02*
X56210D01*
X53610Y56120D02*
X56220D01*
X56210Y53580D02*
X56220Y53570D01*
X53610Y53580D02*
X56210D01*
X36330Y56120D02*
X39740D01*
X41260D01*
X39740Y58650D02*
X41260D01*
X43360D02*
Y61200D01*
X43360Y61200D01*
X45990D01*
X43360Y56120D02*
X43450D01*
X45990Y58660D01*
X43360Y53570D02*
X43440D01*
X45990Y56120D01*
X5850D02*
X9130D01*
X10640D01*
X9130Y58650D02*
X10640D01*
X12740D02*
Y61200D01*
X12740Y61200D01*
X15350D01*
X12740Y56120D02*
X12810D01*
X15350Y58660D01*
X12800Y53570D02*
X15350Y56120D01*
X12740Y53570D02*
X12800D01*
X25580Y58650D02*
Y61200D01*
X25570Y58660D02*
X25580Y58650D01*
X22970Y58660D02*
X25570D01*
X27680Y56120D02*
X32700D01*
X27680Y53570D02*
Y54410D01*
X25580Y55280D02*
Y56120D01*
X25570Y53580D02*
X25580Y53570D01*
X22970Y53580D02*
X25570D01*
X27680Y58650D02*
X29250D01*
X22970Y56120D02*
X25580D01*
X30190Y34500D02*
X33000Y37310D01*
X32730Y34690D02*
X34750Y36710D01*
X32730Y31990D02*
Y34690D01*
X36540Y47530D02*
Y48520D01*
X31900Y42890D02*
X36540Y47530D01*
X31900Y41530D02*
Y42890D01*
X30120Y39750D02*
X31900Y41530D01*
X23957Y39750D02*
X23960Y39747D01*
X20340Y39750D02*
X23957D01*
X23960Y39747D02*
X25480D01*
X23960Y42284D02*
X25480D01*
X27580D02*
Y44830D01*
X27580Y44830D01*
X30120D01*
X27580Y39747D02*
Y39750D01*
X30120Y42290D01*
X27580Y37210D02*
Y37210D01*
X30120Y39750D01*
X42550Y37210D02*
Y38050D01*
X40450Y42284D02*
Y44830D01*
X44502Y39750D02*
X44504Y39752D01*
X48500D01*
X42553Y39750D02*
X44502D01*
X48495Y39747D02*
X48500Y39752D01*
X40444Y42290D02*
X40450Y42284D01*
X37740Y42290D02*
X40444D01*
X37740Y39750D02*
X40447D01*
X37740Y37210D02*
X40450D01*
X39080Y30480D02*
Y33280D01*
X36540Y30910D02*
X40640Y26810D01*
X36540Y30910D02*
Y33280D01*
X54541Y16250D02*
X54550Y16259D01*
X54545Y20870D02*
X54550Y20875D01*
X54548Y25490D02*
X54550Y25492D01*
X59510Y28970D02*
X60290Y29750D01*
X59510Y25140D02*
Y28970D01*
X57553Y23183D02*
X59510Y25140D01*
X60820Y24650D02*
X61700D01*
X60150Y23980D02*
X60820Y24650D01*
X60150Y22450D02*
Y23980D01*
X58140Y26240D02*
Y33550D01*
X57392Y25492D02*
X58140Y26240D01*
X56650Y25492D02*
X57392D01*
X56650Y23183D02*
X57553D01*
X58575Y20875D02*
X60150Y22450D01*
X56650Y20875D02*
X58575D01*
X59950Y14500D02*
X61700D01*
X58191Y16259D02*
X59950Y14500D01*
X56650Y16259D02*
X58191D01*
X59790Y19550D02*
X61700D01*
X58807Y18567D02*
X59790Y19550D01*
X56650Y18567D02*
X58807D01*
X60290Y29750D02*
X61700D01*
X59440Y34850D02*
X61700D01*
X58140Y33550D02*
X59440Y34850D01*
X59780Y39900D02*
X61700D01*
X56650Y36770D02*
X59780Y39900D01*
X56650Y27800D02*
Y36770D01*
X61700Y39900D02*
X65100D01*
X65070Y34850D02*
X65100Y34820D01*
X61700Y34850D02*
X65070D01*
X65090Y29750D02*
X65100Y29740D01*
X61700Y29750D02*
X65090D01*
Y24650D02*
X65100Y24660D01*
X61700Y24650D02*
X65090D01*
X61700Y19550D02*
X61730Y19580D01*
X65100D01*
X61700Y14500D02*
X65100D01*
X6560Y19940D02*
Y23270D01*
X30190Y31680D02*
Y34500D01*
X13400Y11250D02*
X13510Y11140D01*
X15020D01*
X30480Y11140D01*
X33800Y14460D01*
X29050Y12250D02*
X33800Y17000D01*
X14930Y12250D02*
X29050D01*
X13280Y13900D02*
X14930Y12250D01*
X27420Y13160D02*
X33800Y19540D01*
X16340Y13160D02*
X27420D01*
X9600Y19900D02*
X16340Y13160D01*
D51*
X36470Y9710D02*
X38100Y11340D01*
X34700Y9710D02*
X36470D01*
X12450D02*
X34700D01*
X9560Y12600D02*
X12450Y9710D01*
X38100Y11340D02*
Y20600D01*
X37100Y21600D02*
X38100Y20600D01*
X25300Y21600D02*
X37100D01*
X24150Y20450D02*
X25300Y21600D01*
X24150Y19000D02*
Y20450D01*
Y16900D02*
Y19000D01*
X7000Y12600D02*
X9560D01*
D52*
X15810Y31530D02*
X18110D01*
X10550Y36790D02*
X15810Y31530D01*
X8090Y36790D02*
X10550D01*
X16220Y33280D02*
Y34390D01*
X13090Y37520D02*
X16220Y34390D01*
X6280Y37520D02*
X13090D01*
X18760Y32180D02*
Y33280D01*
X18110Y31530D02*
X18760Y32180D01*
X4030Y35270D02*
X6280Y37520D01*
X6570Y35270D02*
X8090Y36790D01*
X7000Y10500D02*
X8750D01*
X26250Y14800D02*
X27350D01*
X26250Y19000D02*
X27330D01*
X27370Y16900D02*
X27370Y16900D01*
X26250Y16900D02*
X27370D01*
D53*
X33970Y5320D02*
X44410D01*
X6886Y8050D02*
X31240D01*
X4220Y10716D02*
Y28770D01*
X1490Y31500D02*
X4220Y28770D01*
X1490Y31500D02*
Y32730D01*
X46070Y2500D02*
Y3660D01*
X44410Y5320D02*
X46070Y3660D01*
X31240Y8050D02*
X33970Y5320D01*
X4220Y10716D02*
X6886Y8050D01*
D54*
X47990Y12300D02*
Y15210D01*
X37320Y25880D02*
X47990Y15210D01*
X13580Y25880D02*
X37320D01*
D55*
X47032Y45070D02*
X57762D01*
X44246Y42284D02*
X47032Y45070D01*
X16507Y67322D02*
Y69700D01*
X45990Y53580D02*
X48120Y51450D01*
X56220D01*
X37460Y51710D02*
X44120D01*
X29750D02*
X37460D01*
X49830Y55050D02*
Y56390D01*
X48360Y53580D02*
X49830Y55050D01*
X45990Y53580D02*
X48360D01*
X44120Y51710D02*
X45990Y53580D01*
X16220Y48520D02*
X19410Y51710D01*
X29750D01*
X19110Y55430D02*
Y56450D01*
X17260Y53580D02*
X19110Y55430D01*
X15350Y53580D02*
X17260D01*
X15350D02*
X16220Y52710D01*
Y48520D02*
Y52710D01*
X29250Y58650D02*
X30505Y59905D01*
Y69700D01*
X38770Y63968D02*
X44502Y69700D01*
X38770Y59620D02*
Y63968D01*
Y59620D02*
X39740Y58650D01*
X59900D02*
X61180Y59930D01*
Y67020D01*
X58500Y69700D02*
X61180Y67020D01*
X33040Y40130D02*
X34000D01*
X30120Y37210D02*
X33040Y40130D01*
X12997Y44330D02*
X21914D01*
X5300Y52027D02*
X12997Y44330D01*
X21914D02*
X23960Y42284D01*
X42550Y39747D02*
X42553Y39750D01*
X57762Y45070D02*
X64719Y52027D01*
D56*
X16220Y33280D02*
D03*
X18760D02*
D03*
X21300D02*
D03*
X23840D02*
D03*
X26380D02*
D03*
X28920D02*
D03*
X31460D02*
D03*
X34000D02*
D03*
X36540D02*
D03*
X39080D02*
D03*
X41620D02*
D03*
X44160D02*
D03*
X16220Y48520D02*
D03*
X18760D02*
D03*
X21300D02*
D03*
X36540D02*
D03*
X39080D02*
D03*
X41620D02*
D03*
X44160D02*
D03*
X51780D02*
D03*
Y33280D02*
D03*
X49240D02*
D03*
X46700D02*
D03*
X49240Y48520D02*
D03*
X46700D02*
D03*
X23840D02*
D03*
X34000D02*
D03*
X31460D02*
D03*
X28920D02*
D03*
X26380D02*
D03*
D57*
X2000Y10950D02*
D03*
Y13490D02*
D03*
Y16030D02*
D03*
Y18570D02*
D03*
Y21110D02*
D03*
X9110Y35270D02*
D03*
Y32730D02*
D03*
X6570Y35270D02*
D03*
Y32730D02*
D03*
X4030Y35270D02*
D03*
Y32730D02*
D03*
X1490Y35270D02*
D03*
D58*
X2000Y23650D02*
D03*
D59*
X1490Y32730D02*
D03*
D60*
X36340Y14460D02*
D03*
D61*
X33800D02*
D03*
X36340Y17000D02*
D03*
X33800D02*
D03*
X36340Y19540D02*
D03*
X33800D02*
D03*
X36030Y2500D02*
D03*
X2000Y40750D02*
D03*
X46070Y2500D02*
D03*
D62*
X38570D02*
D03*
X4540Y40750D02*
D03*
X43530Y2500D02*
D03*
D63*
X15350Y61200D02*
D03*
Y58660D02*
D03*
Y56120D02*
D03*
Y53580D02*
D03*
X22970Y61200D02*
D03*
Y58660D02*
D03*
Y56120D02*
D03*
X30120Y44830D02*
D03*
Y42290D02*
D03*
Y39750D02*
D03*
Y37210D02*
D03*
X37740Y44830D02*
D03*
Y42290D02*
D03*
Y39750D02*
D03*
X45990Y61200D02*
D03*
Y58660D02*
D03*
Y56120D02*
D03*
Y53580D02*
D03*
X53610Y61200D02*
D03*
Y58660D02*
D03*
Y56120D02*
D03*
D64*
X22970Y53580D02*
D03*
X37740Y37210D02*
D03*
X53610Y53580D02*
D03*
D65*
X4000Y71000D02*
D03*
X66000D02*
D03*
Y4000D02*
D03*
X4000D02*
D03*
D66*
X11493Y69700D02*
D03*
X25490D02*
D03*
X5300Y47013D02*
D03*
X64719D02*
D03*
X39488Y69700D02*
D03*
X53485D02*
D03*
X65100Y19580D02*
D03*
Y24660D02*
D03*
Y29740D02*
D03*
Y34820D02*
D03*
Y39900D02*
D03*
X56607Y5300D02*
D03*
D67*
X16507Y69700D02*
D03*
X30505D02*
D03*
X44502D02*
D03*
X58500D02*
D03*
X65100Y14500D02*
D03*
X51593Y5300D02*
D03*
D68*
X5300Y52027D02*
D03*
X64719D02*
D03*
D69*
X35400Y7380D02*
D03*
X47990Y12300D02*
D03*
X52985Y27800D02*
D03*
X49900Y21700D02*
D03*
X56607Y12000D02*
D03*
X65395Y9949D02*
D03*
X54800Y1600D02*
D03*
X56653D02*
D03*
X58500D02*
D03*
X31000Y19940D02*
D03*
X8750Y17500D02*
D03*
X24900Y35118D02*
D03*
X54500Y30200D02*
D03*
X56607Y14100D02*
D03*
X55750Y37966D02*
D03*
X53300D02*
D03*
X55750Y40210D02*
D03*
X53300D02*
D03*
Y42440D02*
D03*
X55750D02*
D03*
X25054Y46700D02*
D03*
X5760Y24700D02*
D03*
X68100Y49830D02*
D03*
Y47416D02*
D03*
Y45002D02*
D03*
X63390Y64410D02*
D03*
X65730D02*
D03*
X68070D02*
D03*
X63210Y61860D02*
D03*
X65624D02*
D03*
X68038D02*
D03*
X49170Y65190D02*
D03*
Y67830D02*
D03*
Y70470D02*
D03*
Y73110D02*
D03*
X35110Y65190D02*
D03*
Y67830D02*
D03*
Y70470D02*
D03*
Y73110D02*
D03*
X21040Y65190D02*
D03*
Y67830D02*
D03*
Y70470D02*
D03*
Y73110D02*
D03*
X6318Y61870D02*
D03*
X3904D02*
D03*
X1490D02*
D03*
X6350Y64420D02*
D03*
X4010D02*
D03*
X1670D02*
D03*
X2020Y45660D02*
D03*
Y47325D02*
D03*
Y48990D02*
D03*
X13380Y31850D02*
D03*
X1510Y37280D02*
D03*
X1800Y26140D02*
D03*
X1860Y27800D02*
D03*
X42200Y8852D02*
D03*
X34700Y9710D02*
D03*
X32720Y2520D02*
D03*
X35678Y30100D02*
D03*
X48480Y22950D02*
D03*
X46020Y28200D02*
D03*
X43480D02*
D03*
X59390Y42000D02*
D03*
X56220Y51450D02*
D03*
X37460Y51710D02*
D03*
X29750D02*
D03*
X59900Y56120D02*
D03*
Y58650D02*
D03*
X39740Y56120D02*
D03*
Y58650D02*
D03*
X9130Y56120D02*
D03*
Y58650D02*
D03*
X29250Y56120D02*
D03*
Y58650D02*
D03*
X33000Y37310D02*
D03*
X34750Y36710D02*
D03*
X23960Y39747D02*
D03*
Y42284D02*
D03*
X44502Y39750D02*
D03*
X44230Y42284D02*
D03*
X52985Y16250D02*
D03*
Y18567D02*
D03*
Y20870D02*
D03*
Y23183D02*
D03*
Y25490D02*
D03*
X6560Y19940D02*
D03*
X7650Y22790D02*
D03*
X13400Y11250D02*
D03*
X9600Y19900D02*
D03*
X13280Y13900D02*
D03*
X8750Y10500D02*
D03*
X27350Y14800D02*
D03*
X27370Y16900D02*
D03*
D70*
X20400Y14657D02*
D03*
X18400D02*
D03*
X13580Y25880D02*
D03*
D71*
X27370Y19000D02*
D03*
D72*
X48793Y2500D02*
X51593Y5300D01*
X46070Y2500D02*
X48793D01*
M02*
